<?xml version="1.0" encoding="utf-8"?>
<!-- Generator: Adobe Illustrator 23.1.0, SVG Export Plug-In . SVG Version: 6.00 Build 0)  -->
<svg version="1.1" id="Layer_1" xmlns="http://www.w3.org/2000/svg" xmlns:xlink="http://www.w3.org/1999/xlink" x="0px" y="0px"
	 viewBox="0 0 768 1024" style="enable-background:new 0 0 768 1024;" xml:space="preserve">
<style type="text/css">
	.st0{fill:none;}
	.st1{fill:#F2F2F2;}
	.st2{opacity:0.66;}
	.st3{fill:none;stroke:#E5E6E6;stroke-width:5.0025;stroke-miterlimit:10;}
	.st4{fill:#D0D2D3;}
	.st5{fill:#BCBDBF;}
	.st6{fill:#E5E6E6;}
	.st7{fill:none;stroke:#E5E6E6;stroke-width:7.5037;stroke-miterlimit:10;}
	.st8{opacity:5.000000e-02;fill:#231F20;enable-background:new    ;}
	.st9{fill:#E6E7E8;}
	.st10{fill:#009147;}
	.st11{fill:#04592E;}
	.st12{fill:none;stroke:#009147;stroke-width:1.1541;stroke-miterlimit:10;stroke-dasharray:5.7718,5.7718;}
	.st13{fill:#F2F3F3;}
	.st14{fill:#DBDCDD;}
	.st15{fill:#FFFFFF;}
	.st16{fill:#929497;}
	.st17{fill:#58595B;}
	.st18{fill:#2E3191;}
	.st19{fill:#FFF100;}
	.st20{fill:#6D6E70;}
</style>
<rect class="st0" width="768" height="1024"/>
<rect class="st0" width="768" height="1024"/>
<rect class="st0" width="768" height="1024"/>
<rect class="st0" width="768" height="1024"/>
<rect class="st0" width="768" height="1024"/>
<rect class="st0" width="768" height="1024"/>
<g>
	<g>
		<g>
			<circle class="st1" cx="201.1" cy="83.1" r="5"/>
			<circle class="st1" cx="266.6" cy="115.8" r="4.6"/>
			<circle class="st1" cx="417.9" cy="73.6" r="6.9"/>
			<circle class="st1" cx="428.4" cy="156" r="3.7"/>
			<circle class="st1" cx="122.8" cy="115.6" r="4.5"/>
			<circle class="st1" cx="652.5" cy="93.1" r="6.3"/>
			<circle class="st1" cx="698.1" cy="135.3" r="2.5"/>
			<circle class="st1" cx="698.1" cy="52.8" r="2.5"/>
		</g>
		<circle class="st1" cx="662.4" cy="105.4" r="1.9"/>
		<circle class="st1" cx="703.9" cy="148.3" r="5"/>
		<circle class="st1" cx="729.6" cy="99.4" r="6"/>
		<circle class="st1" cx="625.6" cy="180.8" r="4.5"/>
		<circle class="st1" cx="552.8" cy="121.5" r="3.8"/>
		<circle class="st1" cx="489.2" cy="111.5" r="4.2"/>
		<circle class="st1" cx="564.2" cy="84.5" r="3.1"/>
		<g>
			<circle class="st1" cx="61.4" cy="751.7" r="1.9"/>
			<circle class="st1" cx="102.9" cy="794.6" r="5"/>
			<circle class="st1" cx="128.6" cy="745.7" r="6"/>
			<circle class="st1" cx="209" cy="764" r="10.4"/>
			<circle class="st1" cx="168.4" cy="827.2" r="4.6"/>
			<circle class="st1" cx="277.9" cy="720.3" r="3.4"/>
			<circle class="st1" cx="319.7" cy="785" r="6.9"/>
			<circle class="st1" cx="330.3" cy="867.4" r="3.7"/>
			<circle class="st1" cx="24.6" cy="827.1" r="4.5"/>
			<circle class="st1" cx="554.3" cy="804.6" r="6.3"/>
			<circle class="st1" cx="600" cy="846.7" r="2.5"/>
			<circle class="st1" cx="600" cy="764.2" r="2.5"/>
		</g>
		<g>
			<circle class="st1" cx="206.1" cy="258.7" r="1.9"/>
			<circle class="st1" cx="247.6" cy="301.6" r="5"/>
			<circle class="st1" cx="273.3" cy="252.7" r="6"/>
			<circle class="st1" cx="353.6" cy="271" r="10.4"/>
			<circle class="st1" cx="313.1" cy="334.2" r="4.6"/>
			<circle class="st1" cx="422.5" cy="227.3" r="3.4"/>
			<circle class="st1" cx="464.4" cy="292" r="6.9"/>
			<circle class="st1" cx="474.9" cy="374.4" r="3.7"/>
			<circle class="st1" cx="169.2" cy="334.1" r="4.5"/>
			<circle class="st1" cx="96.4" cy="274.8" r="3.8"/>
			<circle class="st1" cx="32.9" cy="264.8" r="4.2"/>
			<circle class="st1" cx="107.9" cy="237.9" r="3.1"/>
			<circle class="st1" cx="699" cy="311.6" r="6.3"/>
			<circle class="st1" cx="744.6" cy="353.7" r="2.5"/>
			<circle class="st1" cx="744.6" cy="271.2" r="2.5"/>
		</g>
		<circle class="st1" cx="377" cy="600.9" r="1.9"/>
		<circle class="st1" cx="418.6" cy="643.8" r="5"/>
		<circle class="st1" cx="444.2" cy="594.9" r="6"/>
		<circle class="st1" cx="484.1" cy="676.4" r="4.6"/>
		<circle class="st1" cx="593.5" cy="569.5" r="3.4"/>
		<circle class="st1" cx="635.4" cy="634.2" r="6.9"/>
		<circle class="st1" cx="645.9" cy="716.6" r="3.7"/>
		<circle class="st1" cx="340.2" cy="676.3" r="4.5"/>
		<circle class="st1" cx="267.4" cy="617" r="3.8"/>
		<circle class="st1" cx="203.9" cy="607" r="4.2"/>
		<circle class="st1" cx="278.9" cy="580.1" r="3.1"/>
		<circle class="st1" cx="286.3" cy="451.7" r="1.9"/>
		<circle class="st1" cx="327.8" cy="494.6" r="5"/>
		<circle class="st1" cx="353.5" cy="445.7" r="6"/>
		<circle class="st1" cx="393.3" cy="527.3" r="4.6"/>
		<circle class="st1" cx="502.8" cy="420.4" r="3.4"/>
		<circle class="st1" cx="544.6" cy="485.1" r="6.9"/>
		<circle class="st1" cx="555.1" cy="567.5" r="3.7"/>
		<circle class="st1" cx="249.5" cy="527.1" r="4.5"/>
		<circle class="st1" cx="176.7" cy="467.8" r="3.8"/>
		<path class="st1" d="M117.3,457.9c0,2.3-1.9,4.2-4.2,4.2s-4.2-1.9-4.2-4.2s1.9-4.2,4.2-4.2S117.3,455.6,117.3,457.9"/>
		<circle class="st1" cx="188.1" cy="430.9" r="3.1"/>
	</g>
	<g class="st2">
		<g>
			<polyline class="st3" points="505.4,238.4 510.8,247.7 516.3,257.1 505.4,257.1 494.6,257.1 			"/>
			
				<rect x="410.6" y="147.1" transform="matrix(0.4977 -0.8673 0.8673 0.4977 36.0303 493.0924)" class="st4" width="66.4" height="136.6"/>
			<polygon class="st4" points="486.5,278.3 367.9,210.3 401,152.7 			"/>
		</g>
		<g>
			<polyline class="st3" points="581.7,307.2 576.3,297.8 570.8,288.4 581.7,288.4 592.5,288.3 			"/>
			
				<rect x="610.2" y="261.8" transform="matrix(0.4977 -0.8673 0.8673 0.4977 36.8774 723.8292)" class="st4" width="66.4" height="136.6"/>
			<polygon class="st4" points="600.6,267.3 686.1,392.8 567.6,324.8 			"/>
		</g>
		
			<rect x="513.1" y="295.6" transform="matrix(0.4977 -0.8673 0.8673 0.4977 -8.7281 608.6311)" class="st5" width="16" height="32.5"/>
		
			<rect x="505" y="242.3" transform="matrix(0.4977 -0.8673 0.8673 0.4977 35.2125 608.3868)" class="st6" width="75.8" height="62.9"/>
		
			<ellipse transform="matrix(0.2358 -0.9718 0.9718 0.2358 210.3429 727.8752)" class="st7" cx="568" cy="230.2" rx="12.6" ry="12.6"/>
		<g>
			<g>
				
					<rect x="503.4" y="300.8" transform="matrix(0.5163 -0.8564 0.8564 0.5163 -43.0404 596.9797)" class="st5" width="7.1" height="71.5"/>
				<path class="st5" d="M513,372.1l0.8-7.1c-7-0.9-13.6-3.1-19.7-6.8c-5.9-3.6-10.8-8.1-14.8-13.6l-5.8,4.2
					c4.5,6.3,10.2,11.5,16.9,15.5C497.4,368.5,505,371.1,513,372.1z"/>
				<path class="st5" d="M452.4,348.3l-5.8,4.2c8.7,12.1,19.7,22.3,32.7,30.1c13.4,8.1,28.2,13.2,43.6,15.1l0.8-7.1
					c-14.5-1.7-28.3-6.6-40.9-14.2C470.9,369.2,460.6,359.7,452.4,348.3z"/>
			</g>
		</g>
	</g>
	<g>
		<ellipse class="st8" cx="456" cy="930.1" rx="200.4" ry="64.3"/>
		<g>
			<g>
				<g>
					<g>
						<g>
							<path class="st9" d="M518.2,531.6c0,0-4.3,41.9,59.3,63.3C577.4,595,585.5,544.1,518.2,531.6z"/>
						</g>
						<g>
							<path class="st9" d="M518.3,593.3c0,0-4.3,41.9,59.3,63.3C577.5,656.5,585.6,605.7,518.3,593.3z"/>
						</g>
						<g>
							<path class="st9" d="M517.8,651.8c0,0-4.3,41.9,59.3,63.3C577.1,715.2,585.1,664.2,517.8,651.8z"/>
						</g>
					</g>
					<g>
						<path class="st9" d="M641.1,532.2c0-0.5-1.2-0.7-1.7-0.5c-18.4,2.4-37.7,8.7-49.8,23.6c-6.9,8.4-10.9,19-11.5,29.9
							c-0.1,2.2-0.2,4.5,0.1,6.5c0.1,0.6,1.2,0.6,1.6,0.5c17.9-5.1,36.1-13.2,48.5-27.7c6.4-7.6,11.2-16.9,12.5-26.9
							C641,536,641.2,534.1,641.1,532.2z"/>
						<path class="st9" d="M641.2,590.3c0-0.4-1-0.5-1.6-0.3c-18.4,2.5-37.7,8.7-49.8,23.6c-6.9,8.4-10.9,19-11.6,29.9
							c-0.1,2.2-0.2,4.5,0.1,6.6c0.1,0.5,1.2,0.4,1.5,0.3c18-5.1,36.1-13.2,48.5-27.6c6.5-7.6,11.2-16.9,12.6-27
							C641.1,594.2,641.3,592.2,641.2,590.3z"/>
						<path class="st9" d="M639.4,651.7c0-0.3-0.8-0.4-1.4-0.2c-18.5,2.5-37.9,8.8-50,23.7c-6.9,8.4-10.9,19-11.5,29.9
							c-0.1,2.2-0.2,4.5,0.1,6.6c0.1,0.4,1.1,0.3,1.3,0.2c18-5.1,36.4-13.3,48.8-27.8c6.4-7.6,11.2-16.9,12.6-26.9
							C639.3,655.5,639.5,653.6,639.4,651.7z"/>
						<path class="st9" d="M638.2,710.6c0-0.4-0.9-0.7-1.5-0.7h-0.1c0,0,0,0-0.1,0l0,0c-18.5,2.4-38,8.8-50,23.9
							c-6.8,8.4-10.7,19-11.3,29.8c-0.1,2.2-0.2,4.4,0.1,6.5c0.1,0.5,1.3,0.7,1.7,0.6c18-5.1,36.3-13.3,48.6-27.9
							c6.3-7.5,11-16.8,12.3-26.7C638.1,714.3,638.3,712.4,638.2,710.6z"/>
					</g>
					<rect x="574.6" y="530.3" class="st9" width="4.6" height="398.9"/>
					<g>
						<path class="st9" d="M519.6,473.6c0,0-4.3,41.9,59.3,63.3C578.8,536.8,586.9,486,519.6,473.6z"/>
					</g>
				</g>
				<g>
					<g>
						<g>
							<path class="st9" d="M463.3,706.7c0,0-2.4,23.5,33.2,35.5C496.5,742.2,500.9,713.7,463.3,706.7z"/>
						</g>
						<g>
							<path class="st9" d="M463.4,741.2c0,0-2.4,23.5,33.2,35.5C496.5,776.6,500.9,748.2,463.4,741.2z"/>
						</g>
						<g>
							<path class="st9" d="M463.1,774c0,0-2.4,23.5,33.2,35.5C496.3,809.4,500.8,780.9,463.1,774z"/>
						</g>
					</g>
					<g>
						<path class="st9" d="M532.1,707c0-0.3-0.7-0.4-1-0.3c-10.3,1.4-21.1,4.9-27.8,13.2c-3.9,4.8-6,10.7-6.4,16.7
							c-0.1,1.2-0.1,2.5,0,3.7c0,0.3,0.7,0.4,0.9,0.3c10.1-2.8,20.2-7.4,27.2-15.5c3.6-4.3,6.2-9.4,7-15.1
							C532,709.1,532.1,708.1,532.1,707z"/>
						<path class="st9" d="M532.1,739.6c0-0.2-0.6-0.3-0.9-0.2c-10.3,1.4-21.1,4.9-27.8,13.2c-3.9,4.8-6.1,10.7-6.4,16.7
							c-0.1,1.2-0.1,2.5,0,3.8c0,0.3,0.7,0.2,0.8,0.2c10.1-2.8,20.2-7.4,27.2-15.5c3.7-4.3,6.3-9.5,7-15.1
							C532.1,741.7,532.2,740.6,532.1,739.6z"/>
						<path class="st9" d="M531.1,773.9c0-0.2-0.5-0.2-0.8-0.1c-10.4,1.4-21.2,5-28,13.3c-3.9,4.8-6,10.7-6.4,16.7
							c-0.1,1.2-0.1,2.5,0,3.8c0,0.2,0.6,0.2,0.7,0.1c10.1-2.8,20.3-7.4,27.2-15.6c3.7-4.3,6.2-9.4,7-15.1
							C531.1,776.1,531.2,775,531.1,773.9z"/>
						<path class="st9" d="M530.5,806.9c0-0.2-0.5-0.4-0.8-0.4l0,0l0,0l0,0c-10.4,1.4-21.2,5-28,13.4c-3.8,4.8-5.9,10.6-6.3,16.6
							c-0.1,1.2-0.1,2.5,0.1,3.7c0,0.3,0.7,0.4,1,0.3c10.1-2.8,20.3-7.4,27.2-15.7c3.6-4.3,6.1-9.4,6.8-15
							C530.4,809,530.5,807.9,530.5,806.9z"/>
					</g>
					<rect x="494.8" y="706" class="st9" width="2.6" height="223.3"/>
					<g>
						<path class="st9" d="M464.1,674.2c0,0-2.4,23.5,33.2,35.5C497.3,709.6,501.7,681.2,464.1,674.2z"/>
					</g>
				</g>
				<g>
					<g>
						<g>
							<path class="st9" d="M310.8,665c0,0-2.8,27.8,39.3,42C350.1,707.1,355.5,673.3,310.8,665z"/>
						</g>
						<g>
							<path class="st9" d="M310.8,705.9c0,0-2.8,27.8,39.3,42C350.1,748.1,355.5,714.3,310.8,705.9z"/>
						</g>
						<g>
							<path class="st9" d="M310.5,744.9c0,0-2.8,27.8,39.3,42C349.8,787,355.2,753.2,310.5,744.9z"/>
						</g>
					</g>
					<g>
						<path class="st9" d="M392.3,665.4c0-0.3-0.8-0.4-1.1-0.3c-12.3,1.6-25.1,5.8-33.1,15.7c-4.6,5.6-7.2,12.7-7.6,19.8
							c-0.1,1.5-0.1,3,0.1,4.4c0,0.4,0.8,0.4,1.1,0.3c12-3.4,24-8.8,32.2-18.4c4.3-5.1,7.4-11.2,8.3-17.8
							C392.3,667.9,392.4,666.7,392.3,665.4z"/>
						<path class="st9" d="M392.4,704.1c0-0.3-0.7-0.3-1.1-0.2c-12.3,1.6-25,5.8-33.1,15.7c-4.7,5.6-7.2,12.7-7.7,19.9
							c-0.1,1.5-0.1,3,0.1,4.5c0,0.3,0.8,0.3,1,0.2c12-3.4,24-8.8,32.2-18.3c4.4-5.1,7.4-11.3,8.4-17.8
							C392.3,706.5,392.5,705.2,392.4,704.1z"/>
						<path class="st9" d="M391.3,744.9c0-0.2-0.6-0.3-0.9-0.1c-12.3,1.6-25.2,5.8-33.3,15.8c-4.6,5.6-7.2,12.7-7.6,19.9
							c-0.1,1.5-0.1,3,0.1,4.5c0,0.3,0.7,0.2,0.9,0.1c12-3.4,24.2-8.8,32.4-18.5c4.3-5.1,7.4-11.2,8.3-17.8
							C391.2,747.4,391.4,746.1,391.3,744.9z"/>
						<path class="st9" d="M390.5,784c0-0.2-0.6-0.5-1-0.4c0,0,0,0-0.1,0l0,0l0,0c-12.3,1.6-25.2,5.8-33.3,15.9
							c-4.6,5.6-7.1,12.6-7.5,19.8c-0.1,1.4-0.1,2.9,0.1,4.4c0,0.4,0.9,0.5,1.1,0.4c12-3.4,24.1-8.8,32.3-18.5
							c4.3-5.1,7.3-11.2,8.1-17.7C390.5,786.4,390.6,785.2,390.5,784z"/>
					</g>
					<rect x="348.2" y="664.2" class="st9" width="3.1" height="265.1"/>
					<g>
						<path class="st9" d="M311.7,626.5c0,0-2.8,27.8,39.3,42C351,668.5,356.4,634.7,311.7,626.5z"/>
					</g>
				</g>
				<g>
					<g>
						<g>
							<path class="st9" d="M376.9,665c0,0-2.8,27.8,39.3,42C416.3,707.1,421.6,673.3,376.9,665z"/>
						</g>
						<g>
							<path class="st9" d="M377,705.9c0,0-2.8,27.8,39.3,42C416.3,748.1,421.7,714.3,377,705.9z"/>
						</g>
						<g>
							<path class="st9" d="M376.7,744.9c0,0-2.8,27.8,39.3,42C416,787,421.4,753.2,376.7,744.9z"/>
						</g>
					</g>
					<g>
						<path class="st9" d="M458.5,665.4c0-0.3-0.8-0.4-1.1-0.3c-12.3,1.6-25.1,5.8-33.1,15.7c-4.6,5.6-7.2,12.7-7.6,19.8
							c-0.1,1.5-0.1,3,0.1,4.4c0,0.4,0.8,0.4,1.1,0.3c12-3.4,24-8.8,32.2-18.4c4.3-5.1,7.4-11.2,8.3-17.8
							C458.4,667.9,458.6,666.7,458.5,665.4z"/>
						<path class="st9" d="M458.6,704.1c0-0.3-0.7-0.3-1.1-0.2c-12.3,1.6-25,5.8-33.1,15.7c-4.7,5.6-7.2,12.7-7.7,19.9
							c-0.1,1.5-0.1,3,0.1,4.5c0,0.3,0.8,0.3,1,0.2c12-3.4,24-8.8,32.2-18.3c4.4-5.1,7.4-11.3,8.4-17.8
							C458.5,706.5,458.6,705.2,458.6,704.1z"/>
						<path class="st9" d="M457.4,744.9c0-0.2-0.6-0.3-0.9-0.1c-12.3,1.6-25.2,5.8-33.3,15.8c-4.6,5.6-7.2,12.7-7.6,19.9
							c-0.1,1.5-0.1,3,0.1,4.5c0,0.3,0.7,0.2,0.9,0.1c12-3.4,24.2-8.8,32.4-18.5c4.3-5.1,7.4-11.2,8.3-17.8
							C457.3,747.4,457.5,746.1,457.4,744.9z"/>
						<path class="st9" d="M456.7,784c0-0.2-0.6-0.5-1-0.4c0,0,0,0-0.1,0l0,0l0,0c-12.3,1.6-25.2,5.8-33.3,15.9
							c-4.6,5.6-7.1,12.6-7.5,19.8c-0.1,1.4-0.1,2.9,0.1,4.4c0,0.4,0.9,0.5,1.1,0.4c12-3.4,24.1-8.8,32.3-18.5
							c4.3-5.1,7.3-11.2,8.1-17.7C456.6,786.4,456.7,785.2,456.7,784z"/>
					</g>
					<rect x="414.3" y="664.2" class="st9" width="3.1" height="265.1"/>
					<g>
						<path class="st9" d="M377.9,626.5c0,0-2.8,27.8,39.3,42C417.2,668.5,422.5,634.7,377.9,626.5z"/>
					</g>
				</g>
				<g>
					<g>
						<g>
							<path class="st10" d="M403.1,564.7c0,0-3.9,38.4,54.3,58.1C457.4,622.8,464.8,576.2,403.1,564.7z"/>
						</g>
						<g>
							<path class="st10" d="M403.1,621.2c0,0-3.9,38.4,54.3,58.1C457.4,679.3,464.8,632.6,403.1,621.2z"/>
						</g>
						<g>
							<path class="st10" d="M402.8,674.9c0,0-3.9,38.4,54.3,58.1C457.1,733,464.4,686.3,402.8,674.9z"/>
						</g>
					</g>
					<g>
						<path class="st10" d="M515.7,565.3c0-0.4-1.1-0.6-1.6-0.5c-16.8,2.2-34.5,8-45.7,21.6c-6.3,7.7-9.9,17.4-10.5,27.4
							c-0.1,2-0.2,4.1,0.1,6c0.1,0.5,1.1,0.6,1.5,0.5c16.4-4.6,33.1-12.1,44.4-25.4c5.9-6.9,10.2-15.5,11.5-24.6
							C515.6,568.7,515.8,567,515.7,565.3z"/>
						<path class="st10" d="M515.8,618.5c0-0.4-0.9-0.5-1.5-0.3c-16.9,2.3-34.5,8-45.7,21.6c-6.3,7.7-10,17.4-10.6,27.4
							c-0.1,2-0.2,4.1,0.1,6.1c0.1,0.5,1.1,0.4,1.4,0.3c16.4-4.6,33.1-12.1,44.5-25.4c5.9-6.9,10.3-15.6,11.6-24.7
							C515.7,622,515.9,620.3,515.8,618.5z"/>
						<path class="st10" d="M514.1,674.9c0-0.3-0.8-0.3-1.3-0.2c-16.9,2.3-34.7,8-45.9,21.7c-6.3,7.7-10,17.4-10.6,27.4
							c-0.1,2-0.2,4.1,0.1,6.1c0,0.4,1,0.3,1.2,0.2c16.5-4.7,33.3-12.2,44.7-25.5c5.9-6.9,10.2-15.5,11.5-24.7
							C514.1,678.4,514.3,676.6,514.1,674.9z"/>
						<path class="st10" d="M513,728.8c0-0.3-0.8-0.6-1.3-0.6h-0.1l0,0l0,0c-17,2.2-34.8,8-45.9,21.9c-6.2,7.7-9.8,17.4-10.3,27.3
							c-0.1,2-0.2,4,0.1,5.9c0.1,0.5,1.2,0.7,1.6,0.6c16.5-4.7,33.3-12.2,44.5-25.7c5.8-6.9,10.1-15.5,11.3-24.5
							C513,732.2,513.1,730.5,513,728.8z"/>
					</g>
					<rect x="454.8" y="563.6" class="st10" width="4.3" height="365.6"/>
					<g>
						<path class="st10" d="M404.4,511.5c0,0-3.9,38.4,54.3,58.1C458.7,569.5,466.1,522.9,404.4,511.5z"/>
					</g>
				</g>
				<g>
					<g>
						<g>
							<path class="st11" d="M333.7,640.6c0,0-3.6,35.4,50,53.4C383.6,694.1,390.5,651.1,333.7,640.6z"/>
						</g>
						<g>
							<path class="st11" d="M333.7,692.7c0,0-3.6,35.4,50,53.4C383.7,746.1,390.5,703.2,333.7,692.7z"/>
						</g>
						<g>
							<path class="st11" d="M333.3,742.1c0,0-3.6,35.4,50,53.4C383.3,795.5,390.1,752.6,333.3,742.1z"/>
						</g>
					</g>
					<g>
						<path class="st11" d="M437.3,641.1c0-0.4-1-0.6-1.4-0.4c-15.6,2.1-31.8,7.3-42,19.9c-5.8,7.1-9.1,16.1-9.7,25.3
							c-0.1,1.8-0.2,3.8,0.1,5.5c0.1,0.5,1,0.5,1.4,0.4c15.2-4.3,30.5-11.2,40.9-23.4c5.4-6.4,9.4-14.3,10.6-22.7
							C437.2,644.3,437.4,642.7,437.3,641.1z"/>
						<path class="st11" d="M437.4,690.2c0-0.4-0.9-0.4-1.4-0.3c-15.6,2.1-31.8,7.3-42,19.9c-5.8,7.1-9.2,16.1-9.8,25.3
							c-0.1,1.9-0.2,3.8,0.1,5.6c0.1,0.4,1,0.4,1.3,0.3c15.2-4.3,30.4-11.1,40.9-23.4c5.4-6.4,9.5-14.3,10.7-22.7
							C437.3,693.5,437.5,691.8,437.4,690.2z"/>
						<path class="st11" d="M435.9,742.1c0-0.3-0.7-0.3-1.2-0.2c-15.7,2.1-31.9,7.4-42.2,20c-5.8,7.1-9.2,16.1-9.7,25.3
							c-0.1,1.9-0.2,3.8,0.1,5.6c0,0.4,0.9,0.2,1.1,0.2c15.3-4.3,30.6-11.2,41.1-23.5c5.4-6.4,9.4-14.3,10.6-22.7
							C435.8,745.3,436,743.6,435.9,742.1z"/>
						<path class="st11" d="M434.9,791.8c0-0.3-0.8-0.6-1.2-0.6c0,0,0,0-0.1,0l0,0l0,0c-15.7,2.1-32,7.4-42.2,20.1
							c-5.7,7.1-9,16.1-9.5,25.2c-0.1,1.8-0.1,3.7,0.1,5.5c0.1,0.5,1.1,0.6,1.4,0.5c15.3-4.3,30.6-11.2,41-23.6
							c5.4-6.4,9.3-14.2,10.4-22.5C434.9,794.8,435,793.2,434.9,791.8z"/>
					</g>
					<rect x="381.2" y="639.6" class="st11" width="3.9" height="289.6"/>
					<g>
						<path class="st11" d="M334.8,591.6c0,0-3.6,35.4,50,53.4C384.8,645.1,391.6,602.1,334.8,591.6z"/>
					</g>
				</g>
				<g>
					<g>
						<g>
							<path class="st10" d="M288.7,719.4c0,0-2.3,22.1,31.3,33.4C319.9,752.8,324.2,726,288.7,719.4z"/>
						</g>
						<g>
							<path class="st10" d="M288.7,751.9c0,0-2.3,22.1,31.3,33.4C320,785.3,324.2,758.5,288.7,751.9z"/>
						</g>
						<g>
							<path class="st10" d="M288.5,782.8c0,0-2.3,22.1,31.3,33.4C319.7,816.2,324,789.4,288.5,782.8z"/>
						</g>
					</g>
					<g>
						<path class="st10" d="M353.5,719.7c0-0.3-0.6-0.4-0.9-0.3c-9.7,1.3-19.9,4.7-26.3,12.5c-3.7,4.5-5.7,10-6,15.8
							c-0.1,1.2-0.1,2.3,0,3.5c0,0.3,0.7,0.3,0.9,0.3c9.5-2.7,19-6.9,25.6-14.7c3.4-4,5.8-8.9,6.6-14.2
							C353.4,721.7,353.6,720.7,353.5,719.7z"/>
						<path class="st10" d="M353.5,750.3c0-0.2-0.5-0.3-0.8-0.2c-9.7,1.3-19.8,4.7-26.3,12.4c-3.7,4.5-5.7,10.1-6.1,15.9
							c-0.1,1.2-0.1,2.4,0,3.6c0,0.3,0.6,0.2,0.8,0.2c9.5-2.7,19-6.9,25.6-14.6c3.5-4,5.9-8.9,6.6-14.2
							C353.5,752.4,353.6,751.3,353.5,750.3z"/>
						<path class="st10" d="M352.6,782.8c0-0.2-0.4-0.2-0.7-0.1c-9.8,1.3-20,4.7-26.5,12.5c-3.7,4.5-5.7,10-6,15.8
							c-0.1,1.2-0.1,2.4,0,3.6c0,0.2,0.6,0.1,0.7,0.1c9.5-2.7,19.2-7,25.8-14.7c3.5-4.1,5.9-8.9,6.6-14.2
							C352.6,784.8,352.7,783.8,352.6,782.8z"/>
						<path class="st10" d="M352,813.8c0-0.2-0.5-0.4-0.8-0.3l0,0l0,0l0,0c-9.8,1.3-20,4.7-26.5,12.6c-3.6,4.5-5.6,10-5.9,15.8
							c-0.1,1.1-0.1,2.3,0.1,3.5c0,0.3,0.7,0.4,0.9,0.3c9.5-2.7,19.1-7,25.7-14.8c3.4-4,5.8-8.9,6.4-14.1
							C351.9,815.8,352,814.8,352,813.8z"/>
					</g>
					<rect x="318.4" y="718.7" class="st10" width="2.4" height="210.6"/>
					<g>
						<path class="st10" d="M289.4,688.7c0,0-2.3,22.1,31.3,33.4C320.7,722.1,324.9,695.3,289.4,688.7z"/>
					</g>
				</g>
				<g>
					<g>
						<g>
							<path class="st10" d="M631.9,719.4c0,0,2.3,22.1-31.3,33.4C600.6,752.8,596.4,726,631.9,719.4z"/>
						</g>
						<g>
							<path class="st10" d="M631.8,751.9c0,0,2.3,22.1-31.3,33.4C600.6,785.3,596.4,758.5,631.8,751.9z"/>
						</g>
						<g>
							<path class="st10" d="M632.1,782.8c0,0,2.3,22.1-31.3,33.4C600.8,816.2,596.7,789.4,632.1,782.8z"/>
						</g>
					</g>
					<g>
						<path class="st10" d="M567.1,719.7c0-0.3,0.6-0.4,0.9-0.3c9.7,1.3,19.9,4.7,26.3,12.5c3.7,4.5,5.7,10,6,15.8
							c0.1,1.2,0.1,2.3,0,3.5c0,0.3-0.7,0.3-0.9,0.3c-9.5-2.7-19-6.9-25.6-14.7c-3.4-4-5.8-8.9-6.6-14.2
							C567.1,721.7,567,720.7,567.1,719.7z"/>
						<path class="st10" d="M567,750.3c0-0.2,0.5-0.3,0.8-0.2c9.7,1.3,19.8,4.7,26.3,12.4c3.7,4.5,5.7,10.1,6.1,15.9
							c0.1,1.2,0.1,2.4,0,3.6c0,0.3-0.6,0.2-0.8,0.2c-9.5-2.7-19-6.9-25.6-14.6c-3.5-4-5.9-8.9-6.6-14.2
							C567,752.4,566.9,751.3,567,750.3z"/>
						<path class="st10" d="M567.9,782.8c0-0.2,0.4-0.2,0.7-0.1c9.8,1.3,20,4.7,26.5,12.5c3.7,4.5,5.7,10,6,15.8
							c0.1,1.2,0.1,2.4,0,3.6c0,0.2-0.6,0.1-0.7,0.1c-9.5-2.7-19.2-7-25.8-14.7c-3.5-4.1-5.9-8.9-6.6-14.2
							C568,784.8,567.9,783.8,567.9,782.8z"/>
						<path class="st10" d="M568.6,813.8c0-0.2,0.5-0.4,0.8-0.3l0,0l0,0l0,0c9.8,1.3,20,4.7,26.5,12.6c3.6,4.5,5.6,10,5.9,15.8
							c0.1,1.1,0.1,2.3-0.1,3.5c0,0.3-0.7,0.4-0.9,0.3c-9.5-2.7-19.1-7-25.7-14.8c-3.4-4-5.8-8.9-6.4-14.1
							C568.6,815.8,568.5,814.8,568.6,813.8z"/>
					</g>
					<rect x="599.8" y="718.7" class="st10" width="2.4" height="210.6"/>
					<g>
						<path class="st10" d="M631.2,688.7c0,0,2.3,22.1-31.3,33.4C599.9,722.1,595.7,695.3,631.2,688.7z"/>
					</g>
				</g>
				<g>
					<g>
						<g>
							<path class="st11" d="M576.4,663.4c0,0,2.9,28-39.6,42.3C536.8,705.7,531.5,671.8,576.4,663.4z"/>
						</g>
						<g>
							<path class="st11" d="M576.4,704.6c0,0,2.9,28-39.6,42.3C536.7,747,531.4,713,576.4,704.6z"/>
						</g>
						<g>
							<path class="st11" d="M576.7,743.8c0,0,2.9,28-39.6,42.3C537,786.1,531.7,752.1,576.7,743.8z"/>
						</g>
					</g>
					<g>
						<path class="st11" d="M494.3,663.8c0-0.3,0.8-0.4,1.1-0.3c12.3,1.6,25.2,5.8,33.3,15.8c4.6,5.6,7.2,12.7,7.7,20
							c0.1,1.5,0.1,3-0.1,4.4c0,0.4-0.8,0.4-1.1,0.3c-12-3.4-24.2-8.8-32.4-18.5c-4.4-5.1-7.4-11.3-8.3-17.9
							C494.3,666.3,494.2,665.1,494.3,663.8z"/>
						<path class="st11" d="M494.2,702.7c0-0.3,0.7-0.3,1.1-0.2c12.3,1.6,25.2,5.8,33.3,15.8c4.7,5.6,7.3,12.8,7.7,20
							c0.1,1.5,0.1,3-0.1,4.5c0,0.3-0.8,0.3-1,0.2c-12-3.4-24.2-8.8-32.4-18.5c-4.4-5.1-7.5-11.3-8.4-18
							C494.3,705.2,494.1,704,494.2,702.7z"/>
						<path class="st11" d="M495.4,743.8c0-0.2,0.6-0.3,0.9-0.1c12.4,1.7,25.3,5.8,33.5,15.9c4.7,5.6,7.2,12.7,7.7,20
							c0.1,1.5,0.1,3-0.1,4.5c0,0.3-0.7,0.2-0.9,0.1c-12.1-3.4-24.3-8.8-32.6-18.6c-4.4-5.1-7.4-11.3-8.4-17.9
							C495.5,746.3,495.3,745,495.4,743.8z"/>
						<path class="st11" d="M496.2,783.1c0-0.2,0.6-0.5,1-0.4c0,0,0,0,0.1,0l0,0l0,0c12.4,1.6,25.4,5.8,33.5,16
							c4.6,5.6,7.1,12.7,7.5,19.9c0.1,1.4,0.1,2.9-0.1,4.4c0,0.4-0.9,0.5-1.1,0.4c-12.1-3.4-24.3-8.9-32.5-18.7
							c-4.3-5.1-7.3-11.3-8.2-17.8C496.3,785.5,496.1,784.3,496.2,783.1z"/>
					</g>
					<rect x="535.7" y="662.6" class="st11" width="3.1" height="266.7"/>
					<g>
						<path class="st11" d="M575.5,624.6c0,0,2.9,28-39.6,42.3C535.8,666.9,530.5,632.9,575.5,624.6z"/>
					</g>
				</g>
			</g>
			<path class="st10" d="M616.2,932H313.4c-1.3,0-2.4-1.1-2.4-2.4l0,0c0-1.3,1.1-2.4,2.4-2.4h302.8c1.3,0,2.4,1.1,2.4,2.4l0,0
				C618.6,930.9,617.5,932,616.2,932z"/>
		</g>
		<polyline class="st8" points="623,743.2 656.3,930.1 255.6,930.1 501,427.8 623,743.2 		"/>
	</g>
	<g>
		<circle class="st12" cx="190.6" cy="647.1" r="126.8"/>
	</g>
	<g>
		<path class="st6" d="M323.5,767.5c4,11.8-2.4,24.7-14.2,28.7l-122.1,41.5c-11.8,4-24.7-2.4-28.7-14.2L63.6,545
			c-4-11.8,2.4-24.7,14.2-28.7l122.1-41.5c11.8-4,24.7,2.4,28.7,14.2L323.5,767.5z"/>
		<g>
			<path class="st5" d="M168.7,515c0.5,1.5-0.3,3.2-1.8,3.7L131,530.9c-1.5,0.5-3.2-0.3-3.7-1.8l-0.1-0.2c-0.5-1.5,0.3-3.2,1.8-3.7
				l35.9-12.2c1.5-0.5,3.2,0.3,3.7,1.8L168.7,515z"/>
			<path class="st5" d="M148.2,508.4c0.8,2.5-0.5,5.1-2.9,6c-2.5,0.8-5.1-0.5-6-2.9c-0.8-2.5,0.5-5.1,2.9-6
				C144.7,504.6,147.4,505.9,148.2,508.4z"/>
			<path class="st5" d="M255.2,791.8c2.6,7.7-1.5,16.1-9.2,18.7c-7.7,2.6-16.1-1.5-18.7-9.2s1.5-16.1,9.2-18.7
				C244.3,780,252.6,784.1,255.2,791.8z"/>
		</g>
		
			<rect x="113.4" y="529.8" transform="matrix(0.9467 -0.322 0.322 0.9467 -201.2299 97.4147)" class="st10" width="160.9" height="254.4"/>
		<g>
			<g>
				<g>
					<path class="st11" d="M121.7,564.6l6.9,8.1c-6.2,4.6-9.1,12.8-6.9,20.5l-9.9,3.9C107.8,584.9,112.2,572,121.7,564.6z"/>
					<path class="st13" d="M134.4,606l-5,9.5c-7.9-3-14.5-9.5-17.4-18.1c0-0.1-0.1-0.2-0.1-0.4l9.9-3.9c0.1,0.3,0.2,0.6,0.3,0.8
						C124,600,128.8,604.3,134.4,606z"/>
					<path class="st14" d="M141.3,606.8l1.5,10.6c-4.7,0.5-9.3-0.2-13.5-1.8l5-9.5C136.6,606.7,138.9,607,141.3,606.8z"/>
					<path class="st15" d="M158.8,590.3l10.2,3.3c-2,10-9.1,18.8-19.5,22.3c-2.2,0.8-4.5,1.2-6.7,1.4l-1.5-10.6
						c1.6-0.1,3.2-0.4,4.8-1C153.2,603.5,157.9,597.3,158.8,590.3z"/>
					<path class="st6" d="M160.2,566.3c3.4,3.2,6.2,7.3,7.8,12.1c1.7,5.1,2,10.4,1,15.3l-10.2-3.4c0.4-2.8,0.1-5.7-0.9-8.5
						c-1.3-3.7-3.5-6.7-6.4-8.9L160.2,566.3z"/>
					<path class="st5" d="M160.2,566.3l-8.7,6.6c-4.9-3.7-11.4-5.1-17.7-2.9c-1.9,0.7-3.7,1.6-5.2,2.8l-6.9-8.1
						c2.6-2,5.5-3.6,8.7-4.7C141.2,556.2,152.5,559,160.2,566.3z"/>
				</g>
				<g>
					<path class="st15" d="M193,674.1c3-6.7,3.5-14.6,1-22.1c-0.9-2.5-2-4.9-3.4-7l-22.9,16.6L193,674.1z"/>
					<path class="st14" d="M166.1,663.8l-5.2,28.2c4.6,0.6,9.3,0.3,14-1.3c7.5-2.6,13.4-7.8,16.9-14.2L166.1,663.8z"/>
					<path class="st5" d="M156.9,630l8.8,25.8l12.1-24.5C171.3,628.5,164,627.9,156.9,630z"/>
					<path class="st11" d="M189,642.9c-2.6-3.2-5.7-5.9-9.3-7.8l-11.1,22.6L189,642.9z"/>
					<path class="st15" d="M158.4,691.6l5.4-29.6l-9.7-28.5c-15.1,5.9-23.1,22.7-17.8,38.2C139.8,682.1,148.4,689.3,158.4,691.6z"/>
				</g>
				<g>
					<path class="st5" d="M197.3,765.4l-0.6-1.8c15.6-5.3,24-22.3,18.7-38c-5.3-15.6-22.3-24-38-18.7l-0.6-1.8
						c16.6-5.7,34.8,3.3,40.4,19.9C222.9,741.5,213.9,759.7,197.3,765.4z"/>
				</g>
				<g>
					<path class="st11" d="M195.4,759.9l-0.6-1.8c12.6-4.3,19.4-18,15.1-30.7c-4.3-12.6-18-19.4-30.7-15.1
						c-12.6,4.3-19.4,18-15.1,30.7l-1.8,0.6c-4.6-13.6,2.7-28.5,16.3-33.1s28.5,2.7,33.1,16.3C216.4,740.4,209.1,755.3,195.4,759.9z
						"/>
				</g>
				<g>
					<path class="st14" d="M193.8,755c-10.9,3.7-22.8-2.1-26.5-13.1l1.8-0.6c3.4,9.9,14.2,15.2,24,11.8c9.9-3.4,15.2-14.2,11.8-24
						c-3.4-9.9-14.2-15.2-24-11.8l-0.6-1.8c10.9-3.7,22.8,2.1,26.5,13.1C210.5,739.4,204.7,751.3,193.8,755z"/>
				</g>
				<g>
					<path class="st15" d="M191.9,749.4l-0.6-1.8c6.8-2.3,10.5-9.8,8.2-16.6s-9.8-10.5-16.6-8.2s-10.5,9.8-8.2,16.6l-1.8,0.6
						c-2.7-7.9,1.5-16.4,9.4-19.1c7.9-2.7,16.4,1.5,19.1,9.4C204,738.2,199.8,746.8,191.9,749.4z"/>
				</g>
				<g>
					<path class="st14" d="M190.1,744.2c-5,1.7-10.5-1-12.2-6l1.8-0.6c1.4,4,5.7,6.1,9.7,4.8c4-1.4,6.1-5.7,4.8-9.7
						c-1.4-4-5.7-6.1-9.7-4.8l-0.6-1.8c5-1.7,10.5,1,12.2,6C197.8,737.1,195.1,742.5,190.1,744.2z"/>
				</g>
			</g>
			<g>
				<g>
					<g>
						<g>
							<path class="st6" d="M218.4,545.8c0,0,4.5,9.9-9.2,20.4C209.1,566.2,202.9,554.4,218.4,545.8z"/>
						</g>
						<g>
							<path class="st6" d="M223.5,560.9c0,0,4.5,9.9-9.2,20.4C214.2,581.3,208.1,569.5,223.5,560.9z"/>
						</g>
						<g>
							<path class="st6" d="M228.5,575.2c0,0,4.5,9.9-9.2,20.4C219.2,595.6,213,583.8,228.5,575.2z"/>
						</g>
					</g>
					<g>
						<path class="st15" d="M188.4,556.2c0-0.1,0.2-0.3,0.4-0.3c4.7-0.9,9.9-1,14.2,1.6c2.4,1.5,4.2,3.8,5.3,6.4
							c0.2,0.5,0.4,1.1,0.5,1.6c0,0.1-0.2,0.3-0.4,0.3c-4.8,0.3-9.9-0.2-14.2-2.7c-2.2-1.3-4.1-3.2-5.3-5.5
							C188.7,557.1,188.5,556.6,188.4,556.2z"/>
						<path class="st15" d="M193.2,570.4c0-0.1,0.2-0.2,0.4-0.2c4.7-0.9,9.9-1,14.2,1.6c2.4,1.5,4.3,3.8,5.3,6.4
							c0.2,0.5,0.4,1.1,0.5,1.6c0,0.1-0.3,0.2-0.3,0.2c-4.8,0.3-9.9-0.2-14.2-2.7c-2.2-1.3-4.2-3.2-5.3-5.5
							C193.5,571.3,193.3,570.9,193.2,570.4z"/>
						<path class="st15" d="M198.7,585.3c0-0.1,0.2-0.2,0.3-0.2c4.7-0.9,10-1,14.2,1.6c2.4,1.5,4.2,3.8,5.3,6.4
							c0.2,0.5,0.4,1.1,0.5,1.6c0,0.1-0.2,0.2-0.3,0.2c-4.8,0.3-10-0.2-14.2-2.8c-2.2-1.3-4.1-3.2-5.3-5.5
							C199.1,586.2,198.8,585.8,198.7,585.3z"/>
						<path class="st15" d="M203.9,599.6c0-0.1,0.2-0.2,0.3-0.3l0,0l0,0l0,0c4.7-1,10-1,14.2,1.7c2.4,1.5,4.2,3.8,5.2,6.4
							c0.2,0.5,0.4,1.1,0.5,1.6c0,0.1-0.3,0.3-0.4,0.3c-4.8,0.3-10-0.2-14.2-2.8c-2.2-1.3-4.1-3.2-5.2-5.5
							C204.2,600.5,204,600,203.9,599.6z"/>
					</g>
					
						<rect x="220" y="547.7" transform="matrix(0.9467 -0.322 0.322 0.9467 -181.2056 102.9604)" class="st6" width="1.2" height="103.1"/>
					<g>
						<path class="st6" d="M213.2,531.7c0,0,4.5,9.9-9.2,20.4C204,552.1,197.8,540.3,213.2,531.7z"/>
					</g>
				</g>
				
					<rect x="221.3" y="647" transform="matrix(0.9467 -0.322 0.322 0.9467 -195.95 110.57)" class="st6" width="29.9" height="1.2"/>
				<circle class="st6" cx="225.4" cy="656.6" r="1.4"/>
				<circle class="st6" cx="233.7" cy="653.8" r="1.4"/>
				<circle class="st6" cx="242" cy="650.9" r="1.4"/>
				<circle class="st6" cx="250.3" cy="648.1" r="1.4"/>
				<circle class="st6" cx="227.4" cy="662.4" r="1.4"/>
				<circle class="st6" cx="235.7" cy="659.6" r="1.4"/>
				<circle class="st6" cx="244" cy="656.8" r="1.4"/>
				<circle class="st6" cx="252.3" cy="654" r="1.4"/>
				<circle class="st6" cx="229.4" cy="668.3" r="1.4"/>
				<circle class="st6" cx="237.7" cy="665.4" r="1.4"/>
				<circle class="st6" cx="246" cy="662.6" r="1.4"/>
				<circle class="st6" cx="254.3" cy="659.8" r="1.4"/>
				<circle class="st6" cx="231.4" cy="674.1" r="1.4"/>
				<circle class="st6" cx="239.7" cy="671.3" r="1.4"/>
				<circle class="st6" cx="248" cy="668.5" r="1.4"/>
				<circle class="st6" cx="256.3" cy="665.6" r="1.4"/>
				<circle class="st6" cx="233.4" cy="679.9" r="1.4"/>
				<circle class="st6" cx="241.7" cy="677.1" r="1.4"/>
				<circle class="st6" cx="250" cy="674.3" r="1.4"/>
				<circle class="st6" cx="258.3" cy="671.5" r="1.4"/>
				<circle class="st6" cx="235.4" cy="685.8" r="1.4"/>
				<circle class="st6" cx="243.7" cy="683" r="1.4"/>
				<circle class="st6" cx="252" cy="680.1" r="1.4"/>
				<circle class="st6" cx="260.3" cy="677.3" r="1.4"/>
				<circle class="st5" cx="237.4" cy="691.6" r="1.4"/>
				<circle class="st6" cx="245.7" cy="688.8" r="1.4"/>
				<circle class="st6" cx="254" cy="686" r="1.4"/>
				<circle class="st6" cx="262.3" cy="683.2" r="1.4"/>
				<circle class="st5" cx="239.3" cy="697.5" r="1.4"/>
				<circle class="st5" cx="247.6" cy="694.6" r="1.4"/>
				<circle class="st6" cx="255.9" cy="691.8" r="1.4"/>
				<circle class="st6" cx="264.2" cy="689" r="1.4"/>
				<circle class="st5" cx="241.3" cy="703.3" r="1.4"/>
				<circle class="st5" cx="249.6" cy="700.5" r="1.4"/>
				<circle class="st5" cx="257.9" cy="697.7" r="1.4"/>
				<circle class="st6" cx="266.2" cy="694.8" r="1.4"/>
				<circle class="st5" cx="243.3" cy="709.2" r="1.4"/>
				<circle class="st5" cx="251.6" cy="706.3" r="1.4"/>
				<circle class="st5" cx="259.9" cy="703.5" r="1.4"/>
				<circle class="st5" cx="268.2" cy="700.7" r="1.4"/>
				<circle class="st5" cx="245.3" cy="715" r="1.4"/>
				<circle class="st5" cx="253.6" cy="712.2" r="1.4"/>
				<circle class="st5" cx="261.9" cy="709.3" r="1.4"/>
				<circle class="st5" cx="270.2" cy="706.5" r="1.4"/>
				<circle class="st5" cx="247.3" cy="720.8" r="1.4"/>
				<circle class="st5" cx="255.6" cy="718" r="1.4"/>
				<circle class="st5" cx="263.9" cy="715.2" r="1.4"/>
				<circle class="st5" cx="272.2" cy="712.4" r="1.4"/>
				<circle class="st16" cx="249.3" cy="726.7" r="1.4"/>
				<circle class="st16" cx="257.6" cy="723.9" r="1.4"/>
				<circle class="st5" cx="265.9" cy="721" r="1.4"/>
				<circle class="st5" cx="274.2" cy="718.2" r="1.4"/>
				<circle class="st16" cx="251.3" cy="732.5" r="1.4"/>
				<circle class="st16" cx="259.6" cy="729.7" r="1.4"/>
				<circle class="st16" cx="267.9" cy="726.9" r="1.4"/>
				<circle class="st5" cx="276.2" cy="724" r="1.4"/>
				<circle class="st16" cx="253.2" cy="738.4" r="1.4"/>
				<circle class="st16" cx="261.6" cy="735.5" r="1.4"/>
				<circle class="st16" cx="269.9" cy="732.7" r="1.4"/>
				<circle class="st16" cx="278.2" cy="729.9" r="1.4"/>
				<circle class="st16" cx="255.2" cy="744.2" r="1.4"/>
				<circle class="st16" cx="263.5" cy="741.4" r="1.4"/>
				<circle class="st16" cx="271.8" cy="738.5" r="1.4"/>
				<circle class="st16" cx="280.1" cy="735.7" r="1.4"/>
			</g>
		</g>
	</g>
	<g>
		<path class="st10" d="M94.8,180.7v8.6H71.3v-44.4h22.9v8.6H80.3v9.2h12.6v8.2H80.3v9.8L94.8,180.7L94.8,180.7z"/>
		<path class="st10" d="M101.3,175.7v-17.3c0-9.3,5.2-14.3,14.1-14.3c8.6,0,13.3,5,13.6,14.3h-9c-0.2-4-1.5-5.6-4.6-5.6
			c-3,0-4.7,1.6-4.7,5.6v17.3c0,4,1.6,5.6,4.8,5.6c3.3,0,4.9-1.6,4.9-5.6v-3.2h-5.3v-8h14.2v11.2c-0.3,9.3-5.2,14.3-13.9,14.3
			C106.5,190,101.3,185,101.3,175.7z"/>
		<path class="st10" d="M136.5,144.8h8.9l8.4,19.3c1.1,2.8,2.1,5.7,3.2,8.5l0.2-0.2c-0.8-5.6-1.3-13.2-1.3-17.3v-10.3h8.9v44.5h-8.9
			l-7.5-17.2l-4-10.9l-0.2,0.2c0.7,5.6,1.1,13.9,1.1,18.8v9h-8.9v-44.4H136.5z"/>
		<path class="st10" d="M171.5,176.3h9.3c0,3.6,1.8,5.1,4.6,5.1c3,0,4.4-1.7,4.4-3.9c0-7.4-17.4-8.2-17.4-21.8
			c0-6.8,4.8-11.7,12.9-11.7s13.1,4.9,13.1,13.1h-9.3c0-2.9-1.3-4.4-3.9-4.4c-2.3,0-3.7,1.3-3.7,3.3c0,7,17.6,7.4,17.6,21.6
			c0,7.3-5.1,12.6-14,12.6C176.9,190.1,171.5,185.3,171.5,176.3z"/>
		<path class="st10" d="M203.5,176.3h9.3c0,3.6,1.8,5.1,4.6,5.1c3,0,4.4-1.7,4.4-3.9c0-7.4-17.4-8.2-17.4-21.8
			c0-6.8,4.8-11.7,12.9-11.7s13.1,4.9,13.1,13.1h-9.3c0-2.9-1.3-4.4-3.9-4.4c-2.3,0-3.7,1.3-3.7,3.3c0,7,17.6,7.4,17.6,21.6
			c0,7.3-5.1,12.6-14,12.6C208.8,190.1,203.5,185.3,203.5,176.3z"/>
		<path class="st11" d="M263.3,179.1h-4.6v10.2h-8.3v-10.2h-15.7v-4.6l8.1-29.7h8.4l-7.4,26.5h6.7l1.3-13.5h6.9v13.5h4.6V179.1z"/>
		<path class="st10" d="M267.7,175.7v-17.3c0-9.4,5.1-14.5,13.8-14.5c8.9,0,13.8,5.1,14.2,14.5h-9c-0.3-4.1-1.8-5.7-5.2-5.7
			c-2.7,0-4.3,1.8-4.3,5.7v17.3c0,3.8,1.5,5.6,4.3,5.6c3.5,0,5.1-1.6,5.3-5.6h9c-0.2,9.3-5.3,14.3-14.3,14.3
			C272.8,190,267.7,185,267.7,175.7z"/>
		<path class="st10" d="M317.7,181.9h-9.4l-1.5,7.4h-9.3l10.7-44.4h9.6l10.7,44.4h-9.3L317.7,181.9z M316,173.3l-1-5.1
			c-0.6-3.2-1.3-8.6-1.8-12.2h-0.3c-0.4,3.6-1.1,9-1.8,12.2l-1,5.1H316z"/>
		<path class="st10" d="M361.8,159.9c0,9.5-5.5,15-14.7,15h-3.9v14.4h-9v-44.4h12.9C356.3,144.8,361.8,150.4,361.8,159.9z
			 M352.5,159.9c0-4.3-1.9-6.5-5.5-6.5h-3.7v13h3.7C350.6,166.4,352.5,164.2,352.5,159.9z"/>
		<path class="st17" d="M78.7,224.3v3.1H69v-18.7h9.4v3.1h-6.1v4.6h5.6v3h-5.6v4.9L78.7,224.3L78.7,224.3z"/>
		<path class="st17" d="M91,218.6v8.7h-3.1v-8.7c0-2-0.6-2.8-1.7-2.8c-1.2,0-1.9,0.9-1.9,2.6v8.8h-3.1v-13.9h2.1l0.3,1.5
			c0.7-1.2,1.9-1.9,3.4-1.9C89.5,212.9,91,214.8,91,218.6z"/>
		<path class="st17" d="M103.1,218.2v9.1h-2.5l-0.2-1.3c-0.6,1-1.5,1.7-3.1,1.7c-2.6,0-4.2-1.8-4.2-4.4c0-2.9,2.1-4.4,5.3-4.4h1.7
			v-0.7c0-1.4-0.4-2.3-1.6-2.3c-0.9,0-1.6,0.5-1.8,1.5h-3.1c0.1-2.9,2-4.6,5-4.6C101.6,212.9,103.1,214.8,103.1,218.2z M99.9,221.5
			h-1.6c-1.3,0-2.1,0.6-2.1,1.8c0,1,0.6,1.7,1.8,1.7c1.2,0,1.9-0.7,1.9-2C99.9,223,99.9,221.5,99.9,221.5z"/>
		<path class="st17" d="M116,218.4v3.8c0,3.4-1.8,5.5-4.5,5.5c-1.2,0-2.4-0.7-3.1-1.6l-0.2,1.3H106V208h3.1v5.8
			c0.6-0.6,1.5-0.9,2.4-0.9C114.2,212.9,116,215.1,116,218.4z M112.8,218.4c0-1.7-0.6-2.5-1.8-2.5c-1.2,0-1.9,0.9-1.9,2.5v3.8
			c0,1.7,0.7,2.5,1.9,2.5c1.1,0,1.8-0.8,1.8-2.5V218.4z"/>
		<path class="st17" d="M118.4,208.1h3.1v19.3h-3.1V208.1z"/>
		<path class="st17" d="M124,209.3c0-1.1,0.7-1.8,1.8-1.8c1,0,1.8,0.8,1.8,1.8s-0.8,1.8-1.8,1.8C124.8,211.1,124,210.3,124,209.3z
			 M124.3,213.3h3.1v14.1h-3.1V213.3z"/>
		<path class="st17" d="M140.2,218.6v8.7h-3.1v-8.7c0-2-0.6-2.8-1.7-2.8c-1.2,0-1.9,0.9-1.9,2.6v8.8h-3.1v-13.9h2.1l0.3,1.5
			c0.7-1.2,1.9-1.9,3.4-1.9C138.6,212.9,140.2,214.8,140.2,218.6z"/>
		<path class="st17" d="M152.7,213.3V228c0,2.7-1.8,4.6-4.9,4.6c-3,0-4.7-1.8-4.8-4.6h3.1c0.1,1,0.7,1.6,1.7,1.6s1.7-0.6,1.7-1.7
			V226c-0.7,0.5-1.5,0.7-2.4,0.7c-2.6,0-4.5-2.1-4.5-5.2v-3.2c0-3.2,1.9-5.3,4.5-5.3c1.3,0,2.3,0.5,3.1,1.3l0.2-1H152.7z
			 M149.5,221.5v-3.3c0-1.5-0.7-2.2-1.9-2.2s-1.8,0.7-1.8,2.3v3.3c0,1.5,0.6,2.2,1.8,2.2S149.5,223,149.5,221.5z"/>
		<path class="st17" d="M167.6,224.6v3h-1.1c-2.9,0-4.7-1.9-4.7-4.9v-6.5h-1.9v-2.9h1.9v-3.4h3.1v3.4h2.5v2.9h-2.5v6.5
			c0,1.3,0.6,1.9,1.8,1.9L167.6,224.6L167.6,224.6z"/>
		<path class="st17" d="M179.6,218.8v8.6h-3.1v-8.6c0-2.1-0.6-2.9-1.7-2.9c-1.2,0-1.9,0.9-1.9,2.6v8.8h-3.1V208h3.1v6.4
			c0.7-0.9,1.6-1.5,2.8-1.5C178.2,212.9,179.6,214.9,179.6,218.8z"/>
		<path class="st17" d="M192.2,222.9c-0.3,3-2.1,4.8-5.2,4.8c-3.1,0-4.9-2-4.9-5.4v-4c0-3.4,1.9-5.4,5-5.4c3.2,0,5.1,2,5.1,5.4v3.1
			h-6.9v0.8c0,1.7,0.7,2.4,1.8,2.4c1.3,0,1.7-0.5,1.9-1.8L192.2,222.9L192.2,222.9z M185.2,218.3v0.9h3.8v-0.9
			c0-1.7-0.7-2.4-1.9-2.4C185.9,215.9,185.2,216.6,185.2,218.3z"/>
		<path class="st17" d="M209.7,208.1v19.4h-2.2l-0.2-1.3c-0.7,0.9-1.9,1.6-3.1,1.6c-2.7,0-4.5-2.1-4.5-5.5v-3.8
			c0-3.4,1.8-5.5,4.5-5.5c0.9,0,1.8,0.4,2.4,0.9v-5.8L209.7,208.1L209.7,208.1z M206.6,218.4c0-1.6-0.7-2.5-1.9-2.5
			s-1.8,0.8-1.8,2.5v3.8c0,1.7,0.7,2.5,1.8,2.5c1.2,0,1.9-0.9,1.9-2.5V218.4z"/>
		<path class="st17" d="M212.3,209.3c0-1.1,0.7-1.8,1.8-1.8c1,0,1.8,0.8,1.8,1.8s-0.8,1.8-1.8,1.8
			C213.1,211.1,212.3,210.3,212.3,209.3z M212.6,213.3h3.1v14.1h-3.1V213.3z"/>
		<path class="st17" d="M228.4,213.3V228c0,2.7-1.8,4.6-4.9,4.6c-3,0-4.7-1.8-4.8-4.6h3.1c0.1,1,0.7,1.6,1.7,1.6s1.7-0.6,1.7-1.7
			V226c-0.7,0.5-1.5,0.7-2.4,0.7c-2.6,0-4.5-2.1-4.5-5.2v-3.2c0-3.2,1.9-5.3,4.5-5.3c1.3,0,2.3,0.5,3.1,1.3l0.2-1H228.4z
			 M225.2,221.5v-3.3c0-1.5-0.7-2.2-1.9-2.2s-1.8,0.7-1.8,2.3v3.3c0,1.5,0.6,2.2,1.8,2.2S225.2,223,225.2,221.5z"/>
		<path class="st17" d="M231,209.3c0-1.1,0.7-1.8,1.8-1.8c1,0,1.8,0.8,1.8,1.8s-0.8,1.8-1.8,1.8S231,210.3,231,209.3z M231.3,213.3
			h3.1v14.1h-3.1V213.3z"/>
		<path class="st17" d="M243.8,224.6v3h-1.1c-2.9,0-4.7-1.9-4.7-4.9v-6.5h-1.9v-2.9h1.9v-3.4h3.1v3.4h2.5v2.9h-2.5v6.5
			c0,1.3,0.6,1.9,1.8,1.9L243.8,224.6L243.8,224.6z"/>
		<path class="st17" d="M255.3,218.2v9.1h-2.5l-0.2-1.3c-0.6,1-1.5,1.7-3.1,1.7c-2.6,0-4.2-1.8-4.2-4.4c0-2.9,2.1-4.4,5.3-4.4h1.7
			v-0.7c0-1.4-0.4-2.3-1.6-2.3c-0.9,0-1.6,0.5-1.8,1.5h-3.2c0.1-2.9,2-4.6,5-4.6C253.8,212.9,255.3,214.8,255.3,218.2z M252.2,221.5
			h-1.6c-1.3,0-2.1,0.6-2.1,1.8c0,1,0.6,1.7,1.8,1.7s1.9-0.7,1.9-2L252.2,221.5L252.2,221.5z"/>
		<path class="st17" d="M258.1,208.1h3.1v19.3h-3.1V208.1z"/>
		<path class="st17" d="M263.7,209.3c0-1.1,0.7-1.8,1.8-1.8c1,0,1.8,0.8,1.8,1.8s-0.8,1.8-1.8,1.8S263.7,210.3,263.7,209.3z
			 M264,213.3h3.1v14.1H264V213.3z"/>
		<path class="st17" d="M268.9,223h3.1c0,1,0.6,1.9,2.1,1.9c1.1,0,1.8-0.6,1.8-1.4c0-2.5-6.8-1.7-6.8-6.5c0-2.5,1.8-4,4.7-4
			c3.2,0,4.7,2,4.8,4.6h-3c-0.1-1.1-0.6-1.8-1.8-1.8c-1,0-1.6,0.5-1.6,1.3c0,2.3,6.8,1.4,6.8,6.5c0,2.6-1.8,4.3-4.9,4.3
			C270.7,227.8,268.9,225.5,268.9,223z"/>
		<path class="st17" d="M290.5,218.2v9.1H288l-0.2-1.3c-0.6,1-1.5,1.7-3.1,1.7c-2.6,0-4.2-1.8-4.2-4.4c0-2.9,2.1-4.4,5.3-4.4h1.7
			v-0.7c0-1.4-0.4-2.3-1.6-2.3c-0.9,0-1.6,0.5-1.8,1.5H281c0.1-2.9,2-4.6,5-4.6C288.9,212.9,290.5,214.8,290.5,218.2z M287.3,221.5
			h-1.6c-1.3,0-2.1,0.6-2.1,1.8c0,1,0.6,1.7,1.8,1.7c1.2,0,1.9-0.7,1.9-2L287.3,221.5L287.3,221.5z"/>
		<path class="st17" d="M299.8,224.6v3h-1.1c-2.9,0-4.7-1.9-4.7-4.9v-6.5h-1.9v-2.9h1.9v-3.4h3.1v3.4h2.5v2.9h-2.5v6.5
			c0,1.3,0.6,1.9,1.8,1.9L299.8,224.6L299.8,224.6z"/>
		<path class="st17" d="M301.8,209.3c0-1.1,0.7-1.8,1.8-1.8c1,0,1.8,0.8,1.8,1.8s-0.8,1.8-1.8,1.8
			C302.5,211.1,301.8,210.3,301.8,209.3z M302,213.3h3.1v14.1H302V213.3z"/>
		<path class="st17" d="M307.7,222.2v-3.8c0-3.5,1.9-5.5,5.1-5.5s5.1,2,5.1,5.5v3.8c0,3.5-1.9,5.5-5.1,5.5S307.7,225.8,307.7,222.2z
			 M314.7,222.2v-3.8c0-1.7-0.7-2.4-1.9-2.4c-1.2,0-1.9,0.7-1.9,2.4v3.8c0,1.7,0.7,2.4,1.9,2.4C314,224.7,314.7,223.9,314.7,222.2z"
			/>
		<path class="st17" d="M330.4,218.6v8.7h-3.1v-8.7c0-2-0.6-2.8-1.7-2.8c-1.2,0-1.9,0.9-1.9,2.6v8.8h-3.1v-13.9h2.1l0.3,1.5
			c0.7-1.2,1.9-1.9,3.4-1.9C328.8,212.9,330.4,214.8,330.4,218.6z"/>
		<path class="st17" d="M68.4,252v-3.8c0-3.5,1.9-5.5,5.1-5.5s5.1,2,5.1,5.5v3.8c0,3.5-1.9,5.5-5.1,5.5
			C70.4,257.5,68.4,255.6,68.4,252z M75.5,252v-3.8c0-1.7-0.7-2.4-1.9-2.4c-1.2,0-1.9,0.7-1.9,2.4v3.8c0,1.7,0.7,2.4,1.9,2.4
			C74.8,254.5,75.5,253.7,75.5,252z"/>
		<path class="st17" d="M85,242.6v0.5h2.5v2.9H85v11.2h-3.1V246h-2v-2.9h2v-0.5c0-2.9,1.5-5.1,5-5.1h0.9v2.9h-0.9
			C85.5,240.3,85,241,85,242.6z"/>
		<path class="st17" d="M104.2,248v9.1h-2.5l-0.2-1.3c-0.6,1-1.5,1.7-3.1,1.7c-2.6,0-4.2-1.8-4.2-4.4c0-2.9,2.1-4.4,5.3-4.4h1.7V248
			c0-1.4-0.4-2.3-1.6-2.3c-0.9,0-1.6,0.5-1.8,1.5h-3.1c0.1-2.9,2-4.6,5-4.6C102.7,242.7,104.2,244.6,104.2,248z M101.1,251.4h-1.6
			c-1.3,0-2.1,0.6-2.1,1.8c0,1,0.6,1.7,1.8,1.7c1.2,0,1.9-0.7,1.9-2C101.1,252.9,101.1,251.4,101.1,251.4z"/>
		<path class="st17" d="M116.8,243.1v14.7c0,2.7-1.8,4.6-4.9,4.6c-3,0-4.7-1.8-4.8-4.6h3.1c0.1,1,0.7,1.6,1.7,1.6s1.7-0.6,1.7-1.7
			v-1.9c-0.7,0.5-1.5,0.7-2.4,0.7c-2.6,0-4.5-2.1-4.5-5.2V248c0-3.2,1.9-5.3,4.5-5.3c1.3,0,2.3,0.5,3.1,1.3l0.2-1L116.8,243.1
			L116.8,243.1z M113.6,251.3V248c0-1.5-0.7-2.2-1.9-2.2c-1.2,0-1.8,0.7-1.8,2.3v3.3c0,1.5,0.6,2.2,1.8,2.2S113.6,252.8,113.6,251.3
			z"/>
		<path class="st17" d="M127.2,243v3c-0.5-0.2-1.1-0.3-1.7-0.3c-1.6,0-2.6,1-2.6,3.1v8.4h-3.2v-14.1h2.1l0.3,1.7
			c0.7-1.3,1.9-2,3.6-2C126.3,242.8,126.8,242.8,127.2,243z"/>
		<path class="st17" d="M128.7,239.1c0-1.1,0.7-1.8,1.8-1.8c1,0,1.8,0.8,1.8,1.8s-0.8,1.8-1.8,1.8
			C129.4,240.9,128.7,240.1,128.7,239.1z M128.9,243.1h3.1v14.1h-3.1C128.9,257.2,128.9,243.1,128.9,243.1z"/>
		<path class="st17" d="M134.4,249h6.6v2.7h-6.6V249z"/>
		<path class="st17" d="M153.1,243.1v14.7c0,2.7-1.8,4.6-4.9,4.6c-3,0-4.7-1.8-4.8-4.6h3.1c0.1,1,0.7,1.6,1.7,1.6s1.7-0.6,1.7-1.7
			v-1.9c-0.7,0.5-1.5,0.7-2.4,0.7c-2.6,0-4.5-2.1-4.5-5.2V248c0-3.2,1.9-5.3,4.5-5.3c1.3,0,2.3,0.5,3.1,1.3l0.2-1L153.1,243.1
			L153.1,243.1z M149.9,251.3V248c0-1.5-0.7-2.2-1.9-2.2s-1.8,0.7-1.8,2.3v3.3c0,1.5,0.6,2.2,1.8,2.2S149.9,252.8,149.9,251.3z"/>
		<path class="st17" d="M155.7,252v-3.8c0-3.5,1.9-5.5,5.1-5.5c3.2,0,5.1,2,5.1,5.5v3.8c0,3.5-1.9,5.5-5.1,5.5
			S155.7,255.6,155.7,252z M162.7,252v-3.8c0-1.7-0.7-2.4-1.9-2.4s-1.9,0.7-1.9,2.4v3.8c0,1.7,0.7,2.4,1.9,2.4
			C162,254.5,162.7,253.7,162.7,252z"/>
		<path class="st17" d="M166.4,243.1h3.3l1.2,5.3c0.4,1.7,0.8,4,1,5.1h0.2c0.2-1.1,0.6-3.4,1-5.1l1.2-5.3h3.3l-3.8,14.1h-3.5
			L166.4,243.1z"/>
		<path class="st17" d="M188.9,252.7c-0.3,3-2.1,4.8-5.2,4.8c-3.1,0-4.9-2-4.9-5.4v-4c0-3.4,1.9-5.4,5-5.4c3.2,0,5.1,2,5.1,5.4v3.1
			H182v0.8c0,1.7,0.7,2.4,1.8,2.4c1.3,0,1.7-0.5,1.9-1.8L188.9,252.7L188.9,252.7z M181.9,248.1v0.9h3.8v-0.9c0-1.7-0.7-2.4-1.9-2.4
			C182.6,245.7,181.9,246.4,181.9,248.1z"/>
		<path class="st17" d="M198.7,243v3c-0.5-0.2-1.1-0.3-1.7-0.3c-1.6,0-2.6,1-2.6,3.1v8.4h-3.1v-14.1h2.1l0.3,1.7
			c0.7-1.3,1.9-2,3.6-2C197.8,242.8,198.3,242.8,198.7,243z"/>
		<path class="st17" d="M210.3,248.4v8.7h-3.1v-8.7c0-2-0.6-2.8-1.7-2.8c-1.2,0-1.9,0.9-1.9,2.6v8.8h-3.1v-14.1h2.1l0.3,1.5
			c0.7-1.2,1.9-1.9,3.4-1.9C208.8,242.7,210.3,244.6,210.3,248.4z"/>
		<path class="st17" d="M229.3,248.5v8.7h-3.1v-8.7c0-2-0.6-2.7-1.6-2.7c-1.1,0-1.9,0.9-1.9,2.6v8.8h-3.1v-8.7c0-2-0.6-2.7-1.6-2.7
			c-1.1,0-1.8,0.9-1.8,2.6v8.8h-3.1v-14.1h2.1l0.3,1.5c0.7-1.2,1.8-1.8,3.3-1.8c1.4,0,2.5,0.6,3.2,1.9c0.7-1.2,1.9-1.9,3.4-1.9
			C227.8,242.7,229.3,244.7,229.3,248.5z"/>
		<path class="st17" d="M241.8,252.7c-0.3,3-2.1,4.8-5.2,4.8c-3.1,0-4.9-2-4.9-5.4v-4c0-3.4,1.9-5.4,5-5.4c3.2,0,5.1,2,5.1,5.4v3.1
			h-6.9v0.8c0,1.7,0.7,2.4,1.8,2.4c1.3,0,1.7-0.5,1.9-1.8L241.8,252.7L241.8,252.7z M234.9,248.1v0.9h3.8v-0.9
			c0-1.7-0.7-2.4-1.9-2.4C235.5,245.7,234.9,246.4,234.9,248.1z"/>
		<path class="st17" d="M254.1,248.4v8.7H251v-8.7c0-2-0.6-2.8-1.7-2.8c-1.2,0-1.9,0.9-1.9,2.6v8.8h-3.1v-14.1h2.1l0.3,1.5
			c0.7-1.2,1.9-1.9,3.4-1.9C252.5,242.7,254.1,244.6,254.1,248.4z"/>
		<path class="st17" d="M263.3,254.4v3h-1.1c-2.9,0-4.7-1.9-4.7-4.9V246h-1.9v-2.9h1.9v-3.4h3.1v3.4h2.5v2.9h-2.5v6.5
			c0,1.3,0.6,1.9,1.8,1.9H263.3z"/>
		<path class="st17" d="M270.7,252.3V248c0-3.3,1.8-5.2,4.9-5.2c3.2,0,5,1.9,5.1,5.2h-3.2c-0.1-1.5-0.7-2.2-1.8-2.2
			c-1.1,0-1.8,0.7-1.8,2.2v4.3c0,1.5,0.6,2.2,1.8,2.2c1.2,0,1.8-0.7,1.9-2.2h3.2c-0.1,3.3-2,5.3-5.1,5.3
			C272.5,257.5,270.7,255.6,270.7,252.3z"/>
		<path class="st17" d="M282.4,252v-3.8c0-3.5,1.9-5.5,5.1-5.5s5.1,2,5.1,5.5v3.8c0,3.5-1.9,5.5-5.1,5.5
			C284.4,257.5,282.4,255.6,282.4,252z M289.4,252v-3.8c0-1.7-0.7-2.4-1.9-2.4c-1.2,0-1.9,0.7-1.9,2.4v3.8c0,1.7,0.7,2.4,1.9,2.4
			C288.8,254.5,289.4,253.7,289.4,252z"/>
		<path class="st17" d="M305.1,248.4v8.7H302v-8.7c0-2-0.6-2.8-1.7-2.8c-1.2,0-1.9,0.9-1.9,2.6v8.8h-3.1v-14.1h2.1l0.3,1.5
			c0.7-1.2,1.9-1.9,3.4-1.9C303.6,242.7,305.1,244.6,305.1,248.4z"/>
		<path class="st17" d="M314.3,254.4v3h-1.1c-2.9,0-4.7-1.9-4.7-4.9V246h-1.9v-2.9h1.9v-3.4h3.1v3.4h2.5v2.9h-2.4v6.5
			c0,1.3,0.6,1.9,1.8,1.9H314.3z"/>
		<path class="st17" d="M324,243v3c-0.5-0.2-1.1-0.3-1.7-0.3c-1.6,0-2.6,1-2.6,3.1v8.4h-3.1v-14.1h2.1l0.3,1.7c0.7-1.3,1.9-2,3.6-2
			C323.1,242.8,323.6,242.8,324,243z"/>
		<path class="st17" d="M325.3,252v-3.8c0-3.5,1.9-5.5,5.1-5.5s5.1,2,5.1,5.5v3.8c0,3.5-1.9,5.5-5.1,5.5
			C327.3,257.5,325.3,255.6,325.3,252z M332.4,252v-3.8c0-1.7-0.7-2.4-1.9-2.4c-1.2,0-1.9,0.7-1.9,2.4v3.8c0,1.7,0.7,2.4,1.9,2.4
			C331.7,254.5,332.4,253.7,332.4,252z"/>
		<path class="st17" d="M338,237.9h3.1v19.3H338V237.9z"/>
		<path class="st17" d="M342.8,252.8h3.1c0,1,0.6,1.9,2.1,1.9c1.1,0,1.8-0.6,1.8-1.4c0-2.5-6.8-1.7-6.8-6.5c0-2.5,1.8-4,4.7-4
			c3.2,0,4.7,2,4.8,4.6h-3c-0.1-1.1-0.6-1.8-1.8-1.8c-1,0-1.6,0.5-1.6,1.3c0,2.3,6.8,1.4,6.8,6.5c0,2.6-1.8,4.3-4.9,4.3
			C344.6,257.6,342.8,255.3,342.8,252.8z"/>
		<path class="st17" d="M75.3,284.2v3h-1.1c-2.9,0-4.7-1.9-4.7-4.9v-6.5h-1.9v-2.9h1.9v-3.4h3.1v3.4h2.5v2.9h-2.5v6.5
			c0,1.3,0.6,1.9,1.8,1.9H75.3z"/>
		<path class="st17" d="M87.3,278.4v8.6h-3.1v-8.6c0-2.1-0.6-2.9-1.7-2.9c-1.2,0-1.9,0.9-1.9,2.6v8.8h-3.1v-19.3h3.1v6.4
			c0.7-0.9,1.6-1.5,2.8-1.5C85.9,272.5,87.3,274.5,87.3,278.4z"/>
		<path class="st17" d="M97.6,272.8v3c-0.5-0.2-1.1-0.3-1.7-0.3c-1.6,0-2.6,1-2.6,3.1v8.4h-3.1v-14.1h2.1l0.3,1.7
			c0.7-1.3,1.9-2,3.6-2C96.7,272.6,97.2,272.7,97.6,272.8z"/>
		<path class="st17" d="M98.9,281.9v-3.8c0-3.5,1.9-5.5,5.1-5.5s5.1,2,5.1,5.5v3.8c0,3.5-1.9,5.5-5.1,5.5S98.9,285.4,98.9,281.9z
			 M105.9,281.9v-3.8c0-1.7-0.7-2.4-1.9-2.4c-1.2,0-1.9,0.7-1.9,2.4v3.8c0,1.7,0.7,2.4,1.9,2.4S105.9,283.5,105.9,281.9z"/>
		<path class="st17" d="M121.4,272.9V287h-2.1l-0.3-1.5c-0.7,1.2-1.9,1.9-3.4,1.9c-2.5,0-4.1-1.9-4.1-5.7V273h3.1v8.7
			c0,2,0.6,2.8,1.7,2.8c1.2,0,1.9-0.9,1.9-2.6v-8.8h3.2V272.9z"/>
		<path class="st17" d="M134,272.9v14.7c0,2.7-1.8,4.6-4.9,4.6c-3,0-4.7-1.8-4.8-4.6h3.1c0.1,1,0.7,1.6,1.7,1.6s1.7-0.6,1.7-1.7
			v-1.9c-0.7,0.5-1.5,0.7-2.4,0.7c-2.6,0-4.5-2.1-4.5-5.2v-3.3c0-3.2,1.9-5.3,4.5-5.3c1.3,0,2.3,0.5,3.1,1.3l0.2-1L134,272.9
			L134,272.9z M130.8,281.1v-3.3c0-1.5-0.7-2.2-1.9-2.2c-1.2,0-1.8,0.7-1.8,2.3v3.3c0,1.5,0.6,2.2,1.8,2.2
			C130.1,283.4,130.8,282.6,130.8,281.1z"/>
		<path class="st17" d="M146.8,278.4v8.6h-3.1v-8.6c0-2.1-0.6-2.9-1.7-2.9c-1.2,0-1.9,0.9-1.9,2.6v8.8H137v-19.3h3.1v6.4
			c0.7-0.9,1.6-1.5,2.8-1.5C145.3,272.5,146.8,274.5,146.8,278.4z"/>
		<path class="st17" d="M154.8,281.4V274c0-3.9,2.1-5.9,5.7-5.9c3.5,0,5.4,2.1,5.6,5.9h-3.3c-0.1-1.9-0.8-2.7-2.3-2.7
			s-2.3,0.8-2.3,2.8v7.4c0,1.9,0.9,2.8,2.4,2.8c1.6,0,2.4-0.8,2.4-2.7v-1.8h-2.6v-2.9h5.8v4.7c-0.1,3.8-2.2,5.9-5.7,5.9
			C157,287.3,154.8,285.2,154.8,281.4z"/>
		<path class="st17" d="M178.1,277.9v9.1h-2.5l-0.2-1.3c-0.6,1-1.5,1.7-3.1,1.7c-2.6,0-4.2-1.8-4.2-4.4c0-2.9,2.1-4.4,5.3-4.4h1.7
			v-0.7c0-1.4-0.4-2.3-1.6-2.3c-0.9,0-1.6,0.5-1.8,1.5h-3.1c0.1-2.9,2-4.6,5-4.6C176.6,272.5,178.1,274.4,178.1,277.9z M174.9,281.2
			h-1.6c-1.3,0-2.1,0.6-2.1,1.8c0,1,0.6,1.7,1.8,1.7s1.9-0.7,1.9-2L174.9,281.2L174.9,281.2z"/>
		<path class="st17" d="M180.8,267.7h3.1V287h-3.1V267.7z"/>
		<path class="st17" d="M186.4,268.9c0-1.1,0.7-1.8,1.8-1.8c1,0,1.8,0.8,1.8,1.8s-0.8,1.8-1.8,1.8S186.4,269.9,186.4,268.9z
			 M186.7,272.9h3.1V287h-3.1V272.9z"/>
		<path class="st17" d="M192.6,267.7h3.1V287h-3.1V267.7z"/>
		<path class="st17" d="M208.3,282.5c-0.3,3-2.1,4.8-5.2,4.8c-3.1,0-4.9-2-4.9-5.4v-4c0-3.4,1.9-5.4,5-5.4c3.2,0,5.1,2,5.1,5.4v3.1
			h-6.9v0.8c0,1.7,0.7,2.4,1.8,2.4c1.3,0,1.7-0.5,1.9-1.8h3.2V282.5z M201.3,277.9v0.9h3.8v-0.9c0-1.7-0.7-2.4-1.9-2.4
			C202,275.5,201.3,276.2,201.3,277.9z"/>
		<path class="st17" d="M210.3,281.9v-3.8c0-3.5,1.9-5.5,5.1-5.5c3.2,0,5.1,2,5.1,5.5v3.8c0,3.5-1.9,5.5-5.1,5.5
			S210.3,285.4,210.3,281.9z M217.3,281.9v-3.8c0-1.7-0.7-2.4-1.9-2.4s-1.9,0.7-1.9,2.4v3.8c0,1.7,0.7,2.4,1.9,2.4
			C216.6,284.3,217.3,283.5,217.3,281.9z"/>
		<path class="st17" d="M238.9,287c-0.3-0.5-0.6-1-1-1.4c-1.1,1.1-2.6,1.8-4.2,1.8c-2.4,0-4.8-1.6-4.8-4.7c0-2.4,1.4-4.2,2.9-5.6
			c-1.1-1.8-1.9-3.4-1.9-4.8c0-2,1.3-4.3,4.2-4.3c3,0,4.2,2.1,4.2,4.3c0,2.2-1.4,3.8-2.9,5.2c0.7,0.9,1.4,2,2.4,3.3
			c0.3-0.6,0.5-1.1,0.6-1.5h2.9c-0.3,1.4-0.9,2.9-1.7,4.1c0.7,1.1,1.6,2.3,2.5,3.6H238.9z M236.2,283.2c-1-1.4-1.9-2.6-2.7-3.8
			c-0.9,0.9-1.5,1.9-1.5,3c0,1.3,0.8,2.1,1.9,2.1C234.7,284.4,235.5,283.9,236.2,283.2z M233.9,275.1c0.9-0.9,1.6-1.8,1.6-2.8
			c0-0.7-0.4-1.6-1.3-1.6c-0.7,0-1.4,0.5-1.4,1.7C232.8,273.1,233.1,273.9,233.9,275.1z"/>
		<path class="st17" d="M260,283.9v3.1h-9.7v-18.7h9.4v3.1h-6v4.6h5.6v3h-5.6v4.9H260z"/>
		<path class="st17" d="M262.2,281.4V274c0-3.9,2.1-5.9,5.7-5.9c3.5,0,5.4,2.1,5.6,5.9h-3.3c-0.1-1.9-0.8-2.7-2.3-2.7
			s-2.3,0.8-2.3,2.8v7.4c0,1.9,0.9,2.8,2.4,2.8c1.6,0,2.4-0.8,2.4-2.7v-1.8h-2.6v-2.9h5.8v4.7c-0.1,3.8-2.2,5.9-5.7,5.9
			C264.4,287.3,262.2,285.2,262.2,281.4z"/>
		<path class="st17" d="M276.2,268.3h3.3l3.9,8.8c0.5,1.2,1,2.7,1.5,3.8l0.1-0.1c-0.3-2.1-0.5-5.1-0.5-6.8v-5.7h3.2V287h-3.3
			l-3.6-8.1c-0.6-1.5-1.2-3.2-1.7-4.6l-0.1,0.1c0.2,2.1,0.4,5.3,0.4,7.2v5.4h-3.2L276.2,268.3L276.2,268.3z"/>
		<path class="st17" d="M290.7,281v-6.7c0-3.9,2.2-6.3,5.9-6.3c3.7,0,5.9,2.4,5.9,6.3v6.7c0,3.9-2.2,6.3-5.9,6.3
			S290.7,285,290.7,281z M299.1,281v-6.7c0-2-0.8-3.1-2.5-3.1s-2.5,1.1-2.5,3.1v6.7c0,2,0.9,3.1,2.5,3.1
			C298.3,284.2,299.1,283,299.1,281z"/>
		<path class="st17" d="M304.3,281.7h3.4c0,1.7,0.9,2.5,2.3,2.5c1.5,0,2.2-0.9,2.2-2.1c0-3.4-7.5-3.7-7.5-9.3c0-2.8,2-4.9,5.3-4.9
			s5.4,2.1,5.4,5.4H312c0-1.5-0.8-2.2-2-2.2s-1.9,0.7-1.9,1.8c0,3.3,7.6,3.4,7.6,9.2c0,2.9-2.1,5.3-5.7,5.3
			C306.5,287.4,304.3,285.3,304.3,281.7z"/>
	</g>
	<g>
		<g>
			<rect x="67.3" y="309.7" class="st18" width="99" height="67.2"/>
			<g>
				<path class="st19" d="M161.4,358.2c0.1,0.1,0.2-0.1,0.2-0.1C161.4,358,161.4,358.3,161.4,358.2z"/>
				<polygon class="st19" points="159.2,357.6 159.3,357.6 158.9,357.6 				"/>
				<path class="st19" d="M157.3,356.8c0.1,0.4,0.7,0.3,1,0.5v0.1l0.3-0.2C158.2,357.1,157.6,357,157.3,356.8z"/>
				<path class="st19" d="M156.5,355.7c0,0.1-0.3,0,0.2,0.1l0,0C156.7,355.8,156.6,355.8,156.5,355.7z"/>
				<path class="st19" d="M156.7,355.8C156.9,355.9,156.6,355.7,156.7,355.8L156.7,355.8z"/>
				<path class="st19" d="M155.7,355.5h0.3c0-0.1-0.3-0.2-0.2-0.2C155.6,355.3,155.6,355.3,155.7,355.5z"/>
				<path class="st19" d="M155.4,355.6h0.2C155.5,355.6,155.5,355.6,155.4,355.6z"/>
				<path class="st19" d="M155.9,355.7h-0.3c0,0.1,0,0.2,0.1,0C155.6,355.7,155.7,355.7,155.9,355.7z"/>
				<path class="st19" d="M156,355.8c0.1,0.1,0.3,0.2,0,0.2C156.6,356.2,156.6,355.9,156,355.8z"/>
				<path class="st19" d="M157.1,357l0.2,0.2h0.2C157.4,357.2,157.1,356.9,157.1,357z"/>
				<path class="st19" d="M154.1,354.7c0,0.1,0,0.2,0,0.3h0.2C154.2,354.9,154,354.8,154.1,354.7z"/>
				<path class="st19" d="M154.1,355h-0.3C154,355.1,154.1,355.1,154.1,355z"/>
				<polygon class="st19" points="155.2,355.9 155.8,355.9 155.1,355.9 				"/>
				<polygon class="st19" points="152.9,354.3 153.1,354.2 152.7,354.3 				"/>
				<path class="st19" d="M152.1,354.1c0.2-0.1-0.1-0.3,0-0.3c-0.2,0-0.4,0-0.6,0C151.7,353.8,151.9,353.9,152.1,354.1z"/>
				<path class="st19" d="M151.2,353.9c0.1,0,0.2,0,0.3,0C151.4,353.8,151.3,353.8,151.2,353.9z"/>
				<path class="st19" d="M153.2,354.8c0,0,0-0.2-0.2-0.3L153.2,354.8L153.2,354.8z"/>
				<polygon class="st19" points="153.1,354.8 153.1,354.7 152.9,354.6 				"/>
				<path class="st19" d="M153.3,354.8L153.3,354.8C153.2,354.8,153.2,354.8,153.3,354.8z"/>
				<path class="st19" d="M154.5,355.5c-0.2,0-0.6,0-0.3,0.3C154.3,355.7,154.2,355.5,154.5,355.5z"/>
				<path class="st19" d="M153.3,355.1l0.3,0.2c0,0,0-0.1,0.1-0.1L153.3,355.1z"/>
				<polygon class="st19" points="153.2,355.1 153.3,355.1 153.2,355 				"/>
				<path class="st19" d="M151.7,354.2c-0.2,0-0.3,0-0.5-0.1c0.2,0.1,0.4,0.2,0.5,0.2S151.9,354.3,151.7,354.2z"/>
				<path class="st19" d="M152.4,354.5L152.4,354.5L152.4,354.5z"/>
				<path class="st19" d="M149.5,353.6v0.1V353.6z"/>
				<path class="st19" d="M151.8,354.4c0.1,0.1,0.2,0.1,0.3,0C152,354.4,151.9,354.4,151.8,354.4
					C151.7,354.4,151.7,354.4,151.8,354.4z"/>
				<path class="st19" d="M150.7,353.8c0.1,0.1,0.1,0.1,0.2,0.2C150.9,353.9,150.7,353.8,150.7,353.8z"/>
				<path class="st19" d="M152.3,354.4L152.3,354.4L152.3,354.4z"/>
				<path class="st19" d="M152.3,354.4c-0.1,0-0.2,0-0.2,0C152.2,354.5,152.3,354.5,152.3,354.4
					C152.3,354.5,152.3,354.4,152.3,354.4z"/>
				<path class="st19" d="M148.7,354.6c0.1-0.2,0.5-0.2,0.7,0.1c0.3,0,0.3-0.6,0.1-1c0,0.1,0,0.1-0.4,0.1c0.1,0.1,0.7,0.4,0.3,0.5
					c-0.5,0-0.3-0.2-0.5-0.3c0.1,0.2-0.6,0.1-0.6,0.5L148.7,354.6C148.7,354.5,148.6,354.5,148.7,354.6z"/>
				<path class="st19" d="M150.1,353.9h0.1c-0.1-0.1-0.2-0.2-0.4-0.4c-0.2,0-0.3,0.1-0.3,0.1L150.1,353.9L150.1,353.9z"/>
				<path class="st19" d="M150.9,354.1c-0.2,0.1-0.5,0.1-0.4,0.4c0.4,0.1,0.3-0.1,0.6-0.1C150.4,354.2,151.3,354.3,150.9,354.1
					c0.1,0,0.2,0.1,0.4,0.1C151.1,354.1,151,354,150.9,354.1L150.9,354.1L150.9,354.1L150.9,354.1C150.9,354,151,354,150.9,354.1
					C150.9,354,150.9,354,150.9,354.1C150.9,354,150.9,354.1,150.9,354.1C150.7,354,150.8,354,150.9,354.1
					C150.9,354,150.9,354,150.9,354.1L150.9,354.1l-0.6-0.2C150.4,354,150.6,354,150.9,354.1z"/>
				<path class="st19" d="M153.7,356C153.7,356,153.7,355.9,153.7,356C153.7,355.9,153.6,356,153.7,356z"/>
				<path class="st19" d="M153.5,355.8c0.1,0,0.1-0.1,0.3,0c0.1,0.1,0,0.1,0,0.1c0.1,0,0.4,0,0.1-0.2h-0.1c-0.2-0.1-0.5-0.5-0.4-0.5
					C153.3,355.4,153.4,355.6,153.5,355.8z"/>
				<path class="st19" d="M152.2,355l-0.5-0.1l0.2,0.2V355C152.1,355.1,152.1,355,152.2,355z"/>
				<polygon class="st19" points="149.5,353.5 149.6,353.4 149.2,353.5 				"/>
				<polygon class="st19" points="148.8,353.3 148.8,353.2 148.6,353.2 				"/>
				<path class="st19" d="M109,351.2l-0.2,0.1C109,351.2,109,351.2,109,351.2z"/>
				<path class="st19" d="M110.2,351.2L110.2,351.2C110.2,351.1,110.1,351.2,110.2,351.2z"/>
				<path class="st19" d="M131.6,350c-0.2-0.2-0.4-0.5-0.4-0.3l0.1,0.2C131.4,349.9,131.5,349.9,131.6,350z"/>
				<polygon class="st19" points="119.6,350.2 119.7,350.2 119.9,350.1 				"/>
				<path class="st19" d="M119.4,350.9l-0.3-0.1C119.2,350.8,119.3,350.9,119.4,350.9z"/>
				<path class="st19" d="M102.8,351.8l-0.2,0.2C102.9,352,102.8,351.9,102.8,351.8z"/>
				<path class="st19" d="M141.7,351.7c-0.2-0.1-0.3-0.2-0.5-0.2C141.4,351.6,141.6,351.8,141.7,351.7z"/>
				<path class="st19" d="M109.4,349.3c-0.1,0-0.1,0.1-0.1,0.1C109.4,349.3,109.4,349.3,109.4,349.3z"/>
				<path class="st19" d="M140.6,351.3C140.6,351.4,140.7,351.4,140.6,351.3c0.2,0.1,0.4,0.1,0.6,0.1
					C141,351.3,140.8,351.3,140.6,351.3z"/>
				<path class="st19" d="M80.6,356.2L80.6,356.2L80.6,356.2z"/>
				<path class="st19" d="M73.8,356.9c0.1,0,0.2-0.1,0.2-0.1C74,356.8,73.9,356.8,73.8,356.9z"/>
				<path class="st19" d="M146,352.5C146.2,352.5,146,352.5,146,352.5L146,352.5z"/>
				<path class="st19" d="M146.5,353.4L146.5,353.4L146.5,353.4z"/>
				<path class="st19" d="M138.9,352.2L138.9,352.2L138.9,352.2z"/>
				<path class="st19" d="M146.2,352.7c-0.1,0-0.1-0.1-0.2-0.1C146.1,352.6,146.1,352.6,146.2,352.7z"/>
				<path class="st19" d="M146.2,352.6l0.1,0.1C146.4,352.6,146.3,352.6,146.2,352.6z"/>
				<path class="st19" d="M145.8,352.5c0.1,0,0.2,0,0.2,0.1l0,0L145.8,352.5z"/>
				<path class="st19" d="M92.3,352.7L92.3,352.7C92.1,352.8,92.2,352.7,92.3,352.7z"/>
				<path class="st19" d="M127.5,351.5C127.5,351.5,127.5,351.4,127.5,351.5L127.5,351.5L127.5,351.5z"/>
				<path class="st19" d="M127,351.5c0.2-0.2,0.4-0.2,0.5-0.1l-0.1-0.5L127,351.5z"/>
				<path class="st19" d="M106.3,351.4l0.4,0.1c-0.4,0.3-0.8,0.2-0.4,0.4c0-0.6,1.4-0.2,1.5-0.7l0.3,0.1c-0.1,0-0.1,0-0.2,0
					c0.5,0.2,0.3-0.4,1-0.4c0.2,0,0.4,0.1,0.2,0.2l0.5-0.2c0.1,0,0.1,0.1,0,0.1l0.7-0.1l0,0c0.1-0.1,0.3-0.2,0.4-0.3
					c0.2,0.1-0.1,0.1,0,0.1l0.4-0.2c0.2,0.1-0.2,0.3-0.4,0.3c0.4,0.6,0.3-0.2,1.2,0.2l-0.4,0.1c0.3,0.3,0.6,0.2,1,0.4
					c-0.1-0.1-0.9-0.5-0.4-0.6c0.1,0,0.3,0.1,0.5-0.1c0,0.2,0.2,0.1,0.5,0.1v0.3c0.3-0.1,0.3-0.2,0.5-0.3c0.4,0,0.4,0.2,0.5,0.4
					c0.6,0-0.4-0.3,0.3-0.4c0.5,0.1,0.8,0,1.4-0.2c0.3,0.1-0.1,0.2,0.1,0.2l0.3-0.2c0.1,0,0,0.1,0,0.1c0.2-0.1,0-0.3,0.4-0.3
					c0.1-0.3,0.8,0.4,1.3,0.1c0.1,0.1-0.1,0.2,0,0.3c0.7-0.2,0.6-0.2,1.1-0.4l0.5,0.2c-0.3-0.2,0.1-0.4,0.5-0.6
					c-0.1-0.1-0.2-0.2-0.3-0.2l0.6-0.1c0.1,0,0,0.1-0.1,0.2c0,0,0.1,0,0.1-0.1c0.2,0.1,0.1,0.3-0.1,0.4c-0.1-0.1-0.1-0.1-0.2-0.2
					c-0.2,0.2-0.3,0.3-0.3,0.5c0,0,0.1-0.1,0.2-0.1c0,0-0.1,0.1,0,0.1c0,0,0.1,0,0.2-0.1l0.1,0.3v-0.1l0.8,0.2
					c0.6-0.3,1.1-0.7,2-0.8c-0.2,0.2-0.1,0.4-0.1,0.6c-0.2-0.3-0.7,0.1-1.2,0c0.2,0,0.2,0.2,0.1,0.2l0.8-0.2c0,0.2,0.2,0.2,0.4,0.3
					c-0.1-0.4,0.6-0.2,1-0.4c0,0.1-0.1,0.3-0.5,0.2c0.4,0.3,0.6-0.5,1-0.2c-0.1,0-0.2,0-0.2,0c0.2-0.1,0.8,0,0.7,0.1h-0.1
					c0.7,0.1,2,0.2,2.1-0.2c0,0-0.1,0.4-0.2,0.5l1.3-1.1c-0.1,0.3,0.2,1.1-0.4,1.2c0.2,0.1,0.3,0.1,0.7,0c-0.1-0.1-0.2-0.5-0.1-0.5
					c0.4,0.4,0.3,0.2,0.7,0.5c-0.2-0.1,0.1-0.5,0.3-0.5c0,0.1,0,0.5-0.1,0.5l0.7-0.4c-0.2,0.1-0.1,0.4,0.1,0.5
					c-0.1-0.1,0.5,0.1,0.7,0l-0.3-0.1c0.7,0.2,0.8-0.6,1.5-0.5c-0.1,0.1-0.3,0.6,0.1,0.7c0.2-0.2,0.9-1.1,1.5-1.2l0.1,0.2l0.5-0.1
					c-0.4,0.3-1.3,1-1.8,1.2c0.3,0.1,0.1,0.2,0.5,0.2c0.1,0.1-0.2,0.2-0.4,0.2l0.9,0.2c0-0.3,0.7-0.2,0.7-0.4l-1,0.2
					c0-0.3,0.7-0.7,1.3-0.6c0.2,0.1-0.2,0.5-0.2,0.6c0.1-0.1,0.6-0.1,0.7,0l-0.3,0.1c0.3,0.2,0.6-0.3,1,0.1c0.1,0,0.4,0.4,0.4,0.3
					c-0.2-0.4-0.1-1.4,0.1-1.6c0.1,0,0.8,0.4,0.9,0.6c0.2,0.3-0.5,0.5-0.3,0.8c0-0.1,0.2-0.1,0.2-0.2c0.1,0.1-0.1,0.2,0.2,0.2
					c0.1-0.3,0.7,0.1,0.2-0.2c0.4,0,0.3,0.1,0.7,0.2c-0.1-0.2,0.5-0.6,0.8-0.6c0,0.1,0,0.2,0.1,0.2c0.7,0.2,1,0.4,1.7,0.5
					c0,0.1,0.3,0.2,0.2,0.3c0.1,0,0.2-0.1,0.4-0.1c0.3,0.3-0.4-0.1-0.2,0.3c0.1-0.2,0.6-0.1,0.9-0.2c0-0.3-0.6-0.2-0.9-0.1
					c0.1-0.3,0.6-0.6,1.3-0.6c0.6,0,0.2,0.3,0.3,0.2c1,0.3,1-0.4,1.8,0c0.3,0.3-0.1,0.4-0.1,0.6c-0.5,0-0.6-0.3-0.9-0.4l0.3,0.2
					c-0.2,0-0.5,0-0.6-0.1c0.2,0.3,1.7,0.4,2.4,0.8c0.2,0,0.4-0.1,0.3-0.2h-0.2c-0.2-0.2,0.5-0.1,0.2-0.3c0.4,0,0.8-0.1,1.2,0.1v0.3
					c0-0.1-0.3-0.2-0.4-0.2c0.2-0.1,0.6,0.5,0.9,0.3l-0.3-0.3c0.4,0,0.8-0.2,1.2,0c-0.1-0.3-0.1,0-0.3-0.4c0.2,0.4-1-0.3-0.7,0.2
					c-0.2-0.4-0.5-0.3-0.8-0.7c0,0.1,0.1,0.2-0.2,0.1c0,0-0.1,0-0.1,0.1l0,0l0,0l0,0c0.1,0.1,0.1,0.1,0.1,0.2c-0.2,0.1-0.8,0-1,0.1
					c-0.2-0.1,0.1-0.1,0-0.2l-0.3,0.1c0-0.2-0.5-0.4,0-0.4l-0.4-0.1c-0.2-0.2-0.6-0.3-0.8-0.3c-0.2-0.1-0.6,0.1-0.4,0h-0.7l0,0
					c-0.7-0.2-1.4,0-2.2-0.5c-0.2,0-0.5,0-0.9-0.1v-0.2c-0.3,0-0.9-0.3-1-0.2c-0.2-0.5-1.4-0.3-1.9-0.5l-0.1,0.2
					c-0.4-0.1-0.7-0.1-1.2,0v0.2c-0.4,0.1-1-0.3-1.6-0.3c0.1-0.1,0.2,0,0.3,0c-0.7-0.5-1.6,0.1-2.2-0.3c-0.2,0-0.3,0-0.4-0.1l0,0
					c0,0,0,0-0.1,0s-0.1-0.1-0.2-0.1c0.1,0.1,0.1,0.1,0.2,0.1c-0.1,0-0.3,0-0.5,0l-0.1-0.2l0,0c-0.2-0.1-0.2,0.1-0.1,0.2
					c-0.1,0-0.2,0.1-0.3,0.1c-0.1-0.3-0.5,0.1-0.7-0.3c-0.1,0.2-1,0-1.1,0.4c0,0-0.1-0.1,0-0.1c-0.2-0.1-0.4-0.1-0.6,0l-0.1-0.3
					l-0.5,0.3c-0.3-0.2-0.4-0.3-0.1-0.5c-0.7,0.2-0.5,0.1-1.1,0.3v-0.2c-0.2,0-0.5,0.2-0.7,0c-0.4-0.4-2.2-0.2-3.4-0.6
					c0.2,0.5-0.5-0.2-0.6,0.1c-0.1-0.1-0.2-0.2,0-0.3c-0.6,0.1-0.9-0.2-1.3,0.1c-0.1-0.1,0.1-0.2,0.1-0.2s-0.2,0.1-0.3,0
					c-0.1-0.1,0.1-0.1,0.2-0.1c-0.6,0-0.7,0.4-0.7,0.7c-0.3-0.2-0.5-0.2-0.7,0.1c-0.1-0.1-0.3-0.2,0.1-0.3c-0.2,0-1.3-0.2-1.3,0.1
					c-0.1-0.1-0.3,0-0.4,0c-0.5,0-0.5,0-1,0h0.1c-0.2,0.3-0.4,0.1-0.8,0.1l0,0c-0.9-0.2-0.4,0.1-1.2-0.2v0.2
					c-0.1,0.4-0.8-0.3-1.2-0.1l0.2,0.1c-0.3,0.2-0.8-0.6-1-0.6c-0.1,0,0.1-0.1,0.2-0.1c-0.7-0.2-0.1,0.3-0.6,0.3
					c-0.1-0.1,0.1-0.4-0.2-0.4c-0.2-0.1-1,0.5-1.5,0.2c0.1,0.1,0.2,0.2,0,0.3c-0.4,0.1-1-0.4-1.4,0l-0.1-0.1
					c-0.3,0.1-0.9,0.2-1.1,0.4c-0.3-0.7-1.8,0.4-1.8-0.2l-0.9,0.1v-0.1c-0.6,0-0.8,0.2-0.9,0.3c-0.1,0,0-0.1,0-0.1
					c-0.8-0.1-0.9,0-1.6,0.4l-0.1-0.2c-0.2,0.1-1.2-0.2-2,0.1c0,0,0-0.1,0.1-0.1c-0.9,0.3-2.2-0.3-2.5,0.5l-0.6,0.3
					c0.8,0-0.1,0.3,0.3,0.4c-0.3,0.1-0.8-0.1-0.4-0.2h0.1c0.1-0.4-1,0-1-0.3c-1.5,0.2-3,0.3-4.5,0.5l0.2,0.3l-0.5,0.1
					c-0.1,0-0.2-0.2,0.1-0.3c-0.2-0.1-0.6,0.3-0.6,0.3c-0.7,0,0.2-0.4,0-0.4l-0.3,0.1h0.1c-0.2,0.2-0.2,0.3-0.6,0.4
					c-0.3,0-0.2-0.2-0.3-0.1c0,0,0,0-0.2,0l-0.6,0.1l0.3,0.2c-0.3,0.2-0.6,0.1-0.2,0.3c-0.5-0.3-2.3,0.4-2.6,0.3
					c-0.3,0.3-0.7,0.4-1.2,0.5c0.1,0,0.3,0.3-0.1,0.3c0-0.6-0.8,0-1.2-0.3c0.4,0.2-1.1,0.4-0.6,0.6c-0.3,0-0.1-0.2-0.4-0.3
					c-0.7,0.4-1.8,0.4-2.7,0.8c0,0.1,0.2,0.1,0,0.3l-0.6-0.2c-0.2,0.1,0,0.5-0.5,0.3c0.1,0,0.2,0.1,0.1,0.2c-1,0.2-1.9,0.6-2.9,1
					c-0.9,0.4-1.9,0.8-3,0.9c0.3,0,0.1,0.1,0,0.2c0.1,0,0.1,0.2,0.1,0.2l-0.9,0.1c0,0.3-0.8,0.4-0.8,0.7l0.2-0.2
					c-0.2,0.4,0.8,0.4,0.9,0.8c0.2-0.5,1.2,0,1.5-0.7c0.2,0-0.1,0.2,0,0.2c0.1-0.2,0.2-0.3,0.6-0.4v0.1c0.9-0.4,1.4-0.4,2.5-0.7
					l-0.1-0.2c0.2-0.1,0.3,0,0.4,0c0.2-0.4-0.7,0.2-0.5-0.2c0.4,0.3,1.6-0.6,2-0.2c0.4-0.1-0.2-0.2,0.2-0.3l0.1,0.1v-0.2
					c0.2-0.1,0.4,0.1,0.5,0.2c-0.1,0-0.2,0.1-0.2,0.1c0.4,0,0.8-0.3,1-0.3h-0.4c1-0.4,2.2-0.6,3.1-1.2l-0.1-0.1
					c0.7-0.4,0.6-0.1,1.4-0.4l0,0c0.1-0.1,0.3-0.2,0.6-0.3c-0.2,0.2,0.4,0.1,0.2,0.3c0.8-0.4,0.4-0.2,0.8-0.7l0.2,0.1
					c0.2-0.2,0.1-0.3,0.6-0.4c-0.3,0.2,0.3,0.2,0,0.4c0.9,0.1,1.2-0.6,1.7-0.2c0.3-0.5-0.8-0.1-0.6-0.2c-0.2-0.1,0.3-0.4,0.5-0.4
					c0.3-0.1,0.6,0.4,1.3,0.3c-0.1,0-0.1,0-0.1,0.1c0.3,0.1,0.5-0.2,0.8-0.1c0.1-0.3,0.4-0.1,0.4-0.4l-0.6,0.2
					c0.3-0.2,0.6-0.6,1.3-0.5c0,0.1-0.2,0.2-0.3,0.3c0.2,0.1,0.3-0.1,0.5-0.1c0,0.3-0.8,0.2-1.1,0.5c0.2,0.1,0.7-0.4,0.6,0
					c0.2-0.5,0.7-0.1,1.1-0.5v0.2c0.1,0,0.2-0.2,0.3-0.2l-0.2,0.3c0.3-0.3,0.8,0.1,1.1-0.1c-0.8,0.1-0.2-0.2-0.6-0.3
					c0.9-0.4,0.6,0.4,1.7,0.2c-0.1,0.1-0.6,0-0.3-0.2c0.2,0,0.5,0,0.6,0.1c0.7-0.1-0.1-0.2,0.1-0.4c0.3,0.2,0.3-0.2,0.6-0.3v0.2
					c0.8,0,0.2-0.5,0.9-0.4l-0.3,0.3l0.4-0.1v0.2c0.4-0.2,0.5-0.2,0.9-0.2c-0.1-0.1,0-0.4,0.4-0.4c0.3,0.1-0.1,0.2,0.4,0.1
					c-0.1,0.1-0.2,0.3-0.5,0.2c0,0.1-0.1,0.1-0.1,0.2c0.3,0.1,0.7-0.1,0.8-0.1c-0.1,0-0.2,0-0.2,0l0.7-0.4c0.1,0.1,0,0.1,0,0.2
					c0.1,0,0.2-0.1,0.5-0.2c0,0.2,0,0.3-0.3,0.5l0.7-0.3c0.1,0.1,0.4,0.2,0.3,0.2c0.4,0.1,0.9-0.4,1.5-0.3c0,0,0.1-0.1,0.2-0.1
					c0.5,0,0.9,0.2,1.5-0.1l0.4,0.3c0.4-0.1-0.5-0.3,0.3-0.5c0.5-0.1,0.2,0.2,0.4,0.3c0.3-0.2,0.7-0.5,1.2-0.3
					C106.6,351.4,106.5,351.4,106.3,351.4z M111.9,351c-0.1,0-0.3,0.2-0.4,0.1C111.6,350.9,111.7,351,111.9,351z M120.4,350.6
					c-0.1,0.1-0.2,0-0.3-0.1C120.2,350.5,120.3,350.5,120.4,350.6z M144.4,352.3L144.4,352.3C144.1,352.2,144.2,352.2,144.4,352.3z
					 M144.8,352.5C144.9,352.5,144.9,352.4,144.8,352.5c0,0-0.1-0.1-0.2-0.1C144.6,352.4,144.7,352.5,144.8,352.5z M90.5,351.6
					L90.5,351.6C90.4,351.8,90.4,351.7,90.5,351.6z"/>
				<path class="st19" d="M119.5,350.8v-0.1C119.4,350.8,119.4,350.8,119.5,350.8z"/>
				<path class="st19" d="M102.8,351.8L102.8,351.8L102.8,351.8L102.8,351.8z"/>
				<path class="st19" d="M136.8,352.6c-0.1,0-0.1-0.1-0.2-0.1C136.6,352.5,136.6,352.6,136.8,352.6z"/>
				<path class="st19" d="M147.6,352.8h-0.3c0.2,0,0.2,0.1,0.3,0.1C147.5,352.9,147.5,352.8,147.6,352.8z"/>
				<path class="st19" d="M149.9,354.8c0.1,0,0.1,0,0.1,0v-0.1C149.9,354.7,149.7,354.7,149.9,354.8z"/>
				<path class="st19" d="M147.7,353.6c0,0.2,0.2,0.2,0.4,0.2l0,0C148.2,353.5,147.9,353.5,147.7,353.6z"/>
				<path class="st19" d="M148.1,353.8c0.1,0,0.1,0,0.2,0.1C148.4,353.7,148.3,353.8,148.1,353.8z"/>
				<path class="st19" d="M145.5,352.5c0.1,0.1,0.1-0.2,0.2-0.1C145.8,352.2,144.9,352.5,145.5,352.5z"/>
				<polygon class="st19" points="147.7,354.1 147.7,353.9 147.5,354.1 				"/>
				<path class="st19" d="M146,353.5l0.3,0.1h0.1C146.2,353.6,146,353.5,146,353.5z"/>
				<path class="st19" d="M146.5,353.6c0.1,0,0.2,0.1,0.3,0C146.7,353.7,146.6,353.6,146.5,353.6z"/>
				<polygon class="st19" points="147.2,354.1 147.1,354 146.9,353.9 				"/>
				<path class="st19" d="M142.2,352.6h-0.4c-0.1,0.1,0,0.1,0.2,0.1C142.1,352.7,142.2,352.7,142.2,352.6z"/>
				<path class="st19" d="M143.3,353.4c-0.1-0.1-0.1-0.1-0.1-0.2l-0.1,0.3L143.3,353.4z"/>
				<path class="st19" d="M142.1,353.2c-0.1,0.1-0.6,0.1-0.1,0.2C142.1,353.3,142.5,353.4,142.1,353.2z"/>
				<polygon class="st19" points="136.3,351.8 136.4,351.8 136.5,351.4 				"/>
				<path class="st19" d="M131,352.1c0.5,0.2,0.1-0.2,0.5-0.1c0.1-0.1-0.3-0.1-0.2-0.2C131,351.9,130.9,351.8,131,352.1z"/>
				<path class="st19" d="M131.3,351.8c0,0,0.1,0,0.2,0C131.4,351.8,131.3,351.8,131.3,351.8z"/>
				<polygon class="st19" points="72.6,357.2 72.3,357.2 72.6,357.3 				"/>
				<path class="st19" d="M72.3,357.7l-0.2-0.2l-0.1,0.3C72.1,357.8,72.2,357.7,72.3,357.7z"/>
				<path class="st19" d="M112.7,351.6L112.7,351.6c0-0.1-0.1-0.1-0.2-0.1L112.7,351.6z"/>
				<polygon class="st19" points="108.7,351.5 108.8,351.5 108.6,351.3 				"/>
				<path class="st19" d="M105.3,352c0.1,0,0.3-0.1,0.4-0.1C105.4,352,105.2,351.7,105.3,352z"/>
			</g>
			<g>
				<g>
					<polygon class="st19" points="134.5,325.3 132.6,326.8 134,328.8 131.4,327.7 129.5,329.1 129.9,327 127.3,325.8 130.1,325.6 
						130.4,323.5 131.7,325.5 					"/>
				</g>
				<g>
					<polygon class="st19" points="122.1,325.9 121.6,327.9 123.8,328.7 121.3,329 120.8,331 119.7,329.2 117.2,329.6 119.1,328.2 
						118,326.5 120.2,327.3 					"/>
				</g>
				<g>
					<polygon class="st19" points="112.1,330.1 111.6,331.6 113.5,332 111.3,332.5 110.8,334.1 110,332.8 107.8,333.3 109.5,332.1 
						108.6,330.9 110.5,331.3 					"/>
				</g>
				<g>
					<polygon class="st19" points="103.1,335.2 103,336.6 104.6,336.7 102.9,337.4 102.7,338.8 101.8,337.9 100.1,338.6 
						101.3,337.3 100.4,336.4 102,336.5 					"/>
				</g>
				<g>
					<polygon class="st19" points="96.2,341.1 96.3,342.4 97.8,342.1 96.3,343.2 96.3,344.5 95.3,343.9 93.8,345 94.7,343.5 
						93.8,342.9 95.3,342.6 					"/>
				</g>
				<g>
					<polygon class="st19" points="90.3,347.8 90.9,348.6 92.2,347.8 91.3,349.1 91.9,349.9 90.7,349.9 89.9,351.1 90,349.9 
						88.9,349.9 90.1,349.1 					"/>
				</g>
				<g>
					<polygon class="st19" points="86.8,354.8 87.6,355.2 88.4,354.2 88.2,355.4 89,355.8 88,356.2 87.8,357.4 87.4,356.4 
						86.4,356.8 87.1,355.8 					"/>
				</g>
				<g>
					<polygon class="st19" points="147.3,327.7 144.4,328.2 144.6,331 142.7,328.5 139.9,329 141.5,327 139.6,324.5 142.6,325.7 
						144.2,323.7 144.4,326.5 					"/>
				</g>
			</g>
		</g>
		<g>
			<path class="st20" d="M185.8,322h-4.7c-1.4,0-2.2-0.5-2.2-1.8v-8.5c0-1.4,0.8-1.8,2.2-1.8h4.7c0.2,0,0.3,0.1,0.3,0.3v0.1
				c0,0.2-0.1,0.3-0.3,0.3h-4.7c-0.9,0-1.4,0.1-1.4,1.2v3.6h6.1c0.2,0,0.3,0.1,0.3,0.3v0.2c0,0.2-0.1,0.3-0.3,0.3h-6.1v4.2
				c0,1,0.5,1.2,1.4,1.2h4.7c0.2,0,0.3,0.1,0.3,0.3v0.1C186.1,321.8,186,322,185.8,322z"/>
			<path class="st20" d="M195,322h-0.1c-0.2,0-0.3-0.1-0.3-0.3v-0.3c-0.9,0.4-2,0.7-2.9,0.7c-1.7,0-3.2-0.9-3.2-3.1v-5.4
				c0-0.2,0.1-0.3,0.3-0.3h0.1c0.2,0,0.3,0.1,0.3,0.3v5.4c0,1.8,1.1,2.5,2.4,2.5l0,0c0.9,0,2-0.3,2.9-0.7v-7.2
				c0-0.2,0.2-0.3,0.3-0.3h0.1c0.2,0,0.3,0.1,0.3,0.3v8.1C195.3,321.8,195.2,322,195,322z"/>
			<path class="st20" d="M201.2,313.7c-0.7,0-1.5,0.1-2.5,0.8v7.1c0,0.2-0.2,0.3-0.3,0.3h-0.1c-0.2,0-0.3-0.1-0.3-0.3v-8.1
				c0-0.2,0.1-0.3,0.3-0.3h0.1c0.2,0,0.3,0.1,0.3,0.3v0.3c0.9-0.5,1.6-0.8,2.5-0.8c0.3,0,0.5,0,0.5,0.2v0.1
				C201.7,313.7,201.5,313.7,201.2,313.7z"/>
			<path class="st20" d="M206.5,322.1c-2.5,0-3.7-1.4-3.7-3.9v-1.1c0-2.5,1.3-3.9,3.7-3.9s3.7,1.4,3.7,3.9v1.1
				C210.2,320.6,208.9,322.1,206.5,322.1z M209.4,317c0-2-0.8-3.3-2.9-3.3c-2.1,0-2.9,1.3-2.9,3.3v1.1c0,2,0.8,3.3,2.9,3.3
				c2.1,0,2.9-1.3,2.9-3.3V317z"/>
			<path class="st20" d="M215.8,322.1c-0.7,0-1.8-0.1-2.5-0.2v3c0,0.2-0.1,0.3-0.3,0.3h-0.2c-0.2,0-0.3-0.1-0.3-0.3v-11.1
				c0-0.2,0.1-0.3,0.3-0.3c0.8-0.1,2-0.3,3-0.3c2.5,0,3.6,1.6,3.6,4v1.1C219.3,320.7,218.1,322.1,215.8,322.1z M218.5,317.1
				c0-2.1-0.7-3.3-2.8-3.3c-0.9,0-1.9,0.1-2.5,0.2v7.2c0.7,0.1,1.8,0.2,2.5,0.2c2,0,2.8-1.1,2.8-3.3V317.1z"/>
			<path class="st20" d="M228.2,317.7h-6.1v0.3c0,2.7,1.5,3.3,3.3,3.3c0.8,0,1.8-0.1,2.7-0.3h0.1c0.1,0,0.3,0.1,0.3,0.2v0.1
				c0,0.2-0.1,0.3-0.3,0.3c-0.9,0.2-1.9,0.3-2.7,0.3c-2.2,0-4.1-0.9-4.1-4v-1.1c0-2.3,1.3-3.9,3.7-3.9c2.5,0,3.6,1.6,3.6,3.9v0.4
				C228.6,317.6,228.4,317.7,228.2,317.7z M227.8,317c0-2.1-0.8-3.2-2.8-3.2s-2.9,1.3-2.9,3.3v0.1L227.8,317L227.8,317z"/>
			<path class="st20" d="M236.8,322L236.8,322c-0.3,0-0.5-0.1-0.5-0.3v-0.4c-0.9,0.4-2,0.8-3.1,0.8c-1.4,0-2.8-0.6-2.8-2.6v-0.2
				c0-1.7,1.2-2.5,4.5-2.5h1.4v-0.6c0-1.7-0.5-2.4-2.3-2.4c-1.2,0-1.7,0.1-2.6,0.1c0,0,0,0-0.1,0c-0.2,0-0.3-0.1-0.3-0.2v-0.1
				c0-0.2,0.1-0.3,0.4-0.3c0.8-0.1,1.4-0.1,2.6-0.1c2.4,0,3.1,1.2,3.1,3v5.5C237.2,321.8,237,322,236.8,322z M236.4,317.3H235
				c-2.7,0-3.7,0.5-3.7,1.9v0.2c0,1.5,0.9,2,2,2c1,0,1.9-0.2,3.1-0.8L236.4,317.3L236.4,317.3z"/>
			<path class="st20" d="M246.3,322h-0.1c-0.2,0-0.3-0.1-0.3-0.3v-5.4c0-1.9-1.1-2.5-2.4-2.5c-0.9,0-2,0.3-2.9,0.7v7.2
				c0,0.2-0.2,0.3-0.3,0.3h-0.1c-0.2,0-0.3-0.1-0.3-0.3v-8.1c0-0.2,0.1-0.3,0.3-0.3h0.1c0.2,0,0.3,0.1,0.3,0.3v0.3
				c0.9-0.4,2-0.7,2.9-0.7c1.7,0,3.2,0.8,3.2,3.1v5.4C246.6,321.8,246.5,322,246.3,322z"/>
			<path class="st20" d="M186.9,339c-0.9,0.2-2.1,0.3-4,0.3c-2,0-4.9-1.2-4.9-5V332c0-3.9,2.8-5,4.9-5c1.7,0,3.3,0.2,3.9,0.3
				c0.2,0,0.3,0.1,0.3,0.3v1.1c0,0.2-0.1,0.3-0.4,0.3c0,0,0,0-0.1,0c-0.8-0.1-2.1-0.1-3.8-0.1c-1.2,0-2.4,0.8-2.4,3.1v2.3
				c0,2.3,1.3,3.1,2.3,3.1c0.7,0,1.2,0,1.8,0v-4.2c0-0.2,0.1-0.3,0.3-0.3h1.8c0.2,0,0.4,0.1,0.4,0.3v5.5
				C187.3,338.9,187.1,339,186.9,339z"/>
			<path class="st20" d="M190.6,339.2h-0.2c-0.2,0-0.3-0.1-0.3-0.3v-11.5c0-0.2,0.1-0.3,0.3-0.3h0.2c0.2,0,0.3,0.1,0.3,0.3v11.5
				C190.9,339,190.7,339.2,190.6,339.2z"/>
			<path class="st20" d="M197,339.3c-2.5,0-3.7-1.4-3.7-3.9v-1.1c0-2.5,1.3-3.9,3.7-3.9c2.5,0,3.7,1.4,3.7,3.9v1.1
				C200.8,337.9,199.5,339.3,197,339.3z M200,334.3c0-2-0.8-3.3-2.9-3.3c-2.1,0-2.9,1.3-2.9,3.3v1.1c0,2,0.8,3.3,2.9,3.3
				c2.1,0,2.9-1.3,2.9-3.3V334.3z"/>
			<path class="st20" d="M206.4,339.3c-1,0-2.2-0.2-3-0.3c-0.2,0-0.3-0.1-0.3-0.3v-11.3c0-0.2,0.1-0.3,0.3-0.3h0.2
				c0.2,0,0.3,0.1,0.3,0.3v3.2c0.7-0.1,1.8-0.2,2.5-0.2c2.4,0,3.6,1.3,3.6,3.9v1.1C209.9,337.7,208.9,339.3,206.4,339.3z
				 M209.1,334.3c0-2.2-0.8-3.3-2.8-3.3c-0.7,0-1.8,0.1-2.5,0.2v7.2c0.7,0.1,1.6,0.2,2.5,0.2c2,0,2.8-1.2,2.8-3.3V334.3z"/>
			<path class="st20" d="M218.1,339.2L218.1,339.2c-0.3,0-0.5-0.1-0.5-0.3v-0.4c-0.9,0.4-2,0.8-3.1,0.8c-1.4,0-2.8-0.6-2.8-2.6v-0.2
				c0-1.7,1.2-2.5,4.5-2.5h1.4v-0.6c0-1.7-0.5-2.4-2.3-2.4c-1.2,0-1.7,0.1-2.6,0.1c0,0,0,0-0.1,0c-0.2,0-0.3-0.1-0.3-0.2v-0.1
				c0-0.2,0.1-0.3,0.4-0.3c0.8-0.1,1.4-0.1,2.6-0.1c2.4,0,3.1,1.2,3.1,3v5.5C218.5,339,218.3,339.2,218.1,339.2z M217.7,334.6h-1.4
				c-2.7,0-3.7,0.5-3.7,1.9v0.2c0,1.5,0.9,2,2,2c1,0,1.9-0.2,3.1-0.8L217.7,334.6L217.7,334.6z"/>
			<path class="st20" d="M221.7,339.2h-0.2c-0.2,0-0.3-0.1-0.3-0.3v-11.5c0-0.2,0.1-0.3,0.3-0.3h0.2c0.2,0,0.3,0.1,0.3,0.3v11.5
				C222,339,221.9,339.2,221.7,339.2z"/>
			<path class="st20" d="M236.9,339.3L236.9,339.3c-0.3,0-0.5,0-0.6-0.1s-0.2-0.2-0.3-0.4l-6.1-11c0-0.1-0.1-0.1-0.1-0.1
				s-0.1,0-0.1,0.1v11.1c0,0.2-0.1,0.3-0.3,0.3h-0.2c-0.2,0-0.3-0.1-0.3-0.3v-11.1c0-0.5,0.4-0.8,0.9-0.8s0.7,0.2,0.9,0.5l6.1,11
				c0,0.1,0.1,0.1,0.1,0.1c0.1,0,0.1-0.1,0.1-0.1v-11.1c0-0.2,0.1-0.3,0.3-0.3h0.2c0.2,0,0.3,0.1,0.3,0.3v11.1
				C237.7,339,237.3,339.3,236.9,339.3z"/>
			<path class="st20" d="M246.4,339.2L246.4,339.2c-0.3,0-0.5-0.1-0.5-0.3v-0.4c-0.9,0.4-2,0.8-3.1,0.8c-1.4,0-2.8-0.6-2.8-2.6v-0.2
				c0-1.7,1.2-2.5,4.5-2.5h1.4v-0.6c0-1.7-0.5-2.4-2.3-2.4c-1.2,0-1.7,0.1-2.6,0.1c0,0,0,0-0.1,0c-0.2,0-0.3-0.1-0.3-0.2v-0.1
				c0-0.2,0.1-0.3,0.4-0.3c0.8-0.1,1.4-0.1,2.6-0.1c2.4,0,3.1,1.2,3.1,3v5.5C246.7,339,246.6,339.2,246.4,339.2z M245.9,334.6h-1.4
				c-2.7,0-3.7,0.5-3.7,1.9v0.2c0,1.5,0.9,2,2,2c1,0,1.9-0.2,3.1-0.8L245.9,334.6L245.9,334.6z"/>
			<path class="st20" d="M255.7,330.8l-2.4,7.4c-0.3,0.9-0.7,1-1.2,1s-1-0.2-1.3-1l-2.4-7.4v-0.1c0-0.2,0.1-0.3,0.3-0.3h0.2
				c0.1,0,0.3,0.1,0.3,0.3l2.3,7.4c0.2,0.5,0.3,0.6,0.5,0.6s0.3-0.1,0.5-0.6l2.3-7.4c0.1-0.2,0.2-0.3,0.3-0.3h0.2
				c0.2,0,0.3,0.1,0.3,0.2C255.7,330.7,255.7,330.8,255.7,330.8z"/>
			<path class="st20" d="M258.3,328.8h-0.1c-0.2,0-0.3-0.1-0.3-0.3v-1.2c0-0.2,0.2-0.3,0.3-0.3h0.1c0.2,0,0.3,0.1,0.3,0.3v1.2
				C258.7,328.7,258.5,328.8,258.3,328.8z M258.3,339.2h-0.1c-0.2,0-0.3-0.1-0.3-0.3v-8.1c0-0.2,0.2-0.3,0.3-0.3h0.1
				c0.2,0,0.3,0.1,0.3,0.3v8.1C258.7,339,258.5,339.2,258.3,339.2z"/>
			<path class="st20" d="M268.7,331.1h-1c0.4,0.3,1,0.8,1,2v0.1c0,1.6-0.9,2.7-3.8,2.7c-0.9,0-1.5-0.1-2.2-0.4
				c-0.4,0.1-0.6,0.4-0.6,0.7c0,0.2,0.1,0.4,0.5,0.5l3.3,0.8c1.9,0.5,2.9,0.9,2.9,2.2v0.1c0,1.5-1,2.5-3.8,2.5s-3.8-1-3.8-2.5v-0.1
				c0-1.1,0.8-2,1.4-2.3h-0.1c-0.7-0.2-1-0.6-1-1.1c0-0.4,0.2-0.8,0.8-1c-0.6-0.4-0.9-1.1-0.9-1.9v-0.1c0-1.3,0.6-2.7,3.7-2.7h3.7
				c0.2,0,0.3,0.1,0.3,0.3v0.2C269,331.1,268.8,331.1,268.7,331.1z M268,339.8c0-0.9-0.4-1.1-2.3-1.6l-2.5-0.6
				c-0.8,0.5-1.3,1.1-1.3,2.2v0.1c0,1.2,0.7,1.9,3.1,1.9s3-0.7,3-1.9L268,339.8L268,339.8z M267.9,333.2c0-1.2-0.6-2.1-3-2.1
				c-2.5,0-2.9,1.1-2.9,2.1v0.1c0,0.8,0.5,2,2.9,2s3-0.9,3-2V333.2z"/>
			<path class="st20" d="M277,339.2L277,339.2c-0.3,0-0.5-0.1-0.5-0.3v-0.4c-0.9,0.4-2,0.8-3.1,0.8c-1.4,0-2.8-0.6-2.8-2.6v-0.2
				c0-1.7,1.2-2.5,4.5-2.5h1.4v-0.6c0-1.7-0.5-2.4-2.3-2.4c-1.2,0-1.7,0.1-2.6,0.1c0,0,0,0-0.1,0c-0.2,0-0.3-0.1-0.3-0.2v-0.1
				c0-0.2,0.1-0.3,0.4-0.3c0.8-0.1,1.4-0.1,2.6-0.1c2.4,0,3.1,1.2,3.1,3v5.5C277.4,339,277.2,339.2,277,339.2z M276.6,334.6h-1.4
				c-2.7,0-3.7,0.5-3.7,1.9v0.2c0,1.5,0.9,2,2,2c1,0,1.9-0.2,3.1-0.8V334.6z"/>
			<path class="st20" d="M284.2,339.2c-0.3,0-0.6,0-0.9,0c-1.3,0-2-0.4-2-1.8V331h-1.8c-0.2,0-0.3-0.1-0.3-0.3v-0.2
				c0-0.2,0.1-0.2,0.3-0.2h1.8v-1.7c0-0.2,0.1-0.3,0.3-0.3h0.2c0.2,0,0.3,0.1,0.3,0.3v1.7h2.2c0.2,0,0.3,0.1,0.3,0.2v0.2
				c0,0.2-0.1,0.3-0.3,0.3h-2.2v6.4c0,1,0.5,1.1,1.3,1.1h0.9c0.3,0,0.4,0.1,0.4,0.2v0.1C284.5,339.1,284.4,339.2,284.2,339.2z"/>
			<path class="st20" d="M287.1,328.8H287c-0.2,0-0.3-0.1-0.3-0.3v-1.2c0-0.2,0.2-0.3,0.3-0.3h0.1c0.2,0,0.3,0.1,0.3,0.3v1.2
				C287.4,328.7,287.3,328.8,287.1,328.8z M287.1,339.2H287c-0.2,0-0.3-0.1-0.3-0.3v-8.1c0-0.2,0.2-0.3,0.3-0.3h0.1
				c0.2,0,0.3,0.1,0.3,0.3v8.1C287.4,339,287.3,339.2,287.1,339.2z"/>
			<path class="st20" d="M293.6,339.3c-2.5,0-3.7-1.4-3.7-3.9v-1.1c0-2.5,1.3-3.9,3.7-3.9c2.5,0,3.7,1.4,3.7,3.9v1.1
				C297.4,337.9,296.1,339.3,293.6,339.3z M296.6,334.3c0-2-0.8-3.3-2.9-3.3s-2.9,1.3-2.9,3.3v1.1c0,2,0.8,3.3,2.9,3.3
				s2.9-1.3,2.9-3.3V334.3z"/>
			<path class="st20" d="M306.2,339.2h-0.1c-0.2,0-0.3-0.1-0.3-0.3v-5.4c0-1.9-1.1-2.5-2.4-2.5c-0.9,0-2,0.3-2.9,0.7v7.2
				c0,0.2-0.2,0.3-0.3,0.3h-0.1c-0.2,0-0.3-0.1-0.3-0.3v-8.1c0-0.2,0.1-0.3,0.3-0.3h0.1c0.2,0,0.3,0.1,0.3,0.3v0.3
				c0.9-0.4,2-0.7,2.9-0.7c1.7,0,3.2,0.8,3.2,3.1v5.4C306.5,339,306.4,339.2,306.2,339.2z"/>
			<path class="st20" d="M182.6,356.6c-1.4,0-2.3-0.1-3.2-0.3c-0.2,0-0.3-0.1-0.3-0.3v-1.2c0-0.2,0.2-0.3,0.3-0.3l0,0
				c0.7,0.1,2.5,0.2,3.2,0.2c1.6,0,2.1-0.5,2.1-1.5c0-0.6-0.3-1-1.5-1.6l-2.4-1.3c-1.7-0.9-2.1-1.8-2.1-3c0-1.8,1.2-3.1,4.5-3.1
				c1.2,0,2.9,0.2,3.5,0.3c0.2,0,0.3,0.1,0.3,0.3v1.2c0,0.2-0.1,0.3-0.3,0.3l0,0c-1.2-0.1-2.4-0.2-3.6-0.2c-1.3,0-1.9,0.4-1.9,1.2
				c0,0.5,0.3,0.9,1.5,1.5l2.2,1.1c2,1,2.5,2,2.5,3.3C187.3,354.8,186.2,356.6,182.6,356.6z"/>
			<path class="st20" d="M195.4,356.4L195.4,356.4c-0.3,0-0.5-0.1-0.5-0.3v-0.4c-0.9,0.4-2,0.8-3.1,0.8c-1.4,0-2.8-0.6-2.8-2.6v-0.2
				c0-1.7,1.2-2.5,4.5-2.5h1.4v-0.6c0-1.7-0.5-2.4-2.3-2.4c-1.2,0-1.7,0.1-2.6,0.1c0,0,0,0-0.1,0c-0.2,0-0.3-0.1-0.3-0.2V348
				c0-0.2,0.1-0.3,0.4-0.3c0.8-0.1,1.4-0.1,2.6-0.1c2.4,0,3.1,1.2,3.1,3v5.5C195.7,356.3,195.6,356.4,195.4,356.4z M194.9,351.8
				h-1.4c-2.7,0-3.7,0.5-3.7,1.9v0.2c0,1.5,0.9,2,2,2c1,0,1.9-0.2,3.1-0.8L194.9,351.8L194.9,351.8z"/>
			<path class="st20" d="M202.5,356.5c-0.3,0-0.6,0-0.9,0c-1.3,0-2-0.4-2-1.8v-6.4h-1.9c-0.2,0-0.3-0.1-0.3-0.3v-0.2
				c0-0.2,0.1-0.2,0.3-0.2h1.8v-1.7c0-0.2,0.1-0.3,0.3-0.3h0.2c0.2,0,0.3,0.1,0.3,0.3v1.7h2.2c0.2,0,0.3,0.1,0.3,0.2v0.2
				c0,0.2-0.1,0.3-0.3,0.3h-2.2v6.4c0,1,0.5,1.1,1.3,1.1h0.9c0.3,0,0.4,0.1,0.4,0.2v0.1C202.8,356.4,202.8,356.5,202.5,356.5z"/>
			<path class="st20" d="M211,352.2h-6.1v0.3c0,2.7,1.5,3.3,3.3,3.3c0.8,0,1.8-0.1,2.7-0.3h0.1c0.1,0,0.3,0.1,0.3,0.2v0.1
				c0,0.2-0.1,0.3-0.3,0.3c-0.9,0.2-1.9,0.3-2.7,0.3c-2.2,0-4.1-0.9-4.1-4v-1.1c0-2.3,1.3-3.9,3.7-3.9c2.5,0,3.6,1.6,3.6,3.9v0.4
				C211.3,352.1,211.2,352.2,211,352.2z M210.5,351.5c0-2.1-0.8-3.2-2.8-3.2s-2.9,1.3-2.9,3.3v0.1L210.5,351.5L210.5,351.5z"/>
			<path class="st20" d="M214.3,356.4h-0.2c-0.2,0-0.3-0.1-0.3-0.3v-11.5c0-0.2,0.1-0.3,0.3-0.3h0.2c0.2,0,0.3,0.1,0.3,0.3v11.5
				C214.6,356.3,214.5,356.4,214.3,356.4z"/>
			<path class="st20" d="M218,356.4h-0.2c-0.2,0-0.3-0.1-0.3-0.3v-11.5c0-0.2,0.1-0.3,0.3-0.3h0.2c0.2,0,0.3,0.1,0.3,0.3v11.5
				C218.3,356.3,218.2,356.4,218,356.4z"/>
			<path class="st20" d="M221.6,346.1h-0.1c-0.2,0-0.3-0.1-0.3-0.3v-1.2c0-0.2,0.2-0.3,0.3-0.3h0.1c0.2,0,0.3,0.1,0.3,0.3v1.2
				C222,345.9,221.8,346.1,221.6,346.1z M221.6,356.4h-0.1c-0.2,0-0.3-0.1-0.3-0.3V348c0-0.2,0.2-0.3,0.3-0.3h0.1
				c0.2,0,0.3,0.1,0.3,0.3v8.1C222,356.3,221.8,356.4,221.6,356.4z"/>
			<path class="st20" d="M229.3,356.5c-0.3,0-0.6,0-0.9,0c-1.3,0-2-0.4-2-1.8v-6.4h-1.8c-0.2,0-0.3-0.1-0.3-0.3v-0.2
				c0-0.2,0.1-0.2,0.3-0.2h1.8v-1.7c0-0.2,0.1-0.3,0.3-0.3h0.2c0.2,0,0.3,0.1,0.3,0.3v1.7h2.2c0.2,0,0.3,0.1,0.3,0.2v0.2
				c0,0.2-0.1,0.3-0.3,0.3h-2.2v6.4c0,1,0.5,1.1,1.3,1.1h0.9c0.3,0,0.4,0.1,0.4,0.2v0.1C229.6,356.4,229.5,356.5,229.3,356.5z"/>
			<path class="st20" d="M237.8,352.2h-6.1v0.3c0,2.7,1.5,3.3,3.3,3.3c0.8,0,1.8-0.1,2.7-0.3h0.1c0.1,0,0.3,0.1,0.3,0.2v0.1
				c0,0.2-0.1,0.3-0.3,0.3c-0.9,0.2-1.9,0.3-2.7,0.3c-2.2,0-4.1-0.9-4.1-4v-1.1c0-2.3,1.3-3.9,3.7-3.9c2.5,0,3.6,1.6,3.6,3.9v0.4
				C238.1,352.1,238,352.2,237.8,352.2z M237.3,351.5c0-2.1-0.8-3.2-2.8-3.2s-2.9,1.3-2.9,3.3v0.1L237.3,351.5L237.3,351.5z"/>
			<path class="st20" d="M247.4,356.5c-1.2,0-2.1-0.1-2.8-0.2c-0.2,0-0.3-0.1-0.3-0.3v-0.2c0-0.2,0.2-0.2,0.3-0.2h0.1
				c0.9,0.1,1.7,0.2,2.7,0.2c2.7,0,3.4-1.1,3.4-2.4c0-1.2-0.8-1.6-2.8-2.8l-1.1-0.6c-1.6-0.9-2.8-1.7-2.8-3.1c0-2.1,2.1-2.6,4.2-2.6
				c1,0,1.9,0.1,2.7,0.2c0.2,0,0.3,0.1,0.3,0.2v0.2c0,0.2-0.1,0.2-0.3,0.2c-0.4,0-1.8-0.2-2.7-0.2c-2.4,0-3.4,0.6-3.4,2
				c0,1,0.8,1.6,2.4,2.5l1.2,0.6c2,1.1,3.2,1.9,3.2,3.4C251.6,354.9,250.9,356.5,247.4,356.5z"/>
			<path class="st20" d="M260.4,348.1l-3,9.3c-0.6,1.7-1.3,2.3-2.9,2.3c-0.4,0-0.8,0-1.1-0.1c-0.2,0-0.4-0.1-0.4-0.2v-0.2
				c0-0.2,0.1-0.2,0.3-0.2h0.1c0.3,0,0.9,0.1,1.2,0.1c1.3,0,1.7-0.4,2.2-1.8l0.2-0.8h-0.3c-0.6,0-0.9-0.1-1.1-0.9l-2.4-7.5V348
				c0-0.2,0.1-0.3,0.3-0.3h0.2c0.1,0,0.3,0.1,0.3,0.2l2.4,7.5c0.1,0.3,0.3,0.4,0.4,0.4h0.4l2.5-7.9c0-0.1,0.2-0.2,0.3-0.2h0.2
				c0.2,0,0.3,0.1,0.3,0.3C260.4,348,260.4,348,260.4,348.1z"/>
			<path class="st20" d="M265,356.5c-0.8,0-2-0.1-2.6-0.2c-0.3,0-0.4-0.1-0.4-0.3v-0.2c0-0.2,0.1-0.2,0.3-0.2h0.1
				c0.9,0.1,1.9,0.3,2.7,0.3c1.3,0,2.3-0.3,2.3-1.6c0-0.7-0.4-1-1.9-1.8l-1.2-0.6c-1.4-0.7-2.2-1.2-2.2-2.3c0-1.5,1.3-2,2.8-2
				c1.3,0,2,0.1,2.6,0.1c0.3,0,0.4,0.1,0.4,0.3v0.1c0,0.2-0.1,0.3-0.3,0.3c0,0,0,0-0.1,0c-0.5,0-1.5-0.2-2.5-0.2c-1.2,0-2,0.2-2,1.4
				c0,0.7,0.7,1.1,1.8,1.7l1.2,0.6c1.5,0.8,2.3,1.3,2.3,2.4C268.2,356,266.7,356.5,265,356.5z"/>
			<path class="st20" d="M274.6,356.5c-0.3,0-0.6,0-0.9,0c-1.3,0-2-0.4-2-1.8v-6.4h-1.8c-0.2,0-0.3-0.1-0.3-0.3v-0.2
				c0-0.2,0.1-0.2,0.3-0.2h1.8v-1.7c0-0.2,0.1-0.3,0.3-0.3h0.2c0.2,0,0.3,0.1,0.3,0.3v1.7h2.2c0.2,0,0.3,0.1,0.3,0.2v0.2
				c0,0.2-0.1,0.3-0.3,0.3h-2.2v6.4c0,1,0.5,1.1,1.3,1.1h0.9c0.3,0,0.4,0.1,0.4,0.2v0.1C274.9,356.4,274.9,356.5,274.6,356.5z"/>
			<path class="st20" d="M283.1,352.2H277v0.3c0,2.7,1.5,3.3,3.3,3.3c0.8,0,1.8-0.1,2.7-0.3h0.1c0.1,0,0.3,0.1,0.3,0.2v0.1
				c0,0.2-0.1,0.3-0.3,0.3c-0.9,0.2-1.9,0.3-2.7,0.3c-2.2,0-4.1-0.9-4.1-4v-1.1c0-2.3,1.3-3.9,3.7-3.9c2.5,0,3.6,1.6,3.6,3.9v0.4
				C283.5,352.1,283.3,352.2,283.1,352.2z M282.7,351.5c0-2.1-0.8-3.2-2.8-3.2s-2.9,1.3-2.9,3.3v0.1L282.7,351.5L282.7,351.5z"/>
			<path class="st20" d="M296.4,356.4h-0.2c-0.2,0-0.3-0.1-0.3-0.3v-5.8c0-1.6-0.8-2.1-2.1-2.1c-0.8,0-1.7,0.2-2.4,0.6
				c0.2,0.4,0.3,0.8,0.3,1.4v5.9c0,0.2-0.1,0.3-0.3,0.3h-0.3c-0.2,0-0.3-0.1-0.3-0.3v-5.9c0-1.5-0.7-2-1.7-2c-0.8,0-1.8,0.3-2.6,0.7
				v7.2c0,0.2-0.1,0.3-0.3,0.3h-0.3c-0.2,0-0.3-0.1-0.3-0.3V348c0-0.2,0.1-0.3,0.3-0.3h0.1c0.2,0,0.3,0.1,0.3,0.3v0.3
				c0.7-0.3,1.8-0.7,2.8-0.7c0.7,0,1.3,0.2,1.7,0.7c0.9-0.4,2-0.7,2.9-0.7c1.5,0,2.8,0.8,2.8,2.7v5.8
				C296.7,356.3,296.6,356.4,296.4,356.4z"/>
			<path class="st20" d="M301.9,356.5c-0.8,0-2-0.1-2.6-0.2c-0.3,0-0.4-0.1-0.4-0.3v-0.2c0-0.2,0.1-0.2,0.3-0.2h0.1
				c0.9,0.1,1.9,0.3,2.7,0.3c1.3,0,2.3-0.3,2.3-1.6c0-0.7-0.4-1-1.9-1.8l-1.2-0.6c-1.4-0.7-2.2-1.2-2.2-2.3c0-1.5,1.3-2,2.8-2
				c1.3,0,2,0.1,2.6,0.1c0.3,0,0.4,0.1,0.4,0.3v0.1c0,0.2-0.1,0.3-0.3,0.3c0,0,0,0-0.1,0c-0.5,0-1.5-0.2-2.5-0.2c-1.2,0-2,0.2-2,1.4
				c0,0.7,0.7,1.1,1.8,1.7l1.2,0.6c1.5,0.8,2.3,1.3,2.3,2.4C305.1,356,303.6,356.5,301.9,356.5z"/>
			<path class="st20" d="M188.5,373.7h-1.9c-0.2,0-0.3-0.1-0.3-0.3l-0.8-3.1h-4.2l-0.8,3.1c0,0.1-0.2,0.3-0.3,0.3h-1.9
				c-0.2,0-0.3-0.1-0.3-0.3c0,0,0,0,0-0.1l3-10.2c0.4-1.5,1.7-1.7,2.5-1.7s2.1,0.1,2.5,1.7l3,10.2v0.1
				C188.8,373.6,188.7,373.7,188.5,373.7z M183.6,363.6c-0.1-0.2-0.1-0.3-0.3-0.3s-0.2,0.1-0.3,0.3l-1.3,4.8h3.2L183.6,363.6z"/>
			<path class="st20" d="M197.7,365.6h-0.9c0.4,0.3,1,0.8,1,2v0.1c0,1.6-0.9,2.7-3.8,2.7c-0.9,0-1.5-0.1-2.2-0.4
				c-0.4,0.1-0.6,0.4-0.6,0.7c0,0.2,0.1,0.4,0.5,0.5l3.3,0.8c1.9,0.5,2.9,0.9,2.9,2.2v0.1c0,1.5-1,2.5-3.8,2.5s-3.8-1-3.8-2.5v-0.1
				c0-1.1,0.8-2,1.4-2.3h-0.1c-0.7-0.2-1-0.6-1-1.1c0-0.4,0.2-0.8,0.8-1c-0.6-0.4-0.9-1.1-0.9-1.9v-0.1c0-1.3,0.6-2.7,3.7-2.7h3.7
				c0.2,0,0.3,0.1,0.3,0.3v0.2C198,365.5,197.9,365.6,197.7,365.6z M197.1,374.2c0-0.9-0.4-1.1-2.3-1.6l-2.5-0.6
				c-0.8,0.5-1.3,1.1-1.3,2.2v0.1c0,1.2,0.7,1.9,3.1,1.9c2.4,0,3-0.7,3-1.9V374.2z M197,367.6c0-1.2-0.6-2.1-3-2.1
				c-2.5,0-2.9,1.1-2.9,2.1v0.1c0,0.8,0.5,2,2.9,2s3-0.9,3-2V367.6z"/>
			<path class="st20" d="M206.8,369.5h-6.1v0.3c0,2.7,1.5,3.3,3.3,3.3c0.8,0,1.8-0.1,2.7-0.3h0.1c0.1,0,0.3,0.1,0.3,0.2v0.1
				c0,0.2-0.1,0.3-0.3,0.3c-0.9,0.2-1.9,0.3-2.7,0.3c-2.2,0-4.1-0.9-4.1-4v-1.1c0-2.3,1.3-3.9,3.7-3.9c2.5,0,3.6,1.6,3.6,3.9v0.4
				C207.1,369.3,207,369.5,206.8,369.5z M206.3,368.7c0-2.1-0.8-3.2-2.8-3.2s-2.9,1.3-2.9,3.3v0.1L206.3,368.7L206.3,368.7z"/>
			<path class="st20" d="M216,373.7h-0.1c-0.2,0-0.3-0.1-0.3-0.3V368c0-1.9-1.1-2.5-2.4-2.5c-0.9,0-2,0.3-2.9,0.7v7.2
				c0,0.2-0.2,0.3-0.3,0.3h-0.3c-0.2,0-0.3-0.1-0.3-0.3v-8.1c0-0.2,0.1-0.3,0.3-0.3h0.1c0.2,0,0.3,0.1,0.3,0.3v0.3
				c0.9-0.4,2-0.7,2.9-0.7c1.7,0,3.2,0.8,3.2,3.1v5.4C216.3,373.5,216.2,373.7,216,373.7z"/>
			<path class="st20" d="M224.3,373.6c-0.8,0.1-1.6,0.1-2.2,0.1c-2.6,0-3.6-1.8-3.6-3.9v-1.1c0-2.2,1-3.9,3.6-3.9
				c0.6,0,1.4,0.1,2.2,0.1c0.3,0,0.3,0.1,0.3,0.3v0.1c0,0.2-0.1,0.2-0.3,0.2h-0.1c-0.9-0.1-1.6-0.1-2.2-0.1c-2.1,0-2.8,1.3-2.8,3.3
				v1.1c0,2,0.7,3.3,2.8,3.3c0.6,0,1.3,0,2.2-0.1h0.1c0.2,0,0.3,0.1,0.3,0.2v0.1C224.7,373.5,224.6,373.6,224.3,373.6z"/>
			<path class="st20" d="M233.6,365.3l-3,9.3c-0.6,1.7-1.3,2.3-2.9,2.3c-0.4,0-0.8,0-1.1-0.1c-0.2,0-0.4-0.1-0.4-0.2v-0.3
				c0-0.2,0.1-0.2,0.3-0.2h0.1c0.3,0,0.9,0.1,1.2,0.1c1.3,0,1.7-0.4,2.2-1.8l0.2-0.8h-0.3c-0.6,0-0.9-0.1-1.1-0.9l-2.4-7.5v-0.1
				c0-0.2,0.1-0.3,0.3-0.3h0.2c0.1,0,0.3,0.1,0.3,0.2l2.4,7.5c0.1,0.3,0.3,0.4,0.4,0.4h0.4l2.5-7.9c0-0.1,0.2-0.2,0.3-0.2h0.2
				c0.2,0,0.3,0.1,0.3,0.3C233.6,365.2,233.6,365.3,233.6,365.3z"/>
		</g>
	</g>
	<path class="st12" d="M146.5,117.5c46-46,109.5-74.4,179.6-74.4c97.6,0,182.4,55.1,224.9,135.9"/>
	<path class="st12" d="M127.3,462.3c-13.2-16.6-24.3-34.8-33.1-54.4"/>
</g>
<rect class="st0" width="768" height="1024"/>
<rect class="st0" width="768" height="1024"/>
<rect class="st0" width="768" height="1024"/>
</svg>
