<?xml version="1.0" encoding="utf-8"?>
<!-- Generator: Adobe Illustrator 22.1.0, SVG Export Plug-In . SVG Version: 6.00 Build 0)  -->
<svg version="1.1" id="Layer_1" xmlns="http://www.w3.org/2000/svg" xmlns:xlink="http://www.w3.org/1999/xlink" x="0px" y="0px"
	 viewBox="0 0 768 1024" style="enable-background:new 0 0 768 1024;" xml:space="preserve">
<style type="text/css">
	.st0{clip-path:url(#SVGID_2_);}
	.st1{fill:#F2F2F2;}
	.st2{fill:none;stroke:#009147;stroke-width:1.2317;stroke-miterlimit:10;stroke-dasharray:6.1599,6.1599;}
	.st3{opacity:0.66;clip-path:url(#SVGID_2_);}
	.st4{fill:none;stroke:#E5E6E6;stroke-width:5.4855;stroke-miterlimit:10;}
	.st5{fill:#D0D2D3;}
	.st6{fill:#BCBDBF;}
	.st7{fill:#E5E6E6;}
	.st8{fill:none;stroke:#E5E6E6;stroke-width:8.2283;stroke-miterlimit:10;}
	.st9{fill:#E6E7E8;}
	.st10{fill:#009147;}
	.st11{fill:#04592E;}
	.st12{opacity:5.000000e-02;clip-path:url(#SVGID_2_);fill:#231F20;}
	.st13{fill:#F2F3F3;}
	.st14{fill:#DBDCDD;}
	.st15{fill:#FFFFFF;}
	.st16{fill:#929497;}
	
		.st17{clip-path:url(#SVGID_2_);fill:none;stroke:#009147;stroke-width:1.1943;stroke-miterlimit:10;stroke-dasharray:5.9716,5.9716;}
	.st18{clip-path:url(#SVGID_2_);fill:none;}
	.st19{fill:#58595B;}
	.st20{fill:#2E3191;}
	.st21{fill:#FFF100;}
	.st22{fill:#6D6E70;}
	.st23{clip-path:url(#SVGID_4_);}
	.st24{opacity:0.66;clip-path:url(#SVGID_4_);}
	.st25{fill:none;stroke:#E5E6E6;stroke-width:5.8109;stroke-miterlimit:10;}
	.st26{fill:none;stroke:#E5E6E6;stroke-width:8.7163;stroke-miterlimit:10;}
	.st27{opacity:5.000000e-02;fill:#231F20;}
	
		.st28{clip-path:url(#SVGID_4_);fill:none;stroke:#009147;stroke-width:1.4195;stroke-miterlimit:10;stroke-dasharray:7.0977,7.0977;}
	.st29{fill:none;stroke:#009147;stroke-width:1.1541;stroke-miterlimit:10;stroke-dasharray:5.7718,5.7718;}
</style>
<g>
	<defs>
		<rect id="SVGID_3_" x="0" width="768" height="1024"/>
	</defs>
	<clipPath id="SVGID_2_">
		<use xlink:href="#SVGID_3_"  style="overflow:visible;"/>
	</clipPath>
	<g class="st0">
		<g>
			<circle class="st1" cx="201.5" cy="68.8" r="5"/>
			<circle class="st1" cx="267" cy="101.5" r="4.6"/>
			<circle class="st1" cx="418.3" cy="59.3" r="6.9"/>
			<circle class="st1" cx="428.8" cy="141.7" r="3.7"/>
			<circle class="st1" cx="123.2" cy="101.3" r="4.5"/>
			<circle class="st1" cx="652.9" cy="78.8" r="6.3"/>
			<circle class="st1" cx="698.5" cy="121" r="2.5"/>
			<circle class="st1" cx="698.5" cy="38.5" r="2.5"/>
		</g>
		<circle class="st1" cx="662.8" cy="91.1" r="1.9"/>
		<circle class="st1" cx="704.3" cy="134" r="5"/>
		<circle class="st1" cx="730" cy="85.1" r="6"/>
		<circle class="st1" cx="626" cy="166.5" r="4.5"/>
		<circle class="st1" cx="553.2" cy="107.2" r="3.8"/>
		<circle class="st1" cx="489.6" cy="97.2" r="4.2"/>
		<circle class="st1" cx="564.6" cy="70.2" r="3.1"/>
		<g>
			<circle class="st1" cx="61.8" cy="737.4" r="1.9"/>
			<circle class="st1" cx="103.3" cy="780.3" r="5"/>
			<circle class="st1" cx="129" cy="731.4" r="6"/>
			<circle class="st1" cx="209.4" cy="749.7" r="10.4"/>
			<circle class="st1" cx="168.8" cy="812.9" r="4.6"/>
			<circle class="st1" cx="278.3" cy="706" r="3.4"/>
			<circle class="st1" cx="320.1" cy="770.7" r="6.9"/>
			<circle class="st1" cx="330.7" cy="853.1" r="3.7"/>
			<circle class="st1" cx="25" cy="812.8" r="4.5"/>
			<circle class="st1" cx="554.7" cy="790.3" r="6.3"/>
			<circle class="st1" cx="600.4" cy="832.4" r="2.5"/>
			<circle class="st1" cx="600.4" cy="749.9" r="2.5"/>
		</g>
		<g>
			<circle class="st1" cx="206.5" cy="244.4" r="1.9"/>
			<circle class="st1" cx="248" cy="287.3" r="5"/>
			<circle class="st1" cx="273.7" cy="238.4" r="6"/>
			<circle class="st1" cx="354" cy="256.7" r="10.4"/>
			<circle class="st1" cx="313.5" cy="319.9" r="4.6"/>
			<circle class="st1" cx="422.9" cy="213" r="3.4"/>
			<circle class="st1" cx="464.8" cy="277.7" r="6.9"/>
			<circle class="st1" cx="475.3" cy="360.1" r="3.7"/>
			<circle class="st1" cx="169.6" cy="319.8" r="4.5"/>
			<circle class="st1" cx="96.8" cy="260.5" r="3.8"/>
			<circle class="st1" cx="33.3" cy="250.5" r="4.2"/>
			<circle class="st1" cx="108.3" cy="223.6" r="3.1"/>
			<circle class="st1" cx="699.4" cy="297.3" r="6.3"/>
			<circle class="st1" cx="745" cy="339.4" r="2.5"/>
			<circle class="st1" cx="745" cy="256.9" r="2.5"/>
		</g>
		<circle class="st1" cx="377.4" cy="586.6" r="1.9"/>
		<circle class="st1" cx="419" cy="629.5" r="5"/>
		<circle class="st1" cx="444.6" cy="580.6" r="6"/>
		<circle class="st1" cx="484.5" cy="662.1" r="4.6"/>
		<circle class="st1" cx="593.9" cy="555.2" r="3.4"/>
		<circle class="st1" cx="635.8" cy="619.9" r="6.9"/>
		<circle class="st1" cx="646.3" cy="702.3" r="3.7"/>
		<circle class="st1" cx="340.6" cy="662" r="4.5"/>
		<circle class="st1" cx="267.8" cy="602.7" r="3.8"/>
		<circle class="st1" cx="204.3" cy="592.7" r="4.2"/>
		<circle class="st1" cx="279.3" cy="565.8" r="3.1"/>
		<circle class="st1" cx="286.7" cy="437.4" r="1.9"/>
		<circle class="st1" cx="328.2" cy="480.3" r="5"/>
		<circle class="st1" cx="353.9" cy="431.4" r="6"/>
		<circle class="st1" cx="393.7" cy="513" r="4.6"/>
		<circle class="st1" cx="503.2" cy="406.1" r="3.4"/>
		<circle class="st1" cx="545" cy="470.8" r="6.9"/>
		<circle class="st1" cx="555.5" cy="553.2" r="3.7"/>
		<circle class="st1" cx="249.9" cy="512.8" r="4.5"/>
		<circle class="st1" cx="177.1" cy="453.5" r="3.8"/>
		<circle class="st1" cx="113.5" cy="443.6" r="4.2"/>
		<circle class="st1" cx="188.5" cy="416.6" r="3.1"/>
	</g>
	<g class="st3">
		<g>
			<polyline class="st25" points="601.9,218.6 610.6,227.6 619.3,236.7 607.1,239.7 594.9,242.7 			"/>
			
				<rect x="446.7" y="171" transform="matrix(0.9602 0.2792 -0.2792 0.9602 79.4424 -138.5363)" class="st5" width="158.7" height="77.1"/>
			<polygon class="st5" points="591.5,268.8 439,224.5 460.6,150.4 			"/>
		</g>
		<g>
			<polyline class="st25" points="706.9,275.3 698.2,266.2 689.5,257.1 701.7,254.1 713.9,251.1 			"/>
			
				<rect x="703.4" y="245.7" transform="matrix(-0.9602 -0.2792 0.2792 -0.9602 1455.0421 775.7637)" class="st5" width="158.7" height="77.1"/>
			<polygon class="st5" points="717.3,225.1 848.2,343.4 695.8,299.1 			"/>
		</g>
		
			<rect x="620.9" y="287.9" transform="matrix(0.9602 0.2792 -0.2792 0.9602 108.4413 -166.8098)" class="st6" width="37.8" height="18.6"/>
		
			<rect x="617.4" y="204.3" transform="matrix(0.9602 0.2792 -0.2792 0.9602 95.3419 -172.73)" class="st7" width="73.1" height="88"/>
		<circle class="st26" cx="670.3" cy="192.2" r="14.6"/>
		<g>
			<g>
				
					<rect x="626.4" y="287.5" transform="matrix(0.2998 -0.954 0.954 0.2998 127.6043 831.9013)" class="st6" width="8.3" height="83.1"/>
				<path class="st6" d="M647.1,367.4l-1-8.3c-8.1,0.9-16.2,0.2-24.1-2.3c-7.6-2.4-14.4-6.2-20.4-11.3l-5.4,6.3
					c6.8,5.9,14.7,10.2,23.3,12.9C628.5,367.6,637.8,368.5,647.1,367.4z"/>
				<path class="st6" d="M572.2,357.2l-5.4,6.3c13.2,11.3,28.4,19.8,45.2,25c17.4,5.5,35.4,7.2,53.4,5.1l-1-8.3
					c-16.8,2-33.7,0.3-50-4.8C598.8,375.7,584.6,367.8,572.2,357.2z"/>
			</g>
		</g>
	</g>
	<g class="st0">
		<ellipse class="st27" cx="491.7" cy="915.2" rx="202.2" ry="64.9"/>
		<g>
			<g>
				<g>
					<g>
						<g>
							<path class="st9" d="M554.5,513.1c0,0-4.3,42.3,59.8,63.9C614.3,577,622.4,525.7,554.5,513.1z"/>
						</g>
						<g>
							<path class="st9" d="M554.6,575.3c0,0-4.3,42.3,59.8,63.9C614.4,639.1,622.5,587.8,554.6,575.3z"/>
						</g>
						<g>
							<path class="st9" d="M554.1,634.4c0,0-4.3,42.3,59.8,63.9C613.9,698.3,622,646.9,554.1,634.4z"/>
						</g>
					</g>
					<g>
						<path class="st9" d="M678.5,513.7c0-0.5-1.2-0.7-1.7-0.5c-18.6,2.4-38,8.8-50.3,23.8c-7,8.5-11,19.2-11.6,30.2
							c-0.1,2.2-0.2,4.5,0.1,6.6c0.1,0.6,1.2,0.6,1.6,0.5c18.1-5.1,36.4-13.3,48.9-28c6.5-7.7,11.3-17.1,12.6-27.1
							C678.4,517.5,678.6,515.6,678.5,513.7z"/>
						<path class="st9" d="M678.6,572.3c0-0.4-1-0.5-1.6-0.3c-18.6,2.5-38,8.8-50.3,23.8c-7,8.5-11,19.2-11.7,30.2
							c-0.1,2.2-0.2,4.5,0.1,6.7c0.1,0.5,1.2,0.4,1.5,0.3c18.2-5.1,36.4-13.3,48.9-27.9c6.6-7.7,11.3-17.1,12.7-27.2
							C678.5,576.2,678.7,574.2,678.6,572.3z"/>
						<path class="st9" d="M676.8,634.3c0-0.3-0.8-0.4-1.4-0.2c-18.7,2.5-38.2,8.9-50.5,23.9c-7,8.5-11,19.2-11.6,30.2
							c-0.1,2.2-0.2,4.5,0.1,6.7c0.1,0.4,1.1,0.3,1.3,0.2c18.2-5.1,36.7-13.4,49.2-28.1c6.5-7.7,11.3-17.1,12.7-27.1
							C676.7,638.1,676.9,636.2,676.8,634.3z"/>
						<path class="st9" d="M675.6,693.7c0-0.4-0.9-0.7-1.5-0.7c0,0-0.1,0-0.1,0c0,0,0,0-0.1,0c0,0,0,0,0,0
							c-18.7,2.4-38.3,8.9-50.5,24.1c-6.9,8.5-10.8,19.2-11.4,30.1c-0.1,2.2-0.2,4.4,0.1,6.6c0.1,0.5,1.3,0.7,1.7,0.6
							c18.2-5.1,36.6-13.4,49-28.2c6.4-7.6,11.1-17,12.4-26.9C675.5,697.4,675.7,695.5,675.6,693.7z"/>
					</g>
					<rect x="611.4" y="511.8" class="st9" width="4.6" height="402.6"/>
					<g>
						<path class="st9" d="M555.9,454.5c0,0-4.3,42.3,59.8,63.9C615.7,518.3,623.8,467,555.9,454.5z"/>
					</g>
				</g>
				<g>
					<g>
						<g>
							<path class="st9" d="M499.1,689.8c0,0-2.4,23.7,33.5,35.8C532.6,725.6,537.1,696.8,499.1,689.8z"/>
						</g>
						<g>
							<path class="st9" d="M499.2,724.6c0,0-2.4,23.7,33.5,35.8C532.6,760.3,537.1,731.6,499.2,724.6z"/>
						</g>
						<g>
							<path class="st9" d="M498.9,757.7c0,0-2.4,23.7,33.5,35.8C532.4,793.4,536.9,764.7,498.9,757.7z"/>
						</g>
					</g>
					<g>
						<path class="st9" d="M568.5,690.1c0-0.3-0.7-0.4-1-0.3c-10.4,1.4-21.3,4.9-28.1,13.3c-3.9,4.8-6.1,10.8-6.5,16.9
							c-0.1,1.2-0.1,2.5,0,3.7c0,0.3,0.7,0.4,0.9,0.3c10.2-2.8,20.4-7.5,27.4-15.6c3.6-4.3,6.3-9.5,7.1-15.2
							C568.4,692.2,568.5,691.2,568.5,690.1z"/>
						<path class="st9" d="M568.5,723c0-0.2-0.6-0.3-0.9-0.2c-10.4,1.4-21.3,4.9-28.1,13.3c-3.9,4.8-6.2,10.8-6.5,16.9
							c-0.1,1.2-0.1,2.5,0,3.8c0,0.3,0.7,0.2,0.8,0.2c10.2-2.8,20.4-7.5,27.4-15.6c3.7-4.3,6.4-9.6,7.1-15.2
							C568.5,725.1,568.6,724,568.5,723z"/>
						<path class="st9" d="M567.5,757.6c0-0.2-0.5-0.2-0.8-0.1c-10.5,1.4-21.4,5-28.3,13.4c-3.9,4.8-6.1,10.8-6.5,16.9
							c-0.1,1.2-0.1,2.5,0,3.8c0,0.2,0.6,0.2,0.7,0.1c10.2-2.8,20.5-7.5,27.5-15.7c3.7-4.3,6.3-9.5,7.1-15.2
							C567.5,759.8,567.6,758.7,567.5,757.6z"/>
						<path class="st9" d="M566.9,790.9c0-0.2-0.5-0.4-0.8-0.4c0,0,0,0,0,0c0,0,0,0,0,0c0,0,0,0,0,0c-10.5,1.4-21.4,5-28.3,13.5
							c-3.8,4.8-6,10.7-6.4,16.8c-0.1,1.2-0.1,2.5,0.1,3.7c0,0.3,0.7,0.4,1,0.3c10.2-2.8,20.5-7.5,27.4-15.8
							c3.6-4.3,6.2-9.5,6.9-15.1C566.8,793,566.9,791.9,566.9,790.9z"/>
					</g>
					<rect x="530.9" y="689.1" class="st9" width="2.6" height="225.3"/>
					<g>
						<path class="st9" d="M499.9,657c0,0-2.4,23.7,33.5,35.8C533.4,692.7,537.9,664,499.9,657z"/>
					</g>
				</g>
				<g>
					<g>
						<g>
							<path class="st9" d="M345.2,647.7c0,0-2.8,28.1,39.7,42.4C384.9,690.2,390.3,656.1,345.2,647.7z"/>
						</g>
						<g>
							<path class="st9" d="M345.2,689c0,0-2.8,28.1,39.7,42.4C384.9,731.5,390.3,697.4,345.2,689z"/>
						</g>
						<g>
							<path class="st9" d="M344.9,728.3c0,0-2.8,28.1,39.7,42.4C384.6,770.8,390,736.7,344.9,728.3z"/>
						</g>
					</g>
					<g>
						<path class="st9" d="M427.5,648.1c0-0.3-0.8-0.4-1.1-0.3c-12.4,1.6-25.3,5.9-33.4,15.8c-4.6,5.7-7.3,12.8-7.7,20
							c-0.1,1.5-0.1,3,0.1,4.4c0,0.4,0.8,0.4,1.1,0.3c12.1-3.4,24.2-8.9,32.5-18.6c4.3-5.1,7.5-11.3,8.4-18
							C427.5,650.6,427.6,649.4,427.5,648.1z"/>
						<path class="st9" d="M427.6,687.1c0-0.3-0.7-0.3-1.1-0.2c-12.4,1.6-25.2,5.9-33.4,15.8c-4.7,5.7-7.3,12.8-7.8,20.1
							c-0.1,1.5-0.1,3,0.1,4.5c0,0.3,0.8,0.3,1,0.2c12.1-3.4,24.2-8.9,32.5-18.5c4.4-5.1,7.5-11.4,8.5-18
							C427.5,689.6,427.7,688.3,427.6,687.1z"/>
						<path class="st9" d="M426.4,728.3c0-0.2-0.6-0.3-0.9-0.1c-12.4,1.6-25.4,5.9-33.6,15.9c-4.6,5.7-7.3,12.8-7.7,20.1
							c-0.1,1.5-0.1,3,0.1,4.5c0,0.3,0.7,0.2,0.9,0.1c12.1-3.4,24.4-8.9,32.7-18.7c4.3-5.1,7.5-11.3,8.4-18
							C426.3,730.8,426.5,729.5,426.4,728.3z"/>
						<path class="st9" d="M425.6,767.8c0-0.2-0.6-0.5-1-0.4c0,0,0,0-0.1,0c0,0,0,0,0,0c0,0,0,0,0,0c-12.4,1.6-25.4,5.9-33.6,16
							c-4.6,5.7-7.2,12.7-7.6,20c-0.1,1.4-0.1,2.9,0.1,4.4c0,0.4,0.9,0.5,1.1,0.4c12.1-3.4,24.3-8.9,32.6-18.7
							c4.3-5.1,7.4-11.3,8.2-17.9C425.6,770.2,425.7,769,425.6,767.8z"/>
					</g>
					<rect x="382.9" y="646.9" class="st9" width="3.1" height="267.5"/>
					<g>
						<path class="st9" d="M346.1,608.8c0,0-2.8,28.1,39.7,42.4C385.8,651.2,391.2,617.1,346.1,608.8z"/>
					</g>
				</g>
				<g>
					<g>
						<g>
							<path class="st9" d="M411.9,647.7c0,0-2.8,28.1,39.7,42.4C451.7,690.2,457,656.1,411.9,647.7z"/>
						</g>
						<g>
							<path class="st9" d="M412,689c0,0-2.8,28.1,39.7,42.4C451.7,731.5,457.1,697.4,412,689z"/>
						</g>
						<g>
							<path class="st9" d="M411.7,728.3c0,0-2.8,28.1,39.7,42.4C451.4,770.8,456.8,736.7,411.7,728.3z"/>
						</g>
					</g>
					<g>
						<path class="st9" d="M494.3,648.1c0-0.3-0.8-0.4-1.1-0.3c-12.4,1.6-25.3,5.9-33.4,15.8c-4.6,5.7-7.3,12.8-7.7,20
							c-0.1,1.5-0.1,3,0.1,4.4c0,0.4,0.8,0.4,1.1,0.3c12.1-3.4,24.2-8.9,32.5-18.6c4.3-5.1,7.5-11.3,8.4-18
							C494.2,650.6,494.4,649.4,494.3,648.1z"/>
						<path class="st9" d="M494.4,687.1c0-0.3-0.7-0.3-1.1-0.2c-12.4,1.6-25.2,5.9-33.4,15.8c-4.7,5.7-7.3,12.8-7.8,20.1
							c-0.1,1.5-0.1,3,0.1,4.5c0,0.3,0.8,0.3,1,0.2c12.1-3.4,24.2-8.9,32.5-18.5c4.4-5.1,7.5-11.4,8.5-18
							C494.3,689.6,494.4,688.3,494.4,687.1z"/>
						<path class="st9" d="M493.2,728.3c0-0.2-0.6-0.3-0.9-0.1c-12.4,1.6-25.4,5.9-33.6,15.9c-4.6,5.7-7.3,12.8-7.7,20.1
							c-0.1,1.5-0.1,3,0.1,4.5c0,0.3,0.7,0.2,0.9,0.1c12.1-3.4,24.4-8.9,32.7-18.7c4.3-5.1,7.5-11.3,8.4-18
							C493.1,730.8,493.3,729.5,493.2,728.3z"/>
						<path class="st9" d="M492.4,767.8c0-0.2-0.6-0.5-1-0.4c0,0,0,0-0.1,0c0,0,0,0,0,0c0,0,0,0,0,0c-12.4,1.6-25.4,5.9-33.6,16
							c-4.6,5.7-7.2,12.7-7.6,20c-0.1,1.4-0.1,2.9,0.1,4.4c0,0.4,0.9,0.5,1.1,0.4c12.1-3.4,24.3-8.9,32.6-18.7
							c4.3-5.1,7.4-11.3,8.2-17.9C492.3,770.2,492.4,769,492.4,767.8z"/>
					</g>
					<rect x="449.7" y="646.9" class="st9" width="3.1" height="267.5"/>
					<g>
						<path class="st9" d="M412.9,608.8c0,0-2.8,28.1,39.7,42.4C452.6,651.2,457.9,617.1,412.9,608.8z"/>
					</g>
				</g>
				<g>
					<g>
						<g>
							<path class="st10" d="M438.4,546.5c0,0-3.9,38.8,54.8,58.6C493.2,605.1,500.6,558.1,438.4,546.5z"/>
						</g>
						<g>
							<path class="st10" d="M438.4,603.5c0,0-3.9,38.8,54.8,58.6C493.2,662.1,500.6,615,438.4,603.5z"/>
						</g>
						<g>
							<path class="st10" d="M438,657.7c0,0-3.9,38.8,54.8,58.6C492.8,716.3,500.2,669.2,438,657.7z"/>
						</g>
					</g>
					<g>
						<path class="st10" d="M552,547.1c0-0.4-1.1-0.6-1.6-0.5c-17,2.2-34.8,8.1-46.1,21.8c-6.4,7.8-10,17.6-10.6,27.7
							c-0.1,2-0.2,4.1,0.1,6.1c0.1,0.5,1.1,0.6,1.5,0.5c16.6-4.6,33.4-12.2,44.8-25.6c6-7,10.3-15.6,11.6-24.8
							C551.9,550.5,552.1,548.8,552,547.1z"/>
						<path class="st10" d="M552.1,600.8c0-0.4-0.9-0.5-1.5-0.3c-17.1,2.3-34.8,8.1-46.1,21.8c-6.4,7.8-10.1,17.6-10.7,27.7
							c-0.1,2-0.2,4.1,0.1,6.2c0.1,0.5,1.1,0.4,1.4,0.3c16.6-4.6,33.4-12.2,44.9-25.6c6-7,10.4-15.7,11.7-24.9
							C552,604.3,552.2,602.6,552.1,600.8z"/>
						<path class="st10" d="M550.4,657.7c0-0.3-0.8-0.3-1.3-0.2c-17.1,2.3-35,8.1-46.3,21.9c-6.4,7.8-10.1,17.6-10.7,27.7
							c-0.1,2-0.2,4.1,0.1,6.2c0,0.4,1,0.3,1.2,0.2c16.7-4.7,33.6-12.3,45.1-25.7c6-7,10.3-15.6,11.6-24.9
							C550.4,661.2,550.6,659.4,550.4,657.7z"/>
						<path class="st10" d="M549.3,712.1c0-0.3-0.8-0.6-1.3-0.6c0,0-0.1,0-0.1,0c0,0,0,0,0,0c0,0,0,0,0,0
							c-17.2,2.2-35.1,8.1-46.3,22.1c-6.3,7.8-9.9,17.6-10.4,27.6c-0.1,2-0.2,4,0.1,6c0.1,0.5,1.2,0.7,1.6,0.6
							c16.7-4.7,33.6-12.3,44.9-25.9c5.9-7,10.2-15.6,11.4-24.7C549.3,715.5,549.4,713.8,549.3,712.1z"/>
					</g>
					<rect x="490.5" y="545.4" class="st10" width="4.3" height="369"/>
					<g>
						<path class="st10" d="M439.7,492.8c0,0-3.9,38.8,54.8,58.6C494.5,551.3,501.9,504.3,439.7,492.8z"/>
					</g>
				</g>
				<g>
					<g>
						<g>
							<path class="st11" d="M368.3,623.1c0,0-3.6,35.7,50.5,53.9C418.7,677.1,425.6,633.7,368.3,623.1z"/>
						</g>
						<g>
							<path class="st11" d="M368.3,675.6c0,0-3.6,35.7,50.5,53.9C418.8,729.5,425.6,686.2,368.3,675.6z"/>
						</g>
						<g>
							<path class="st11" d="M367.9,725.5c0,0-3.6,35.7,50.5,53.9C418.4,779.4,425.2,736.1,367.9,725.5z"/>
						</g>
					</g>
					<g>
						<path class="st11" d="M472.9,623.6c0-0.4-1-0.6-1.4-0.4c-15.7,2.1-32.1,7.4-42.4,20.1c-5.9,7.2-9.2,16.2-9.8,25.5
							c-0.1,1.8-0.2,3.8,0.1,5.6c0.1,0.5,1,0.5,1.4,0.4c15.3-4.3,30.8-11.3,41.3-23.6c5.5-6.5,9.5-14.4,10.7-22.9
							C472.8,626.8,473,625.2,472.9,623.6z"/>
						<path class="st11" d="M473,673.1c0-0.4-0.9-0.4-1.4-0.3c-15.7,2.1-32.1,7.4-42.4,20.1c-5.9,7.2-9.3,16.2-9.9,25.5
							c-0.1,1.9-0.2,3.8,0.1,5.7c0.1,0.4,1,0.4,1.3,0.3c15.3-4.3,30.7-11.2,41.3-23.6c5.5-6.5,9.6-14.4,10.8-22.9
							C472.9,676.4,473.1,674.7,473,673.1z"/>
						<path class="st11" d="M471.5,725.5c0-0.3-0.7-0.3-1.2-0.2c-15.8,2.1-32.2,7.5-42.6,20.2c-5.9,7.2-9.3,16.2-9.8,25.5
							c-0.1,1.9-0.2,3.8,0.1,5.7c0,0.4,0.9,0.2,1.1,0.2c15.4-4.3,30.9-11.3,41.5-23.7c5.5-6.5,9.5-14.4,10.7-22.9
							C471.4,728.7,471.6,727,471.5,725.5z"/>
						<path class="st11" d="M470.4,775.6c0-0.3-0.8-0.6-1.2-0.6c0,0,0,0-0.1,0c0,0,0,0,0,0c0,0,0,0,0,0
							c-15.8,2.1-32.3,7.5-42.6,20.3c-5.8,7.2-9.1,16.2-9.6,25.4c-0.1,1.8-0.1,3.7,0.1,5.5c0.1,0.5,1.1,0.6,1.4,0.5
							c15.4-4.3,30.9-11.3,41.4-23.8c5.4-6.5,9.4-14.3,10.5-22.7C470.4,778.7,470.5,777.1,470.4,775.6z"/>
					</g>
					<rect x="416.3" y="622.1" class="st11" width="3.9" height="292.3"/>
					<g>
						<path class="st11" d="M369.4,573.6c0,0-3.6,35.7,50.5,53.9C419.9,627.6,426.7,584.2,369.4,573.6z"/>
					</g>
				</g>
				<g>
					<g>
						<g>
							<path class="st10" d="M322.9,702.6c0,0-2.3,22.3,31.6,33.7C354.4,736.3,358.7,709.2,322.9,702.6z"/>
						</g>
						<g>
							<path class="st10" d="M322.9,735.4c0,0-2.3,22.3,31.6,33.7C354.5,769.1,358.7,742,322.9,735.4z"/>
						</g>
						<g>
							<path class="st10" d="M322.7,766.6c0,0-2.3,22.3,31.6,33.7C354.2,800.3,358.5,773.2,322.7,766.6z"/>
						</g>
					</g>
					<g>
						<path class="st10" d="M388.3,702.9c0-0.3-0.6-0.4-0.9-0.3c-9.8,1.3-20.1,4.7-26.5,12.6c-3.7,4.5-5.8,10.1-6.1,15.9
							c-0.1,1.2-0.1,2.3,0,3.5c0,0.3,0.7,0.3,0.9,0.3c9.6-2.7,19.2-7,25.8-14.8c3.4-4,5.9-9,6.7-14.3
							C388.2,704.9,388.4,703.9,388.3,702.9z"/>
						<path class="st10" d="M388.3,733.8c0-0.2-0.5-0.3-0.8-0.2c-9.8,1.3-20,4.7-26.5,12.5c-3.7,4.5-5.8,10.2-6.2,16
							c-0.1,1.2-0.1,2.4,0,3.6c0,0.3,0.6,0.2,0.8,0.2c9.6-2.7,19.2-7,25.8-14.7c3.5-4,6-9,6.7-14.3
							C388.3,735.9,388.4,734.8,388.3,733.8z"/>
						<path class="st10" d="M387.4,766.6c0-0.2-0.4-0.2-0.7-0.1c-9.9,1.3-20.2,4.7-26.7,12.6c-3.7,4.5-5.8,10.1-6.1,15.9
							c-0.1,1.2-0.1,2.4,0,3.6c0,0.2,0.6,0.1,0.7,0.1c9.6-2.7,19.4-7.1,26-14.8c3.5-4.1,6-9,6.7-14.3
							C387.4,768.6,387.5,767.6,387.4,766.6z"/>
						<path class="st10" d="M386.8,797.9c0-0.2-0.5-0.4-0.8-0.3c0,0,0,0,0,0c0,0,0,0,0,0c0,0,0,0,0,0c-9.9,1.3-20.2,4.7-26.7,12.7
							c-3.6,4.5-5.7,10.1-6,15.9c-0.1,1.1-0.1,2.3,0.1,3.5c0,0.3,0.7,0.4,0.9,0.3c9.6-2.7,19.3-7.1,25.9-14.9c3.4-4,5.9-9,6.5-14.2
							C386.7,799.9,386.8,798.9,386.8,797.9z"/>
					</g>
					<rect x="352.9" y="701.9" class="st10" width="2.4" height="212.5"/>
					<g>
						<path class="st10" d="M323.6,671.6c0,0-2.3,22.3,31.6,33.7C355.2,705.3,359.4,678.3,323.6,671.6z"/>
					</g>
				</g>
				<g>
					<g>
						<g>
							<path class="st10" d="M669.3,702.6c0,0,2.3,22.3-31.6,33.7C637.7,736.3,633.4,709.2,669.3,702.6z"/>
						</g>
						<g>
							<path class="st10" d="M669.2,735.4c0,0,2.3,22.3-31.6,33.7C637.7,769.1,633.4,742,669.2,735.4z"/>
						</g>
						<g>
							<path class="st10" d="M669.5,766.6c0,0,2.3,22.3-31.6,33.7C637.9,800.3,633.7,773.2,669.5,766.6z"/>
						</g>
					</g>
					<g>
						<path class="st10" d="M603.9,702.9c0-0.3,0.6-0.4,0.9-0.3c9.8,1.3,20.1,4.7,26.5,12.6c3.7,4.5,5.8,10.1,6.1,15.9
							c0.1,1.2,0.1,2.3,0,3.5c0,0.3-0.7,0.3-0.9,0.3c-9.6-2.7-19.2-7-25.8-14.8c-3.4-4-5.9-9-6.7-14.3
							C603.9,704.9,603.8,703.9,603.9,702.9z"/>
						<path class="st10" d="M603.8,733.8c0-0.2,0.5-0.3,0.8-0.2c9.8,1.3,20,4.7,26.5,12.5c3.7,4.5,5.8,10.2,6.2,16
							c0.1,1.2,0.1,2.4,0,3.6c0,0.3-0.6,0.2-0.8,0.2c-9.6-2.7-19.2-7-25.8-14.7c-3.5-4-6-9-6.7-14.3
							C603.8,735.9,603.7,734.8,603.8,733.8z"/>
						<path class="st10" d="M604.7,766.6c0-0.2,0.4-0.2,0.7-0.1c9.9,1.3,20.2,4.7,26.7,12.6c3.7,4.5,5.8,10.1,6.1,15.9
							c0.1,1.2,0.1,2.4,0,3.6c0,0.2-0.6,0.1-0.7,0.1c-9.6-2.7-19.4-7.1-26-14.8c-3.5-4.1-6-9-6.7-14.3
							C604.8,768.6,604.7,767.6,604.7,766.6z"/>
						<path class="st10" d="M605.4,797.9c0-0.2,0.5-0.4,0.8-0.3c0,0,0,0,0,0c0,0,0,0,0,0c0,0,0,0,0,0c9.9,1.3,20.2,4.7,26.7,12.7
							c3.6,4.5,5.7,10.1,6,15.9c0.1,1.1,0.1,2.3-0.1,3.5c0,0.3-0.7,0.4-0.9,0.3c-9.6-2.7-19.3-7.1-25.9-14.9c-3.4-4-5.9-9-6.5-14.2
							C605.4,799.9,605.3,798.9,605.4,797.9z"/>
					</g>
					
						<rect x="636.8" y="701.9" transform="matrix(-1 -4.829749e-11 4.829749e-11 -1 1276.0779 1616.2927)" class="st10" width="2.4" height="212.5"/>
					<g>
						<path class="st10" d="M668.5,671.6c0,0,2.3,22.3-31.6,33.7C637,705.3,632.7,678.3,668.5,671.6z"/>
					</g>
				</g>
				<g>
					<g>
						<g>
							<path class="st11" d="M613.2,646.1c0,0,2.9,28.3-40,42.7C573.3,688.8,567.9,654.5,613.2,646.1z"/>
						</g>
						<g>
							<path class="st11" d="M613.2,687.7c0,0,2.9,28.3-40,42.7C573.2,730.4,567.8,696.1,613.2,687.7z"/>
						</g>
						<g>
							<path class="st11" d="M613.5,727.2c0,0,2.9,28.3-40,42.7C573.5,769.9,568.1,735.6,613.5,727.2z"/>
						</g>
					</g>
					<g>
						<path class="st11" d="M530.4,646.5c0-0.3,0.8-0.4,1.1-0.3c12.4,1.6,25.4,5.9,33.6,15.9c4.6,5.7,7.3,12.8,7.8,20.2
							c0.1,1.5,0.1,3-0.1,4.4c0,0.4-0.8,0.4-1.1,0.3c-12.1-3.4-24.4-8.9-32.7-18.7c-4.4-5.1-7.5-11.4-8.4-18.1
							C530.4,649,530.3,647.8,530.4,646.5z"/>
						<path class="st11" d="M530.3,685.7c0-0.3,0.7-0.3,1.1-0.2c12.4,1.6,25.4,5.9,33.6,15.9c4.7,5.7,7.4,12.9,7.8,20.2
							c0.1,1.5,0.1,3-0.1,4.5c0,0.3-0.8,0.3-1,0.2c-12.1-3.4-24.4-8.9-32.7-18.7c-4.4-5.1-7.6-11.4-8.5-18.2
							C530.4,688.3,530.2,687,530.3,685.7z"/>
						<path class="st11" d="M531.5,727.2c0-0.2,0.6-0.3,0.9-0.1c12.5,1.7,25.5,5.9,33.8,16c4.7,5.7,7.3,12.8,7.8,20.2
							c0.1,1.5,0.1,3-0.1,4.5c0,0.3-0.7,0.2-0.9,0.1c-12.2-3.4-24.5-8.9-32.9-18.8c-4.4-5.1-7.5-11.4-8.5-18.1
							C531.6,729.7,531.4,728.4,531.5,727.2z"/>
						<path class="st11" d="M532.3,766.9c0-0.2,0.6-0.5,1-0.4c0,0,0,0,0.1,0c0,0,0,0,0,0c0,0,0,0,0,0c12.5,1.6,25.6,5.9,33.8,16.1
							c4.6,5.7,7.2,12.8,7.6,20.1c0.1,1.4,0.1,2.9-0.1,4.4c0,0.4-0.9,0.5-1.1,0.4c-12.2-3.4-24.5-9-32.8-18.9
							c-4.3-5.1-7.4-11.4-8.3-18C532.4,769.3,532.2,768.1,532.3,766.9z"/>
					</g>
					
						<rect x="572.1" y="645.3" transform="matrix(-1 -4.869584e-11 4.869584e-11 -1 1147.376 1559.6693)" class="st11" width="3.1" height="269.1"/>
					<g>
						<path class="st11" d="M612.3,606.9c0,0,2.9,28.3-40,42.7C572.3,649.6,566.9,615.3,612.3,606.9z"/>
					</g>
				</g>
			</g>
			<path class="st10" d="M653.4,917.1H347.8c-1.3,0-2.4-1.1-2.4-2.4l0,0c0-1.3,1.1-2.4,2.4-2.4h305.6c1.3,0,2.4,1.1,2.4,2.4l0,0
				C655.8,916,654.7,917.1,653.4,917.1z"/>
		</g>
		<polyline class="st27" points="660.3,726.6 693.9,915.2 289.5,915.2 603.6,408.3 660.3,726.6 		"/>
	</g>
	
		<path style="clip-path:url(#SVGID_2_);fill:none;stroke:#009147;stroke-width:1.4195;stroke-miterlimit:10;stroke-dasharray:7.0977,7.0977;" d="
		M135,83.3C175.3,24.4,236.4-20.4,311-39c151.6-37.8,305,46.4,356.8,190.4"/>
	
		<path style="clip-path:url(#SVGID_2_);fill:none;stroke:#009147;stroke-width:1.4195;stroke-miterlimit:10;stroke-dasharray:7.0977,7.0977;" d="
		M158.7,454.8c-13.4-14.9-25.3-31.3-35.6-49"/>
	<g class="st0">
		<circle class="st29" cx="226.8" cy="632.8" r="126.8"/>
	</g>
	<g class="st0">
		<path class="st7" d="M359.7,753.2c4,11.8-2.4,24.7-14.2,28.7l-122.1,41.5c-11.8,4-24.7-2.4-28.7-14.2L99.8,530.7
			c-4-11.8,2.4-24.7,14.2-28.7l122.1-41.5c11.8-4,24.7,2.4,28.7,14.2L359.7,753.2z"/>
		<g>
			<path class="st6" d="M204.9,500.7c0.5,1.5-0.3,3.2-1.8,3.7l-35.9,12.2c-1.5,0.5-3.2-0.3-3.7-1.8l-0.1-0.2
				c-0.5-1.5,0.3-3.2,1.8-3.7l35.9-12.2c1.5-0.5,3.2,0.3,3.7,1.8L204.9,500.7z"/>
			<path class="st6" d="M184.4,494.1c0.8,2.5-0.5,5.1-2.9,6c-2.5,0.8-5.1-0.5-6-2.9c-0.8-2.5,0.5-5.1,2.9-6
				C180.9,490.3,183.6,491.6,184.4,494.1z"/>
			<path class="st6" d="M291.4,777.5c2.6,7.7-1.5,16.1-9.2,18.7c-7.7,2.6-16.1-1.5-18.7-9.2c-2.6-7.7,1.5-16.1,9.2-18.7
				C280.5,765.7,288.8,769.8,291.4,777.5z"/>
		</g>
		
			<rect x="149.6" y="515.5" transform="matrix(0.9467 -0.322 0.322 0.9467 -194.733 108.3201)" class="st10" width="160.9" height="254.4"/>
		<g>
			<g>
				<g>
					<path class="st11" d="M157.9,550.3l6.9,8.1c-6.2,4.6-9.1,12.8-6.9,20.5l-9.9,3.9C144,570.6,148.4,557.7,157.9,550.3z"/>
					<path class="st13" d="M170.6,591.7l-5,9.5c-7.9-3-14.5-9.5-17.4-18.1c0-0.1-0.1-0.2-0.1-0.4l9.9-3.9c0.1,0.3,0.2,0.6,0.3,0.8
						C160.2,585.7,165,590,170.6,591.7z"/>
					<path class="st14" d="M177.5,592.5l1.5,10.6c-4.7,0.5-9.3-0.2-13.5-1.8l5-9.5C172.8,592.4,175.1,592.7,177.5,592.5z"/>
					<path class="st15" d="M195,576l10.2,3.3c-2,10-9.1,18.8-19.5,22.3c-2.2,0.8-4.5,1.2-6.7,1.4l-1.5-10.6c1.6-0.1,3.2-0.4,4.8-1
						C189.4,589.2,194.1,583,195,576z"/>
					<path class="st7" d="M196.4,552c3.4,3.2,6.2,7.3,7.8,12.1c1.7,5.1,2,10.4,1,15.3L195,576c0.4-2.8,0.1-5.7-0.9-8.5
						c-1.3-3.7-3.5-6.7-6.4-8.9L196.4,552z"/>
					<path class="st6" d="M196.4,552l-8.7,6.6c-4.9-3.7-11.4-5.1-17.7-2.9c-1.9,0.7-3.7,1.6-5.2,2.8l-6.9-8.1c2.6-2,5.5-3.6,8.7-4.7
						C177.4,541.9,188.7,544.7,196.4,552z"/>
				</g>
				<g>
					<path class="st15" d="M229.2,659.8c3-6.7,3.5-14.6,1-22.1c-0.9-2.5-2-4.9-3.4-7l-22.9,16.6L229.2,659.8z"/>
					<path class="st14" d="M202.3,649.5l-5.2,28.2c4.6,0.6,9.3,0.3,14-1.3c7.5-2.6,13.4-7.8,16.9-14.2L202.3,649.5z"/>
					<path class="st6" d="M193.1,615.7l8.8,25.8l12.1-24.5C207.5,614.2,200.2,613.6,193.1,615.7z"/>
					<path class="st11" d="M225.2,628.6c-2.6-3.2-5.7-5.9-9.3-7.8l-11.1,22.6L225.2,628.6z"/>
					<path class="st15" d="M194.6,677.3l5.4-29.6l-9.7-28.5c-15.1,5.9-23.1,22.7-17.8,38.2C176,667.8,184.6,675,194.6,677.3z"/>
				</g>
				<g>
					<path class="st6" d="M233.5,751.1l-0.6-1.8c15.6-5.3,24-22.3,18.7-38c-5.3-15.6-22.3-24-38-18.7l-0.6-1.8
						c16.6-5.7,34.8,3.3,40.4,19.9C259.1,727.2,250.1,745.4,233.5,751.1z"/>
				</g>
				<g>
					<path class="st11" d="M231.6,745.6l-0.6-1.8c12.6-4.3,19.4-18,15.1-30.7c-4.3-12.6-18-19.4-30.7-15.1
						c-12.6,4.3-19.4,18-15.1,30.7l-1.8,0.6c-4.6-13.6,2.7-28.5,16.3-33.1c13.6-4.6,28.5,2.7,33.1,16.3
						C252.6,726.1,245.3,741,231.6,745.6z"/>
				</g>
				<g>
					<path class="st14" d="M230,740.7c-10.9,3.7-22.8-2.1-26.5-13.1l1.8-0.6c3.4,9.9,14.2,15.2,24,11.8c9.9-3.4,15.2-14.2,11.8-24
						c-3.4-9.9-14.2-15.2-24-11.8l-0.6-1.8c10.9-3.7,22.8,2.1,26.5,13.1C246.7,725.1,240.9,737,230,740.7z"/>
				</g>
				<g>
					<path class="st15" d="M228.1,735.1l-0.6-1.8c6.8-2.3,10.5-9.8,8.2-16.6c-2.3-6.8-9.8-10.5-16.6-8.2c-6.8,2.3-10.5,9.8-8.2,16.6
						l-1.8,0.6c-2.7-7.9,1.5-16.4,9.4-19.1c7.9-2.7,16.4,1.5,19.1,9.4C240.2,723.9,236,732.5,228.1,735.1z"/>
				</g>
				<g>
					<path class="st14" d="M226.3,729.9c-5,1.7-10.5-1-12.2-6l1.8-0.6c1.4,4,5.7,6.1,9.7,4.8c4-1.4,6.1-5.7,4.8-9.7
						c-1.4-4-5.7-6.1-9.7-4.8l-0.6-1.8c5-1.7,10.5,1,12.2,6C234,722.8,231.3,728.2,226.3,729.9z"/>
				</g>
			</g>
			<g>
				<g>
					<g>
						<g>
							<path class="st7" d="M254.6,531.5c0,0,4.5,9.9-9.2,20.4C245.3,551.9,239.1,540.1,254.6,531.5z"/>
						</g>
						<g>
							<path class="st7" d="M259.7,546.6c0,0,4.5,9.9-9.2,20.4C250.4,567,244.3,555.2,259.7,546.6z"/>
						</g>
						<g>
							<path class="st7" d="M264.7,560.9c0,0,4.5,9.9-9.2,20.4C255.4,581.3,249.2,569.5,264.7,560.9z"/>
						</g>
					</g>
					<g>
						<path class="st15" d="M224.6,541.9c0-0.1,0.2-0.3,0.4-0.3c4.7-0.9,9.9-1,14.2,1.6c2.4,1.5,4.2,3.8,5.3,6.4
							c0.2,0.5,0.4,1.1,0.5,1.6c0,0.1-0.2,0.3-0.4,0.3c-4.8,0.3-9.9-0.2-14.2-2.7c-2.2-1.3-4.1-3.2-5.3-5.5
							C224.9,542.8,224.7,542.3,224.6,541.9z"/>
						<path class="st15" d="M229.4,556.1c0-0.1,0.2-0.2,0.4-0.2c4.7-0.9,9.9-1,14.2,1.6c2.4,1.5,4.3,3.8,5.3,6.4
							c0.2,0.5,0.4,1.1,0.5,1.6c0,0.1-0.3,0.2-0.3,0.2c-4.8,0.3-9.9-0.2-14.2-2.7c-2.2-1.3-4.2-3.2-5.3-5.5
							C229.7,557,229.5,556.6,229.4,556.1z"/>
						<path class="st15" d="M234.9,571c0-0.1,0.2-0.2,0.3-0.2c4.7-0.9,10-1,14.2,1.6c2.4,1.5,4.2,3.8,5.3,6.4
							c0.2,0.5,0.4,1.1,0.5,1.6c0,0.1-0.2,0.2-0.3,0.2c-4.8,0.3-10-0.2-14.2-2.8c-2.2-1.3-4.1-3.2-5.3-5.5
							C235.3,571.9,235,571.5,234.9,571z"/>
						<path class="st15" d="M240.1,585.3c0-0.1,0.2-0.2,0.3-0.3c0,0,0,0,0,0c0,0,0,0,0,0c0,0,0,0,0,0c4.7-1,10-1,14.2,1.7
							c2.4,1.5,4.2,3.8,5.2,6.4c0.2,0.5,0.4,1.1,0.5,1.6c0,0.1-0.3,0.3-0.4,0.3c-4.8,0.3-10-0.2-14.2-2.8c-2.2-1.3-4.1-3.2-5.2-5.5
							C240.4,586.2,240.2,585.7,240.1,585.3z"/>
					</g>
					
						<rect x="256.1" y="533.3" transform="matrix(-0.9467 0.322 -0.322 -0.9467 688.1199 1055.9521)" class="st7" width="1.2" height="103.1"/>
					<g>
						<path class="st7" d="M249.4,517.4c0,0,4.5,9.9-9.2,20.4C240.2,537.8,234,526,249.4,517.4z"/>
					</g>
				</g>
				
					<rect x="257.5" y="632.7" transform="matrix(0.9467 -0.322 0.322 0.9467 -189.4411 121.4897)" class="st7" width="29.9" height="1.2"/>
				<circle class="st7" cx="261.6" cy="642.3" r="1.4"/>
				<circle class="st7" cx="269.9" cy="639.5" r="1.4"/>
				<circle class="st7" cx="278.2" cy="636.6" r="1.4"/>
				<circle class="st7" cx="286.5" cy="633.8" r="1.4"/>
				<circle class="st7" cx="263.6" cy="648.1" r="1.4"/>
				<circle class="st7" cx="271.9" cy="645.3" r="1.4"/>
				<circle class="st7" cx="280.2" cy="642.5" r="1.4"/>
				<circle class="st7" cx="288.5" cy="639.7" r="1.4"/>
				<circle class="st7" cx="265.6" cy="654" r="1.4"/>
				<circle class="st7" cx="273.9" cy="651.1" r="1.4"/>
				<circle class="st7" cx="282.2" cy="648.3" r="1.4"/>
				<circle class="st7" cx="290.5" cy="645.5" r="1.4"/>
				<circle class="st7" cx="267.6" cy="659.8" r="1.4"/>
				<circle class="st7" cx="275.9" cy="657" r="1.4"/>
				<circle class="st7" cx="284.2" cy="654.2" r="1.4"/>
				<circle class="st7" cx="292.5" cy="651.3" r="1.4"/>
				<circle class="st7" cx="269.6" cy="665.6" r="1.4"/>
				<circle class="st7" cx="277.9" cy="662.8" r="1.4"/>
				<circle class="st7" cx="286.2" cy="660" r="1.4"/>
				<circle class="st7" cx="294.5" cy="657.2" r="1.4"/>
				<circle class="st7" cx="271.6" cy="671.5" r="1.4"/>
				<circle class="st7" cx="279.9" cy="668.7" r="1.4"/>
				<circle class="st7" cx="288.2" cy="665.8" r="1.4"/>
				<circle class="st7" cx="296.5" cy="663" r="1.4"/>
				<circle class="st6" cx="273.6" cy="677.3" r="1.4"/>
				<circle class="st7" cx="281.9" cy="674.5" r="1.4"/>
				<circle class="st7" cx="290.2" cy="671.7" r="1.4"/>
				<circle class="st7" cx="298.5" cy="668.9" r="1.4"/>
				<circle class="st6" cx="275.5" cy="683.2" r="1.4"/>
				<circle class="st6" cx="283.8" cy="680.3" r="1.4"/>
				<circle class="st7" cx="292.1" cy="677.5" r="1.4"/>
				<circle class="st7" cx="300.4" cy="674.7" r="1.4"/>
				<circle class="st6" cx="277.5" cy="689" r="1.4"/>
				<circle class="st6" cx="285.8" cy="686.2" r="1.4"/>
				<circle class="st6" cx="294.1" cy="683.4" r="1.4"/>
				<circle class="st7" cx="302.4" cy="680.5" r="1.4"/>
				<circle class="st6" cx="279.5" cy="694.9" r="1.4"/>
				<circle class="st6" cx="287.8" cy="692" r="1.4"/>
				<circle class="st6" cx="296.1" cy="689.2" r="1.4"/>
				<circle class="st6" cx="304.4" cy="686.4" r="1.4"/>
				<circle class="st6" cx="281.5" cy="700.7" r="1.4"/>
				<circle class="st6" cx="289.8" cy="697.9" r="1.4"/>
				<circle class="st6" cx="298.1" cy="695" r="1.4"/>
				<circle class="st6" cx="306.4" cy="692.2" r="1.4"/>
				<circle class="st6" cx="283.5" cy="706.5" r="1.4"/>
				<circle class="st6" cx="291.8" cy="703.7" r="1.4"/>
				<circle class="st6" cx="300.1" cy="700.9" r="1.4"/>
				<circle class="st6" cx="308.4" cy="698.1" r="1.4"/>
				<circle class="st16" cx="285.5" cy="712.4" r="1.4"/>
				<circle class="st16" cx="293.8" cy="709.6" r="1.4"/>
				<circle class="st6" cx="302.1" cy="706.7" r="1.4"/>
				<circle class="st6" cx="310.4" cy="703.9" r="1.4"/>
				<circle class="st16" cx="287.5" cy="718.2" r="1.4"/>
				<circle class="st16" cx="295.8" cy="715.4" r="1.4"/>
				<circle class="st16" cx="304.1" cy="712.6" r="1.4"/>
				<circle class="st6" cx="312.4" cy="709.7" r="1.4"/>
				<circle class="st16" cx="289.4" cy="724.1" r="1.4"/>
				<circle class="st16" cx="297.8" cy="721.2" r="1.4"/>
				<circle class="st16" cx="306.1" cy="718.4" r="1.4"/>
				<circle class="st16" cx="314.4" cy="715.6" r="1.4"/>
				<circle class="st16" cx="291.4" cy="729.9" r="1.4"/>
				<circle class="st16" cx="299.7" cy="727.1" r="1.4"/>
				<circle class="st16" cx="308" cy="724.2" r="1.4"/>
				<circle class="st16" cx="316.3" cy="721.4" r="1.4"/>
			</g>
		</g>
	</g>
	<g class="st0">
		<path class="st10" d="M93.1,166.4v8.6H69.6v-44.4h22.9v8.6H78.6v9.2h12.6v8.2H78.6v9.8H93.1z"/>
		<path class="st10" d="M99.6,161.4v-17.3c0-9.3,5.2-14.3,14.1-14.3c8.6,0,13.3,5,13.6,14.3h-9c-0.2-4-1.5-5.6-4.6-5.6
			c-3,0-4.7,1.6-4.7,5.6v17.3c0,4,1.6,5.6,4.8,5.6c3.3,0,4.9-1.6,4.9-5.6v-3.2h-5.3v-8h14.2v11.2c-0.3,9.3-5.2,14.3-13.9,14.3
			C104.8,175.7,99.6,170.7,99.6,161.4z"/>
		<path class="st10" d="M134.8,130.5h8.9l8.4,19.3c1.1,2.8,2.1,5.7,3.2,8.5l0.2-0.2c-0.8-5.6-1.3-13.2-1.3-17.3v-10.3h8.9V175h-8.9
			l-7.5-17.2l-4-10.9l-0.2,0.2c0.7,5.6,1.1,13.9,1.1,18.8v9h-8.9V130.5z"/>
		<path class="st10" d="M169.8,162h9.3c0,3.6,1.8,5.1,4.6,5.1c3,0,4.4-1.7,4.4-3.9c0-7.4-17.4-8.2-17.4-21.8
			c0-6.8,4.8-11.7,12.9-11.7s13.1,4.9,13.1,13.1h-9.3c0-2.9-1.3-4.4-3.9-4.4c-2.3,0-3.7,1.3-3.7,3.3c0,7,17.6,7.4,17.6,21.6
			c0,7.3-5.1,12.6-14,12.6C175.2,175.8,169.8,171,169.8,162z"/>
		<path class="st10" d="M201.8,162h9.3c0,3.6,1.8,5.1,4.6,5.1c3,0,4.4-1.7,4.4-3.9c0-7.4-17.4-8.2-17.4-21.8
			c0-6.8,4.8-11.7,12.9-11.7s13.1,4.9,13.1,13.1h-9.3c0-2.9-1.3-4.4-3.9-4.4c-2.3,0-3.7,1.3-3.7,3.3c0,7,17.6,7.4,17.6,21.6
			c0,7.3-5.1,12.6-14,12.6C207.1,175.8,201.8,171,201.8,162z"/>
		<path class="st11" d="M261.6,164.8H257V175h-8.3v-10.2H233v-4.6l8.1-29.7h8.4l-7.4,26.5h6.7l1.3-13.5h6.9v13.5h4.6V164.8z"/>
		<path class="st10" d="M266,161.4v-17.3c0-9.4,5.1-14.5,13.8-14.5c8.9,0,13.8,5.1,14.2,14.5h-9c-0.3-4.1-1.8-5.7-5.2-5.7
			c-2.7,0-4.3,1.8-4.3,5.7v17.3c0,3.8,1.5,5.6,4.3,5.6c3.5,0,5.1-1.6,5.3-5.6h9c-0.2,9.3-5.3,14.3-14.3,14.3
			C271.1,175.7,266,170.7,266,161.4z"/>
		<path class="st10" d="M316,167.6h-9.4l-1.5,7.4h-9.3l10.7-44.4h9.6l10.7,44.4h-9.3L316,167.6z M314.3,159l-1-5.1
			c-0.6-3.2-1.3-8.6-1.8-12.2h-0.3c-0.4,3.6-1.1,9-1.8,12.2l-1,5.1H314.3z"/>
		<path class="st10" d="M360.1,145.6c0,9.5-5.5,15-14.7,15h-3.9V175h-9v-44.4h12.9C354.6,130.5,360.1,136.1,360.1,145.6z
			 M350.8,145.6c0-4.3-1.9-6.5-5.5-6.5h-3.7v13h3.7C348.9,152.1,350.8,149.9,350.8,145.6z"/>
		<path class="st19" d="M77,210v3.1h-9.7v-18.7h9.4v3.1h-6.1v4.6h5.6v3h-5.6v4.9H77z"/>
		<path class="st19" d="M89.3,204.3v8.7h-3.1v-8.7c0-2-0.6-2.8-1.7-2.8c-1.2,0-1.9,0.9-1.9,2.6v8.8h-3.1V199h2.1l0.3,1.5
			c0.7-1.2,1.9-1.9,3.4-1.9C87.8,198.6,89.3,200.5,89.3,204.3z"/>
		<path class="st19" d="M101.4,203.9v9.1h-2.5l-0.2-1.3c-0.6,1-1.5,1.7-3.1,1.7c-2.6,0-4.2-1.8-4.2-4.4c0-2.9,2.1-4.4,5.3-4.4h1.7
			v-0.7c0-1.4-0.4-2.3-1.6-2.3c-0.9,0-1.6,0.5-1.8,1.5h-3.1c0.1-2.9,2-4.6,5-4.6C99.9,198.6,101.4,200.5,101.4,203.9z M98.2,207.2
			h-1.6c-1.3,0-2.1,0.6-2.1,1.8c0,1,0.6,1.7,1.8,1.7c1.2,0,1.9-0.7,1.9-2V207.2z"/>
		<path class="st19" d="M114.3,204.1v3.8c0,3.4-1.8,5.5-4.5,5.5c-1.2,0-2.4-0.7-3.1-1.6l-0.2,1.3h-2.2v-19.4h3.1v5.8
			c0.6-0.6,1.5-0.9,2.4-0.9C112.5,198.6,114.3,200.8,114.3,204.1z M111.1,204.1c0-1.7-0.6-2.5-1.8-2.5c-1.2,0-1.9,0.9-1.9,2.5v3.8
			c0,1.7,0.7,2.5,1.9,2.5c1.1,0,1.8-0.8,1.8-2.5V204.1z"/>
		<path class="st19" d="M116.7,193.8h3.1v19.3h-3.1V193.8z"/>
		<path class="st19" d="M122.3,195c0-1.1,0.7-1.8,1.8-1.8c1,0,1.8,0.8,1.8,1.8c0,1-0.8,1.8-1.8,1.8C123.1,196.8,122.3,196,122.3,195
			z M122.6,199h3.1v14.1h-3.1V199z"/>
		<path class="st19" d="M138.5,204.3v8.7h-3.1v-8.7c0-2-0.6-2.8-1.7-2.8c-1.2,0-1.9,0.9-1.9,2.6v8.8h-3.1V199h2.1l0.3,1.5
			c0.7-1.2,1.9-1.9,3.4-1.9C136.9,198.6,138.5,200.5,138.5,204.3z"/>
		<path class="st19" d="M151,199v14.7c0,2.7-1.8,4.6-4.9,4.6c-3,0-4.7-1.8-4.8-4.6h3.1c0.1,1,0.7,1.6,1.7,1.6c1,0,1.7-0.6,1.7-1.7
			v-1.9c-0.7,0.5-1.5,0.7-2.4,0.7c-2.6,0-4.5-2.1-4.5-5.2V204c0-3.2,1.9-5.3,4.5-5.3c1.3,0,2.3,0.5,3.1,1.3l0.2-1H151z M147.8,207.2
			v-3.3c0-1.5-0.7-2.2-1.9-2.2c-1.2,0-1.8,0.7-1.8,2.3v3.3c0,1.5,0.6,2.2,1.8,2.2S147.8,208.7,147.8,207.2z"/>
		<path class="st19" d="M165.9,210.3v3h-1.1c-2.9,0-4.7-1.9-4.7-4.9v-6.5h-1.9V199h1.9v-3.4h3.1v3.4h2.5v2.9h-2.5v6.5
			c0,1.3,0.6,1.9,1.8,1.9H165.9z"/>
		<path class="st19" d="M177.9,204.5v8.6h-3.1v-8.6c0-2.1-0.6-2.9-1.7-2.9c-1.2,0-1.9,0.9-1.9,2.6v8.8h-3.1v-19.3h3.1v6.4
			c0.7-0.9,1.6-1.5,2.8-1.5C176.5,198.6,177.9,200.6,177.9,204.5z"/>
		<path class="st19" d="M190.5,208.6c-0.3,3-2.1,4.8-5.2,4.8c-3.1,0-4.9-2-4.9-5.4v-4c0-3.4,1.9-5.4,5-5.4c3.2,0,5.1,2,5.1,5.4v3.1
			h-6.9v0.8c0,1.7,0.7,2.4,1.8,2.4c1.3,0,1.7-0.5,1.9-1.8H190.5z M183.5,204v0.9h3.8V204c0-1.7-0.7-2.4-1.9-2.4
			C184.2,201.6,183.5,202.3,183.5,204z"/>
		<path class="st19" d="M208,193.8v19.4h-2.2l-0.2-1.3c-0.7,0.9-1.9,1.6-3.1,1.6c-2.7,0-4.5-2.1-4.5-5.5v-3.8c0-3.4,1.8-5.5,4.5-5.5
			c0.9,0,1.8,0.4,2.4,0.9v-5.8H208z M204.9,204.1c0-1.6-0.7-2.5-1.9-2.5c-1.2,0-1.8,0.8-1.8,2.5v3.8c0,1.7,0.7,2.5,1.8,2.5
			c1.2,0,1.9-0.9,1.9-2.5V204.1z"/>
		<path class="st19" d="M210.6,195c0-1.1,0.7-1.8,1.8-1.8c1,0,1.8,0.8,1.8,1.8c0,1-0.8,1.8-1.8,1.8C211.4,196.8,210.6,196,210.6,195
			z M210.9,199h3.1v14.1h-3.1V199z"/>
		<path class="st19" d="M226.7,199v14.7c0,2.7-1.8,4.6-4.9,4.6c-3,0-4.7-1.8-4.8-4.6h3.1c0.1,1,0.7,1.6,1.7,1.6c1,0,1.7-0.6,1.7-1.7
			v-1.9c-0.7,0.5-1.5,0.7-2.4,0.7c-2.6,0-4.5-2.1-4.5-5.2V204c0-3.2,1.9-5.3,4.5-5.3c1.3,0,2.3,0.5,3.1,1.3l0.2-1H226.7z
			 M223.5,207.2v-3.3c0-1.5-0.7-2.2-1.9-2.2c-1.2,0-1.8,0.7-1.8,2.3v3.3c0,1.5,0.6,2.2,1.8,2.2S223.5,208.7,223.5,207.2z"/>
		<path class="st19" d="M229.3,195c0-1.1,0.7-1.8,1.8-1.8c1,0,1.8,0.8,1.8,1.8c0,1-0.8,1.8-1.8,1.8C230.1,196.8,229.3,196,229.3,195
			z M229.6,199h3.1v14.1h-3.1V199z"/>
		<path class="st19" d="M242.1,210.3v3H241c-2.9,0-4.7-1.9-4.7-4.9v-6.5h-1.9V199h1.9v-3.4h3.1v3.4h2.5v2.9h-2.5v6.5
			c0,1.3,0.6,1.9,1.8,1.9H242.1z"/>
		<path class="st19" d="M253.6,203.9v9.1h-2.5l-0.2-1.3c-0.6,1-1.5,1.7-3.1,1.7c-2.6,0-4.2-1.8-4.2-4.4c0-2.9,2.1-4.4,5.3-4.4h1.7
			v-0.7c0-1.4-0.4-2.3-1.6-2.3c-0.9,0-1.6,0.5-1.8,1.5H244c0.1-2.9,2-4.6,5-4.6C252.1,198.6,253.6,200.5,253.6,203.9z M250.5,207.2
			h-1.6c-1.3,0-2.1,0.6-2.1,1.8c0,1,0.6,1.7,1.8,1.7c1.2,0,1.9-0.7,1.9-2V207.2z"/>
		<path class="st19" d="M256.4,193.8h3.1v19.3h-3.1V193.8z"/>
		<path class="st19" d="M262,195c0-1.1,0.7-1.8,1.8-1.8c1,0,1.8,0.8,1.8,1.8c0,1-0.8,1.8-1.8,1.8C262.8,196.8,262,196,262,195z
			 M262.3,199h3.1v14.1h-3.1V199z"/>
		<path class="st19" d="M267.2,208.7h3.1c0,1,0.6,1.9,2.1,1.9c1.1,0,1.8-0.6,1.8-1.4c0-2.5-6.8-1.7-6.8-6.5c0-2.5,1.8-4,4.7-4
			c3.2,0,4.7,2,4.8,4.6h-3c-0.1-1.1-0.6-1.8-1.8-1.8c-1,0-1.6,0.5-1.6,1.3c0,2.3,6.8,1.4,6.8,6.5c0,2.6-1.8,4.3-4.9,4.3
			C269,213.5,267.2,211.2,267.2,208.7z"/>
		<path class="st19" d="M288.8,203.9v9.1h-2.5l-0.2-1.3c-0.6,1-1.5,1.7-3.1,1.7c-2.6,0-4.2-1.8-4.2-4.4c0-2.9,2.1-4.4,5.3-4.4h1.7
			v-0.7c0-1.4-0.4-2.3-1.6-2.3c-0.9,0-1.6,0.5-1.8,1.5h-3.1c0.1-2.9,2-4.6,5-4.6C287.2,198.6,288.8,200.5,288.8,203.9z M285.6,207.2
			H284c-1.3,0-2.1,0.6-2.1,1.8c0,1,0.6,1.7,1.8,1.7c1.2,0,1.9-0.7,1.9-2V207.2z"/>
		<path class="st19" d="M298.1,210.3v3h-1.1c-2.9,0-4.7-1.9-4.7-4.9v-6.5h-1.9V199h1.9v-3.4h3.1v3.4h2.5v2.9h-2.5v6.5
			c0,1.3,0.6,1.9,1.8,1.9H298.1z"/>
		<path class="st19" d="M300.1,195c0-1.1,0.7-1.8,1.8-1.8c1,0,1.8,0.8,1.8,1.8c0,1-0.8,1.8-1.8,1.8C300.8,196.8,300.1,196,300.1,195
			z M300.3,199h3.1v14.1h-3.1V199z"/>
		<path class="st19" d="M306,207.9v-3.8c0-3.5,1.9-5.5,5.1-5.5c3.2,0,5.1,2,5.1,5.5v3.8c0,3.5-1.9,5.5-5.1,5.5
			C307.9,213.4,306,211.5,306,207.9z M313,207.9v-3.8c0-1.7-0.7-2.4-1.9-2.4c-1.2,0-1.9,0.7-1.9,2.4v3.8c0,1.7,0.7,2.4,1.9,2.4
			C312.3,210.4,313,209.6,313,207.9z"/>
		<path class="st19" d="M328.7,204.3v8.7h-3.1v-8.7c0-2-0.6-2.8-1.7-2.8c-1.2,0-1.9,0.9-1.9,2.6v8.8h-3.1V199h2.1l0.3,1.5
			c0.7-1.2,1.9-1.9,3.4-1.9C327.1,198.6,328.7,200.5,328.7,204.3z"/>
		<path class="st19" d="M66.7,237.7v-3.8c0-3.5,1.9-5.5,5.1-5.5c3.2,0,5.1,2,5.1,5.5v3.8c0,3.5-1.9,5.5-5.1,5.5
			C68.7,243.2,66.7,241.3,66.7,237.7z M73.8,237.7v-3.8c0-1.7-0.7-2.4-1.9-2.4c-1.2,0-1.9,0.7-1.9,2.4v3.8c0,1.7,0.7,2.4,1.9,2.4
			C73.1,240.2,73.8,239.4,73.8,237.7z"/>
		<path class="st19" d="M83.3,228.3v0.5h2.5v2.9h-2.5v11.2h-3.1v-11.2h-2v-2.9h2v-0.5c0-2.9,1.5-5.1,5-5.1h0.9v2.9h-0.9
			C83.8,226,83.3,226.7,83.3,228.3z"/>
		<path class="st19" d="M102.5,233.7v9.1H100l-0.2-1.3c-0.6,1-1.5,1.7-3.1,1.7c-2.6,0-4.2-1.8-4.2-4.4c0-2.9,2.1-4.4,5.3-4.4h1.7
			v-0.7c0-1.4-0.4-2.3-1.6-2.3c-0.9,0-1.6,0.5-1.8,1.5h-3.1c0.1-2.9,2-4.6,5-4.6C101,228.4,102.5,230.3,102.5,233.7z M99.4,237.1
			h-1.6c-1.3,0-2.1,0.6-2.1,1.8c0,1,0.6,1.7,1.8,1.7c1.2,0,1.9-0.7,1.9-2V237.1z"/>
		<path class="st19" d="M115.1,228.8v14.7c0,2.7-1.8,4.6-4.9,4.6c-3,0-4.7-1.8-4.8-4.6h3.1c0.1,1,0.7,1.6,1.7,1.6
			c1,0,1.7-0.6,1.7-1.7v-1.9c-0.7,0.5-1.5,0.7-2.4,0.7c-2.6,0-4.5-2.1-4.5-5.2v-3.3c0-3.2,1.9-5.3,4.5-5.3c1.3,0,2.3,0.5,3.1,1.3
			l0.2-1H115.1z M111.9,237v-3.3c0-1.5-0.7-2.2-1.9-2.2c-1.2,0-1.8,0.7-1.8,2.3v3.3c0,1.5,0.6,2.2,1.8,2.2S111.9,238.5,111.9,237z"
			/>
		<path class="st19" d="M125.5,228.7v3c-0.5-0.2-1.1-0.3-1.7-0.3c-1.6,0-2.6,1-2.6,3.1v8.4H118v-14.1h2.1l0.3,1.7
			c0.7-1.3,1.9-2,3.6-2C124.6,228.5,125.1,228.5,125.5,228.7z"/>
		<path class="st19" d="M127,224.8c0-1.1,0.7-1.8,1.8-1.8c1,0,1.8,0.8,1.8,1.8c0,1-0.8,1.8-1.8,1.8C127.7,226.6,127,225.8,127,224.8
			z M127.2,228.8h3.1v14.1h-3.1V228.8z"/>
		<path class="st19" d="M132.7,234.7h6.6v2.7h-6.6V234.7z"/>
		<path class="st19" d="M151.4,228.8v14.7c0,2.7-1.8,4.6-4.9,4.6c-3,0-4.7-1.8-4.8-4.6h3.1c0.1,1,0.7,1.6,1.7,1.6
			c1,0,1.7-0.6,1.7-1.7v-1.9c-0.7,0.5-1.5,0.7-2.4,0.7c-2.6,0-4.5-2.1-4.5-5.2v-3.3c0-3.2,1.9-5.3,4.5-5.3c1.3,0,2.3,0.5,3.1,1.3
			l0.2-1H151.4z M148.2,237v-3.3c0-1.5-0.7-2.2-1.9-2.2c-1.2,0-1.8,0.7-1.8,2.3v3.3c0,1.5,0.6,2.2,1.8,2.2S148.2,238.5,148.2,237z"
			/>
		<path class="st19" d="M154,237.7v-3.8c0-3.5,1.9-5.5,5.1-5.5c3.2,0,5.1,2,5.1,5.5v3.8c0,3.5-1.9,5.5-5.1,5.5
			C155.9,243.2,154,241.3,154,237.7z M161,237.7v-3.8c0-1.7-0.7-2.4-1.9-2.4c-1.2,0-1.9,0.7-1.9,2.4v3.8c0,1.7,0.7,2.4,1.9,2.4
			C160.3,240.2,161,239.4,161,237.7z"/>
		<path class="st19" d="M164.7,228.8h3.3l1.2,5.3c0.4,1.7,0.8,4,1,5.1h0.2c0.2-1.1,0.6-3.4,1-5.1l1.2-5.3h3.3l-3.8,14.1h-3.5
			L164.7,228.8z"/>
		<path class="st19" d="M187.2,238.4c-0.3,3-2.1,4.8-5.2,4.8c-3.1,0-4.9-2-4.9-5.4v-4c0-3.4,1.9-5.4,5-5.4c3.2,0,5.1,2,5.1,5.4v3.1
			h-6.9v0.8c0,1.7,0.7,2.4,1.8,2.4c1.3,0,1.7-0.5,1.9-1.8H187.2z M180.2,233.8v0.9h3.8v-0.9c0-1.7-0.7-2.4-1.9-2.4
			C180.9,231.4,180.2,232.1,180.2,233.8z"/>
		<path class="st19" d="M197,228.7v3c-0.5-0.2-1.1-0.3-1.7-0.3c-1.6,0-2.6,1-2.6,3.1v8.4h-3.1v-14.1h2.1l0.3,1.7
			c0.7-1.3,1.9-2,3.6-2C196.1,228.5,196.6,228.5,197,228.7z"/>
		<path class="st19" d="M208.6,234.1v8.7h-3.1v-8.7c0-2-0.6-2.8-1.7-2.8c-1.2,0-1.9,0.9-1.9,2.6v8.8h-3.1v-14.1h2.1l0.3,1.5
			c0.7-1.2,1.9-1.9,3.4-1.9C207.1,228.4,208.6,230.3,208.6,234.1z"/>
		<path class="st19" d="M227.6,234.2v8.7h-3.1v-8.7c0-2-0.6-2.7-1.6-2.7c-1.1,0-1.9,0.9-1.9,2.6v8.8h-3.1v-8.7c0-2-0.6-2.7-1.6-2.7
			c-1.1,0-1.8,0.9-1.8,2.6v8.8h-3.1v-14.1h2.1l0.3,1.5c0.7-1.2,1.8-1.8,3.3-1.8c1.4,0,2.5,0.6,3.2,1.9c0.7-1.2,1.9-1.9,3.4-1.9
			C226.1,228.4,227.6,230.4,227.6,234.2z"/>
		<path class="st19" d="M240.1,238.4c-0.3,3-2.1,4.8-5.2,4.8c-3.1,0-4.9-2-4.9-5.4v-4c0-3.4,1.9-5.4,5-5.4c3.2,0,5.1,2,5.1,5.4v3.1
			h-6.9v0.8c0,1.7,0.7,2.4,1.8,2.4c1.3,0,1.7-0.5,1.9-1.8H240.1z M233.2,233.8v0.9h3.8v-0.9c0-1.7-0.7-2.4-1.9-2.4
			C233.8,231.4,233.2,232.1,233.2,233.8z"/>
		<path class="st19" d="M252.4,234.1v8.7h-3.1v-8.7c0-2-0.6-2.8-1.7-2.8c-1.2,0-1.9,0.9-1.9,2.6v8.8h-3.1v-14.1h2.1l0.3,1.5
			c0.7-1.2,1.9-1.9,3.4-1.9C250.8,228.4,252.4,230.3,252.4,234.1z"/>
		<path class="st19" d="M261.6,240.1v3h-1.1c-2.9,0-4.7-1.9-4.7-4.9v-6.5h-1.9v-2.9h1.9v-3.4h3.1v3.4h2.5v2.9h-2.5v6.5
			c0,1.3,0.6,1.9,1.8,1.9H261.6z"/>
		<path class="st19" d="M269,238v-4.3c0-3.3,1.8-5.2,4.9-5.2c3.2,0,5,1.9,5.1,5.2h-3.2c-0.1-1.5-0.7-2.2-1.8-2.2
			c-1.1,0-1.8,0.7-1.8,2.2v4.3c0,1.5,0.6,2.2,1.8,2.2c1.2,0,1.8-0.7,1.9-2.2h3.2c-0.1,3.3-2,5.3-5.1,5.3
			C270.8,243.2,269,241.3,269,238z"/>
		<path class="st19" d="M280.7,237.7v-3.8c0-3.5,1.9-5.5,5.1-5.5c3.2,0,5.1,2,5.1,5.5v3.8c0,3.5-1.9,5.5-5.1,5.5
			C282.7,243.2,280.7,241.3,280.7,237.7z M287.7,237.7v-3.8c0-1.7-0.7-2.4-1.9-2.4c-1.2,0-1.9,0.7-1.9,2.4v3.8
			c0,1.7,0.7,2.4,1.9,2.4C287.1,240.2,287.7,239.4,287.7,237.7z"/>
		<path class="st19" d="M303.4,234.1v8.7h-3.1v-8.7c0-2-0.6-2.8-1.7-2.8c-1.2,0-1.9,0.9-1.9,2.6v8.8h-3.1v-14.1h2.1l0.3,1.5
			c0.7-1.2,1.9-1.9,3.4-1.9C301.9,228.4,303.4,230.3,303.4,234.1z"/>
		<path class="st19" d="M312.6,240.1v3h-1.1c-2.9,0-4.7-1.9-4.7-4.9v-6.5h-1.9v-2.9h1.9v-3.4h3.1v3.4h2.5v2.9H310v6.5
			c0,1.3,0.6,1.9,1.8,1.9H312.6z"/>
		<path class="st19" d="M322.3,228.7v3c-0.5-0.2-1.1-0.3-1.7-0.3c-1.6,0-2.6,1-2.6,3.1v8.4h-3.1v-14.1h2.1l0.3,1.7
			c0.7-1.3,1.9-2,3.6-2C321.4,228.5,321.9,228.5,322.3,228.7z"/>
		<path class="st19" d="M323.6,237.7v-3.8c0-3.5,1.9-5.5,5.1-5.5c3.2,0,5.1,2,5.1,5.5v3.8c0,3.5-1.9,5.5-5.1,5.5
			C325.6,243.2,323.6,241.3,323.6,237.7z M330.7,237.7v-3.8c0-1.7-0.7-2.4-1.9-2.4c-1.2,0-1.9,0.7-1.9,2.4v3.8
			c0,1.7,0.7,2.4,1.9,2.4C330,240.2,330.7,239.4,330.7,237.7z"/>
		<path class="st19" d="M336.3,223.6h3.1v19.3h-3.1V223.6z"/>
		<path class="st19" d="M341.1,238.5h3.1c0,1,0.6,1.9,2.1,1.9c1.1,0,1.8-0.6,1.8-1.4c0-2.5-6.8-1.7-6.8-6.5c0-2.5,1.8-4,4.7-4
			c3.2,0,4.7,2,4.8,4.6h-3c-0.1-1.1-0.6-1.8-1.8-1.8c-1,0-1.6,0.5-1.6,1.3c0,2.3,6.8,1.4,6.8,6.5c0,2.6-1.8,4.3-4.9,4.3
			C342.9,243.3,341.1,241,341.1,238.5z"/>
		<path class="st19" d="M73.6,269.9v3h-1.1c-2.9,0-4.7-1.9-4.7-4.9v-6.5h-1.9v-2.9h1.9v-3.4h3.1v3.4h2.5v2.9h-2.5v6.5
			c0,1.3,0.6,1.9,1.8,1.9H73.6z"/>
		<path class="st19" d="M85.6,264.1v8.6h-3.1v-8.6c0-2.1-0.6-2.9-1.7-2.9c-1.2,0-1.9,0.9-1.9,2.6v8.8h-3.1v-19.3h3.1v6.4
			c0.7-0.9,1.6-1.5,2.8-1.5C84.2,258.2,85.6,260.2,85.6,264.1z"/>
		<path class="st19" d="M95.9,258.5v3c-0.5-0.2-1.1-0.3-1.7-0.3c-1.6,0-2.6,1-2.6,3.1v8.4h-3.1v-14.1h2.1l0.3,1.7
			c0.7-1.3,1.9-2,3.6-2C95,258.3,95.5,258.4,95.9,258.5z"/>
		<path class="st19" d="M97.2,267.6v-3.8c0-3.5,1.9-5.5,5.1-5.5c3.2,0,5.1,2,5.1,5.5v3.8c0,3.5-1.9,5.5-5.1,5.5
			C99.1,273.1,97.2,271.1,97.2,267.6z M104.2,267.6v-3.8c0-1.7-0.7-2.4-1.9-2.4c-1.2,0-1.9,0.7-1.9,2.4v3.8c0,1.7,0.7,2.4,1.9,2.4
			C103.5,270,104.2,269.2,104.2,267.6z"/>
		<path class="st19" d="M119.7,258.6v14.1h-2.1l-0.3-1.5c-0.7,1.2-1.9,1.9-3.4,1.9c-2.5,0-4.1-1.9-4.1-5.7v-8.7h3.1v8.7
			c0,2,0.6,2.8,1.7,2.8c1.2,0,1.9-0.9,1.9-2.6v-8.8H119.7z"/>
		<path class="st19" d="M132.3,258.6v14.7c0,2.7-1.8,4.6-4.9,4.6c-3,0-4.7-1.8-4.8-4.6h3.1c0.1,1,0.7,1.6,1.7,1.6
			c1,0,1.7-0.6,1.7-1.7v-1.9c-0.7,0.5-1.5,0.7-2.4,0.7c-2.6,0-4.5-2.1-4.5-5.2v-3.3c0-3.2,1.9-5.3,4.5-5.3c1.3,0,2.3,0.5,3.1,1.3
			l0.2-1H132.3z M129.1,266.8v-3.3c0-1.5-0.7-2.2-1.9-2.2c-1.2,0-1.8,0.7-1.8,2.3v3.3c0,1.5,0.6,2.2,1.8,2.2
			S129.1,268.3,129.1,266.8z"/>
		<path class="st19" d="M145.1,264.1v8.6h-3.1v-8.6c0-2.1-0.6-2.9-1.7-2.9c-1.2,0-1.9,0.9-1.9,2.6v8.8h-3.1v-19.3h3.1v6.4
			c0.7-0.9,1.6-1.5,2.8-1.5C143.6,258.2,145.1,260.2,145.1,264.1z"/>
		<path class="st19" d="M153.1,267.1v-7.4c0-3.9,2.1-5.9,5.7-5.9c3.5,0,5.4,2.1,5.6,5.9h-3.3c-0.1-1.9-0.8-2.7-2.3-2.7
			c-1.5,0-2.3,0.8-2.3,2.8v7.4c0,1.9,0.9,2.8,2.4,2.8c1.6,0,2.4-0.8,2.4-2.7v-1.8h-2.6v-2.9h5.8v4.7c-0.1,3.8-2.2,5.9-5.7,5.9
			C155.3,273,153.1,270.9,153.1,267.1z"/>
		<path class="st19" d="M176.4,263.6v9.1h-2.5l-0.2-1.3c-0.6,1-1.5,1.7-3.1,1.7c-2.6,0-4.2-1.8-4.2-4.4c0-2.9,2.1-4.4,5.3-4.4h1.7
			v-0.7c0-1.4-0.4-2.3-1.6-2.3c-0.9,0-1.6,0.5-1.8,1.5h-3.1c0.1-2.9,2-4.6,5-4.6C174.9,258.2,176.4,260.1,176.4,263.6z M173.2,266.9
			h-1.6c-1.3,0-2.1,0.6-2.1,1.8c0,1,0.6,1.7,1.8,1.7c1.2,0,1.9-0.7,1.9-2V266.9z"/>
		<path class="st19" d="M179.1,253.4h3.1v19.3h-3.1V253.4z"/>
		<path class="st19" d="M184.7,254.6c0-1.1,0.7-1.8,1.8-1.8c1,0,1.8,0.8,1.8,1.8c0,1-0.8,1.8-1.8,1.8
			C185.5,256.4,184.7,255.6,184.7,254.6z M185,258.6h3.1v14.1H185V258.6z"/>
		<path class="st19" d="M190.9,253.4h3.1v19.3h-3.1V253.4z"/>
		<path class="st19" d="M206.6,268.2c-0.3,3-2.1,4.8-5.2,4.8c-3.1,0-4.9-2-4.9-5.4v-4c0-3.4,1.9-5.4,5-5.4c3.2,0,5.1,2,5.1,5.4v3.1
			h-6.9v0.8c0,1.7,0.7,2.4,1.8,2.4c1.3,0,1.7-0.5,1.9-1.8H206.6z M199.6,263.6v0.9h3.8v-0.9c0-1.7-0.7-2.4-1.9-2.4
			C200.3,261.2,199.6,261.9,199.6,263.6z"/>
		<path class="st19" d="M208.6,267.6v-3.8c0-3.5,1.9-5.5,5.1-5.5c3.2,0,5.1,2,5.1,5.5v3.8c0,3.5-1.9,5.5-5.1,5.5
			C210.5,273.1,208.6,271.1,208.6,267.6z M215.6,267.6v-3.8c0-1.7-0.7-2.4-1.9-2.4c-1.2,0-1.9,0.7-1.9,2.4v3.8
			c0,1.7,0.7,2.4,1.9,2.4C214.9,270,215.6,269.2,215.6,267.6z"/>
		<path class="st19" d="M237.2,272.7c-0.3-0.5-0.6-1-1-1.4c-1.1,1.1-2.6,1.8-4.2,1.8c-2.4,0-4.8-1.6-4.8-4.7c0-2.4,1.4-4.2,2.9-5.6
			c-1.1-1.8-1.9-3.4-1.9-4.8c0-2,1.3-4.3,4.2-4.3c3,0,4.2,2.1,4.2,4.3c0,2.2-1.4,3.8-2.9,5.2c0.7,0.9,1.4,2,2.4,3.3
			c0.3-0.6,0.5-1.1,0.6-1.5h2.9c-0.3,1.4-0.9,2.9-1.7,4.1c0.7,1.1,1.6,2.3,2.5,3.6H237.2z M234.5,268.9c-1-1.4-1.9-2.6-2.7-3.8
			c-0.9,0.9-1.5,1.9-1.5,3c0,1.3,0.8,2.1,1.9,2.1C233,270.1,233.8,269.6,234.5,268.9z M232.2,260.8c0.9-0.9,1.6-1.8,1.6-2.8
			c0-0.7-0.4-1.6-1.3-1.6c-0.7,0-1.4,0.5-1.4,1.7C231.1,258.8,231.4,259.6,232.2,260.8z"/>
		<path class="st19" d="M258.3,269.6v3.1h-9.7V254h9.4v3.1H252v4.6h5.6v3H252v4.9H258.3z"/>
		<path class="st19" d="M260.5,267.1v-7.4c0-3.9,2.1-5.9,5.7-5.9c3.5,0,5.4,2.1,5.6,5.9h-3.3c-0.1-1.9-0.8-2.7-2.3-2.7
			c-1.5,0-2.3,0.8-2.3,2.8v7.4c0,1.9,0.9,2.8,2.4,2.8c1.6,0,2.4-0.8,2.4-2.7v-1.8h-2.6v-2.9h5.8v4.7c-0.1,3.8-2.2,5.9-5.7,5.9
			C262.7,273,260.5,270.9,260.5,267.1z"/>
		<path class="st19" d="M274.5,254h3.3l3.9,8.8c0.5,1.2,1,2.7,1.5,3.8l0.1-0.1c-0.3-2.1-0.5-5.1-0.5-6.8V254h3.2v18.7h-3.3l-3.6-8.1
			c-0.6-1.5-1.2-3.2-1.7-4.6l-0.1,0.1c0.2,2.1,0.4,5.3,0.4,7.2v5.4h-3.2V254z"/>
		<path class="st19" d="M289,266.7V260c0-3.9,2.2-6.3,5.9-6.3c3.7,0,5.9,2.4,5.9,6.3v6.7c0,3.9-2.2,6.3-5.9,6.3
			C291.2,273,289,270.7,289,266.7z M297.4,266.7V260c0-2-0.8-3.1-2.5-3.1c-1.7,0-2.5,1.1-2.5,3.1v6.7c0,2,0.9,3.1,2.5,3.1
			C296.6,269.9,297.4,268.7,297.4,266.7z"/>
		<path class="st19" d="M302.6,267.4h3.4c0,1.7,0.9,2.5,2.3,2.5c1.5,0,2.2-0.9,2.2-2.1c0-3.4-7.5-3.7-7.5-9.3c0-2.8,2-4.9,5.3-4.9
			c3.3,0,5.4,2.1,5.4,5.4h-3.4c0-1.5-0.8-2.2-2-2.2c-1.2,0-1.9,0.7-1.9,1.8c0,3.3,7.6,3.4,7.6,9.2c0,2.9-2.1,5.3-5.7,5.3
			C304.8,273.1,302.6,271,302.6,267.4z"/>
	</g>
	<g class="st0">
		<g>
			<rect x="65.6" y="295.4" class="st20" width="99" height="67.2"/>
			<g>
				<path class="st21" d="M159.7,343.9c0.1,0.1,0.2-0.1,0.2-0.1C159.7,343.7,159.7,344,159.7,343.9z"/>
				<polygon class="st21" points="157.5,343.3 157.6,343.3 157.2,343.3 				"/>
				<path class="st21" d="M155.6,342.5c0.1,0.4,0.7,0.3,1,0.5l0,0.1l0.3-0.2C156.5,342.8,155.9,342.7,155.6,342.5z"/>
				<path class="st21" d="M154.8,341.4c0,0.1-0.3,0,0.2,0.1c0,0,0,0,0,0C155,341.5,154.9,341.5,154.8,341.4z"/>
				<path class="st21" d="M155,341.5C155.2,341.6,154.9,341.4,155,341.5L155,341.5z"/>
				<path class="st21" d="M154,341.2l0.3,0c0-0.1-0.3-0.2-0.2-0.2C153.9,341,153.9,341,154,341.2z"/>
				<path class="st21" d="M153.7,341.3l0.2,0C153.8,341.3,153.8,341.3,153.7,341.3z"/>
				<path class="st21" d="M154.2,341.4l-0.3,0c0,0.1,0,0.2,0.1,0C153.9,341.4,154,341.4,154.2,341.4z"/>
				<path class="st21" d="M154.3,341.5c0.1,0.1,0.3,0.2,0,0.2C154.9,341.9,154.9,341.6,154.3,341.5z"/>
				<path class="st21" d="M155.4,342.7l0.2,0.2l0.2,0C155.7,342.9,155.4,342.6,155.4,342.7z"/>
				<path class="st21" d="M152.4,340.4c0,0.1,0,0.2,0,0.3l0.2,0C152.5,340.6,152.3,340.5,152.4,340.4z"/>
				<path class="st21" d="M152.4,340.7l-0.3,0C152.3,340.8,152.4,340.8,152.4,340.7z"/>
				<polygon class="st21" points="153.5,341.6 154.1,341.6 153.4,341.6 				"/>
				<polygon class="st21" points="151.2,340 151.4,339.9 151,340 				"/>
				<path class="st21" d="M150.4,339.8c0.2-0.1-0.1-0.3,0-0.3c-0.2,0-0.4,0-0.6,0C150,339.5,150.2,339.6,150.4,339.8z"/>
				<path class="st21" d="M149.5,339.6c0.1,0,0.2,0,0.3,0C149.7,339.5,149.6,339.5,149.5,339.6z"/>
				<path class="st21" d="M151.5,340.5c0,0,0-0.2-0.2-0.3l0.1,0.2L151.5,340.5z"/>
				<polygon class="st21" points="151.4,340.5 151.4,340.4 151.2,340.3 				"/>
				<path class="st21" d="M151.6,340.5L151.6,340.5C151.5,340.5,151.5,340.5,151.6,340.5z"/>
				<path class="st21" d="M152.8,341.2c-0.2,0-0.6,0-0.3,0.3C152.6,341.4,152.5,341.2,152.8,341.2z"/>
				<path class="st21" d="M151.6,340.8l0.3,0.2c0,0,0-0.1,0.1-0.1L151.6,340.8z"/>
				<polygon class="st21" points="151.5,340.8 151.6,340.8 151.5,340.7 				"/>
				<path class="st21" d="M150,339.9c-0.2,0-0.3,0-0.5-0.1c0.2,0.1,0.4,0.2,0.5,0.2C150.1,340,150.2,340,150,339.9z"/>
				<path class="st21" d="M150.7,340.2L150.7,340.2C150.7,340.2,150.7,340.2,150.7,340.2z"/>
				<polygon class="st21" points="147.8,339.3 147.8,339.4 147.8,339.3 				"/>
				<path class="st21" d="M150.1,340.1c0.1,0.1,0.2,0.1,0.3,0C150.3,340.1,150.2,340.1,150.1,340.1C150,340.1,150,340.1,150.1,340.1
					z"/>
				<path class="st21" d="M149,339.5c0.1,0.1,0.1,0.1,0.2,0.2C149.2,339.6,149,339.5,149,339.5z"/>
				<path class="st21" d="M150.6,340.1C150.6,340.1,150.6,340.1,150.6,340.1C150.6,340.1,150.6,340.1,150.6,340.1z"/>
				<path class="st21" d="M150.6,340.1c-0.1,0-0.2,0-0.2,0C150.5,340.2,150.6,340.2,150.6,340.1
					C150.6,340.2,150.6,340.1,150.6,340.1z"/>
				<path class="st21" d="M147,340.3c0.1-0.2,0.5-0.2,0.7,0.1c0.3,0,0.3-0.6,0.1-1c0,0.1,0,0.1-0.4,0.1c0.1,0.1,0.7,0.4,0.3,0.5
					c-0.5,0-0.3-0.2-0.5-0.3c0.1,0.2-0.6,0.1-0.6,0.5l0.4,0C147,340.2,146.9,340.2,147,340.3z"/>
				<path class="st21" d="M148.4,339.6l0.1,0c-0.1-0.1-0.2-0.2-0.4-0.4c-0.2,0-0.3,0.1-0.3,0.1L148.4,339.6L148.4,339.6z"/>
				<path class="st21" d="M149.2,339.8c-0.2,0.1-0.5,0.1-0.4,0.4c0.4,0.1,0.3-0.1,0.6-0.1C148.7,339.9,149.6,340,149.2,339.8
					c0.1,0,0.2,0.1,0.4,0.1C149.4,339.8,149.3,339.7,149.2,339.8L149.2,339.8L149.2,339.8L149.2,339.8
					C149.2,339.7,149.3,339.7,149.2,339.8C149.2,339.7,149.2,339.7,149.2,339.8C149.2,339.7,149.2,339.8,149.2,339.8
					C149,339.7,149.1,339.7,149.2,339.8C149.2,339.7,149.2,339.7,149.2,339.8L149.2,339.8l-0.6-0.2
					C148.7,339.7,148.9,339.7,149.2,339.8z"/>
				<path class="st21" d="M152,341.7C152,341.7,152,341.6,152,341.7C152,341.6,151.9,341.7,152,341.7z"/>
				<path class="st21" d="M151.8,341.5c0.1,0,0.1-0.1,0.3,0c0.1,0.1,0,0.1,0,0.1c0.1,0,0.4,0,0.1-0.2l-0.1,0
					c-0.2-0.1-0.5-0.5-0.4-0.5C151.6,341.1,151.7,341.3,151.8,341.5z"/>
				<path class="st21" d="M150.5,340.7l-0.5-0.1l0.2,0.2l0-0.1C150.4,340.8,150.4,340.7,150.5,340.7z"/>
				<polygon class="st21" points="147.8,339.2 147.9,339.1 147.5,339.2 				"/>
				<polygon class="st21" points="147.1,339 147.1,338.9 146.9,338.9 				"/>
				<path class="st21" d="M107.3,336.9l-0.2,0.1C107.3,336.9,107.3,336.9,107.3,336.9z"/>
				<path class="st21" d="M108.5,336.9L108.5,336.9C108.5,336.8,108.4,336.9,108.5,336.9z"/>
				<path class="st21" d="M129.9,335.7c-0.2-0.2-0.4-0.5-0.4-0.3l0.1,0.2C129.7,335.6,129.8,335.6,129.9,335.7z"/>
				<polygon class="st21" points="117.9,335.9 118,335.9 118.2,335.8 				"/>
				<path class="st21" d="M117.7,336.6l-0.3-0.1C117.5,336.5,117.6,336.6,117.7,336.6z"/>
				<path class="st21" d="M101.1,337.5l-0.2,0.2C101.2,337.7,101.1,337.6,101.1,337.5z"/>
				<path class="st21" d="M140,337.4c-0.2-0.1-0.3-0.2-0.5-0.2C139.7,337.3,139.9,337.5,140,337.4z"/>
				<path class="st21" d="M107.7,335c-0.1,0-0.1,0.1-0.1,0.1C107.7,335,107.7,335,107.7,335z"/>
				<path class="st21" d="M138.9,337C138.9,337.1,139,337.1,138.9,337c0.2,0.1,0.4,0.1,0.6,0.1C139.3,337,139.1,337,138.9,337z"/>
				<path class="st21" d="M78.9,341.9C78.9,341.9,78.9,341.9,78.9,341.9C78.9,341.9,78.9,341.9,78.9,341.9z"/>
				<path class="st21" d="M72.1,342.6c0.1,0,0.2-0.1,0.2-0.1C72.3,342.5,72.2,342.5,72.1,342.6z"/>
				<path class="st21" d="M144.3,338.2C144.5,338.2,144.3,338.2,144.3,338.2L144.3,338.2z"/>
				<path class="st21" d="M144.8,339.1C144.8,339.1,144.8,339.1,144.8,339.1C144.8,339.1,144.8,339.1,144.8,339.1z"/>
				<path class="st21" d="M137.2,337.9L137.2,337.9C137.2,337.9,137.2,337.9,137.2,337.9z"/>
				<path class="st21" d="M144.5,338.4c-0.1,0-0.1-0.1-0.2-0.1C144.4,338.3,144.4,338.3,144.5,338.4z"/>
				<path class="st21" d="M144.5,338.3l0.1,0.1C144.7,338.3,144.6,338.3,144.5,338.3z"/>
				<path class="st21" d="M144.1,338.2c0.1,0,0.2,0,0.2,0.1c0,0,0,0,0,0L144.1,338.2z"/>
				<path class="st21" d="M90.6,338.4C90.6,338.4,90.6,338.4,90.6,338.4C90.4,338.5,90.5,338.4,90.6,338.4z"/>
				<path class="st21" d="M125.8,337.2C125.8,337.2,125.8,337.1,125.8,337.2L125.8,337.2L125.8,337.2z"/>
				<path class="st21" d="M125.3,337.2c0.2-0.2,0.4-0.2,0.5-0.1l-0.1-0.5L125.3,337.2z"/>
				<path class="st21" d="M104.6,337.1l0.4,0.1c-0.4,0.3-0.8,0.2-0.4,0.4c0-0.6,1.4-0.2,1.5-0.7l0.3,0.1c-0.1,0-0.1,0-0.2,0
					c0.5,0.2,0.3-0.4,1-0.4c0.2,0,0.4,0.1,0.2,0.2l0.5-0.2c0.1,0,0.1,0.1,0,0.1l0.7-0.1l0,0c0.1-0.1,0.3-0.2,0.4-0.3
					c0.2,0.1-0.1,0.1,0,0.1l0.4-0.2c0.2,0.1-0.2,0.3-0.4,0.3c0.4,0.6,0.3-0.2,1.2,0.2l-0.4,0.1c0.3,0.3,0.6,0.2,1,0.4
					c-0.1-0.1-0.9-0.5-0.4-0.6c0.1,0,0.3,0.1,0.5-0.1c0,0.2,0.2,0.1,0.5,0.1l0,0.3c0.3-0.1,0.3-0.2,0.5-0.3c0.4,0,0.4,0.2,0.5,0.4
					c0.6,0-0.4-0.3,0.3-0.4c0.5,0.1,0.8,0,1.4-0.2c0.3,0.1-0.1,0.2,0.1,0.2l0.3-0.2c0.1,0,0,0.1,0,0.1c0.2-0.1,0-0.3,0.4-0.3
					c0.1-0.3,0.8,0.4,1.3,0.1c0.1,0.1-0.1,0.2,0,0.3c0.7-0.2,0.6-0.2,1.1-0.4l0.5,0.2c-0.3-0.2,0.1-0.4,0.5-0.6
					c-0.1-0.1-0.2-0.2-0.3-0.2l0.6-0.1c0.1,0,0,0.1-0.1,0.2c0,0,0.1,0,0.1-0.1c0.2,0.1,0.1,0.3-0.1,0.4c-0.1-0.1-0.1-0.1-0.2-0.2
					c-0.2,0.2-0.3,0.3-0.3,0.5c0,0,0.1-0.1,0.2-0.1c0,0-0.1,0.1,0,0.1c0,0,0.1,0,0.2-0.1l0.1,0.3l0-0.1l0.8,0.2
					c0.6-0.3,1.1-0.7,2-0.8c-0.2,0.2-0.1,0.4-0.1,0.6c-0.2-0.3-0.7,0.1-1.2,0c0.2,0,0.2,0.2,0.1,0.2l0.8-0.2c0,0.2,0.2,0.2,0.4,0.3
					c-0.1-0.4,0.6-0.2,1-0.4c0,0.1-0.1,0.3-0.5,0.2c0.4,0.3,0.6-0.5,1-0.2c-0.1,0-0.2,0-0.2,0c0.2-0.1,0.8,0,0.7,0.1l-0.1,0
					c0.7,0.1,2,0.2,2.1-0.2c0,0-0.1,0.4-0.2,0.5l1.3-1.1c-0.1,0.3,0.2,1.1-0.4,1.2c0.2,0.1,0.3,0.1,0.7,0c-0.1-0.1-0.2-0.5-0.1-0.5
					c0.4,0.4,0.3,0.2,0.7,0.5c-0.2-0.1,0.1-0.5,0.3-0.5c0,0.1,0,0.5-0.1,0.5l0.7-0.4c-0.2,0.1-0.1,0.4,0.1,0.5
					c-0.1-0.1,0.5,0.1,0.7,0l-0.3-0.1c0.7,0.2,0.8-0.6,1.5-0.5c-0.1,0.1-0.3,0.6,0.1,0.7c0.2-0.2,0.9-1.1,1.5-1.2l0.1,0.2l0.5-0.1
					c-0.4,0.3-1.3,1-1.8,1.2c0.3,0.1,0.1,0.2,0.5,0.2c0.1,0.1-0.2,0.2-0.4,0.2l0.9,0.2c0-0.3,0.7-0.2,0.7-0.4l-1,0.2
					c0-0.3,0.7-0.7,1.3-0.6c0.2,0.1-0.2,0.5-0.2,0.6c0.1-0.1,0.6-0.1,0.7,0l-0.3,0.1c0.3,0.2,0.6-0.3,1,0.1c0.1,0,0.4,0.4,0.4,0.3
					c-0.2-0.4-0.1-1.4,0.1-1.6c0.1,0,0.8,0.4,0.9,0.6c0.2,0.3-0.5,0.5-0.3,0.8c0-0.1,0.2-0.1,0.2-0.2c0.1,0.1-0.1,0.2,0.2,0.2
					c0.1-0.3,0.7,0.1,0.2-0.2c0.4,0,0.3,0.1,0.7,0.2c-0.1-0.2,0.5-0.6,0.8-0.6c0,0.1,0,0.2,0.1,0.2c0.7,0.2,1,0.4,1.7,0.5
					c0,0.1,0.3,0.2,0.2,0.3c0.1,0,0.2-0.1,0.4-0.1c0.3,0.3-0.4-0.1-0.2,0.3c0.1-0.2,0.6-0.1,0.9-0.2c0-0.3-0.6-0.2-0.9-0.1
					c0.1-0.3,0.6-0.6,1.3-0.6c0.6,0,0.2,0.3,0.3,0.2c1,0.3,1-0.4,1.8,0c0.3,0.3-0.1,0.4-0.1,0.6c-0.5,0-0.6-0.3-0.9-0.4l0.3,0.2
					c-0.2,0-0.5,0-0.6-0.1c0.2,0.3,1.7,0.4,2.4,0.8c0.2,0,0.4-0.1,0.3-0.2l-0.2,0c-0.2-0.2,0.5-0.1,0.2-0.3c0.4,0,0.8-0.1,1.2,0.1
					l0,0.3c0-0.1-0.3-0.2-0.4-0.2c0.2-0.1,0.6,0.5,0.9,0.3l-0.3-0.3c0.4,0,0.8-0.2,1.2,0c-0.1-0.3-0.1,0-0.3-0.4
					c0.2,0.4-1-0.3-0.7,0.2c-0.2-0.4-0.5-0.3-0.8-0.7c0,0.1,0.1,0.2-0.2,0.1c0,0-0.1,0-0.1,0.1l0,0l0,0c0,0,0,0,0,0
					c0.1,0.1,0.1,0.1,0.1,0.2c-0.2,0.1-0.8,0-1,0.1c-0.2-0.1,0.1-0.1,0-0.2l-0.3,0.1c0-0.2-0.5-0.4,0-0.4l-0.4-0.1
					c-0.2-0.2-0.6-0.3-0.8-0.3c-0.2-0.1-0.6,0.1-0.4,0l-0.7,0l0,0c-0.7-0.2-1.4,0-2.2-0.5c-0.2,0-0.5,0-0.9-0.1l0-0.2
					c-0.3,0-0.9-0.3-1-0.2c-0.2-0.5-1.4-0.3-1.9-0.5l-0.1,0.2c-0.4-0.1-0.7-0.1-1.2,0l0,0.2c-0.4,0.1-1-0.3-1.6-0.3
					c0.1-0.1,0.2,0,0.3,0c-0.7-0.5-1.6,0.1-2.2-0.3c-0.2,0-0.3,0-0.4-0.1c0,0,0,0,0,0c0,0,0,0-0.1,0c-0.1,0-0.1-0.1-0.2-0.1
					c0.1,0.1,0.1,0.1,0.2,0.1c-0.1,0-0.3,0-0.5,0l-0.1-0.2c0,0,0,0,0,0c-0.2-0.1-0.2,0.1-0.1,0.2c-0.1,0-0.2,0.1-0.3,0.1
					c-0.1-0.3-0.5,0.1-0.7-0.3c-0.1,0.2-1,0-1.1,0.4c0,0-0.1-0.1,0-0.1c-0.2-0.1-0.4-0.1-0.6,0l-0.1-0.3l-0.5,0.3
					c-0.3-0.2-0.4-0.3-0.1-0.5c-0.7,0.2-0.5,0.1-1.1,0.3l0-0.2c-0.2,0-0.5,0.2-0.7,0c-0.4-0.4-2.2-0.2-3.4-0.6
					c0.2,0.5-0.5-0.2-0.6,0.1c-0.1-0.1-0.2-0.2,0-0.3c-0.6,0.1-0.9-0.2-1.3,0.1c-0.1-0.1,0.1-0.2,0.1-0.2c0,0-0.2,0.1-0.3,0
					c-0.1-0.1,0.1-0.1,0.2-0.1c-0.6,0-0.7,0.4-0.7,0.7c-0.3-0.2-0.5-0.2-0.7,0.1c-0.1-0.1-0.3-0.2,0.1-0.3c-0.2,0-1.3-0.2-1.3,0.1
					c-0.1-0.1-0.3,0-0.4,0c-0.5,0-0.5,0-1,0l0.1,0c-0.2,0.3-0.4,0.1-0.8,0.1l0,0c-0.9-0.2-0.4,0.1-1.2-0.2l0,0.2
					c-0.1,0.4-0.8-0.3-1.2-0.1l0.2,0.1c-0.3,0.2-0.8-0.6-1-0.6c-0.1,0,0.1-0.1,0.2-0.1c-0.7-0.2-0.1,0.3-0.6,0.3
					c-0.1-0.1,0.1-0.4-0.2-0.4c-0.2-0.1-1,0.5-1.5,0.2c0.1,0.1,0.2,0.2,0,0.3c-0.4,0.1-1-0.4-1.4,0c0,0-0.1-0.1-0.1-0.1
					c-0.3,0.1-0.9,0.2-1.1,0.4c-0.3-0.7-1.8,0.4-1.8-0.2l-0.9,0.1l0-0.1c-0.6,0-0.8,0.2-0.9,0.3c-0.1,0,0-0.1,0-0.1
					c-0.8-0.1-0.9,0-1.6,0.4l-0.1-0.2c-0.2,0.1-1.2-0.2-2,0.1c0,0,0-0.1,0.1-0.1c-0.9,0.3-2.2-0.3-2.5,0.5l-0.6,0.3
					c0.8,0-0.1,0.3,0.3,0.4c-0.3,0.1-0.8-0.1-0.4-0.2l0.1,0c0.1-0.4-1,0-1-0.3c-1.5,0.2-3,0.3-4.5,0.5l0.2,0.3l-0.5,0.1
					c-0.1,0-0.2-0.2,0.1-0.3c-0.2-0.1-0.6,0.3-0.6,0.3c-0.7,0,0.2-0.4,0-0.4l-0.3,0.1l0.1,0c-0.2,0.2-0.2,0.3-0.6,0.4
					c-0.3,0-0.2-0.2-0.3-0.1c0,0,0,0-0.2,0l-0.6,0.1l0.3,0.2c-0.3,0.2-0.6,0.1-0.2,0.3c-0.5-0.3-2.3,0.4-2.6,0.3
					c-0.3,0.3-0.7,0.4-1.2,0.5c0.1,0,0.3,0.3-0.1,0.3c0-0.6-0.8,0-1.2-0.3c0.4,0.2-1.1,0.4-0.6,0.6c-0.3,0-0.1-0.2-0.4-0.3
					c-0.7,0.4-1.8,0.4-2.7,0.8c0,0.1,0.2,0.1,0,0.3l-0.6-0.2c-0.2,0.1,0,0.5-0.5,0.3c0.1,0,0.2,0.1,0.1,0.2c-1,0.2-1.9,0.6-2.9,1
					c-0.9,0.4-1.9,0.8-3,0.9c0.3,0,0.1,0.1,0,0.2c0.1,0,0.1,0.2,0.1,0.2l-0.9,0.1c0,0.3-0.8,0.4-0.8,0.7l0.2-0.2
					c-0.2,0.4,0.8,0.4,0.9,0.8c0.2-0.5,1.2,0,1.5-0.7c0.2,0-0.1,0.2,0,0.2c0.1-0.2,0.2-0.3,0.6-0.4l0,0.1c0.9-0.4,1.4-0.4,2.5-0.7
					l-0.1-0.2c0.2-0.1,0.3,0,0.4,0c0.2-0.4-0.7,0.2-0.5-0.2c0.4,0.3,1.6-0.6,2-0.2c0.4-0.1-0.2-0.2,0.2-0.3l0.1,0.1l0-0.2
					c0.2-0.1,0.4,0.1,0.5,0.2c-0.1,0-0.2,0.1-0.2,0.1c0.4,0,0.8-0.3,1-0.3l-0.4,0c1-0.4,2.2-0.6,3.1-1.2l-0.1-0.1
					c0.7-0.4,0.6-0.1,1.4-0.4l0,0c0.1-0.1,0.3-0.2,0.6-0.3c-0.2,0.2,0.4,0.1,0.2,0.3c0.8-0.4,0.4-0.2,0.8-0.7l0.2,0.1
					c0.2-0.2,0.1-0.3,0.6-0.4c-0.3,0.2,0.3,0.2,0,0.4c0.9,0.1,1.2-0.6,1.7-0.2c0.3-0.5-0.8-0.1-0.6-0.2c-0.2-0.1,0.3-0.4,0.5-0.4
					c0.3-0.1,0.6,0.4,1.3,0.3c-0.1,0-0.1,0-0.1,0.1c0.3,0.1,0.5-0.2,0.8-0.1c0.1-0.3,0.4-0.1,0.4-0.4l-0.6,0.2
					c0.3-0.2,0.6-0.6,1.3-0.5c0,0.1-0.2,0.2-0.3,0.3c0.2,0.1,0.3-0.1,0.5-0.1c0,0.3-0.8,0.2-1.1,0.5c0.2,0.1,0.7-0.4,0.6,0
					c0.2-0.5,0.7-0.1,1.1-0.5l0,0.2c0.1,0,0.2-0.2,0.3-0.2l-0.2,0.3c0.3-0.3,0.8,0.1,1.1-0.1c-0.8,0.1-0.2-0.2-0.6-0.3
					c0.9-0.4,0.6,0.4,1.7,0.2c-0.1,0.1-0.6,0-0.3-0.2c0.2,0,0.5,0,0.6,0.1c0.7-0.1-0.1-0.2,0.1-0.4c0.3,0.2,0.3-0.2,0.6-0.3l0,0.2
					c0.8,0,0.2-0.5,0.9-0.4l-0.3,0.3l0.4-0.1l0,0.2c0.4-0.2,0.5-0.2,0.9-0.2c-0.1-0.1,0-0.4,0.4-0.4c0.3,0.1-0.1,0.2,0.4,0.1
					c-0.1,0.1-0.2,0.3-0.5,0.2c0,0.1-0.1,0.1-0.1,0.2c0.3,0.1,0.7-0.1,0.8-0.1c-0.1,0-0.2,0-0.2,0l0.7-0.4c0.1,0.1,0,0.1,0,0.2
					c0.1,0,0.2-0.1,0.5-0.2c0,0.2,0,0.3-0.3,0.5l0.7-0.3c0.1,0.1,0.4,0.2,0.3,0.2c0.4,0.1,0.9-0.4,1.5-0.3c0,0,0.1-0.1,0.2-0.1
					c0.5,0,0.9,0.2,1.5-0.1l0.4,0.3c0.4-0.1-0.5-0.3,0.3-0.5c0.5-0.1,0.2,0.2,0.4,0.3c0.3-0.2,0.7-0.5,1.2-0.3
					C104.9,337.1,104.8,337.1,104.6,337.1z M110.2,336.7c-0.1,0-0.3,0.2-0.4,0.1C109.9,336.6,110,336.7,110.2,336.7z M118.7,336.3
					c-0.1,0.1-0.2,0-0.3-0.1C118.5,336.2,118.6,336.2,118.7,336.3z M142.7,338C142.7,338,142.7,338,142.7,338
					C142.4,337.9,142.5,337.9,142.7,338z M143.1,338.2C143.2,338.2,143.2,338.1,143.1,338.2c0,0-0.1-0.1-0.2-0.1
					C142.9,338.1,143,338.2,143.1,338.2z M88.8,337.3l0.1,0C88.7,337.5,88.7,337.4,88.8,337.3z"/>
				<path class="st21" d="M117.8,336.5c0,0,0-0.1,0-0.1C117.7,336.5,117.7,336.5,117.8,336.5z"/>
				<path class="st21" d="M101.1,337.5L101.1,337.5C101.1,337.5,101.1,337.5,101.1,337.5L101.1,337.5z"/>
				<path class="st21" d="M135.1,338.3c-0.1,0-0.1-0.1-0.2-0.1C134.9,338.2,134.9,338.3,135.1,338.3z"/>
				<path class="st21" d="M145.9,338.5l-0.3,0c0.2,0,0.2,0.1,0.3,0.1C145.8,338.6,145.8,338.5,145.9,338.5z"/>
				<path class="st21" d="M148.2,340.5c0.1,0,0.1,0,0.1,0l0-0.1C148.2,340.4,148,340.4,148.2,340.5z"/>
				<path class="st21" d="M146,339.3c0,0.2,0.2,0.2,0.4,0.2c0,0,0,0,0,0C146.5,339.2,146.2,339.2,146,339.3z"/>
				<path class="st21" d="M146.4,339.5c0.1,0,0.1,0,0.2,0.1C146.7,339.4,146.6,339.5,146.4,339.5z"/>
				<path class="st21" d="M143.8,338.2c0.1,0.1,0.1-0.2,0.2-0.1C144.1,337.9,143.2,338.2,143.8,338.2z"/>
				<polygon class="st21" points="146,339.8 146,339.6 145.8,339.8 				"/>
				<path class="st21" d="M144.3,339.2l0.3,0.1c0,0,0.1,0,0.1,0C144.5,339.3,144.3,339.2,144.3,339.2z"/>
				<path class="st21" d="M144.8,339.3c0.1,0,0.2,0.1,0.3,0C145,339.4,144.9,339.3,144.8,339.3z"/>
				<polygon class="st21" points="145.5,339.8 145.4,339.7 145.2,339.6 				"/>
				<path class="st21" d="M140.5,338.3l-0.4,0c-0.1,0.1,0,0.1,0.2,0.1C140.4,338.4,140.5,338.4,140.5,338.3z"/>
				<path class="st21" d="M141.6,339.1c-0.1-0.1-0.1-0.1-0.1-0.2l-0.1,0.3L141.6,339.1z"/>
				<path class="st21" d="M140.4,338.9c-0.1,0.1-0.6,0.1-0.1,0.2C140.4,339,140.8,339.1,140.4,338.9z"/>
				<polygon class="st21" points="134.6,337.5 134.7,337.5 134.8,337.1 				"/>
				<path class="st21" d="M129.3,337.8c0.5,0.2,0.1-0.2,0.5-0.1c0.1-0.1-0.3-0.1-0.2-0.2C129.3,337.6,129.2,337.5,129.3,337.8z"/>
				<path class="st21" d="M129.6,337.5c0,0,0.1,0,0.2,0C129.7,337.5,129.6,337.5,129.6,337.5z"/>
				<polygon class="st21" points="70.9,342.9 70.6,342.9 70.9,343 				"/>
				<path class="st21" d="M70.6,343.4l-0.2-0.2l-0.1,0.3C70.4,343.5,70.5,343.4,70.6,343.4z"/>
				<path class="st21" d="M111,337.3L111,337.3c0-0.1-0.1-0.1-0.2-0.1L111,337.3z"/>
				<polygon class="st21" points="107,337.2 107.1,337.2 106.9,337 				"/>
				<path class="st21" d="M103.6,337.7c0.1,0,0.3-0.1,0.4-0.1C103.7,337.7,103.5,337.4,103.6,337.7z"/>
			</g>
			<g>
				<g>
					<polygon class="st21" points="132.8,311 130.9,312.5 132.3,314.5 129.7,313.4 127.8,314.8 128.2,312.7 125.6,311.5 
						128.4,311.3 128.7,309.2 130,311.2 					"/>
				</g>
				<g>
					<polygon class="st21" points="120.4,311.6 119.9,313.6 122.1,314.4 119.6,314.7 119.1,316.7 118,314.9 115.5,315.3 
						117.4,313.9 116.3,312.2 118.5,313 					"/>
				</g>
				<g>
					<polygon class="st21" points="110.4,315.8 109.9,317.3 111.8,317.7 109.6,318.2 109.1,319.8 108.3,318.5 106.1,319 
						107.8,317.8 106.9,316.6 108.8,317 					"/>
				</g>
				<g>
					<polygon class="st21" points="101.4,320.9 101.3,322.3 102.9,322.4 101.2,323.1 101,324.5 100.1,323.6 98.4,324.3 99.6,323 
						98.7,322.1 100.3,322.2 					"/>
				</g>
				<g>
					<polygon class="st21" points="94.5,326.8 94.6,328.1 96.1,327.8 94.6,328.9 94.6,330.2 93.6,329.6 92.1,330.7 93,329.2 
						92.1,328.6 93.6,328.3 					"/>
				</g>
				<g>
					<polygon class="st21" points="88.6,333.5 89.2,334.3 90.5,333.5 89.6,334.8 90.2,335.6 89,335.6 88.2,336.8 88.3,335.6 
						87.2,335.6 88.4,334.8 					"/>
				</g>
				<g>
					<polygon class="st21" points="85.1,340.5 85.9,340.9 86.7,339.9 86.5,341.1 87.3,341.5 86.3,341.9 86.1,343.1 85.7,342.1 
						84.7,342.5 85.4,341.5 					"/>
				</g>
				<g>
					<polygon class="st21" points="145.6,313.4 142.7,313.9 142.9,316.7 141,314.2 138.2,314.7 139.8,312.7 137.9,310.2 
						140.9,311.4 142.5,309.4 142.7,312.2 					"/>
				</g>
			</g>
		</g>
		<g>
			<path class="st22" d="M184.1,307.7h-4.7c-1.4,0-2.2-0.5-2.2-1.8v-8.5c0-1.4,0.8-1.8,2.2-1.8h4.7c0.2,0,0.3,0.1,0.3,0.3v0.1
				c0,0.2-0.1,0.3-0.3,0.3h-4.7c-0.9,0-1.4,0.1-1.4,1.2v3.6h6.1c0.2,0,0.3,0.1,0.3,0.3v0.2c0,0.2-0.1,0.3-0.3,0.3H178v4.2
				c0,1,0.5,1.2,1.4,1.2h4.7c0.2,0,0.3,0.1,0.3,0.3v0.1C184.4,307.5,184.3,307.7,184.1,307.7z"/>
			<path class="st22" d="M193.3,307.7h-0.1c-0.2,0-0.3-0.1-0.3-0.3v-0.3c-0.9,0.4-2,0.7-2.9,0.7c-1.7,0-3.2-0.9-3.2-3.1v-5.4
				c0-0.2,0.1-0.3,0.3-0.3h0.1c0.2,0,0.3,0.1,0.3,0.3v5.4c0,1.8,1.1,2.5,2.4,2.5c0,0,0,0,0,0c0.9,0,2-0.3,2.9-0.7v-7.2
				c0-0.2,0.2-0.3,0.3-0.3h0.1c0.2,0,0.3,0.1,0.3,0.3v8.1C193.6,307.5,193.5,307.7,193.3,307.7z"/>
			<path class="st22" d="M199.5,299.4c-0.7,0-1.5,0.1-2.5,0.8v7.1c0,0.2-0.2,0.3-0.3,0.3h-0.1c-0.2,0-0.3-0.1-0.3-0.3v-8.1
				c0-0.2,0.1-0.3,0.3-0.3h0.1c0.2,0,0.3,0.1,0.3,0.3v0.3c0.9-0.5,1.6-0.8,2.5-0.8c0.3,0,0.5,0,0.5,0.2v0.1
				C200,299.4,199.8,299.4,199.5,299.4z"/>
			<path class="st22" d="M204.8,307.8c-2.5,0-3.7-1.4-3.7-3.9v-1.1c0-2.5,1.3-3.9,3.7-3.9s3.7,1.4,3.7,3.9v1.1
				C208.5,306.3,207.2,307.8,204.8,307.8z M207.7,302.7c0-2-0.8-3.3-2.9-3.3c-2.1,0-2.9,1.3-2.9,3.3v1.1c0,2,0.8,3.3,2.9,3.3
				c2.1,0,2.9-1.3,2.9-3.3V302.7z"/>
			<path class="st22" d="M214.1,307.8c-0.7,0-1.8-0.1-2.5-0.2v3c0,0.2-0.1,0.3-0.3,0.3h-0.2c-0.2,0-0.3-0.1-0.3-0.3v-11.1
				c0-0.2,0.1-0.3,0.3-0.3c0.8-0.1,2-0.3,3-0.3c2.5,0,3.6,1.6,3.6,4v1.1C217.6,306.4,216.4,307.8,214.1,307.8z M216.8,302.8
				c0-2.1-0.7-3.3-2.8-3.3c-0.9,0-1.9,0.1-2.5,0.2v7.2c0.7,0.1,1.8,0.2,2.5,0.2c2,0,2.8-1.1,2.8-3.3V302.8z"/>
			<path class="st22" d="M226.5,303.4h-6.1v0.3c0,2.7,1.5,3.3,3.3,3.3c0.8,0,1.8-0.1,2.7-0.3c0,0,0.1,0,0.1,0c0.1,0,0.3,0.1,0.3,0.2
				v0.1c0,0.2-0.1,0.3-0.3,0.3c-0.9,0.2-1.9,0.3-2.7,0.3c-2.2,0-4.1-0.9-4.1-4v-1.1c0-2.3,1.3-3.9,3.7-3.9c2.5,0,3.6,1.6,3.6,3.9
				v0.4C226.9,303.3,226.7,303.4,226.5,303.4z M226.1,302.7c0-2.1-0.8-3.2-2.8-3.2c-2,0-2.9,1.3-2.9,3.3v0.1L226.1,302.7
				L226.1,302.7z"/>
			<path class="st22" d="M235.1,307.7L235.1,307.7c-0.3,0-0.5-0.1-0.5-0.3v-0.4c-0.9,0.4-2,0.8-3.1,0.8c-1.4,0-2.8-0.6-2.8-2.6v-0.2
				c0-1.7,1.2-2.5,4.5-2.5h1.4v-0.6c0-1.7-0.5-2.4-2.3-2.4c-1.2,0-1.7,0.1-2.6,0.1c0,0,0,0-0.1,0c-0.2,0-0.3-0.1-0.3-0.2v-0.1
				c0-0.2,0.1-0.3,0.4-0.3c0.8-0.1,1.4-0.1,2.6-0.1c2.4,0,3.1,1.2,3.1,3v5.5C235.5,307.5,235.3,307.7,235.1,307.7z M234.7,303h-1.4
				c-2.7,0-3.7,0.5-3.7,1.9v0.2c0,1.5,0.9,2,2,2c1,0,1.9-0.2,3.1-0.8V303z"/>
			<path class="st22" d="M244.6,307.7h-0.1c-0.2,0-0.3-0.1-0.3-0.3v-5.4c0-1.9-1.1-2.5-2.4-2.5c-0.9,0-2,0.3-2.9,0.7v7.2
				c0,0.2-0.2,0.3-0.3,0.3h-0.1c-0.2,0-0.3-0.1-0.3-0.3v-8.1c0-0.2,0.1-0.3,0.3-0.3h0.1c0.2,0,0.3,0.1,0.3,0.3v0.3
				c0.9-0.4,2-0.7,2.9-0.7c1.7,0,3.2,0.8,3.2,3.1v5.4C244.9,307.5,244.8,307.7,244.6,307.7z"/>
			<path class="st22" d="M185.2,324.7c-0.9,0.2-2.1,0.3-4,0.3c-2,0-4.9-1.2-4.9-5v-2.3c0-3.9,2.8-5,4.9-5c1.7,0,3.3,0.2,3.9,0.3
				c0.2,0,0.3,0.1,0.3,0.3v1.1c0,0.2-0.1,0.3-0.4,0.3c0,0,0,0-0.1,0c-0.8-0.1-2.1-0.1-3.8-0.1c-1.2,0-2.4,0.8-2.4,3.1v2.3
				c0,2.3,1.3,3.1,2.3,3.1c0.7,0,1.2,0,1.8,0v-4.2c0-0.2,0.1-0.3,0.3-0.3h1.8c0.2,0,0.4,0.1,0.4,0.3v5.5
				C185.6,324.6,185.4,324.7,185.2,324.7z"/>
			<path class="st22" d="M188.9,324.9h-0.2c-0.2,0-0.3-0.1-0.3-0.3v-11.5c0-0.2,0.1-0.3,0.3-0.3h0.2c0.2,0,0.3,0.1,0.3,0.3v11.5
				C189.2,324.7,189,324.9,188.9,324.9z"/>
			<path class="st22" d="M195.3,325c-2.5,0-3.7-1.4-3.7-3.9V320c0-2.5,1.3-3.9,3.7-3.9c2.5,0,3.7,1.4,3.7,3.9v1.1
				C199.1,323.6,197.8,325,195.3,325z M198.3,320c0-2-0.8-3.3-2.9-3.3c-2.1,0-2.9,1.3-2.9,3.3v1.1c0,2,0.8,3.3,2.9,3.3
				c2.1,0,2.9-1.3,2.9-3.3V320z"/>
			<path class="st22" d="M204.7,325c-1,0-2.2-0.2-3-0.3c-0.2,0-0.3-0.1-0.3-0.3v-11.3c0-0.2,0.1-0.3,0.3-0.3h0.2
				c0.2,0,0.3,0.1,0.3,0.3v3.2c0.7-0.1,1.8-0.2,2.5-0.2c2.4,0,3.6,1.3,3.6,3.9v1.1C208.2,323.4,207.2,325,204.7,325z M207.4,320
				c0-2.2-0.8-3.3-2.8-3.3c-0.7,0-1.8,0.1-2.5,0.2v7.2c0.7,0.1,1.6,0.2,2.5,0.2c2,0,2.8-1.2,2.8-3.3V320z"/>
			<path class="st22" d="M216.4,324.9L216.4,324.9c-0.3,0-0.5-0.1-0.5-0.3v-0.4c-0.9,0.4-2,0.8-3.1,0.8c-1.4,0-2.8-0.6-2.8-2.6v-0.2
				c0-1.7,1.2-2.5,4.5-2.5h1.4v-0.6c0-1.7-0.5-2.4-2.3-2.4c-1.2,0-1.7,0.1-2.6,0.1c0,0,0,0-0.1,0c-0.2,0-0.3-0.1-0.3-0.2v-0.1
				c0-0.2,0.1-0.3,0.4-0.3c0.8-0.1,1.4-0.1,2.6-0.1c2.4,0,3.1,1.2,3.1,3v5.5C216.8,324.7,216.6,324.9,216.4,324.9z M216,320.3h-1.4
				c-2.7,0-3.7,0.5-3.7,1.9v0.2c0,1.5,0.9,2,2,2c1,0,1.9-0.2,3.1-0.8V320.3z"/>
			<path class="st22" d="M220,324.9h-0.2c-0.2,0-0.3-0.1-0.3-0.3v-11.5c0-0.2,0.1-0.3,0.3-0.3h0.2c0.2,0,0.3,0.1,0.3,0.3v11.5
				C220.3,324.7,220.2,324.9,220,324.9z"/>
			<path class="st22" d="M235.2,325L235.2,325c-0.3,0-0.5,0-0.6-0.1c-0.1-0.1-0.2-0.2-0.3-0.4l-6.1-11c0-0.1-0.1-0.1-0.1-0.1
				c0,0-0.1,0-0.1,0.1v11.1c0,0.2-0.1,0.3-0.3,0.3h-0.2c-0.2,0-0.3-0.1-0.3-0.3v-11.1c0-0.5,0.4-0.8,0.9-0.8c0.5,0,0.7,0.2,0.9,0.5
				l6.1,11c0,0.1,0.1,0.1,0.1,0.1c0.1,0,0.1-0.1,0.1-0.1v-11.1c0-0.2,0.1-0.3,0.3-0.3h0.2c0.2,0,0.3,0.1,0.3,0.3v11.1
				C236,324.7,235.6,325,235.2,325z"/>
			<path class="st22" d="M244.7,324.9L244.7,324.9c-0.3,0-0.5-0.1-0.5-0.3v-0.4c-0.9,0.4-2,0.8-3.1,0.8c-1.4,0-2.8-0.6-2.8-2.6v-0.2
				c0-1.7,1.2-2.5,4.5-2.5h1.4v-0.6c0-1.7-0.5-2.4-2.3-2.4c-1.2,0-1.7,0.1-2.6,0.1c0,0,0,0-0.1,0c-0.2,0-0.3-0.1-0.3-0.2v-0.1
				c0-0.2,0.1-0.3,0.4-0.3c0.8-0.1,1.4-0.1,2.6-0.1c2.4,0,3.1,1.2,3.1,3v5.5C245,324.7,244.9,324.9,244.7,324.9z M244.2,320.3h-1.4
				c-2.7,0-3.7,0.5-3.7,1.9v0.2c0,1.5,0.9,2,2,2c1,0,1.9-0.2,3.1-0.8V320.3z"/>
			<path class="st22" d="M254,316.5l-2.4,7.4c-0.3,0.9-0.7,1-1.2,1c-0.5,0-1-0.2-1.3-1l-2.4-7.4c0,0,0-0.1,0-0.1
				c0-0.2,0.1-0.3,0.3-0.3h0.2c0.1,0,0.3,0.1,0.3,0.3l2.3,7.4c0.2,0.5,0.3,0.6,0.5,0.6c0.2,0,0.3-0.1,0.5-0.6l2.3-7.4
				c0.1-0.2,0.2-0.3,0.3-0.3h0.2c0.2,0,0.3,0.1,0.3,0.2C254,316.4,254,316.5,254,316.5z"/>
			<path class="st22" d="M256.6,314.5h-0.1c-0.2,0-0.3-0.1-0.3-0.3V313c0-0.2,0.2-0.3,0.3-0.3h0.1c0.2,0,0.3,0.1,0.3,0.3v1.2
				C257,314.4,256.8,314.5,256.6,314.5z M256.6,324.9h-0.1c-0.2,0-0.3-0.1-0.3-0.3v-8.1c0-0.2,0.2-0.3,0.3-0.3h0.1
				c0.2,0,0.3,0.1,0.3,0.3v8.1C257,324.7,256.8,324.9,256.6,324.9z"/>
			<path class="st22" d="M267,316.8H266c0.4,0.3,1,0.8,1,2v0.1c0,1.6-0.9,2.7-3.8,2.7c-0.9,0-1.5-0.1-2.2-0.4
				c-0.4,0.1-0.6,0.4-0.6,0.7c0,0.2,0.1,0.4,0.5,0.5l3.3,0.8c1.9,0.5,2.9,0.9,2.9,2.2v0.1c0,1.5-1,2.5-3.8,2.5c-2.8,0-3.8-1-3.8-2.5
				v-0.1c0-1.1,0.8-2,1.4-2.3l-0.1,0c-0.7-0.2-1-0.6-1-1.1c0-0.4,0.2-0.8,0.8-1c-0.6-0.4-0.9-1.1-0.9-1.9v-0.1
				c0-1.3,0.6-2.7,3.7-2.7h3.7c0.2,0,0.3,0.1,0.3,0.3v0.2C267.3,316.8,267.1,316.8,267,316.8z M266.3,325.5c0-0.9-0.4-1.1-2.3-1.6
				l-2.5-0.6c-0.8,0.5-1.3,1.1-1.3,2.2v0.1c0,1.2,0.7,1.9,3.1,1.9c2.4,0,3-0.7,3-1.9V325.5z M266.2,318.9c0-1.2-0.6-2.1-3-2.1
				c-2.5,0-2.9,1.1-2.9,2.1v0.1c0,0.8,0.5,2,2.9,2c2.4,0,3-0.9,3-2V318.9z"/>
			<path class="st22" d="M275.3,324.9L275.3,324.9c-0.3,0-0.5-0.1-0.5-0.3v-0.4c-0.9,0.4-2,0.8-3.1,0.8c-1.4,0-2.8-0.6-2.8-2.6v-0.2
				c0-1.7,1.2-2.5,4.5-2.5h1.4v-0.6c0-1.7-0.5-2.4-2.3-2.4c-1.2,0-1.7,0.1-2.6,0.1c0,0,0,0-0.1,0c-0.2,0-0.3-0.1-0.3-0.2v-0.1
				c0-0.2,0.1-0.3,0.4-0.3c0.8-0.1,1.4-0.1,2.6-0.1c2.4,0,3.1,1.2,3.1,3v5.5C275.7,324.7,275.5,324.9,275.3,324.9z M274.9,320.3
				h-1.4c-2.7,0-3.7,0.5-3.7,1.9v0.2c0,1.5,0.9,2,2,2c1,0,1.9-0.2,3.1-0.8V320.3z"/>
			<path class="st22" d="M282.5,324.9c-0.3,0-0.6,0-0.9,0c-1.3,0-2-0.4-2-1.8v-6.4h-1.8c-0.2,0-0.3-0.1-0.3-0.3v-0.2
				c0-0.2,0.1-0.2,0.3-0.2h1.8v-1.7c0-0.2,0.1-0.3,0.3-0.3h0.2c0.2,0,0.3,0.1,0.3,0.3v1.7h2.2c0.2,0,0.3,0.1,0.3,0.2v0.2
				c0,0.2-0.1,0.3-0.3,0.3h-2.2v6.4c0,1,0.5,1.1,1.3,1.1h0.9c0.3,0,0.4,0.1,0.4,0.2v0.1C282.8,324.8,282.7,324.9,282.5,324.9z"/>
			<path class="st22" d="M285.4,314.5h-0.1c-0.2,0-0.3-0.1-0.3-0.3V313c0-0.2,0.2-0.3,0.3-0.3h0.1c0.2,0,0.3,0.1,0.3,0.3v1.2
				C285.7,314.4,285.6,314.5,285.4,314.5z M285.4,324.9h-0.1c-0.2,0-0.3-0.1-0.3-0.3v-8.1c0-0.2,0.2-0.3,0.3-0.3h0.1
				c0.2,0,0.3,0.1,0.3,0.3v8.1C285.7,324.7,285.6,324.9,285.4,324.9z"/>
			<path class="st22" d="M291.9,325c-2.5,0-3.7-1.4-3.7-3.9V320c0-2.5,1.3-3.9,3.7-3.9c2.5,0,3.7,1.4,3.7,3.9v1.1
				C295.7,323.6,294.4,325,291.9,325z M294.9,320c0-2-0.8-3.3-2.9-3.3s-2.9,1.3-2.9,3.3v1.1c0,2,0.8,3.3,2.9,3.3s2.9-1.3,2.9-3.3
				V320z"/>
			<path class="st22" d="M304.5,324.9h-0.1c-0.2,0-0.3-0.1-0.3-0.3v-5.4c0-1.9-1.1-2.5-2.4-2.5c-0.9,0-2,0.3-2.9,0.7v7.2
				c0,0.2-0.2,0.3-0.3,0.3h-0.1c-0.2,0-0.3-0.1-0.3-0.3v-8.1c0-0.2,0.1-0.3,0.3-0.3h0.1c0.2,0,0.3,0.1,0.3,0.3v0.3
				c0.9-0.4,2-0.7,2.9-0.7c1.7,0,3.2,0.8,3.2,3.1v5.4C304.8,324.7,304.7,324.9,304.5,324.9z"/>
			<path class="st22" d="M180.9,342.3c-1.4,0-2.3-0.1-3.2-0.3c-0.2,0-0.3-0.1-0.3-0.3v-1.2c0-0.2,0.2-0.3,0.3-0.3c0,0,0,0,0,0
				c0.7,0.1,2.5,0.2,3.2,0.2c1.6,0,2.1-0.5,2.1-1.5c0-0.6-0.3-1-1.5-1.6l-2.4-1.3c-1.7-0.9-2.1-1.8-2.1-3c0-1.8,1.2-3.1,4.5-3.1
				c1.2,0,2.9,0.2,3.5,0.3c0.2,0,0.3,0.1,0.3,0.3v1.2c0,0.2-0.1,0.3-0.3,0.3c0,0,0,0,0,0c-1.2-0.1-2.4-0.2-3.6-0.2
				c-1.3,0-1.9,0.4-1.9,1.2c0,0.5,0.3,0.9,1.5,1.5l2.2,1.1c2,1,2.5,2,2.5,3.3C185.6,340.5,184.5,342.3,180.9,342.3z"/>
			<path class="st22" d="M193.7,342.1L193.7,342.1c-0.3,0-0.5-0.1-0.5-0.3v-0.4c-0.9,0.4-2,0.8-3.1,0.8c-1.4,0-2.8-0.6-2.8-2.6v-0.2
				c0-1.7,1.2-2.5,4.5-2.5h1.4v-0.6c0-1.7-0.5-2.4-2.3-2.4c-1.2,0-1.7,0.1-2.6,0.1c0,0,0,0-0.1,0c-0.2,0-0.3-0.1-0.3-0.2v-0.1
				c0-0.2,0.1-0.3,0.4-0.3c0.8-0.1,1.4-0.1,2.6-0.1c2.4,0,3.1,1.2,3.1,3v5.5C194,342,193.9,342.1,193.7,342.1z M193.2,337.5h-1.4
				c-2.7,0-3.7,0.5-3.7,1.9v0.2c0,1.5,0.9,2,2,2c1,0,1.9-0.2,3.1-0.8V337.5z"/>
			<path class="st22" d="M200.8,342.2c-0.3,0-0.6,0-0.9,0c-1.3,0-2-0.4-2-1.8V334H196c-0.2,0-0.3-0.1-0.3-0.3v-0.2
				c0-0.2,0.1-0.2,0.3-0.2h1.8v-1.7c0-0.2,0.1-0.3,0.3-0.3h0.2c0.2,0,0.3,0.1,0.3,0.3v1.7h2.2c0.2,0,0.3,0.1,0.3,0.2v0.2
				c0,0.2-0.1,0.3-0.3,0.3h-2.2v6.4c0,1,0.5,1.1,1.3,1.1h0.9c0.3,0,0.4,0.1,0.4,0.2v0.1C201.1,342.1,201.1,342.2,200.8,342.2z"/>
			<path class="st22" d="M209.3,337.9h-6.1v0.3c0,2.7,1.5,3.3,3.3,3.3c0.8,0,1.8-0.1,2.7-0.3c0,0,0.1,0,0.1,0c0.1,0,0.3,0.1,0.3,0.2
				v0.1c0,0.2-0.1,0.3-0.3,0.3c-0.9,0.2-1.9,0.3-2.7,0.3c-2.2,0-4.1-0.9-4.1-4v-1.1c0-2.3,1.3-3.9,3.7-3.9c2.5,0,3.6,1.6,3.6,3.9
				v0.4C209.6,337.8,209.5,337.9,209.3,337.9z M208.8,337.2c0-2.1-0.8-3.2-2.8-3.2c-2,0-2.9,1.3-2.9,3.3v0.1L208.8,337.2
				L208.8,337.2z"/>
			<path class="st22" d="M212.6,342.1h-0.2c-0.2,0-0.3-0.1-0.3-0.3v-11.5c0-0.2,0.1-0.3,0.3-0.3h0.2c0.2,0,0.3,0.1,0.3,0.3v11.5
				C212.9,342,212.8,342.1,212.6,342.1z"/>
			<path class="st22" d="M216.3,342.1h-0.2c-0.2,0-0.3-0.1-0.3-0.3v-11.5c0-0.2,0.1-0.3,0.3-0.3h0.2c0.2,0,0.3,0.1,0.3,0.3v11.5
				C216.6,342,216.5,342.1,216.3,342.1z"/>
			<path class="st22" d="M219.9,331.8h-0.1c-0.2,0-0.3-0.1-0.3-0.3v-1.2c0-0.2,0.2-0.3,0.3-0.3h0.1c0.2,0,0.3,0.1,0.3,0.3v1.2
				C220.3,331.6,220.1,331.8,219.9,331.8z M219.9,342.1h-0.1c-0.2,0-0.3-0.1-0.3-0.3v-8.1c0-0.2,0.2-0.3,0.3-0.3h0.1
				c0.2,0,0.3,0.1,0.3,0.3v8.1C220.3,342,220.1,342.1,219.9,342.1z"/>
			<path class="st22" d="M227.6,342.2c-0.3,0-0.6,0-0.9,0c-1.3,0-2-0.4-2-1.8V334h-1.8c-0.2,0-0.3-0.1-0.3-0.3v-0.2
				c0-0.2,0.1-0.2,0.3-0.2h1.8v-1.7c0-0.2,0.1-0.3,0.3-0.3h0.2c0.2,0,0.3,0.1,0.3,0.3v1.7h2.2c0.2,0,0.3,0.1,0.3,0.2v0.2
				c0,0.2-0.1,0.3-0.3,0.3h-2.2v6.4c0,1,0.5,1.1,1.3,1.1h0.9c0.3,0,0.4,0.1,0.4,0.2v0.1C227.9,342.1,227.8,342.2,227.6,342.2z"/>
			<path class="st22" d="M236.1,337.9H230v0.3c0,2.7,1.5,3.3,3.3,3.3c0.8,0,1.8-0.1,2.7-0.3c0,0,0.1,0,0.1,0c0.1,0,0.3,0.1,0.3,0.2
				v0.1c0,0.2-0.1,0.3-0.3,0.3c-0.9,0.2-1.9,0.3-2.7,0.3c-2.2,0-4.1-0.9-4.1-4v-1.1c0-2.3,1.3-3.9,3.7-3.9c2.5,0,3.6,1.6,3.6,3.9
				v0.4C236.4,337.8,236.3,337.9,236.1,337.9z M235.6,337.2c0-2.1-0.8-3.2-2.8-3.2c-2,0-2.9,1.3-2.9,3.3v0.1L235.6,337.2
				L235.6,337.2z"/>
			<path class="st22" d="M245.7,342.2c-1.2,0-2.1-0.1-2.8-0.2c-0.2,0-0.3-0.1-0.3-0.3v-0.2c0-0.2,0.2-0.2,0.3-0.2c0,0,0.1,0,0.1,0
				c0.9,0.1,1.7,0.2,2.7,0.2c2.7,0,3.4-1.1,3.4-2.4c0-1.2-0.8-1.6-2.8-2.8l-1.1-0.6c-1.6-0.9-2.8-1.7-2.8-3.1c0-2.1,2.1-2.6,4.2-2.6
				c1,0,1.9,0.1,2.7,0.2c0.2,0,0.3,0.1,0.3,0.2v0.2c0,0.2-0.1,0.2-0.3,0.2c-0.4,0-1.8-0.2-2.7-0.2c-2.4,0-3.4,0.6-3.4,2
				c0,1,0.8,1.6,2.4,2.5l1.2,0.6c2,1.1,3.2,1.9,3.2,3.4C249.9,340.6,249.2,342.2,245.7,342.2z"/>
			<path class="st22" d="M258.7,333.8l-3,9.3c-0.6,1.7-1.3,2.3-2.9,2.3c-0.4,0-0.8,0-1.1-0.1c-0.2,0-0.4-0.1-0.4-0.2v-0.2
				c0-0.2,0.1-0.2,0.3-0.2c0,0,0.1,0,0.1,0c0.3,0,0.9,0.1,1.2,0.1c1.3,0,1.7-0.4,2.2-1.8l0.2-0.8H255c-0.6,0-0.9-0.1-1.1-0.9
				l-2.4-7.5c0,0,0-0.1,0-0.1c0-0.2,0.1-0.3,0.3-0.3h0.2c0.1,0,0.3,0.1,0.3,0.2l2.4,7.5c0.1,0.3,0.3,0.4,0.4,0.4h0.4l2.5-7.9
				c0-0.1,0.2-0.2,0.3-0.2h0.2c0.2,0,0.3,0.1,0.3,0.3C258.7,333.7,258.7,333.7,258.7,333.8z"/>
			<path class="st22" d="M263.3,342.2c-0.8,0-2-0.1-2.6-0.2c-0.3,0-0.4-0.1-0.4-0.3v-0.2c0-0.2,0.1-0.2,0.3-0.2c0,0,0.1,0,0.1,0
				c0.9,0.1,1.9,0.3,2.7,0.3c1.3,0,2.3-0.3,2.3-1.6c0-0.7-0.4-1-1.9-1.8l-1.2-0.6c-1.4-0.7-2.2-1.2-2.2-2.3c0-1.5,1.3-2,2.8-2
				c1.3,0,2,0.1,2.6,0.1c0.3,0,0.4,0.1,0.4,0.3v0.1c0,0.2-0.1,0.3-0.3,0.3c0,0,0,0-0.1,0c-0.5,0-1.5-0.2-2.5-0.2c-1.2,0-2,0.2-2,1.4
				c0,0.7,0.7,1.1,1.8,1.7l1.2,0.6c1.5,0.8,2.3,1.3,2.3,2.4C266.5,341.7,265,342.2,263.3,342.2z"/>
			<path class="st22" d="M272.9,342.2c-0.3,0-0.6,0-0.9,0c-1.3,0-2-0.4-2-1.8V334h-1.8c-0.2,0-0.3-0.1-0.3-0.3v-0.2
				c0-0.2,0.1-0.2,0.3-0.2h1.8v-1.7c0-0.2,0.1-0.3,0.3-0.3h0.2c0.2,0,0.3,0.1,0.3,0.3v1.7h2.2c0.2,0,0.3,0.1,0.3,0.2v0.2
				c0,0.2-0.1,0.3-0.3,0.3h-2.2v6.4c0,1,0.5,1.1,1.3,1.1h0.9c0.3,0,0.4,0.1,0.4,0.2v0.1C273.2,342.1,273.2,342.2,272.9,342.2z"/>
			<path class="st22" d="M281.4,337.9h-6.1v0.3c0,2.7,1.5,3.3,3.3,3.3c0.8,0,1.8-0.1,2.7-0.3c0,0,0.1,0,0.1,0c0.1,0,0.3,0.1,0.3,0.2
				v0.1c0,0.2-0.1,0.3-0.3,0.3c-0.9,0.2-1.9,0.3-2.7,0.3c-2.2,0-4.1-0.9-4.1-4v-1.1c0-2.3,1.3-3.9,3.7-3.9c2.5,0,3.6,1.6,3.6,3.9
				v0.4C281.8,337.8,281.6,337.9,281.4,337.9z M281,337.2c0-2.1-0.8-3.2-2.8-3.2c-2,0-2.9,1.3-2.9,3.3v0.1L281,337.2L281,337.2z"/>
			<path class="st22" d="M294.7,342.1h-0.2c-0.2,0-0.3-0.1-0.3-0.3V336c0-1.6-0.8-2.1-2.1-2.1c-0.8,0-1.7,0.2-2.4,0.6
				c0.2,0.4,0.3,0.8,0.3,1.4v5.9c0,0.2-0.1,0.3-0.3,0.3h-0.3c-0.2,0-0.3-0.1-0.3-0.3v-5.9c0-1.5-0.7-2-1.7-2c-0.8,0-1.8,0.3-2.6,0.7
				v7.2c0,0.2-0.1,0.3-0.3,0.3h-0.3c-0.2,0-0.3-0.1-0.3-0.3v-8.1c0-0.2,0.1-0.3,0.3-0.3h0.1c0.2,0,0.3,0.1,0.3,0.3v0.3
				c0.7-0.3,1.8-0.7,2.8-0.7c0.7,0,1.3,0.2,1.7,0.7c0.9-0.4,2-0.7,2.9-0.7c1.5,0,2.8,0.8,2.8,2.7v5.8
				C295,342,294.9,342.1,294.7,342.1z"/>
			<path class="st22" d="M300.2,342.2c-0.8,0-2-0.1-2.6-0.2c-0.3,0-0.4-0.1-0.4-0.3v-0.2c0-0.2,0.1-0.2,0.3-0.2c0,0,0.1,0,0.1,0
				c0.9,0.1,1.9,0.3,2.7,0.3c1.3,0,2.3-0.3,2.3-1.6c0-0.7-0.4-1-1.9-1.8l-1.2-0.6c-1.4-0.7-2.2-1.2-2.2-2.3c0-1.5,1.3-2,2.8-2
				c1.3,0,2,0.1,2.6,0.1c0.3,0,0.4,0.1,0.4,0.3v0.1c0,0.2-0.1,0.3-0.3,0.3c0,0,0,0-0.1,0c-0.5,0-1.5-0.2-2.5-0.2c-1.2,0-2,0.2-2,1.4
				c0,0.7,0.7,1.1,1.8,1.7l1.2,0.6c1.5,0.8,2.3,1.3,2.3,2.4C303.4,341.7,301.9,342.2,300.2,342.2z"/>
			<path class="st22" d="M186.8,359.4h-1.9c-0.2,0-0.3-0.1-0.3-0.3l-0.8-3.1h-4.2l-0.8,3.1c0,0.1-0.2,0.3-0.3,0.3h-1.9
				c-0.2,0-0.3-0.1-0.3-0.3c0,0,0,0,0-0.1l3-10.2c0.4-1.5,1.7-1.7,2.5-1.7c0.8,0,2.1,0.1,2.5,1.7l3,10.2c0,0,0,0.1,0,0.1
				C187.1,359.3,187,359.4,186.8,359.4z M181.9,349.3c-0.1-0.2-0.1-0.3-0.3-0.3c-0.2,0-0.2,0.1-0.3,0.3l-1.3,4.8h3.2L181.9,349.3z"
				/>
			<path class="st22" d="M196,351.3h-0.9c0.4,0.3,1,0.8,1,2v0.1c0,1.6-0.9,2.7-3.8,2.7c-0.9,0-1.5-0.1-2.2-0.4
				c-0.4,0.1-0.6,0.4-0.6,0.7c0,0.2,0.1,0.4,0.5,0.5l3.3,0.8c1.9,0.5,2.9,0.9,2.9,2.2v0.1c0,1.5-1,2.5-3.8,2.5c-2.8,0-3.8-1-3.8-2.5
				v-0.1c0-1.1,0.8-2,1.4-2.3l-0.1,0c-0.7-0.2-1-0.6-1-1.1c0-0.4,0.2-0.8,0.8-1c-0.6-0.4-0.9-1.1-0.9-1.9v-0.1
				c0-1.3,0.6-2.7,3.7-2.7h3.7c0.2,0,0.3,0.1,0.3,0.3v0.2C196.3,351.2,196.2,351.3,196,351.3z M195.4,359.9c0-0.9-0.4-1.1-2.3-1.6
				l-2.5-0.6c-0.8,0.5-1.3,1.1-1.3,2.2v0.1c0,1.2,0.7,1.9,3.1,1.9c2.4,0,3-0.7,3-1.9V359.9z M195.3,353.3c0-1.2-0.6-2.1-3-2.1
				c-2.5,0-2.9,1.1-2.9,2.1v0.1c0,0.8,0.5,2,2.9,2c2.4,0,3-0.9,3-2V353.3z"/>
			<path class="st22" d="M205.1,355.2H199v0.3c0,2.7,1.5,3.3,3.3,3.3c0.8,0,1.8-0.1,2.7-0.3c0,0,0.1,0,0.1,0c0.1,0,0.3,0.1,0.3,0.2
				v0.1c0,0.2-0.1,0.3-0.3,0.3c-0.9,0.2-1.9,0.3-2.7,0.3c-2.2,0-4.1-0.9-4.1-4v-1.1c0-2.3,1.3-3.9,3.7-3.9c2.5,0,3.6,1.6,3.6,3.9
				v0.4C205.4,355,205.3,355.2,205.1,355.2z M204.6,354.4c0-2.1-0.8-3.2-2.8-3.2c-2,0-2.9,1.3-2.9,3.3v0.1L204.6,354.4L204.6,354.4z
				"/>
			<path class="st22" d="M214.3,359.4h-0.1c-0.2,0-0.3-0.1-0.3-0.3v-5.4c0-1.9-1.1-2.5-2.4-2.5c-0.9,0-2,0.3-2.9,0.7v7.2
				c0,0.2-0.2,0.3-0.3,0.3H208c-0.2,0-0.3-0.1-0.3-0.3v-8.1c0-0.2,0.1-0.3,0.3-0.3h0.1c0.2,0,0.3,0.1,0.3,0.3v0.3
				c0.9-0.4,2-0.7,2.9-0.7c1.7,0,3.2,0.8,3.2,3.1v5.4C214.6,359.2,214.5,359.4,214.3,359.4z"/>
			<path class="st22" d="M222.6,359.3c-0.8,0.1-1.6,0.1-2.2,0.1c-2.6,0-3.6-1.8-3.6-3.9v-1.1c0-2.2,1-3.9,3.6-3.9
				c0.6,0,1.4,0.1,2.2,0.1c0.3,0,0.3,0.1,0.3,0.3v0.1c0,0.2-0.1,0.2-0.3,0.2c0,0-0.1,0-0.1,0c-0.9-0.1-1.6-0.1-2.2-0.1
				c-2.1,0-2.8,1.3-2.8,3.3v1.1c0,2,0.7,3.3,2.8,3.3c0.6,0,1.3,0,2.2-0.1c0,0,0.1,0,0.1,0c0.2,0,0.3,0.1,0.3,0.2v0.1
				C223,359.2,222.9,359.3,222.6,359.3z"/>
			<path class="st22" d="M231.9,351l-3,9.3c-0.6,1.7-1.3,2.3-2.9,2.3c-0.4,0-0.8,0-1.1-0.1c-0.2,0-0.4-0.1-0.4-0.2V362
				c0-0.2,0.1-0.2,0.3-0.2c0,0,0.1,0,0.1,0c0.3,0,0.9,0.1,1.2,0.1c1.3,0,1.7-0.4,2.2-1.8l0.2-0.8h-0.3c-0.6,0-0.9-0.1-1.1-0.9
				l-2.4-7.5c0,0,0-0.1,0-0.1c0-0.2,0.1-0.3,0.3-0.3h0.2c0.1,0,0.3,0.1,0.3,0.2l2.4,7.5c0.1,0.3,0.3,0.4,0.4,0.4h0.4l2.5-7.9
				c0-0.1,0.2-0.2,0.3-0.2h0.2c0.2,0,0.3,0.1,0.3,0.3C231.9,350.9,231.9,351,231.9,351z"/>
		</g>
	</g>
</g>
</svg>
