<svg width="24" height="24" viewBox="0 0 24 24" fill="none" xmlns="http://www.w3.org/2000/svg">
<path d="M11.9995 18C14.7609 18 16.9995 15.7614 16.9995 13C16.9995 10.2386 14.7609 8 11.9995 8C9.23809 8 6.99951 10.2386 6.99951 13C6.99951 15.7614 9.23809 18 11.9995 18Z" stroke="#2D3142" stroke-width="2" stroke-miterlimit="10" stroke-linecap="square"/>
<path d="M3 2H5" stroke="#2D3142" stroke-width="2" stroke-miterlimit="10" stroke-linecap="square"/>
<path d="M21 22H3C2.46957 22 1.96086 21.7893 1.58579 21.4142C1.21071 21.0391 1 20.5304 1 20V7C1 6.46957 1.21071 5.96086 1.58579 5.58579C1.96086 5.21071 2.46957 5 3 5H7L9 2H15L17 5H21C21.5304 5 22.0391 5.21071 22.4142 5.58579C22.7893 5.96086 23 6.46957 23 7V20C23 20.5304 22.7893 21.0391 22.4142 21.4142C22.0391 21.7893 21.5304 22 21 22Z" stroke="#2D3142" stroke-width="2" stroke-miterlimit="10" stroke-linecap="square"/>
<path d="M4 8.99951C4.55228 8.99951 5 8.5518 5 7.99951C5 7.44723 4.55228 6.99951 4 6.99951C3.44772 6.99951 3 7.44723 3 7.99951C3 8.5518 3.44772 8.99951 4 8.99951Z" fill="#2D3142"/>
</svg>
