<svg width="251" height="24" viewBox="0 0 251 24" fill="none" xmlns="http://www.w3.org/2000/svg">
<g clip-path="url(#clip0)">
<path d="M11.9213 19.0842V23.5335H0V0.457031H11.6031V4.90629H4.56484V9.68201H10.9574V13.9634H4.56484V19.0749H11.9213V19.0842Z" fill="#009147"/>
<path d="M17.0677 22.0037C15.822 20.7165 15.2036 18.8789 15.2036 16.4817V7.51793C15.2036 5.12074 15.822 3.2832 17.0677 1.996C18.3135 0.708789 20.0685 0.0651855 22.3419 0.0651855C24.5061 0.0651855 26.1701 0.699461 27.3432 1.97734C28.5071 3.25522 29.1346 5.10208 29.2255 7.51793H24.6607C24.6152 6.46391 24.4151 5.70837 24.0696 5.26065C23.7149 4.81293 23.1421 4.58906 22.351 4.58906C21.5598 4.58906 20.9597 4.82225 20.5687 5.29796C20.1686 5.77367 19.9776 6.51055 19.9776 7.52725V16.4911C19.9776 17.5264 20.1777 18.2726 20.5687 18.7297C20.9688 19.1867 21.5689 19.4199 22.3873 19.4199C23.2239 19.4199 23.8423 19.1867 24.2515 18.7297C24.6607 18.2726 24.8607 17.5171 24.8607 16.4911V14.8308H22.16V10.68H29.3619V16.4817C29.2982 18.8976 28.6617 20.7444 27.4523 22.0223C26.2429 23.3002 24.5333 23.9345 22.3237 23.9345C20.0503 23.9345 18.3044 23.2909 17.0677 22.0037Z" fill="#009147"/>
<path d="M33.0364 0.457031H37.5376L41.8114 10.4749C42.0478 11.0905 42.3115 11.8274 42.6116 12.6855L43.4118 14.8961L43.5119 14.7935C43.3209 13.3851 43.1663 11.818 43.0481 10.0831C42.9299 8.34817 42.8753 6.92105 42.8753 5.80174V0.457031H47.3765V23.5335H42.8753L39.0834 14.5977L37.0556 8.96379L36.9556 9.06639C37.1284 10.4749 37.2648 12.1258 37.3739 14.01C37.483 15.9035 37.5376 17.5172 37.5376 18.8604V23.5428H33.0364V0.457031Z" fill="#009147"/>
<path d="M52.6412 22.125C51.3954 20.8751 50.7771 19.1029 50.7771 16.8176H55.4692C55.4692 18.5805 56.2513 19.4573 57.8153 19.4573C58.5428 19.4573 59.0975 19.2615 59.4885 18.879C59.8704 18.4966 60.0705 18.0022 60.0705 17.4146C60.0705 16.687 59.7977 16.0621 59.2521 15.5398C58.7065 15.0081 57.8426 14.3645 56.6696 13.5903C55.5329 12.8627 54.6054 12.2098 53.887 11.6128C53.1686 11.0159 52.5503 10.2697 52.0411 9.35557C51.5227 8.44146 51.2681 7.35946 51.2681 6.10957C51.2681 4.30934 51.8501 2.84491 53.0231 1.70695C54.178 0.568983 55.7784 0 57.8153 0C59.8977 0 61.5254 0.596965 62.6984 1.80022C63.8714 3.00348 64.4716 4.66379 64.4716 6.79048H59.7795C59.7795 5.27009 59.1157 4.51455 57.788 4.51455C57.1879 4.51455 56.7241 4.67312 56.3877 4.98093C56.0512 5.28874 55.8875 5.70848 55.8875 6.23083C55.8875 6.89309 56.1512 7.46207 56.6787 7.9471C57.2061 8.43214 58.0426 9.01977 59.1975 9.72867C60.3796 10.4562 61.3344 11.1092 62.071 11.7061C62.8075 12.3031 63.4532 13.0679 63.9988 14.01C64.5444 14.9521 64.8172 16.0994 64.8172 17.4426C64.8172 18.7205 64.5353 19.8491 63.9624 20.8378C63.3986 21.8265 62.5802 22.6007 61.5163 23.1604C60.4524 23.72 59.1975 23.9999 57.7426 23.9999C55.5875 23.9999 53.887 23.3749 52.6412 22.125Z" fill="#009147"/>
<path d="M68.8452 22.125C67.5994 20.8751 66.9811 19.1029 66.9811 16.8176H71.6732C71.6732 18.5805 72.4552 19.4573 74.0193 19.4573C74.7468 19.4573 75.3014 19.2615 75.6925 18.879C76.0744 18.4966 76.2744 18.0022 76.2744 17.4146C76.2744 16.687 76.0016 16.0621 75.456 15.5398C74.9104 15.0081 74.0466 14.3645 72.8735 13.5903C71.7369 12.8627 70.8094 12.2098 70.091 11.6128C69.3726 11.0159 68.7452 10.2603 68.2269 9.34624C67.7085 8.43214 67.4539 7.35014 67.4539 6.10024C67.4539 4.30002 68.0359 2.83559 69.2089 1.69762C70.382 0.568983 71.9824 0 74.0193 0C76.1017 0 77.7294 0.596965 78.9024 1.80022C80.0754 3.00348 80.6665 4.66379 80.6665 6.79048H75.9744C75.9744 5.27009 75.3105 4.51455 73.9829 4.51455C73.3828 4.51455 72.919 4.67312 72.5825 4.98093C72.2461 5.28874 72.0824 5.70848 72.0824 6.23083C72.0824 6.89309 72.3461 7.46207 72.8735 7.9471C73.4009 8.43214 74.2375 9.01977 75.3924 9.72867C76.5745 10.4562 77.5293 11.1092 78.2659 11.7061C79.0024 12.3031 79.648 13.0679 80.1936 14.01C80.7392 14.9521 81.012 16.0994 81.012 17.4426C81.012 18.7205 80.7301 19.8491 80.1573 20.8378C79.5935 21.8265 78.7751 22.6007 77.7112 23.1604C76.6473 23.72 75.3924 23.9999 73.9374 23.9999C71.7914 23.9999 70.0819 23.3749 68.8452 22.125Z" fill="#009147"/>
<path d="M97.2536 18.2636H94.9439V23.5337H90.7337V18.2636H82.7589V15.8944L86.8691 0.466553H91.1429L87.4147 14.2434H90.7883L91.4612 7.21972H94.9348V14.2434H97.2445V18.2636H97.2536Z" fill="#04592E"/>
<path d="M101.281 22.0038C100.072 20.7166 99.4624 18.879 99.4624 16.4818V7.51803C99.4624 5.10219 100.072 3.246 101.29 1.94947C102.527 0.652931 104.236 0 106.446 0C108.692 0 110.429 0.643603 111.657 1.93081C112.884 3.21802 113.53 5.08353 113.621 7.51803H109.056C108.992 6.46402 108.756 5.70848 108.347 5.2421C107.937 4.77572 107.301 4.55186 106.419 4.55186C104.964 4.55186 104.236 5.54059 104.236 7.51803V16.4818C104.236 18.4127 104.964 19.3827 106.419 19.3827C107.301 19.3827 107.946 19.1495 108.383 18.6925C108.81 18.2261 109.056 17.4985 109.119 16.4818H113.684C113.639 18.8977 112.993 20.7445 111.738 22.0224C110.483 23.3003 108.71 23.9346 106.419 23.9346C104.2 23.9346 102.5 23.291 101.281 22.0038Z" fill="#009147"/>
<path d="M124.824 19.7187H120.068L119.332 23.543H114.603L120.004 0.466553H124.888L130.289 23.543H125.56L124.824 19.7187ZM123.924 15.2601L123.405 12.6204C123.105 10.9321 122.805 8.81474 122.505 6.28696H122.378C122.014 9.25314 121.714 11.3612 121.478 12.6204L120.959 15.2601H123.924Z" fill="#009147"/>
<path d="M145.174 2.53708C146.483 3.91757 147.138 5.84838 147.138 8.31086C147.138 10.7733 146.483 12.6948 145.174 14.066C143.865 15.4371 142.046 16.1274 139.709 16.1274H137.745V23.5428H133.18V0.457031H139.7C142.046 0.457031 143.865 1.1566 145.174 2.53708ZM141.728 10.8107C142.2 10.2417 142.437 9.40219 142.437 8.30153C142.437 7.18222 142.2 6.33341 141.728 5.76443C141.255 5.19544 140.564 4.90629 139.636 4.90629H137.736V11.6688H139.636C140.564 11.6688 141.264 11.389 141.728 10.8107Z" fill="#009147"/>
</g>
<path d="M199.472 0H163.13V23.9999H199.472V0Z" fill="#2D368F"/>
<path d="M197.682 17.3354C197.725 17.3632 197.739 17.2984 197.749 17.2937C197.668 17.2659 197.677 17.3493 197.682 17.3354Z" fill="#FCEE1F"/>
<path d="M196.874 17.1132L196.897 17.0947L196.759 17.1039L196.874 17.1132Z" fill="#FCEE1F"/>
<path d="M196.17 16.812C196.194 16.937 196.432 16.8999 196.546 16.9926L196.556 17.025L196.646 16.9694C196.489 16.9138 196.266 16.8814 196.17 16.812Z" fill="#FCEE1F"/>
<path d="M195.876 16.4413C195.885 16.4877 195.78 16.4413 195.961 16.4877C195.957 16.4784 195.952 16.4784 195.947 16.4691C195.933 16.4691 195.909 16.4599 195.876 16.4413Z" fill="#FCEE1F"/>
<path d="M195.945 16.474C196.026 16.5017 195.912 16.423 195.945 16.474V16.474Z" fill="#FCEE1F"/>
<path d="M195.589 16.3627L195.703 16.3673C195.689 16.3349 195.603 16.2978 195.641 16.2932C195.532 16.2701 195.541 16.3025 195.589 16.3627Z" fill="#FCEE1F"/>
<path d="M195.464 16.3997L195.521 16.4043C195.517 16.3905 195.502 16.3812 195.464 16.3997Z" fill="#FCEE1F"/>
<path d="M195.641 16.4136L195.517 16.4044C195.527 16.4275 195.512 16.4599 195.574 16.4136C195.555 16.4368 195.588 16.4183 195.641 16.4136Z" fill="#FCEE1F"/>
<path d="M195.699 16.4509C195.746 16.4925 195.813 16.5342 195.699 16.5296C195.899 16.5944 195.899 16.5111 195.699 16.4509Z" fill="#FCEE1F"/>
<path d="M196.088 16.8998L196.15 16.96L196.226 16.9508C196.188 16.9554 196.098 16.8628 196.088 16.8998Z" fill="#FCEE1F"/>
<path d="M194.976 16.0803C194.962 16.0988 194.99 16.1497 194.986 16.1775H195.071C195.038 16.1544 194.971 16.1173 194.976 16.0803Z" fill="#FCEE1F"/>
<path d="M194.99 16.1821H194.867C194.962 16.2191 194.986 16.2052 194.99 16.1821Z" fill="#FCEE1F"/>
<path d="M195.403 16.5065L195.612 16.4972L195.365 16.4926L195.403 16.5065Z" fill="#FCEE1F"/>
<path d="M194.546 15.9319L194.627 15.9041L194.489 15.9412L194.546 15.9319Z" fill="#FCEE1F"/>
<path d="M194.262 15.8487C194.324 15.8209 194.219 15.756 194.281 15.7468C194.2 15.7283 194.124 15.7422 194.052 15.756C194.119 15.7607 194.186 15.7885 194.262 15.8487Z" fill="#FCEE1F"/>
<path d="M193.932 15.7744C193.965 15.7744 194.004 15.7651 194.046 15.7605C194.008 15.7558 193.97 15.7605 193.932 15.7744Z" fill="#FCEE1F"/>
<path d="M194.676 16.1033C194.671 16.0894 194.666 16.0477 194.609 16.0107L194.633 16.0848L194.676 16.1033Z" fill="#FCEE1F"/>
<path d="M194.631 16.0895L194.536 16.0524L194.631 16.0895Z" fill="#FCEE1F"/>
<path d="M194.689 16.1084L194.679 16.1033C194.679 16.1135 194.679 16.1135 194.689 16.1084Z" fill="#FCEE1F"/>
<path d="M195.13 16.3443C195.054 16.3536 194.902 16.3443 195.016 16.4416C195.078 16.4138 195.016 16.3582 195.13 16.3443Z" fill="#FCEE1F"/>
<path d="M194.714 16.2007L194.829 16.2563C194.833 16.2378 194.819 16.21 194.857 16.2007H194.714Z" fill="#FCEE1F"/>
<path d="M194.65 16.2006H194.712L194.669 16.1821L194.65 16.2006Z" fill="#FCEE1F"/>
<path d="M194.119 15.895C194.057 15.9043 194 15.8904 193.938 15.8719C194.005 15.9043 194.071 15.9321 194.138 15.9553C194.152 15.9414 194.195 15.9182 194.119 15.895Z" fill="#FCEE1F"/>
<path d="M194.366 15.9968H194.351C194.361 16.0018 194.366 16.0069 194.366 15.9968Z" fill="#FCEE1F"/>
<path d="M193.305 15.6866L193.31 15.7005L193.319 15.6912L193.305 15.6866Z" fill="#FCEE1F"/>
<path d="M194.141 15.9737C194.188 16.0015 194.222 15.9968 194.26 15.9876C194.222 15.9829 194.179 15.9737 194.131 15.9598C194.127 15.9644 194.127 15.9737 194.141 15.9737Z" fill="#FCEE1F"/>
<path d="M193.748 15.7514C193.771 15.7745 193.8 15.7931 193.828 15.8116C193.805 15.7838 193.762 15.7375 193.748 15.7514Z" fill="#FCEE1F"/>
<path d="M194.342 15.9738C194.347 15.9738 194.347 15.9738 194.352 15.9738C194.337 15.9553 194.337 15.9599 194.342 15.9738Z" fill="#FCEE1F"/>
<path d="M194.341 15.9737C194.313 15.9737 194.284 15.983 194.26 15.9876C194.294 15.9922 194.322 15.9968 194.351 15.9968C194.351 15.9876 194.346 15.9783 194.341 15.9737Z" fill="#FCEE1F"/>
<path d="M192.995 16.0295C193.019 15.9739 193.171 15.96 193.271 16.0572C193.4 16.048 193.381 15.8396 193.31 15.7053C193.3 15.7284 193.29 15.7516 193.162 15.7516C193.195 15.7933 193.405 15.8998 193.286 15.9229C193.119 15.909 193.162 15.8674 193.095 15.8118C193.138 15.8998 192.867 15.8581 192.872 15.9739H193.019C193.019 15.9924 192.962 16.0017 192.995 16.0295Z" fill="#FCEE1F"/>
<path d="M193.539 15.7745L193.591 15.7838C193.539 15.756 193.505 15.7236 193.444 15.6588C193.353 15.6634 193.329 15.6773 193.32 15.6958L193.558 15.7745H193.539Z" fill="#FCEE1F"/>
<path d="M193.805 15.8441C193.748 15.895 193.624 15.8858 193.672 15.9738C193.815 16.0108 193.786 15.9506 193.882 15.9506C193.648 15.895 193.958 15.9367 193.805 15.8487C193.853 15.8533 193.896 15.8626 193.934 15.8719C193.896 15.8533 193.858 15.8302 193.824 15.807L193.829 15.8117C193.839 15.8209 193.839 15.8302 193.829 15.8209H193.824C193.82 15.8348 193.815 15.8394 193.805 15.8441C193.743 15.8117 193.801 15.8255 193.824 15.8255C193.824 15.8209 193.829 15.8209 193.829 15.8163L193.586 15.7792C193.634 15.8024 193.696 15.8209 193.805 15.8441Z" fill="#FCEE1F"/>
<path d="M194.852 16.5294C194.848 16.5202 194.848 16.5156 194.852 16.5109C194.833 16.5156 194.824 16.5202 194.852 16.5294Z" fill="#FCEE1F"/>
<path d="M194.771 16.4601C194.79 16.4555 194.814 16.4369 194.866 16.4647C194.904 16.4972 194.857 16.4925 194.852 16.5157C194.89 16.5111 194.981 16.511 194.89 16.4462L194.871 16.4508C194.785 16.3999 194.695 16.2795 194.714 16.2795C194.719 16.3397 194.728 16.386 194.771 16.4601Z" fill="#FCEE1F"/>
<path d="M194.279 16.1636L194.079 16.1312L194.16 16.2145L194.164 16.1821C194.269 16.2284 194.255 16.1821 194.279 16.1636Z" fill="#FCEE1F"/>
<path d="M193.289 15.6494L193.337 15.5892L193.194 15.654L193.289 15.6494Z" fill="#FCEE1F"/>
<path d="M193.038 15.5848L193.062 15.5339L192.986 15.5478L193.038 15.5848Z" fill="#FCEE1F"/>
<path d="M178.456 14.8253L178.399 14.8438C178.423 14.8392 178.442 14.8299 178.456 14.8253Z" fill="#FCEE1F"/>
<path d="M178.872 14.8113L178.882 14.7835C178.863 14.7974 178.853 14.8113 178.872 14.8113Z" fill="#FCEE1F"/>
<path d="M186.732 14.3852C186.651 14.3204 186.565 14.2231 186.57 14.2926L186.589 14.3574C186.651 14.3528 186.694 14.3667 186.732 14.3852Z" fill="#FCEE1F"/>
<path d="M182.339 14.4546L182.363 14.4731L182.42 14.4129L182.339 14.4546Z" fill="#FCEE1F"/>
<path d="M182.267 14.7233L182.158 14.6769C182.182 14.6908 182.22 14.7094 182.267 14.7233Z" fill="#FCEE1F"/>
<path d="M176.167 15.0519L176.105 15.126C176.21 15.1121 176.162 15.0844 176.167 15.0519Z" fill="#FCEE1F"/>
<path d="M190.426 14.9872C190.359 14.9456 190.302 14.927 190.25 14.9131C190.33 14.9641 190.392 15.0336 190.426 14.9872Z" fill="#FCEE1F"/>
<path d="M178.588 14.1258C178.555 14.1397 178.536 14.1536 178.541 14.1675C178.579 14.1536 178.598 14.1397 178.588 14.1258Z" fill="#FCEE1F"/>
<path d="M190.039 14.8714C190.048 14.8807 190.062 14.8853 190.072 14.8946C190.129 14.8946 190.181 14.8946 190.248 14.9131C190.191 14.8714 190.119 14.839 190.039 14.8714Z" fill="#FCEE1F"/>
<path d="M168.018 16.5988C168.013 16.5988 168.004 16.5988 167.999 16.5988C167.999 16.6037 168.009 16.6037 168.018 16.5988Z" fill="#FCEE1F"/>
<path d="M165.494 16.8583C165.513 16.8444 165.551 16.8305 165.584 16.812C165.565 16.812 165.537 16.8258 165.494 16.8583Z" fill="#FCEE1F"/>
<path d="M192.025 15.2928C192.083 15.3025 192.035 15.288 192.025 15.2928V15.2928Z" fill="#FCEE1F"/>
<path d="M192.22 15.6078C192.206 15.6125 192.197 15.6171 192.192 15.631C192.201 15.6171 192.211 15.6125 192.22 15.6078Z" fill="#FCEE1F"/>
<path d="M189.42 15.1677C189.43 15.1819 189.43 15.1819 189.42 15.1677V15.1677Z" fill="#FCEE1F"/>
<path d="M192.101 15.3391C192.082 15.3252 192.063 15.316 192.04 15.3021C192.044 15.3113 192.063 15.3252 192.101 15.3391Z" fill="#FCEE1F"/>
<path d="M192.095 15.3068L192.143 15.3253C192.148 15.3161 192.148 15.3068 192.095 15.3068Z" fill="#FCEE1F"/>
<path d="M191.949 15.2742C191.982 15.2789 192.006 15.2928 192.034 15.302C192.025 15.2928 192.02 15.2928 192.025 15.2881L191.949 15.2742Z" fill="#FCEE1F"/>
<path d="M172.296 15.3484C172.292 15.3484 172.287 15.3484 172.282 15.3438C172.235 15.3809 172.258 15.3716 172.296 15.3484Z" fill="#FCEE1F"/>
<path d="M185.236 14.9141C185.241 14.9141 185.241 14.9141 185.241 14.9091L185.231 14.904L185.236 14.9141Z" fill="#FCEE1F"/>
<path d="M185.038 14.9455C185.128 14.8714 185.176 14.8853 185.237 14.9084L185.19 14.7139L185.038 14.9455Z" fill="#FCEE1F"/>
<path d="M177.445 14.8992L177.588 14.9501C177.43 15.0566 177.307 15.0335 177.44 15.1076C177.445 14.9038 177.968 15.052 177.978 14.8482L178.073 14.8853C178.049 14.8853 178.044 14.8992 178.016 14.8945C178.197 14.9825 178.14 14.7417 178.368 14.7556C178.449 14.7695 178.506 14.7927 178.454 14.8204L178.63 14.7602C178.682 14.7602 178.673 14.7973 178.62 14.7973L178.887 14.7695V14.7741C178.925 14.7417 179.011 14.6861 179.053 14.6676C179.125 14.6954 179.02 14.6908 179.039 14.7139L179.187 14.6583C179.249 14.7093 179.125 14.7649 179.025 14.7602C179.172 14.9594 179.149 14.7047 179.453 14.8158L179.315 14.8436C179.41 14.9547 179.52 14.9131 179.677 14.9825C179.639 14.9455 179.353 14.8065 179.515 14.7556C179.563 14.7695 179.62 14.7741 179.71 14.7324C179.71 14.8065 179.796 14.788 179.905 14.7788L179.901 14.876C180.015 14.8482 180.005 14.7973 180.072 14.751C180.2 14.7602 180.229 14.8343 180.258 14.8945C180.462 14.9084 180.115 14.7741 180.358 14.7556C180.529 14.7927 180.648 14.751 180.852 14.6954C180.971 14.7278 180.833 14.7556 180.876 14.7834L180.981 14.7093C181.005 14.7093 181 14.7324 180.995 14.7463C181.086 14.7185 181.005 14.6491 181.143 14.6259C181.181 14.5194 181.433 14.7834 181.609 14.6676C181.652 14.6954 181.585 14.7278 181.6 14.7649C181.842 14.6908 181.804 14.7093 182.004 14.6074L182.171 14.6769C182.052 14.6028 182.209 14.5194 182.352 14.4546C182.309 14.4175 182.271 14.3851 182.247 14.3712L182.471 14.3249C182.499 14.3434 182.475 14.3758 182.437 14.4129C182.452 14.4036 182.466 14.399 182.48 14.3897C182.556 14.4268 182.514 14.4823 182.456 14.5333C182.433 14.5148 182.404 14.4916 182.38 14.4731C182.323 14.5287 182.271 14.5935 182.28 14.6491C182.295 14.6398 182.323 14.6306 182.352 14.6259C182.337 14.6398 182.328 14.6537 182.333 14.663C182.342 14.6722 182.361 14.6537 182.399 14.6306L182.447 14.7417L182.461 14.7L182.747 14.7788C182.956 14.6769 183.142 14.5287 183.475 14.5009C183.389 14.575 183.451 14.6259 183.442 14.7232C183.356 14.6213 183.185 14.751 183.018 14.7232C183.104 14.7371 183.085 14.7834 183.061 14.7973L183.365 14.7232C183.356 14.7973 183.427 14.7834 183.503 14.8204C183.451 14.6676 183.732 14.7324 183.86 14.6954C183.865 14.7463 183.832 14.7973 183.684 14.7741C183.841 14.8992 183.908 14.6074 184.065 14.7185C184.027 14.7185 184.008 14.7093 183.994 14.7324C184.084 14.6908 184.289 14.7417 184.236 14.7834H184.198C184.441 14.8158 184.936 14.839 184.984 14.7139C184.984 14.7324 184.941 14.8668 184.922 14.8899L185.393 14.4962C185.345 14.6028 185.464 14.876 185.26 14.9223C185.317 14.9409 185.383 14.9686 185.512 14.9409C185.474 14.9223 185.431 14.7741 185.483 14.7695C185.621 14.9038 185.579 14.8436 185.75 14.964C185.693 14.9362 185.778 14.7695 185.869 14.7834C185.85 14.8065 185.859 14.9547 185.821 14.9686L186.069 14.8251C186.007 14.8482 186.045 14.9686 186.088 15.0196C186.069 14.9825 186.288 15.0427 186.35 15.0335L186.254 14.9825C186.511 15.0381 186.54 14.7741 186.797 14.8158C186.759 14.8482 186.692 15.0196 186.821 15.0566C186.892 14.9779 187.14 14.6769 187.382 14.6398L187.42 14.6954L187.606 14.663C187.478 14.7788 187.13 15.0103 186.954 15.0937C187.044 15.1446 186.973 15.1539 187.121 15.1678C187.168 15.2187 187.03 15.228 186.987 15.2234L187.321 15.2975C187.321 15.1956 187.592 15.2326 187.592 15.1446L187.211 15.2002C187.211 15.0983 187.463 14.9409 187.701 14.9964C187.758 15.0427 187.63 15.1678 187.63 15.2002C187.668 15.1724 187.868 15.1678 187.887 15.1956L187.777 15.2326C187.906 15.2882 188.015 15.1307 188.163 15.2512C188.215 15.2651 188.306 15.404 188.325 15.3484C188.253 15.2187 188.291 14.8668 188.363 14.788C188.382 14.7973 188.639 14.9409 188.691 15.0103C188.767 15.1122 188.52 15.2002 188.582 15.2882C188.591 15.2604 188.644 15.2373 188.667 15.228C188.72 15.2604 188.629 15.3067 188.758 15.316C188.796 15.2187 189.015 15.3669 188.834 15.2419C188.962 15.2326 188.962 15.2836 189.105 15.3067C189.072 15.2326 189.277 15.1076 189.405 15.0983C189.391 15.1215 189.415 15.1632 189.424 15.1771C189.676 15.2326 189.805 15.3021 190.038 15.3484C190.057 15.3762 190.162 15.4272 190.105 15.4642C190.143 15.4549 190.181 15.4272 190.252 15.4364C190.376 15.5522 190.086 15.4179 190.171 15.5429C190.19 15.4874 190.376 15.5013 190.486 15.4827C190.471 15.3855 190.252 15.4179 190.138 15.4318C190.162 15.3067 190.371 15.2141 190.628 15.2048C190.833 15.2141 190.695 15.3021 190.733 15.2928C191.095 15.3947 191.095 15.1446 191.38 15.3021C191.48 15.4086 191.347 15.4596 191.361 15.5244C191.195 15.5151 191.128 15.4179 191.019 15.3994L191.142 15.4642C191.085 15.4781 190.976 15.4735 190.923 15.441C191.009 15.5337 191.537 15.5939 191.804 15.7282C191.861 15.7143 191.951 15.7097 191.923 15.668L191.832 15.6587C191.766 15.5754 192.023 15.6124 191.918 15.5568C192.051 15.5429 192.204 15.5059 192.361 15.5846L192.37 15.6819C192.375 15.6541 192.275 15.5985 192.218 15.617C192.299 15.5939 192.442 15.8023 192.551 15.7097L192.451 15.617C192.584 15.6031 192.76 15.5476 192.899 15.617C192.856 15.5105 192.86 15.617 192.784 15.4874C192.841 15.6402 192.404 15.3808 192.513 15.5522C192.437 15.404 192.337 15.4503 192.223 15.316C192.218 15.3484 192.261 15.3855 192.137 15.3392C192.127 15.3484 192.113 15.353 192.104 15.3577L192.094 15.353L192.099 15.3577C192.094 15.3623 192.089 15.3623 192.099 15.3577C192.127 15.3762 192.147 15.3994 192.151 15.4179C192.07 15.4688 191.87 15.4179 191.794 15.4364C191.723 15.404 191.832 15.4086 191.799 15.3669L191.685 15.3947C191.69 15.3253 191.514 15.2373 191.699 15.2419L191.542 15.2002C191.456 15.14 191.333 15.0983 191.247 15.1076C191.176 15.0752 191.038 15.14 191.119 15.103L190.857 15.0891V15.0705C190.609 15.0103 190.324 15.0752 190.067 14.8992C189.981 14.8992 189.891 14.9038 189.753 14.8575L189.738 14.7973C189.629 14.7973 189.424 14.6815 189.367 14.7324C189.281 14.5564 188.848 14.6074 188.663 14.5518L188.644 14.6259C188.515 14.6028 188.387 14.6028 188.22 14.6074V14.6769C188.072 14.7093 187.868 14.575 187.644 14.5518C187.663 14.5287 187.72 14.5426 187.754 14.5657C187.511 14.3758 187.182 14.5981 186.954 14.4592C186.892 14.4777 186.849 14.4638 186.811 14.4407C186.816 14.4407 186.821 14.4407 186.826 14.4407C186.821 14.4407 186.811 14.436 186.802 14.436C186.778 14.4221 186.749 14.4036 186.721 14.3897C186.745 14.4082 186.768 14.4268 186.787 14.4314C186.74 14.4268 186.668 14.4268 186.597 14.436L186.588 14.3573C186.583 14.3573 186.578 14.3573 186.573 14.3573C186.507 14.3249 186.516 14.3851 186.545 14.4453C186.507 14.4546 186.473 14.4638 186.45 14.4777C186.407 14.3573 186.264 14.4962 186.202 14.3666C186.15 14.4221 185.85 14.3758 185.802 14.5009C185.802 14.4823 185.783 14.4731 185.821 14.4777C185.745 14.4546 185.669 14.4314 185.598 14.4638L185.574 14.3712L185.393 14.4777C185.298 14.4129 185.255 14.3758 185.364 14.3156C185.112 14.4036 185.164 14.3388 184.946 14.4314L184.96 14.3712C184.884 14.3666 184.76 14.436 184.722 14.3851C184.565 14.26 183.903 14.311 183.48 14.1859C183.551 14.3666 183.285 14.0979 183.261 14.2323C183.237 14.1906 183.18 14.1628 183.251 14.1304C183.032 14.1628 182.928 14.0516 182.771 14.1581C182.747 14.1165 182.818 14.0979 182.799 14.0748C182.78 14.084 182.728 14.1072 182.709 14.084C182.69 14.0609 182.742 14.0516 182.775 14.0331C182.552 14.0331 182.523 14.1581 182.504 14.2786C182.395 14.2184 182.337 14.223 182.252 14.3017C182.214 14.26 182.147 14.2184 182.29 14.2091C182.214 14.1998 181.814 14.1396 181.804 14.2369C181.781 14.2137 181.695 14.2276 181.676 14.2369C181.5 14.2276 181.485 14.2184 181.314 14.2276L181.362 14.2415C181.295 14.3573 181.219 14.2647 181.081 14.2786L181.086 14.2647C180.767 14.1813 180.948 14.3017 180.638 14.2091L180.657 14.2832C180.629 14.436 180.381 14.1906 180.2 14.2554L180.262 14.2878C180.162 14.3434 179.982 14.0794 179.882 14.0609C179.858 14.047 179.915 14.0377 179.943 14.0285C179.682 13.9405 179.91 14.1257 179.715 14.1489C179.677 14.0979 179.758 14.0192 179.629 14.0099C179.563 13.9683 179.253 14.1859 179.072 14.0933C179.115 14.1304 179.153 14.1674 179.063 14.1998C178.925 14.2184 178.682 14.0655 178.563 14.1952C178.544 14.1859 178.539 14.1767 178.535 14.1674C178.43 14.2045 178.192 14.2369 178.135 14.3064C178.025 14.0609 177.488 14.4638 177.473 14.2369L177.15 14.2693L177.154 14.2461C176.945 14.2461 176.878 14.3064 176.807 14.3666C176.759 14.3527 176.793 14.3295 176.793 14.3202C176.488 14.2971 176.455 14.311 176.212 14.4453L176.179 14.3712C176.112 14.4221 175.731 14.2971 175.441 14.4129C175.441 14.4036 175.446 14.3897 175.47 14.3758C175.146 14.4962 174.646 14.26 174.556 14.5472L174.346 14.6398C174.632 14.6259 174.318 14.7602 174.442 14.7927C174.332 14.8204 174.142 14.751 174.28 14.7185L174.304 14.7278C174.337 14.5796 173.947 14.7278 173.937 14.6306C173.38 14.7139 172.823 14.7278 172.305 14.8158L172.386 14.9131L172.205 14.9409C172.152 14.9223 172.124 14.8668 172.257 14.8482C172.176 14.7973 172.048 14.9409 172.052 14.964C171.791 14.9686 172.129 14.8204 172.048 14.8297L171.943 14.8575L171.971 14.8668C171.895 14.927 171.895 14.9733 171.738 15.0011C171.634 14.9964 171.676 14.9455 171.634 14.9455C171.634 14.9362 171.619 14.9362 171.572 14.9547L171.343 14.9918L171.453 15.0566C171.362 15.1168 171.238 15.0983 171.362 15.1724C171.177 15.052 170.506 15.3021 170.401 15.2789C170.277 15.3716 170.139 15.404 169.963 15.441C170.011 15.4503 170.058 15.5383 169.911 15.5615C169.915 15.353 169.62 15.5429 169.463 15.4364C169.597 15.5013 169.054 15.5707 169.254 15.6587C169.125 15.6772 169.225 15.5892 169.121 15.5661C168.849 15.7236 168.464 15.7004 168.116 15.8393C168.121 15.8671 168.192 15.8857 168.126 15.9459L167.897 15.881C167.831 15.9181 167.883 16.0478 167.726 16.0014C167.75 16.0153 167.788 16.0385 167.745 16.0617C167.379 16.1172 167.031 16.2654 166.684 16.409C166.336 16.5526 165.989 16.6915 165.599 16.7332C165.713 16.7378 165.651 16.7703 165.584 16.8027C165.637 16.7934 165.608 16.8629 165.637 16.8907L165.308 16.9277C165.299 17.0389 165.008 17.0759 165.023 17.1778L165.104 17.1176C165.037 17.2751 165.38 17.2658 165.423 17.4048C165.499 17.2288 165.846 17.4186 165.989 17.1593C166.051 17.1639 165.965 17.2195 166.008 17.238C166.036 17.1593 166.098 17.1176 166.232 17.0898L166.222 17.1222C166.565 16.9648 166.736 16.9648 167.145 16.8536L167.088 16.798C167.179 16.7749 167.203 16.7888 167.25 16.7934C167.312 16.6545 167.007 16.8768 167.055 16.7332C167.217 16.8258 167.659 16.5202 167.793 16.6498C167.926 16.6082 167.726 16.585 167.859 16.5433L167.907 16.5757L167.921 16.5109C168.012 16.4924 168.074 16.5294 168.088 16.5665C168.064 16.5711 168.031 16.5943 168.012 16.6082C168.14 16.622 168.326 16.4877 168.369 16.4924L168.231 16.5063C168.583 16.3488 169.044 16.2747 169.373 16.0941L169.335 16.0709C169.592 15.9366 169.563 16.0478 169.854 15.9412L169.844 15.9505C169.896 15.9042 169.973 15.8671 170.053 15.8486C169.987 15.9042 170.215 15.8857 170.125 15.9551C170.406 15.8162 170.258 15.8671 170.425 15.7004L170.482 15.7421C170.539 15.6772 170.534 15.6495 170.686 15.6031C170.572 15.6772 170.801 15.6634 170.677 15.756C171.02 15.8023 171.12 15.529 171.305 15.6726C171.419 15.492 171.01 15.6495 171.086 15.5985C171.005 15.5661 171.181 15.4596 171.286 15.4549C171.391 15.4364 171.5 15.6124 171.757 15.5568C171.733 15.5615 171.733 15.5707 171.705 15.5754C171.81 15.5939 171.881 15.4874 172.014 15.5244C172.062 15.4179 172.167 15.5013 172.167 15.3808L171.938 15.4549C172.067 15.3994 172.167 15.2373 172.4 15.2651C172.386 15.2928 172.328 15.3345 172.286 15.3623C172.357 15.3855 172.405 15.316 172.481 15.3392C172.485 15.4596 172.2 15.4179 172.071 15.5337C172.148 15.5707 172.324 15.3994 172.276 15.5383C172.347 15.3577 172.533 15.5105 172.685 15.3577V15.4318C172.709 15.4179 172.762 15.3716 172.814 15.3669L172.738 15.4735C172.866 15.3716 173.023 15.4966 173.147 15.4318C172.866 15.4781 173.071 15.3577 172.942 15.3253C173.276 15.1724 173.176 15.4735 173.561 15.3808C173.509 15.3994 173.356 15.3716 173.433 15.3253C173.509 15.3299 173.613 15.3392 173.666 15.3716C173.923 15.316 173.613 15.3067 173.718 15.2465C173.818 15.3206 173.842 15.1909 173.951 15.1493L173.961 15.2187C174.265 15.2234 174.018 15.0566 174.294 15.0752L174.194 15.1909L174.332 15.1446L174.313 15.228C174.456 15.1446 174.508 15.1585 174.656 15.1585C174.613 15.1122 174.656 15.0242 174.789 15.0057C174.884 15.0381 174.746 15.0798 174.932 15.0474C174.894 15.0983 174.856 15.1585 174.765 15.103C174.76 15.1261 174.727 15.1539 174.722 15.1771C174.827 15.2141 174.965 15.1585 175.036 15.1493C175.008 15.1493 174.979 15.1493 174.96 15.14L175.217 15.0103C175.265 15.0335 175.232 15.0566 175.203 15.0844C175.255 15.0705 175.294 15.0335 175.37 15.0196C175.355 15.0798 175.37 15.14 175.255 15.1817L175.508 15.0891C175.527 15.1122 175.646 15.1446 175.617 15.1724C175.765 15.1909 175.955 15.0242 176.15 15.052C176.16 15.0381 176.179 15.0288 176.217 15.015C176.398 15.0103 176.56 15.0705 176.769 14.9733L176.897 15.0705C177.059 15.0335 176.726 14.9501 176.997 14.8899C177.193 14.8436 177.078 14.9733 177.15 15.0011C177.245 14.9409 177.407 14.8204 177.592 14.8945C177.549 14.8992 177.502 14.8899 177.445 14.8992ZM179.501 14.7602C179.463 14.7741 179.382 14.8251 179.353 14.7834C179.396 14.7 179.429 14.7371 179.501 14.7602ZM182.637 14.6028C182.609 14.6259 182.561 14.612 182.509 14.5842C182.547 14.5796 182.59 14.5842 182.637 14.6028ZM191.418 15.2095C191.418 15.2095 191.414 15.2095 191.414 15.2141C191.333 15.1632 191.361 15.1817 191.418 15.2095ZM191.594 15.2789C191.613 15.2743 191.618 15.2651 191.609 15.2512C191.59 15.2651 191.552 15.2558 191.504 15.2419C191.514 15.2651 191.533 15.2836 191.594 15.2789ZM171.624 14.9779L171.662 14.9918C171.586 15.0289 171.605 15.0057 171.624 14.9779Z" fill="#FCEE1F"/>
<path d="M182.277 14.6908C182.267 14.6769 182.262 14.663 182.262 14.6491C182.248 14.663 182.243 14.6769 182.277 14.6908Z" fill="#FCEE1F"/>
<path d="M176.176 15.038H176.172C176.167 15.0427 176.167 15.0473 176.167 15.0519L176.176 15.038Z" fill="#FCEE1F"/>
<path d="M188.644 15.3253C188.606 15.3068 188.592 15.2929 188.578 15.279C188.573 15.2929 188.587 15.3114 188.644 15.3253Z" fill="#FCEE1F"/>
<path d="M192.591 15.4042L192.467 15.3903C192.524 15.3996 192.539 15.4227 192.567 15.4413C192.572 15.4227 192.553 15.395 192.591 15.4042Z" fill="#FCEE1F"/>
<path d="M193.466 16.1127C193.485 16.1081 193.499 16.1219 193.523 16.1173L193.528 16.0849C193.456 16.0664 193.394 16.0803 193.466 16.1127Z" fill="#FCEE1F"/>
<path d="M192.632 15.6636C192.623 15.7238 192.704 15.7238 192.784 15.733C192.78 15.733 192.775 15.733 192.77 15.7284C192.822 15.6543 192.727 15.6589 192.632 15.6636Z" fill="#FCEE1F"/>
<path d="M192.81 15.7375C192.834 15.7421 192.862 15.7468 192.886 15.756C192.9 15.7282 192.858 15.7421 192.81 15.7375Z" fill="#FCEE1F"/>
<path d="M191.834 15.2973C191.868 15.3205 191.877 15.2279 191.891 15.2557C191.958 15.1908 191.611 15.2834 191.834 15.2973Z" fill="#FCEE1F"/>
<path d="M192.647 15.8765L192.638 15.7932L192.576 15.8395L192.647 15.8765Z" fill="#FCEE1F"/>
<path d="M192.019 15.654L192.143 15.7049C192.143 15.6911 192.162 15.6911 192.186 15.6911C192.109 15.6679 192.024 15.6308 192.019 15.654Z" fill="#FCEE1F"/>
<path d="M192.186 15.6913C192.229 15.7052 192.267 15.7099 192.296 15.7052C192.272 15.7006 192.224 15.6913 192.186 15.6913Z" fill="#FCEE1F"/>
<path d="M192.462 15.8485L192.429 15.8253L192.338 15.7975L192.462 15.8485Z" fill="#FCEE1F"/>
<path d="M190.625 15.3208L190.478 15.3116C190.459 15.3347 190.492 15.3579 190.549 15.3579C190.587 15.3486 190.644 15.3486 190.625 15.3208Z" fill="#FCEE1F"/>
<path d="M191.009 15.6173C190.976 15.5941 190.976 15.5756 190.962 15.5478L190.938 15.6358L191.009 15.6173Z" fill="#FCEE1F"/>
<path d="M190.59 15.5478C190.571 15.5709 190.371 15.5756 190.547 15.608C190.571 15.5848 190.718 15.5941 190.59 15.5478Z" fill="#FCEE1F"/>
<path d="M188.462 15.0383L188.5 15.0429L188.52 14.8901L188.462 15.0383Z" fill="#FCEE1F"/>
<path d="M186.509 15.1445C186.676 15.2001 186.561 15.0566 186.709 15.1168C186.752 15.0843 186.59 15.0658 186.633 15.038C186.523 15.0658 186.471 15.038 186.509 15.1445Z" fill="#FCEE1F"/>
<path d="M186.631 15.0382C186.65 15.0336 186.665 15.029 186.688 15.0197C186.655 15.029 186.641 15.0336 186.631 15.0382Z" fill="#FCEE1F"/>
<path d="M165.086 16.9555L164.967 16.974L165.057 16.9879L165.086 16.9555Z" fill="#FCEE1F"/>
<path d="M164.943 17.1501L164.876 17.076L164.852 17.1825C164.871 17.1686 164.914 17.1362 164.943 17.1501Z" fill="#FCEE1F"/>
<path d="M179.812 14.9502L179.821 14.927C179.802 14.9039 179.778 14.8992 179.726 14.8992L179.812 14.9502Z" fill="#FCEE1F"/>
<path d="M178.317 14.9269H178.346L178.294 14.8436L178.317 14.9269Z" fill="#FCEE1F"/>
<path d="M177.079 15.1169C177.132 15.1169 177.189 15.0937 177.241 15.0937C177.132 15.1169 177.056 15.0057 177.079 15.1169Z" fill="#FCEE1F"/>
<path d="M187.794 5.57178L187.1 6.09513L187.599 6.82226L186.666 6.41933L185.972 6.94267L186.091 6.16923L185.158 5.76167L186.167 5.6922L186.29 4.91412L186.79 5.64588L187.794 5.57178Z" fill="#FCEE1F"/>
<path d="M183.243 5.79413L183.063 6.47957L183.867 6.78988L182.948 6.90566L182.767 7.59111L182.382 6.97513L181.463 7.09092L182.144 6.59536L181.754 5.97938L182.563 6.28969L183.243 5.79413Z" fill="#FCEE1F"/>
<path d="M179.589 7.26703L179.408 7.81353L180.093 7.97563L179.293 8.15162L179.113 8.69813L178.803 8.26278L178.004 8.43877L178.613 7.98953L178.304 7.55417L178.984 7.71164L179.589 7.26703Z" fill="#FCEE1F"/>
<path d="M176.285 9.11493L176.223 9.60122L176.809 9.64291L176.18 9.90227L176.114 10.3886L175.79 10.0644L175.162 10.3284L175.59 9.86058L175.267 9.53639L175.857 9.57344L176.285 9.11493Z" fill="#FCEE1F"/>
<path d="M173.74 11.2173L173.754 11.6805L174.321 11.5832L173.764 11.9676L173.778 12.4354L173.416 12.2085L172.859 12.5929L173.197 12.0649L172.836 11.838L173.407 11.7407L173.74 11.2173Z" fill="#FCEE1F"/>
<path d="M171.569 13.6211L171.793 13.899L172.255 13.6211L171.931 14.075L172.155 14.3529H171.731L171.407 14.8021L171.469 14.3529H171.046L171.507 14.075L171.569 13.6211Z" fill="#FCEE1F"/>
<path d="M170.275 16.0989L170.589 16.2425L170.88 15.8905L170.789 16.3305L171.103 16.4787L170.732 16.6084L170.637 17.0484L170.499 16.6871L170.123 16.8122L170.413 16.4602L170.275 16.0989Z" fill="#FCEE1F"/>
<path d="M192.484 6.4192L191.451 6.59519L191.508 7.59094L190.813 6.70634L189.78 6.88234L190.385 6.15984L189.69 5.27524L190.756 5.7106L191.36 4.9881L191.418 5.97922L192.484 6.4192Z" fill="#FCEE1F"/>
<path d="M206.632 4.3721H204.914C204.41 4.3721 204.11 4.21 204.11 3.71907V0.694774C204.11 0.203847 204.41 0.041748 204.914 0.041748H206.632C206.704 0.041748 206.761 0.0834306 206.761 0.139007V0.185321C206.761 0.245529 206.708 0.277949 206.632 0.277949H204.914C204.595 0.277949 204.4 0.328894 204.4 0.690143V1.97304H206.632C206.704 1.97304 206.761 2.01009 206.761 2.06567V2.12587C206.761 2.18608 206.708 2.22313 206.632 2.22313H204.4V3.71444C204.4 4.07569 204.595 4.12664 204.914 4.12664H206.632C206.704 4.12664 206.761 4.16369 206.761 4.21926V4.26558C206.756 4.33042 206.704 4.3721 206.632 4.3721Z" fill="#6E6F71"/>
<path d="M210.008 4.37228H209.956C209.884 4.37228 209.837 4.32133 209.837 4.25649V4.16386C209.489 4.30744 209.109 4.40007 208.761 4.40007C208.123 4.40007 207.59 4.08976 207.59 3.28853V1.35261C207.59 1.2924 207.643 1.24146 207.719 1.24146H207.766C207.833 1.24146 207.885 1.2924 207.885 1.35261V3.28853C207.885 3.94619 208.28 4.17313 208.771 4.17313C208.775 4.17313 208.775 4.17313 208.785 4.17313C209.123 4.17313 209.504 4.0666 209.837 3.93229V1.35261C209.837 1.2924 209.899 1.24146 209.965 1.24146H210.003C210.07 1.24146 210.132 1.2924 210.132 1.35261V4.25649C210.127 4.32133 210.079 4.37228 210.008 4.37228Z" fill="#6E6F71"/>
<path d="M212.277 1.44056C212.025 1.44056 211.744 1.49151 211.354 1.70918V4.26108C211.354 4.32129 211.292 4.37223 211.226 4.37223H211.188C211.121 4.37223 211.059 4.32129 211.059 4.26108V1.3572C211.059 1.29236 211.107 1.24141 211.178 1.24141H211.23C211.302 1.24141 211.349 1.29236 211.349 1.3572V1.48224C211.687 1.28773 211.949 1.21362 212.273 1.21362C212.377 1.21362 212.454 1.23215 212.454 1.30162V1.34793C212.458 1.42204 212.382 1.44056 212.277 1.44056Z" fill="#6E6F71"/>
<path d="M214.22 4.40928C213.306 4.40928 212.849 3.8952 212.849 3.01523V2.60767C212.849 1.72771 213.311 1.21362 214.22 1.21362C215.129 1.21362 215.591 1.72771 215.591 2.60767V3.01523C215.591 3.8952 215.134 4.40928 214.22 4.40928ZM215.3 2.60767C215.3 1.88981 215 1.44056 214.22 1.44056C213.439 1.44056 213.139 1.88981 213.139 2.60767V3.01523C213.139 3.7331 213.439 4.18234 214.22 4.18234C215 4.18234 215.3 3.7331 215.3 3.01523V2.60767Z" fill="#6E6F71"/>
<path d="M217.642 4.40928C217.38 4.40928 216.985 4.37223 216.718 4.32129V5.4004C216.718 5.46061 216.671 5.51155 216.604 5.51155H216.538C216.471 5.51155 216.423 5.46061 216.423 5.4004V1.43593C216.423 1.36646 216.442 1.3433 216.523 1.32478C216.818 1.27383 217.261 1.21362 217.642 1.21362C218.56 1.21362 218.946 1.79255 218.946 2.63083V3.01523C218.946 3.93688 218.508 4.40928 217.642 4.40928ZM218.655 2.63083C218.655 1.88054 218.389 1.44056 217.642 1.44056C217.323 1.44056 216.956 1.48224 216.718 1.51466V4.10361C216.971 4.14993 217.385 4.17771 217.642 4.17771C218.375 4.17771 218.655 3.77941 218.655 3.0106V2.63083Z" fill="#6E6F71"/>
<path d="M222.22 2.86703H219.969V2.98745C219.969 3.96467 220.507 4.17771 221.173 4.17771C221.468 4.17771 221.83 4.13603 222.159 4.08045C222.173 4.08045 222.187 4.07582 222.197 4.07582C222.249 4.07582 222.297 4.09898 222.297 4.15919V4.20087C222.297 4.26571 222.268 4.2935 222.168 4.31202C221.849 4.37223 221.468 4.40928 221.169 4.40928C220.345 4.40928 219.669 4.09435 219.669 2.99208V2.60767C219.669 1.80181 220.136 1.21362 221.016 1.21362C221.935 1.21362 222.339 1.77402 222.339 2.60304V2.76051C222.349 2.82072 222.287 2.86703 222.22 2.86703ZM222.054 2.59841C222.054 1.86202 221.773 1.43593 221.021 1.43593C220.283 1.43593 219.969 1.90833 219.969 2.60304V2.63083H222.054V2.59841Z" fill="#6E6F71"/>
<path d="M225.362 4.37223H225.329C225.258 4.37223 225.196 4.32129 225.196 4.25645V4.10824C224.867 4.26571 224.477 4.40465 224.063 4.40465C223.563 4.40465 223.044 4.19624 223.044 3.46448V3.39501C223.044 2.79293 223.478 2.49652 224.686 2.49652H225.2V2.28347C225.2 1.67676 225.005 1.43593 224.363 1.43593C223.925 1.43593 223.73 1.45909 223.416 1.48688C223.411 1.48688 223.401 1.48688 223.387 1.48688C223.325 1.48688 223.259 1.46372 223.259 1.39888V1.37109C223.259 1.30625 223.311 1.27846 223.411 1.26457C223.692 1.23678 223.915 1.21362 224.358 1.21362C225.258 1.21362 225.491 1.65824 225.491 2.28811V4.25645C225.496 4.32129 225.438 4.37223 225.362 4.37223ZM225.205 2.72346H224.691C223.687 2.72346 223.34 2.89945 223.34 3.39501V3.46911C223.34 4.01098 223.668 4.18235 224.063 4.18235C224.434 4.18235 224.753 4.09435 225.2 3.88594V2.72346H225.205Z" fill="#6E6F71"/>
<path d="M228.841 4.3721H228.794C228.727 4.3721 228.675 4.32116 228.675 4.26095V2.32503C228.675 1.65811 228.275 1.44043 227.775 1.44043C227.437 1.44043 227.056 1.53769 226.723 1.68126V4.26095C226.723 4.32116 226.661 4.3721 226.595 4.3721H226.557C226.49 4.3721 226.428 4.32116 226.428 4.26095V1.35707C226.428 1.29223 226.476 1.24128 226.547 1.24128H226.6C226.671 1.24128 226.719 1.29223 226.719 1.35707V1.44969C227.066 1.30612 227.442 1.20886 227.789 1.20886C228.427 1.20886 228.96 1.5099 228.96 2.3204V4.26095C228.965 4.32116 228.913 4.3721 228.841 4.3721Z" fill="#6E6F71"/>
<path d="M207.047 10.4809C206.714 10.5411 206.281 10.5782 205.596 10.5782C204.877 10.5782 203.811 10.166 203.811 8.79047V7.95219C203.811 6.57204 204.825 6.15521 205.615 6.15521C206.253 6.15521 206.828 6.22468 207.047 6.26173C207.133 6.28026 207.176 6.30805 207.176 6.38215V6.77119C207.176 6.85455 207.147 6.8916 207.043 6.8916C207.038 6.8916 207.028 6.8916 207.024 6.8916C206.719 6.86845 206.257 6.84529 205.62 6.84529C205.172 6.84529 204.749 7.11854 204.749 7.94756V8.78584C204.749 9.61486 205.21 9.88348 205.601 9.88348C205.848 9.88348 206.053 9.87885 206.257 9.86496V8.37828C206.257 8.31344 206.31 8.2625 206.386 8.2625H207.043C207.114 8.2625 207.176 8.31344 207.176 8.37828V10.3374C207.171 10.4161 207.133 10.4624 207.047 10.4809Z" fill="#6E6F71"/>
<path d="M208.383 10.5319H208.317C208.25 10.5319 208.203 10.481 208.203 10.4208V6.30811C208.203 6.24791 208.25 6.19696 208.317 6.19696H208.383C208.45 6.19696 208.498 6.24791 208.498 6.30811V10.4208C208.493 10.481 208.45 10.5319 208.383 10.5319Z" fill="#6E6F71"/>
<path d="M210.763 10.5689C209.849 10.5689 209.392 10.0548 209.392 9.17484V8.76728C209.392 7.88731 209.849 7.37323 210.763 7.37323C211.677 7.37323 212.133 7.88731 212.133 8.76728V9.17484C212.138 10.0548 211.677 10.5689 210.763 10.5689ZM211.843 8.76728C211.843 8.04941 211.543 7.60017 210.763 7.60017C209.982 7.60017 209.682 8.04941 209.682 8.76728V9.17484C209.682 9.89271 209.982 10.342 210.763 10.342C211.543 10.342 211.843 9.89271 211.843 9.17484V8.76728Z" fill="#6E6F71"/>
<path d="M214.185 10.5688C213.804 10.5688 213.361 10.5085 213.066 10.4576C212.985 10.4391 212.966 10.4159 212.966 10.3465V6.31251C212.966 6.2523 213.014 6.20135 213.081 6.20135H213.147C213.214 6.20135 213.261 6.2523 213.261 6.31251V7.46109C213.528 7.41015 213.928 7.3731 214.185 7.3731C215.051 7.3731 215.489 7.8455 215.489 8.76715V9.15155C215.489 9.98983 215.103 10.5688 214.185 10.5688ZM215.198 8.76715C215.198 7.99834 214.918 7.60004 214.185 7.60004C213.923 7.60004 213.514 7.62782 213.261 7.67414V10.2631C213.499 10.3001 213.866 10.3372 214.185 10.3372C214.932 10.3372 215.198 9.90184 215.198 9.14692V8.76715Z" fill="#6E6F71"/>
<path d="M218.507 10.5317H218.473C218.402 10.5317 218.34 10.4808 218.34 10.4159V10.2724C218.012 10.4298 217.622 10.5688 217.207 10.5688C216.708 10.5688 216.189 10.3603 216.189 9.62859V9.55449C216.189 8.95241 216.622 8.656 217.831 8.656H218.345V8.44758C218.345 7.84087 218.15 7.60004 217.507 7.60004C217.069 7.60004 216.874 7.6232 216.56 7.65098C216.555 7.65098 216.546 7.65098 216.532 7.65098C216.47 7.65098 216.403 7.62783 216.403 7.56299V7.52594C216.403 7.4611 216.455 7.43331 216.555 7.41941C216.836 7.39163 217.06 7.36847 217.503 7.36847C218.402 7.36847 218.635 7.81308 218.635 8.44295V10.4113C218.64 10.4808 218.578 10.5317 218.507 10.5317ZM218.345 8.88293H217.831C216.827 8.88293 216.479 9.05893 216.479 9.55449V9.62859C216.479 10.1705 216.808 10.3418 217.203 10.3418C217.574 10.3418 217.893 10.2538 218.34 10.0454V8.88293H218.345Z" fill="#6E6F71"/>
<path d="M219.821 10.5319H219.754C219.688 10.5319 219.64 10.481 219.64 10.4208V6.30811C219.64 6.24791 219.688 6.19696 219.754 6.19696H219.821C219.888 6.19696 219.935 6.24791 219.935 6.30811V10.4208C219.93 10.481 219.888 10.5319 219.821 10.5319Z" fill="#6E6F71"/>
<path d="M225.4 10.569H225.395C225.295 10.569 225.234 10.569 225.176 10.5273C225.138 10.4995 225.091 10.4532 225.057 10.393L222.816 6.45627C222.802 6.43312 222.787 6.41459 222.763 6.41459C222.749 6.41459 222.73 6.42849 222.73 6.45627V10.4207C222.73 10.481 222.683 10.5319 222.616 10.5319H222.549C222.483 10.5319 222.435 10.481 222.435 10.4207V6.45627C222.435 6.28028 222.568 6.16913 222.763 6.16913C222.949 6.16913 223.025 6.2386 223.082 6.34975L225.319 10.2772C225.334 10.3003 225.348 10.3189 225.372 10.3189C225.4 10.3189 225.405 10.2911 225.405 10.2679V6.30807C225.405 6.24786 225.443 6.19692 225.51 6.19692H225.591C225.662 6.19692 225.705 6.24786 225.705 6.30807V10.2679C225.7 10.4578 225.567 10.569 225.4 10.569Z" fill="#6E6F71"/>
<path d="M228.878 10.5317H228.845C228.773 10.5317 228.711 10.4808 228.711 10.4159V10.2724C228.383 10.4298 227.993 10.5688 227.579 10.5688C227.079 10.5688 226.56 10.3603 226.56 9.62859V9.55449C226.56 8.95241 226.993 8.656 228.202 8.656H228.716V8.44758C228.716 7.84087 228.521 7.60004 227.878 7.60004C227.441 7.60004 227.245 7.6232 226.931 7.65098C226.927 7.65098 226.917 7.65098 226.903 7.65098C226.841 7.65098 226.774 7.62783 226.774 7.56299V7.52594C226.774 7.4611 226.827 7.43331 226.927 7.41941C227.207 7.39163 227.431 7.36847 227.874 7.36847C228.773 7.36847 229.006 7.81308 229.006 8.44295V10.4113C229.011 10.4808 228.954 10.5317 228.878 10.5317ZM228.721 8.88293H228.207C227.203 8.88293 226.855 9.05893 226.855 9.55449V9.62859C226.855 10.1705 227.184 10.3418 227.579 10.3418C227.95 10.3418 228.269 10.2538 228.716 10.0454V8.88293H228.721Z" fill="#6E6F71"/>
<path d="M232.304 7.54464L231.433 10.1984C231.334 10.5087 231.172 10.5643 230.981 10.5643C230.796 10.5643 230.615 10.5041 230.515 10.1984L229.644 7.54464C229.639 7.52611 229.639 7.50758 229.639 7.49832C229.639 7.43811 229.677 7.40106 229.744 7.40106H229.81C229.858 7.40106 229.906 7.42422 229.929 7.50758L230.781 10.1382C230.843 10.3142 230.91 10.3466 230.981 10.3466C231.053 10.3466 231.11 10.3096 231.167 10.1382L232.019 7.50758C232.047 7.42422 232.09 7.40106 232.138 7.40106H232.219C232.285 7.40106 232.314 7.43811 232.314 7.48906C232.314 7.50758 232.314 7.53074 232.304 7.54464Z" fill="#6E6F71"/>
<path d="M233.272 6.82215H233.233C233.167 6.82215 233.105 6.77584 233.105 6.711V6.28028C233.105 6.22007 233.167 6.16913 233.233 6.16913H233.272C233.338 6.16913 233.4 6.22007 233.4 6.28028V6.711C233.4 6.77584 233.338 6.82215 233.272 6.82215ZM233.272 10.5319H233.233C233.167 10.5319 233.105 10.481 233.105 10.4207V7.51223C233.105 7.45202 233.167 7.40108 233.233 7.40108H233.272C233.338 7.40108 233.4 7.45202 233.4 7.51223V10.4207C233.4 10.481 233.338 10.5319 233.272 10.5319Z" fill="#6E6F71"/>
<path d="M237.059 7.65103H236.711C236.844 7.74366 237.078 7.94744 237.078 8.37352V8.41984C237.078 8.97561 236.744 9.36927 235.697 9.36927C235.35 9.36927 235.131 9.32296 234.883 9.23496C234.745 9.28591 234.655 9.36927 234.655 9.48506C234.655 9.55916 234.693 9.62863 234.85 9.66568L236.05 9.93894C236.763 10.101 237.116 10.2539 237.116 10.7263V10.7772C237.116 11.3006 236.754 11.6803 235.702 11.6803C234.679 11.6803 234.289 11.3052 234.289 10.7772V10.7263C234.289 10.3187 234.569 10.0038 234.788 9.88799L234.741 9.8741C234.493 9.80926 234.389 9.65642 234.389 9.48506C234.389 9.34612 234.474 9.18865 234.669 9.10992C234.45 8.95245 234.322 8.72551 234.322 8.41521V8.36889C234.322 7.91965 234.555 7.3963 235.693 7.3963H237.049C237.116 7.3963 237.178 7.43335 237.178 7.48893V7.55377C237.182 7.62324 237.125 7.65103 237.059 7.65103ZM236.825 10.7309C236.825 10.4021 236.687 10.3233 235.988 10.1659L235.069 9.95746C234.774 10.1288 234.584 10.3419 234.584 10.7309V10.7818C234.584 11.2033 234.855 11.4719 235.707 11.4719C236.592 11.4719 236.825 11.2172 236.825 10.7818V10.7309ZM236.792 8.37352C236.792 7.95207 236.564 7.62324 235.702 7.62324C234.784 7.62324 234.622 8.00301 234.622 8.37352V8.41984C234.622 8.71162 234.788 9.14697 235.702 9.14697C236.583 9.14697 236.792 8.82277 236.792 8.41984V8.37352Z" fill="#6E6F71"/>
<path d="M240.134 10.5317H240.1C240.029 10.5317 239.967 10.4808 239.967 10.4159V10.2724C239.639 10.4298 239.248 10.5688 238.834 10.5688C238.335 10.5688 237.816 10.3603 237.816 9.62859V9.55449C237.816 8.95241 238.249 8.656 239.458 8.656H239.972V8.44758C239.972 7.84087 239.777 7.60004 239.134 7.60004C238.696 7.60004 238.501 7.6232 238.187 7.65098C238.182 7.65098 238.173 7.65098 238.159 7.65098C238.097 7.65098 238.03 7.62783 238.03 7.56299V7.52594C238.03 7.4611 238.082 7.43331 238.182 7.41941C238.463 7.39163 238.687 7.36847 239.13 7.36847C240.029 7.36847 240.262 7.81308 240.262 8.44295V10.4113C240.267 10.4808 240.205 10.5317 240.134 10.5317ZM239.977 8.88293H239.463C238.458 8.88293 238.111 9.05893 238.111 9.55449V9.62859C238.111 10.1705 238.439 10.3418 238.834 10.3418C239.206 10.3418 239.525 10.2538 239.972 10.0454V8.88293H239.977Z" fill="#6E6F71"/>
<path d="M242.75 10.5503C242.65 10.5642 242.517 10.5688 242.403 10.5688C241.932 10.5688 241.651 10.4391 241.651 9.93892V7.64175H240.994C240.923 7.64175 240.865 7.6047 240.865 7.54912V7.48891C240.865 7.42871 240.918 7.40092 240.994 7.40092H241.651V6.79884C241.651 6.73863 241.689 6.68768 241.765 6.68768H241.836C241.903 6.68768 241.941 6.73863 241.941 6.79884V7.40092H242.731C242.803 7.40092 242.86 7.42871 242.86 7.48891V7.54912C242.86 7.60933 242.807 7.64175 242.731 7.64175H241.941V9.93892C241.941 10.2909 242.108 10.3419 242.403 10.3419H242.722C242.822 10.3419 242.86 10.3696 242.86 10.4252V10.4623C242.86 10.504 242.841 10.5364 242.75 10.5503Z" fill="#6E6F71"/>
<path d="M243.827 6.82215H243.789C243.722 6.82215 243.66 6.77584 243.66 6.711V6.28028C243.66 6.22007 243.722 6.16913 243.789 6.16913H243.827C243.894 6.16913 243.955 6.22007 243.955 6.28028V6.711C243.955 6.77584 243.894 6.82215 243.827 6.82215ZM243.827 10.5319H243.789C243.722 10.5319 243.66 10.481 243.66 10.4207V7.51223C243.66 7.45202 243.722 7.40108 243.789 7.40108H243.827C243.894 7.40108 243.955 7.45202 243.955 7.51223V10.4207C243.955 10.481 243.894 10.5319 243.827 10.5319Z" fill="#6E6F71"/>
<path d="M246.226 10.5689C245.313 10.5689 244.856 10.0548 244.856 9.17484V8.76728C244.856 7.88731 245.317 7.37323 246.226 7.37323C247.14 7.37323 247.597 7.88731 247.597 8.76728V9.17484C247.597 10.0548 247.135 10.5689 246.226 10.5689ZM247.302 8.76728C247.302 8.04941 247.002 7.60017 246.222 7.60017C245.441 7.60017 245.141 8.04941 245.141 8.76728V9.17484C245.141 9.89271 245.441 10.342 246.222 10.342C247.002 10.342 247.302 9.89271 247.302 9.17484V8.76728Z" fill="#6E6F71"/>
<path d="M250.837 10.5318H250.789C250.723 10.5318 250.67 10.4809 250.67 10.4207V8.48476C250.67 7.81784 250.271 7.60017 249.771 7.60017C249.433 7.60017 249.052 7.69743 248.719 7.841V10.4253C248.719 10.4855 248.657 10.5365 248.591 10.5365H248.553C248.486 10.5365 248.424 10.4855 248.424 10.4253V7.52143C248.424 7.45659 248.472 7.40565 248.543 7.40565H248.595C248.667 7.40565 248.714 7.45659 248.714 7.52143V7.61406C249.062 7.47049 249.438 7.37323 249.785 7.37323C250.423 7.37323 250.956 7.67427 250.956 8.48476V10.4207C250.966 10.4809 250.908 10.5318 250.837 10.5318Z" fill="#6E6F71"/>
<path d="M205.451 16.738C204.952 16.738 204.595 16.6963 204.271 16.6315C204.204 16.6176 204.142 16.5805 204.142 16.5157V16.0942C204.142 16.0294 204.204 15.9831 204.271 15.9831C204.276 15.9831 204.276 15.9831 204.285 15.9831C204.552 16.0109 205.218 16.0433 205.466 16.0433C206.056 16.0433 206.237 15.858 206.237 15.5199C206.237 15.293 206.108 15.1772 205.67 14.9503L204.79 14.4918C204.171 14.1722 204.004 13.8341 204.004 13.4265C204.004 12.7874 204.433 12.3196 205.67 12.3196C206.108 12.3196 206.722 12.3798 206.95 12.4262C207.017 12.4401 207.069 12.4771 207.069 12.5373V12.968C207.069 13.0282 207.022 13.0746 206.955 13.0746C206.95 13.0746 206.95 13.0746 206.941 13.0746C206.503 13.0375 206.06 13.0144 205.627 13.0144C205.137 13.0144 204.928 13.1672 204.928 13.4265C204.928 13.6211 205.042 13.7368 205.475 13.9453L206.275 14.3343C207.008 14.6909 207.198 15.0614 207.198 15.5246C207.203 16.1081 206.784 16.738 205.451 16.738Z" fill="#6E6F71"/>
<path d="M210.154 16.6917H210.121C210.05 16.6917 209.988 16.6408 209.988 16.5759V16.4324C209.659 16.5898 209.269 16.7288 208.855 16.7288C208.355 16.7288 207.836 16.5204 207.836 15.7886V15.7145C207.836 15.1124 208.27 14.816 209.478 14.816H209.992V14.6076C209.992 14.0009 209.797 13.76 209.155 13.76C208.717 13.76 208.522 13.7832 208.208 13.811C208.203 13.811 208.193 13.811 208.179 13.811C208.117 13.811 208.051 13.7878 208.051 13.723V13.6859C208.051 13.6211 208.103 13.5933 208.203 13.5794C208.484 13.5516 208.707 13.5285 209.15 13.5285C210.05 13.5285 210.283 13.9731 210.283 14.603V16.5759C210.288 16.6361 210.226 16.6917 210.154 16.6917ZM209.992 15.0429H209.478C208.474 15.0429 208.127 15.2189 208.127 15.7145V15.7886C208.127 16.3305 208.455 16.5018 208.85 16.5018C209.221 16.5018 209.54 16.4138 209.988 16.2054V15.0429H209.992Z" fill="#6E6F71"/>
<path d="M212.768 16.7103C212.668 16.7242 212.535 16.7288 212.421 16.7288C211.949 16.7288 211.669 16.5991 211.669 16.099V13.8018H211.012C210.94 13.8018 210.883 13.7647 210.883 13.7092V13.6489C210.883 13.5887 210.936 13.561 211.012 13.561H211.669V12.9589C211.669 12.8987 211.707 12.8477 211.783 12.8477H211.854C211.921 12.8477 211.959 12.8987 211.959 12.9589V13.561H212.749C212.82 13.561 212.877 13.5887 212.877 13.6489V13.7092C212.877 13.7694 212.825 13.8018 212.749 13.8018H211.959V16.099C211.959 16.4509 212.125 16.5019 212.421 16.5019H212.739C212.839 16.5019 212.877 16.5297 212.877 16.5853V16.6223C212.882 16.664 212.863 16.6964 212.768 16.7103Z" fill="#6E6F71"/>
<path d="M215.889 15.1863H213.638V15.3067C213.638 16.2885 214.176 16.497 214.842 16.497C215.137 16.497 215.499 16.4553 215.828 16.3997C215.842 16.3997 215.856 16.3951 215.866 16.3951C215.918 16.3951 215.966 16.4182 215.966 16.4784V16.5201C215.966 16.585 215.937 16.6127 215.837 16.6313C215.518 16.6915 215.137 16.7285 214.838 16.7285C214.014 16.7285 213.338 16.4136 213.338 15.3113V14.9269C213.338 14.1211 213.805 13.5329 214.685 13.5329C215.604 13.5329 216.008 14.0933 216.008 14.9223V15.0798C216.018 15.14 215.956 15.1863 215.889 15.1863ZM215.723 14.9177C215.723 14.1813 215.442 13.7552 214.69 13.7552C213.952 13.7552 213.638 14.2276 213.638 14.9223V14.9501H215.723V14.9177Z" fill="#6E6F71"/>
<path d="M217.093 16.6916H217.027C216.96 16.6916 216.913 16.6407 216.913 16.5805V12.4678C216.913 12.4076 216.96 12.3566 217.027 12.3566H217.093C217.16 12.3566 217.208 12.4076 217.208 12.4678V16.5805C217.208 16.636 217.16 16.6916 217.093 16.6916Z" fill="#6E6F71"/>
<path d="M218.456 16.6916H218.389C218.322 16.6916 218.275 16.6407 218.275 16.5805V12.4678C218.275 12.4076 218.322 12.3566 218.389 12.3566H218.456C218.522 12.3566 218.57 12.4076 218.57 12.4678V16.5805C218.565 16.636 218.522 16.6916 218.456 16.6916Z" fill="#6E6F71"/>
<path d="M219.798 12.9818H219.76C219.693 12.9818 219.631 12.9355 219.631 12.8707V12.4399C219.631 12.3797 219.693 12.3288 219.76 12.3288H219.798C219.865 12.3288 219.926 12.3797 219.926 12.4399V12.8707C219.926 12.9355 219.865 12.9818 219.798 12.9818ZM219.798 16.6916H219.76C219.693 16.6916 219.631 16.6406 219.631 16.5804V13.6719C219.631 13.6117 219.693 13.5607 219.76 13.5607H219.798C219.865 13.5607 219.926 13.6117 219.926 13.6719V16.5804C219.926 16.636 219.865 16.6916 219.798 16.6916Z" fill="#6E6F71"/>
<path d="M222.606 16.7103C222.506 16.7242 222.373 16.7288 222.258 16.7288C221.787 16.7288 221.506 16.5991 221.506 16.099V13.8018H220.85C220.778 13.8018 220.721 13.7647 220.721 13.7092V13.6489C220.721 13.5887 220.774 13.561 220.85 13.561H221.506V12.9589C221.506 12.8987 221.545 12.8477 221.621 12.8477H221.692C221.759 12.8477 221.797 12.8987 221.797 12.9589V13.561H222.587C222.658 13.561 222.715 13.5887 222.715 13.6489V13.7092C222.715 13.7694 222.663 13.8018 222.587 13.8018H221.797V16.099C221.797 16.4509 221.963 16.5019 222.258 16.5019H222.577C222.677 16.5019 222.715 16.5297 222.715 16.5853V16.6223C222.72 16.664 222.701 16.6964 222.606 16.7103Z" fill="#6E6F71"/>
<path d="M225.727 15.1863H223.476V15.3067C223.476 16.2885 224.014 16.497 224.68 16.497C224.975 16.497 225.337 16.4553 225.665 16.3997C225.68 16.3997 225.694 16.3951 225.704 16.3951C225.756 16.3951 225.803 16.4182 225.803 16.4784V16.5201C225.803 16.585 225.775 16.6127 225.675 16.6313C225.356 16.6915 224.975 16.7285 224.675 16.7285C223.852 16.7285 223.176 16.4136 223.176 15.3113V14.9269C223.176 14.1211 223.643 13.5329 224.523 13.5329C225.442 13.5329 225.846 14.0933 225.846 14.9223V15.0798C225.856 15.14 225.794 15.1863 225.727 15.1863ZM225.561 14.9177C225.561 14.1813 225.28 13.7552 224.528 13.7552C223.79 13.7552 223.476 14.2276 223.476 14.9223V14.9501H225.561V14.9177Z" fill="#6E6F71"/>
<path d="M229.269 16.724C228.836 16.724 228.503 16.6823 228.236 16.6591C228.174 16.6545 228.117 16.6221 228.117 16.5665V16.4924C228.117 16.4322 228.179 16.4183 228.246 16.4183C228.25 16.4183 228.265 16.4183 228.274 16.4183C228.622 16.4415 228.907 16.4832 229.274 16.4832C230.278 16.4832 230.511 16.0941 230.511 15.6125C230.511 15.1817 230.226 15.0289 229.488 14.626L229.069 14.399C228.465 14.0748 228.022 13.7923 228.022 13.2736C228.022 12.5094 228.803 12.3288 229.578 12.3288C229.93 12.3288 230.283 12.3658 230.568 12.389C230.635 12.3936 230.682 12.4261 230.682 12.477V12.5511C230.682 12.6113 230.63 12.6345 230.554 12.6345C230.406 12.6345 229.907 12.5743 229.569 12.5743C228.688 12.5743 228.317 12.7966 228.317 13.2782C228.317 13.6395 228.622 13.8572 229.217 14.1721L229.645 14.399C230.383 14.7881 230.816 15.0752 230.816 15.6125C230.816 16.1451 230.554 16.724 229.269 16.724Z" fill="#6E6F71"/>
<path d="M234.015 13.7043L232.925 17.0157C232.72 17.641 232.463 17.8262 231.845 17.8262C231.692 17.8262 231.55 17.8077 231.431 17.7892C231.35 17.7753 231.297 17.7614 231.297 17.7058V17.6456C231.297 17.5854 231.335 17.5622 231.397 17.5622C231.412 17.5622 231.426 17.5622 231.435 17.5622C231.535 17.5761 231.764 17.5993 231.868 17.5993C232.349 17.5993 232.501 17.4696 232.659 16.9648L232.744 16.6915H232.649C232.444 16.6915 232.335 16.6452 232.244 16.3627L231.345 13.6996C231.34 13.6857 231.34 13.6719 231.34 13.658C231.34 13.5978 231.378 13.5607 231.454 13.5607H231.516C231.564 13.5607 231.611 13.6024 231.621 13.6441L232.521 16.3256C232.559 16.4461 232.62 16.4553 232.673 16.4553H232.825L233.739 13.6394C233.753 13.5978 233.806 13.5653 233.858 13.5653H233.92C233.986 13.5653 234.02 13.607 234.02 13.6626C234.024 13.6719 234.024 13.6904 234.015 13.7043Z" fill="#6E6F71"/>
<path d="M235.727 16.7241C235.428 16.7241 235.004 16.6825 234.761 16.6408C234.666 16.6222 234.614 16.5991 234.614 16.5481V16.4879C234.614 16.4277 234.661 16.4046 234.718 16.4046C234.733 16.4046 234.747 16.4046 234.757 16.4046C235.075 16.4509 235.461 16.4972 235.737 16.4972C236.218 16.4972 236.584 16.386 236.584 15.9136C236.584 15.6728 236.437 15.5478 235.88 15.2791L235.451 15.0754C234.952 14.8345 234.647 14.6446 234.647 14.2463C234.647 13.7045 235.137 13.5285 235.666 13.5285C236.146 13.5285 236.389 13.5563 236.617 13.5794C236.713 13.5933 236.756 13.6257 236.756 13.6767V13.723C236.756 13.7925 236.703 13.8156 236.637 13.8156C236.632 13.8156 236.622 13.8156 236.617 13.8156C236.446 13.7971 236.061 13.7508 235.694 13.7508C235.266 13.7508 234.942 13.8249 234.942 14.2417C234.942 14.4964 235.18 14.6493 235.589 14.8484L236.037 15.0661C236.589 15.3347 236.884 15.5246 236.884 15.9136C236.879 16.5389 236.346 16.7241 235.727 16.7241Z" fill="#6E6F71"/>
<path d="M239.252 16.7103C239.152 16.7242 239.019 16.7288 238.905 16.7288C238.434 16.7288 238.153 16.5991 238.153 16.099V13.8018H237.496C237.425 13.8018 237.368 13.7647 237.368 13.7092V13.6489C237.368 13.5887 237.42 13.561 237.496 13.561H238.153V12.9589C238.153 12.8987 238.191 12.8477 238.267 12.8477H238.339C238.405 12.8477 238.443 12.8987 238.443 12.9589V13.561H239.233C239.305 13.561 239.362 13.5887 239.362 13.6489V13.7092C239.362 13.7694 239.31 13.8018 239.233 13.8018H238.443V16.099C238.443 16.4509 238.61 16.5019 238.905 16.5019H239.224C239.324 16.5019 239.362 16.5297 239.362 16.5853V16.6223C239.367 16.664 239.348 16.6964 239.252 16.7103Z" fill="#6E6F71"/>
<path d="M242.376 15.1863H240.125V15.3067C240.125 16.2885 240.663 16.497 241.329 16.497C241.624 16.497 241.986 16.4553 242.315 16.3997C242.329 16.3997 242.343 16.3951 242.353 16.3951C242.405 16.3951 242.453 16.4182 242.453 16.4784V16.5201C242.453 16.585 242.424 16.6127 242.324 16.6313C242.005 16.6915 241.624 16.7285 241.325 16.7285C240.501 16.7285 239.825 16.4136 239.825 15.3113V14.9269C239.825 14.1211 240.292 13.5329 241.172 13.5329C242.091 13.5329 242.495 14.0933 242.495 14.9223V15.0798C242.5 15.14 242.443 15.1863 242.376 15.1863ZM242.21 14.9177C242.21 14.1813 241.929 13.7552 241.177 13.7552C240.439 13.7552 240.125 14.2276 240.125 14.9223V14.9501H242.21V14.9177Z" fill="#6E6F71"/>
<path d="M247.253 16.6917H247.186C247.115 16.6917 247.072 16.6408 247.072 16.5806V14.4918C247.072 13.936 246.777 13.7554 246.292 13.7554C245.996 13.7554 245.668 13.8388 245.392 13.9546C245.454 14.0889 245.492 14.2556 245.492 14.4686V16.5806C245.492 16.6408 245.463 16.6917 245.392 16.6917H245.292C245.225 16.6917 245.197 16.6408 245.197 16.5806V14.4686C245.197 13.9268 244.926 13.7554 244.573 13.7554C244.278 13.7554 243.926 13.8712 243.621 14.0009V16.5759C243.621 16.6361 243.588 16.6871 243.522 16.6871H243.426C243.36 16.6871 243.326 16.6361 243.326 16.5759V13.672C243.326 13.6072 243.374 13.5563 243.445 13.5563H243.498C243.569 13.5563 243.617 13.6072 243.617 13.672V13.7786C243.888 13.6628 244.274 13.5285 244.63 13.5285C244.868 13.5285 245.097 13.5933 245.264 13.7693C245.597 13.6304 245.982 13.5285 246.334 13.5285C246.891 13.5285 247.358 13.7971 247.358 14.4918V16.5806C247.367 16.6361 247.324 16.6917 247.253 16.6917Z" fill="#6E6F71"/>
<path d="M249.277 16.7241C248.977 16.7241 248.554 16.6825 248.311 16.6408C248.216 16.6222 248.163 16.5991 248.163 16.5481V16.4879C248.163 16.4277 248.211 16.4046 248.268 16.4046C248.282 16.4046 248.297 16.4046 248.306 16.4046C248.625 16.4509 249.011 16.4972 249.287 16.4972C249.767 16.4972 250.134 16.386 250.134 15.9136C250.134 15.6728 249.986 15.5478 249.429 15.2791L249.001 15.0754C248.501 14.8345 248.197 14.6446 248.197 14.2463C248.197 13.7045 248.692 13.5285 249.215 13.5285C249.696 13.5285 249.939 13.5563 250.167 13.5794C250.262 13.5933 250.305 13.6257 250.305 13.6767V13.723C250.305 13.7925 250.253 13.8156 250.186 13.8156C250.181 13.8156 250.172 13.8156 250.167 13.8156C249.996 13.7971 249.61 13.7508 249.244 13.7508C248.815 13.7508 248.492 13.8249 248.492 14.2417C248.492 14.4964 248.73 14.6493 249.139 14.8484L249.586 15.0661C250.138 15.3347 250.434 15.5246 250.434 15.9136C250.429 16.5389 249.896 16.7241 249.277 16.7241Z" fill="#6E6F71"/>
<path d="M207.632 22.8513H206.928C206.866 22.8513 206.813 22.805 206.799 22.7541L206.495 21.6472H204.962L204.657 22.7541C204.643 22.805 204.591 22.8513 204.529 22.8513H203.825C203.758 22.8513 203.706 22.8096 203.706 22.7541C203.706 22.7494 203.71 22.7355 203.71 22.7263L204.8 19.0721C204.962 18.5302 205.438 18.4793 205.724 18.4793C206.009 18.4793 206.49 18.5302 206.647 19.0721L207.737 22.7263C207.737 22.7402 207.742 22.7494 207.742 22.7541C207.751 22.8096 207.699 22.8513 207.632 22.8513ZM205.833 19.2481C205.814 19.1786 205.795 19.1555 205.728 19.1555C205.662 19.1555 205.643 19.1786 205.624 19.2481L205.143 20.9802H206.314L205.833 19.2481Z" fill="#6E6F71"/>
<path d="M211.008 19.9707H210.66C210.794 20.0633 211.027 20.2671 211.027 20.6932V20.7395C211.027 21.2953 210.694 21.6889 209.647 21.6889C209.299 21.6889 209.08 21.6426 208.833 21.5546C208.695 21.6056 208.604 21.6889 208.604 21.8047C208.604 21.8788 208.642 21.9483 208.799 21.9854L209.999 22.2586C210.713 22.4207 211.065 22.5735 211.065 23.0459V23.0969C211.065 23.6202 210.703 24 209.651 24C208.628 24 208.238 23.6249 208.238 23.0969V23.0459C208.238 22.6384 208.519 22.3234 208.738 22.2077L208.69 22.1938C208.442 22.1289 208.338 21.9761 208.338 21.8047C208.338 21.6658 208.423 21.5083 208.619 21.4296C208.4 21.2721 208.271 21.0452 208.271 20.7349V20.6886C208.271 20.2393 208.504 19.716 209.642 19.716H210.998C211.065 19.716 211.127 19.753 211.127 19.8086V19.8734C211.132 19.9429 211.074 19.9707 211.008 19.9707ZM210.775 23.0506C210.775 22.7264 210.637 22.643 209.937 22.4855L209.018 22.2771C208.723 22.4439 208.533 22.6615 208.533 23.0506V23.1015C208.533 23.523 208.804 23.7916 209.656 23.7916C210.541 23.7916 210.775 23.5369 210.775 23.1015V23.0506ZM210.741 20.6932C210.741 20.2717 210.513 19.9429 209.651 19.9429C208.733 19.9429 208.571 20.3227 208.571 20.6932V20.7395C208.571 21.0313 208.738 21.4666 209.651 21.4666C210.532 21.4666 210.741 21.1378 210.741 20.7395V20.6932Z" fill="#6E6F71"/>
<path d="M214.337 21.3463H212.085V21.4667C212.085 22.4439 212.623 22.657 213.29 22.657C213.585 22.657 213.946 22.6153 214.275 22.5597C214.289 22.5597 214.303 22.5551 214.313 22.5551C214.365 22.5551 214.413 22.5783 214.413 22.6385V22.6802C214.413 22.745 214.384 22.7728 214.284 22.7913C213.965 22.8515 213.585 22.8886 213.285 22.8886C212.461 22.8886 211.786 22.5736 211.786 21.4714V21.087C211.786 20.2811 212.252 19.6929 213.133 19.6929C214.051 19.6929 214.456 20.2533 214.456 21.0823V21.2398C214.465 21.3 214.403 21.3463 214.337 21.3463ZM214.175 21.0777C214.175 20.3413 213.894 19.9152 213.142 19.9152C212.404 19.9152 212.09 20.3876 212.09 21.0823V21.1101H214.175V21.0777Z" fill="#6E6F71"/>
<path d="M217.708 22.8515H217.661C217.594 22.8515 217.542 22.8006 217.542 22.7404V20.8044C217.542 20.1421 217.142 19.9198 216.642 19.9198C216.304 19.9198 215.924 20.0171 215.59 20.1607V22.745C215.59 22.8052 215.529 22.8561 215.462 22.8561H215.424C215.357 22.8561 215.295 22.8052 215.295 22.745V19.8411C215.295 19.7763 215.343 19.7253 215.414 19.7253H215.467C215.538 19.7253 215.586 19.7763 215.586 19.8411V19.9337C215.933 19.7902 216.309 19.6929 216.657 19.6929C217.294 19.6929 217.827 19.9939 217.827 20.8044V22.7404C217.837 22.7959 217.785 22.8515 217.708 22.8515Z" fill="#6E6F71"/>
<path d="M220.793 22.8329C220.512 22.8606 220.203 22.8838 219.989 22.8838C219.037 22.8838 218.67 22.2354 218.67 21.4712V21.0822C218.67 20.3087 219.037 19.6881 219.989 19.6881C220.203 19.6881 220.512 19.7113 220.793 19.7391C220.893 19.753 220.922 19.7808 220.922 19.8456V19.8873C220.922 19.9475 220.874 19.9707 220.817 19.9707C220.803 19.9707 220.798 19.9707 220.784 19.9707C220.469 19.9336 220.212 19.9197 219.994 19.9197C219.237 19.9197 218.97 20.3782 218.97 21.0868V21.4759C218.97 22.1798 219.237 22.6615 219.994 22.6615C220.212 22.6615 220.474 22.643 220.784 22.6105C220.798 22.6105 220.803 22.6105 220.817 22.6105C220.879 22.6105 220.922 22.6337 220.922 22.6939V22.7356C220.917 22.7912 220.893 22.819 220.793 22.8329Z" fill="#6E6F71"/>
<path d="M224.18 19.8639L223.09 23.1754C222.885 23.8006 222.628 23.9859 222.01 23.9859C221.857 23.9859 221.715 23.9674 221.596 23.9488C221.515 23.9349 221.462 23.921 221.462 23.8655V23.8053C221.462 23.745 221.5 23.7219 221.562 23.7219C221.577 23.7219 221.591 23.7219 221.6 23.7219C221.7 23.7358 221.929 23.7589 222.034 23.7589C222.514 23.7589 222.667 23.6293 222.824 23.1244L222.909 22.8512H222.814C222.609 22.8512 222.5 22.8049 222.41 22.5224L221.51 19.8593C221.505 19.8454 221.505 19.8315 221.505 19.8176C221.505 19.7574 221.543 19.7204 221.619 19.7204H221.681C221.729 19.7204 221.777 19.762 221.786 19.8037L222.686 22.4853C222.724 22.6057 222.786 22.615 222.838 22.615H222.99L223.904 19.7991C223.918 19.7574 223.971 19.725 224.023 19.725H224.085C224.151 19.725 224.185 19.7667 224.185 19.8223C224.185 19.8315 224.185 19.8454 224.18 19.8639Z" fill="#6E6F71"/>
<defs>
<clipPath id="clip0">
<rect width="147.13" height="23.9999" fill="white"/>
</clipPath>
</defs>
</svg>
