<svg width="24" height="24" viewBox="0 0 24 24" fill="none" xmlns="http://www.w3.org/2000/svg">
<g clip-path="url(#clip0)">
<path d="M14 19L16.95 21.95C17.2717 22.2783 17.655 22.5401 18.0778 22.7203C18.5007 22.9005 18.955 22.9957 19.4146 23.0003C19.8743 23.005 20.3304 22.919 20.7568 22.7474C21.1833 22.5757 21.5717 22.3218 21.9 22L21.951 21.949C22.6137 21.2992 22.9911 20.4127 23.0003 19.4846C23.0095 18.5566 22.6497 17.6628 22 17L21.949 16.949L20 15" stroke="#2D3142" stroke-width="2" stroke-miterlimit="10" stroke-linecap="square"/>
<path d="M11.4911 8.866L4.20313 1.578L1.66113 4.12L8.77913 11.238" stroke="#2D3142" stroke-width="2" stroke-miterlimit="10"/>
<path d="M22.6781 4.92199L19.6001 7.98699L16.0001 4.41099L19.0801 1.34499C18.3697 1.03704 17.5881 0.930823 16.8211 1.03799C15.3982 1.16021 14.0753 1.82009 13.1217 2.8833C12.1681 3.94651 11.6554 5.33315 11.6881 6.76099C11.6821 7.32263 11.7882 7.87984 12.0001 8.39999L2.14515 17.083C1.4685 17.6865 1.05929 18.5341 1.00753 19.4393C0.955775 20.3446 1.2657 21.2333 1.86915 21.91C1.89215 21.937 1.91615 21.962 1.94015 21.988C2.23866 22.2998 2.59567 22.5497 2.99079 22.7234C3.38591 22.8972 3.81139 22.9914 4.24293 23.0007C4.67447 23.01 5.10361 22.9342 5.50584 22.7776C5.90807 22.6209 6.2755 22.3866 6.58715 22.088C6.68708 21.9941 6.78094 21.8938 6.86815 21.788L15.5941 11.978C16.5267 12.2519 17.5076 12.3201 18.4691 12.178C19.4823 11.9686 20.4192 11.4867 21.1788 10.7843C21.9385 10.082 22.4921 9.18568 22.7801 8.19199C23.1071 7.12048 23.0712 5.97104 22.6781 4.92199V4.92199Z" stroke="#2D3142" stroke-width="2" stroke-miterlimit="10" stroke-linecap="square"/>
</g>
<defs>
<clipPath id="clip0">
<rect width="24" height="24" fill="white"/>
</clipPath>
</defs>
</svg>
