<svg width="161" height="44" viewBox="0 0 161 44" fill="none" xmlns="http://www.w3.org/2000/svg">
<path d="M66.6159 0H0V43.9915H66.6159V0Z" fill="#2D368F"/>
<path d="M63.3356 31.7754C63.4141 31.8263 63.4403 31.7075 63.4578 31.699C63.3095 31.6481 63.3269 31.8009 63.3356 31.7754Z" fill="#FCEE1F"/>
<path d="M61.8524 31.3679L61.8961 31.334L61.6431 31.351L61.8524 31.3679Z" fill="#FCEE1F"/>
<path d="M60.5613 30.8162C60.6049 31.0454 61.0411 30.9775 61.2505 31.1472L61.2679 31.2067L61.4337 31.1048C61.1458 31.0029 60.7358 30.9435 60.5613 30.8162Z" fill="#FCEE1F"/>
<path d="M60.0206 30.137C60.038 30.2219 59.8461 30.137 60.1776 30.2219C60.1689 30.2049 60.1601 30.2049 60.1514 30.188C60.1252 30.188 60.0816 30.171 60.0206 30.137Z" fill="#FCEE1F"/>
<path d="M60.1514 30.1964C60.2997 30.2474 60.0903 30.1031 60.1514 30.1964V30.1964Z" fill="#FCEE1F"/>
<path d="M59.4971 29.9927L59.7065 30.0012C59.6803 29.9417 59.5233 29.8738 59.5931 29.8653C59.3924 29.8229 59.4099 29.8823 59.4971 29.9927Z" fill="#FCEE1F"/>
<path d="M59.2703 30.0606L59.3749 30.0691C59.3662 30.0436 59.3401 30.0266 59.2703 30.0606Z" fill="#FCEE1F"/>
<path d="M59.593 30.0861L59.3662 30.0691C59.3837 30.1115 59.3575 30.171 59.4709 30.0861C59.436 30.1285 59.4971 30.0946 59.593 30.0861Z" fill="#FCEE1F"/>
<path d="M59.6978 30.154C59.785 30.2304 59.9071 30.3068 59.6978 30.2983C60.0642 30.4172 60.0642 30.2644 59.6978 30.154Z" fill="#FCEE1F"/>
<path d="M60.4131 30.9774L60.5265 31.0878L60.6661 31.0708C60.5963 31.0793 60.4305 30.9095 60.4131 30.9774Z" fill="#FCEE1F"/>
<path d="M58.3717 29.4749C58.3455 29.5088 58.3978 29.6022 58.3891 29.6531H58.5461C58.4851 29.6107 58.3629 29.5428 58.3717 29.4749Z" fill="#FCEE1F"/>
<path d="M58.3977 29.6616H58.1709C58.3454 29.7295 58.389 29.7041 58.3977 29.6616Z" fill="#FCEE1F"/>
<path d="M59.1569 30.2559L59.5408 30.2389L59.0872 30.2304L59.1569 30.2559Z" fill="#FCEE1F"/>
<path d="M57.5866 29.2032L57.7349 29.1522L57.4819 29.2201L57.5866 29.2032Z" fill="#FCEE1F"/>
<path d="M57.0631 29.0504C57.1765 28.9994 56.9845 28.8806 57.0979 28.8636C56.9496 28.8296 56.8101 28.8551 56.6792 28.8806C56.8013 28.8891 56.9235 28.94 57.0631 29.0504Z" fill="#FCEE1F"/>
<path d="M56.4612 28.9145C56.5222 28.9145 56.592 28.8975 56.6706 28.889C56.6008 28.8806 56.531 28.889 56.4612 28.9145Z" fill="#FCEE1F"/>
<path d="M57.8221 29.5173C57.8134 29.4918 57.8046 29.4154 57.7 29.3475L57.7436 29.4833L57.8221 29.5173Z" fill="#FCEE1F"/>
<path d="M57.7436 29.4918L57.5691 29.4239L57.7436 29.4918Z" fill="#FCEE1F"/>
<path d="M57.8494 29.5266L57.8308 29.5173C57.8308 29.5359 57.8308 29.5359 57.8494 29.5266Z" fill="#FCEE1F"/>
<path d="M58.6597 29.9587C58.5201 29.9757 58.2409 29.9587 58.4503 30.137C58.5637 30.0861 58.4503 29.9842 58.6597 29.9587Z" fill="#FCEE1F"/>
<path d="M57.8918 29.6956L58.1012 29.7974C58.1099 29.7635 58.0838 29.7125 58.1536 29.6956H57.8918Z" fill="#FCEE1F"/>
<path d="M57.7783 29.6956H57.8917L57.8132 29.6616L57.7783 29.6956Z" fill="#FCEE1F"/>
<path d="M56.8015 29.1353C56.6881 29.1523 56.5834 29.1268 56.47 29.0928C56.5921 29.1523 56.7142 29.2032 56.8364 29.2456C56.8625 29.2202 56.9411 29.1777 56.8015 29.1353Z" fill="#FCEE1F"/>
<path d="M57.2563 29.322H57.2288C57.2471 29.3313 57.2563 29.3406 57.2563 29.322Z" fill="#FCEE1F"/>
<path d="M55.3096 28.7532L55.3183 28.7787L55.3357 28.7617L55.3096 28.7532Z" fill="#FCEE1F"/>
<path d="M56.8449 29.2796C56.9322 29.3305 56.9932 29.322 57.063 29.305C56.9932 29.2965 56.9147 29.2796 56.8275 29.2541C56.8188 29.2626 56.8188 29.2796 56.8449 29.2796Z" fill="#FCEE1F"/>
<path d="M56.1208 28.8721C56.1645 28.9145 56.2168 28.9485 56.2692 28.9825C56.2255 28.9315 56.147 28.8466 56.1208 28.8721Z" fill="#FCEE1F"/>
<path d="M57.2113 29.2796C57.22 29.2796 57.22 29.2796 57.2287 29.2796C57.2025 29.2456 57.2025 29.2541 57.2113 29.2796Z" fill="#FCEE1F"/>
<path d="M57.2113 29.2796C57.1589 29.2796 57.1066 29.2966 57.063 29.3051C57.1241 29.3136 57.1764 29.322 57.2287 29.322C57.2287 29.3051 57.22 29.2881 57.2113 29.2796Z" fill="#FCEE1F"/>
<path d="M54.7426 29.3815C54.7862 29.2796 55.0653 29.2541 55.2486 29.4324C55.4841 29.4154 55.4492 29.0334 55.3183 28.7872C55.3009 28.8297 55.2834 28.8721 55.0479 28.8721C55.109 28.9485 55.4928 29.1438 55.2747 29.1862C54.9694 29.1608 55.0479 29.0844 54.9258 28.9825C55.0043 29.1438 54.507 29.0674 54.5157 29.2796H54.7862C54.7862 29.3136 54.6815 29.3305 54.7426 29.3815Z" fill="#FCEE1F"/>
<path d="M55.737 28.9146L55.833 28.9315C55.737 28.8806 55.6759 28.8212 55.5625 28.7023C55.3968 28.7108 55.3531 28.7363 55.3357 28.7702L55.7719 28.9146H55.737Z" fill="#FCEE1F"/>
<path d="M56.2255 29.0419C56.1208 29.1353 55.894 29.1183 55.9812 29.2796C56.243 29.3475 56.1906 29.2371 56.3651 29.2371C55.9376 29.1353 56.5047 29.2117 56.2255 29.0504C56.3128 29.0589 56.3913 29.0758 56.4611 29.0928C56.3913 29.0589 56.3215 29.0164 56.2604 28.974L56.2691 28.9825C56.2866 28.9994 56.2866 29.0164 56.2691 28.9994H56.2604C56.2517 29.0249 56.243 29.0334 56.2255 29.0419C56.1121 28.9825 56.2168 29.0079 56.2604 29.0079C56.2604 28.9994 56.2691 28.9994 56.2691 28.991L55.8242 28.923C55.9115 28.9655 56.0249 28.9994 56.2255 29.0419Z" fill="#FCEE1F"/>
<path d="M58.1448 30.2983C58.1361 30.2813 58.1361 30.2728 58.1448 30.2643C58.11 30.2728 58.0925 30.2813 58.1448 30.2983Z" fill="#FCEE1F"/>
<path d="M57.9966 30.171C58.0315 30.1625 58.0751 30.1285 58.1711 30.1795C58.2409 30.2389 58.1536 30.2304 58.1449 30.2729C58.2147 30.2644 58.3805 30.2644 58.2147 30.1455L58.1798 30.154C58.0228 30.0606 57.857 29.8399 57.8919 29.8399C57.9006 29.9503 57.9181 30.0352 57.9966 30.171Z" fill="#FCEE1F"/>
<path d="M57.0978 29.6277L56.7314 29.5682L56.8797 29.721L56.8885 29.6616C57.0804 29.7465 57.0542 29.6616 57.0978 29.6277Z" fill="#FCEE1F"/>
<path d="M55.2834 28.6853L55.3706 28.575L55.1089 28.6938L55.2834 28.6853Z" fill="#FCEE1F"/>
<path d="M54.8211 28.5665L54.8647 28.4731L54.7251 28.4986L54.8211 28.5665Z" fill="#FCEE1F"/>
<path d="M28.091 27.1743L27.9863 27.2082C28.0299 27.1997 28.0648 27.1827 28.091 27.1743Z" fill="#FCEE1F"/>
<path d="M28.8586 27.1488L28.8761 27.0978C28.8412 27.1233 28.8237 27.1488 28.8586 27.1488Z" fill="#FCEE1F"/>
<path d="M43.2618 26.3678C43.1135 26.2489 42.9565 26.0706 42.9652 26.198L43.0001 26.3168C43.1135 26.3083 43.192 26.3338 43.2618 26.3678Z" fill="#FCEE1F"/>
<path d="M35.2097 26.4951L35.2533 26.5291L35.358 26.4187L35.2097 26.4951Z" fill="#FCEE1F"/>
<path d="M35.0788 26.9875L34.8782 26.9026C34.9218 26.9281 34.9916 26.962 35.0788 26.9875Z" fill="#FCEE1F"/>
<path d="M23.8947 27.5902L23.7812 27.726C23.9732 27.7006 23.8859 27.6496 23.8947 27.5902Z" fill="#FCEE1F"/>
<path d="M50.0315 27.4714C49.9094 27.395 49.8047 27.361 49.7087 27.3356C49.857 27.429 49.9705 27.5563 50.0315 27.4714Z" fill="#FCEE1F"/>
<path d="M28.3351 25.8923C28.2741 25.9178 28.2392 25.9433 28.2479 25.9687C28.3177 25.9433 28.3526 25.9178 28.3351 25.8923Z" fill="#FCEE1F"/>
<path d="M49.325 27.2591C49.3424 27.2761 49.3686 27.2846 49.386 27.3016C49.4907 27.3016 49.5867 27.3016 49.7088 27.3355C49.6041 27.2591 49.4733 27.1997 49.325 27.2591Z" fill="#FCEE1F"/>
<path d="M8.96038 30.4257C8.95143 30.4257 8.93352 30.4257 8.92456 30.4257C8.92456 30.4345 8.94247 30.4345 8.96038 30.4257Z" fill="#FCEE1F"/>
<path d="M4.33569 30.9011C4.37059 30.8756 4.44038 30.8501 4.50145 30.8162C4.46655 30.8162 4.41421 30.8416 4.33569 30.9011Z" fill="#FCEE1F"/>
<path d="M52.9629 28.0318C53.0689 28.0495 52.9806 28.0229 52.9629 28.0318V28.0318Z" fill="#FCEE1F"/>
<path d="M53.3204 28.6089C53.2942 28.6174 53.2768 28.6259 53.2681 28.6514C53.2855 28.6259 53.303 28.6174 53.3204 28.6089Z" fill="#FCEE1F"/>
<path d="M48.1909 27.8024C48.2086 27.8285 48.2086 27.8285 48.1909 27.8024V27.8024Z" fill="#FCEE1F"/>
<path d="M53.1024 28.1166C53.0675 28.0911 53.0326 28.0741 52.989 28.0486C52.9977 28.0656 53.0326 28.0911 53.1024 28.1166Z" fill="#FCEE1F"/>
<path d="M53.0938 28.0571L53.181 28.0911C53.1897 28.0741 53.1897 28.0571 53.0938 28.0571Z" fill="#FCEE1F"/>
<path d="M52.8232 27.9977C52.8843 28.0062 52.9279 28.0316 52.9803 28.0486C52.9628 28.0316 52.9541 28.0316 52.9628 28.0231L52.8232 27.9977Z" fill="#FCEE1F"/>
<path d="M16.8023 28.1335C16.7936 28.1335 16.7848 28.1336 16.7761 28.1251C16.6889 28.193 16.7325 28.176 16.8023 28.1335Z" fill="#FCEE1F"/>
<path d="M40.5232 27.3371C40.5325 27.3371 40.5325 27.3371 40.5325 27.3278L40.5139 27.3185L40.5232 27.3371Z" fill="#FCEE1F"/>
<path d="M40.156 27.395C40.3218 27.2592 40.409 27.2846 40.5224 27.3271L40.4352 26.9705L40.156 27.395Z" fill="#FCEE1F"/>
<path d="M26.2416 27.3101L26.5033 27.4035C26.2154 27.5987 25.9886 27.5563 26.2328 27.6921C26.2416 27.3186 27.2012 27.5902 27.2186 27.2167L27.3931 27.2846C27.3495 27.2846 27.3408 27.3101 27.2884 27.3016C27.6199 27.4629 27.5153 27.0214 27.934 27.0469C28.0823 27.0724 28.187 27.1148 28.091 27.1658L28.4138 27.0554C28.5098 27.0554 28.4923 27.1233 28.3964 27.1233L28.8849 27.0724V27.0809C28.9547 27.0214 29.1117 26.9196 29.1903 26.8856C29.3211 26.9365 29.1292 26.9281 29.1641 26.9705L29.4345 26.8686C29.5479 26.962 29.3211 27.0639 29.1379 27.0554C29.4084 27.4204 29.3647 26.9535 29.9231 27.1573L29.6701 27.2082C29.8445 27.4119 30.0452 27.3355 30.3331 27.4629C30.2633 27.395 29.7399 27.1403 30.0365 27.0469C30.1237 27.0724 30.2284 27.0809 30.3942 27.0045C30.3942 27.1403 30.5512 27.1063 30.7518 27.0893L30.7431 27.2676C30.9525 27.2167 30.935 27.1233 31.0572 27.0384C31.2927 27.0554 31.3451 27.1912 31.3974 27.3016C31.7725 27.327 31.1357 27.0809 31.5806 27.0469C31.8947 27.1148 32.1128 27.0384 32.4879 26.9365C32.706 26.996 32.453 27.0469 32.5315 27.0978L32.7234 26.962C32.7671 26.962 32.7583 27.0045 32.7496 27.0299C32.9154 26.979 32.7671 26.8516 33.0201 26.8092C33.0898 26.6139 33.5522 27.0978 33.875 26.8856C33.9535 26.9365 33.8314 26.996 33.8576 27.0639C34.3025 26.9281 34.2327 26.962 34.5991 26.7752L34.9044 26.9026C34.6863 26.7668 34.9742 26.6139 35.2359 26.4951C35.1574 26.4272 35.0876 26.3678 35.044 26.3423L35.454 26.2574C35.5064 26.2914 35.4628 26.3508 35.393 26.4187C35.4191 26.4017 35.4453 26.3932 35.4715 26.3762C35.6111 26.4442 35.5325 26.546 35.4279 26.6394C35.3842 26.6055 35.3319 26.563 35.2883 26.5291C35.1836 26.6309 35.0876 26.7498 35.1051 26.8516C35.1312 26.8347 35.1836 26.8177 35.2359 26.8092C35.2098 26.8347 35.1923 26.8601 35.201 26.8771C35.2185 26.8941 35.2534 26.8601 35.3232 26.8177L35.4104 27.0214L35.4366 26.945L35.96 27.0893C36.3439 26.9026 36.6841 26.6309 37.2948 26.58C37.1377 26.7158 37.2512 26.8092 37.2337 26.9875C37.0767 26.8007 36.7626 27.0384 36.4573 26.9875C36.6143 27.0129 36.5794 27.0978 36.5358 27.1233L37.0941 26.9875C37.0767 27.1233 37.2075 27.0978 37.3471 27.1658C37.2512 26.8856 37.7659 27.0045 38.0014 26.9365C38.0101 27.0299 37.9491 27.1233 37.6786 27.0809C37.9665 27.3101 38.0887 26.7752 38.3765 26.979C38.3068 26.979 38.2719 26.962 38.2457 27.0045C38.4114 26.9281 38.7866 27.0214 38.6906 27.0978H38.6208C39.0657 27.1573 39.973 27.1997 40.0603 26.9705C40.0603 27.0045 39.9817 27.2506 39.9469 27.2931L40.8105 26.5715C40.7233 26.7668 40.9414 27.2676 40.5662 27.3525C40.6709 27.3865 40.7931 27.4374 41.0286 27.3865C40.9588 27.3525 40.8803 27.0809 40.9763 27.0724C41.2293 27.3186 41.1508 27.2082 41.4648 27.4289C41.3601 27.378 41.5172 27.0724 41.6829 27.0978C41.648 27.1403 41.6655 27.4119 41.5957 27.4374L42.0493 27.1742C41.9359 27.2167 42.0057 27.4374 42.0842 27.5308C42.0493 27.4629 42.4506 27.5732 42.564 27.5563L42.3895 27.4629C42.8606 27.5647 42.913 27.0809 43.3841 27.1573C43.3143 27.2167 43.1922 27.5308 43.4277 27.5987C43.5586 27.4544 44.0122 26.9026 44.4571 26.8347L44.5269 26.9365L44.8671 26.8771C44.6316 27.0893 43.9948 27.5138 43.672 27.6666C43.8377 27.76 43.7069 27.777 43.9773 27.8024C44.0645 27.8958 43.8116 27.9128 43.733 27.9043L44.3437 28.0401C44.3437 27.8534 44.841 27.9213 44.841 27.76L44.1431 27.8619C44.1431 27.6751 44.6054 27.3865 45.0416 27.4883C45.1463 27.5732 44.9108 27.8024 44.9108 27.8619C44.9806 27.8109 45.347 27.8024 45.3819 27.8534L45.1812 27.9213C45.4168 28.0232 45.6174 27.7345 45.8878 27.9553C45.9838 27.9807 46.1496 28.2354 46.1845 28.1335C46.0536 27.8958 46.1234 27.2506 46.2542 27.1063C46.2891 27.1233 46.7602 27.3865 46.8562 27.5138C46.9958 27.7006 46.5421 27.8619 46.6555 28.0232C46.673 27.9722 46.769 27.9298 46.8126 27.9128C46.9085 27.9722 46.7428 28.0571 46.9783 28.0741C47.0481 27.8958 47.4494 28.1675 47.1179 27.9383C47.3535 27.9213 47.3535 28.0147 47.6152 28.0571C47.5541 27.9213 47.9292 27.6921 48.1648 27.6751C48.1386 27.7176 48.1822 27.794 48.1997 27.8194C48.6621 27.9213 48.8976 28.0486 49.3251 28.1335C49.36 28.1845 49.5519 28.2778 49.4472 28.3458C49.517 28.3288 49.5868 28.2778 49.7176 28.2948C49.9445 28.5071 49.4123 28.2609 49.5693 28.4901C49.6042 28.3882 49.9445 28.4137 50.1451 28.3797C50.1189 28.2014 49.7176 28.2609 49.5083 28.2863C49.5519 28.0571 49.9357 27.8873 50.4068 27.8704C50.782 27.8873 50.529 28.0486 50.5988 28.0317C51.2618 28.2184 51.2618 27.76 51.7852 28.0486C51.9684 28.2439 51.7241 28.3373 51.7503 28.4561C51.445 28.4391 51.3228 28.2609 51.1222 28.2269L51.349 28.3458C51.2443 28.3712 51.0437 28.3627 50.9477 28.3033C51.1048 28.4731 52.0731 28.5835 52.5616 28.8297C52.6663 28.8042 52.8321 28.7957 52.7797 28.7193L52.614 28.7023C52.4919 28.5495 52.9629 28.6174 52.771 28.5155C53.0153 28.4901 53.2945 28.4222 53.5823 28.5665L53.5998 28.7448C53.6085 28.6938 53.4253 28.592 53.3206 28.6259C53.4689 28.5835 53.7307 28.9655 53.9313 28.7957L53.7481 28.6259C53.9924 28.6004 54.3152 28.4986 54.5681 28.6259C54.4896 28.4307 54.4984 28.6259 54.3588 28.3882C54.4635 28.6684 53.6609 28.193 53.8615 28.5071C53.7219 28.2354 53.5387 28.3203 53.3293 28.0741C53.3206 28.1335 53.3991 28.2014 53.1723 28.1166C53.1549 28.1335 53.1287 28.142 53.1113 28.1505L53.0938 28.142L53.1025 28.1505C53.0938 28.159 53.0851 28.159 53.1025 28.1505C53.1549 28.1845 53.1898 28.2269 53.1985 28.2609C53.0502 28.3543 52.6838 28.2609 52.5442 28.2948C52.4133 28.2354 52.614 28.2439 52.5529 28.1675L52.3435 28.2184C52.3523 28.0911 52.0295 27.9298 52.3697 27.9383L52.0818 27.8619C51.9248 27.7515 51.698 27.6751 51.5409 27.6921C51.4101 27.6327 51.1571 27.7515 51.3054 27.6836L50.8256 27.6581V27.6242C50.3719 27.5138 49.8485 27.6327 49.3774 27.3101C49.2204 27.3101 49.0546 27.3186 48.8016 27.2337L48.7755 27.1233C48.5748 27.1233 48.1997 26.9111 48.095 27.0045C47.938 26.6819 47.1441 26.7752 46.8039 26.6734L46.769 26.8092C46.5334 26.7668 46.2979 26.7668 45.9925 26.7752V26.9026C45.7221 26.962 45.347 26.7158 44.9369 26.6734C44.9718 26.6309 45.0765 26.6564 45.1376 26.6988C44.6927 26.3508 44.0907 26.7583 43.672 26.5036C43.5586 26.5375 43.48 26.5121 43.4102 26.4696C43.419 26.4696 43.4277 26.4696 43.4364 26.4696C43.4277 26.4696 43.4103 26.4611 43.3928 26.4611C43.3492 26.4357 43.2968 26.4017 43.2445 26.3762C43.2881 26.4102 43.3317 26.4442 43.3666 26.4527C43.2794 26.4442 43.1485 26.4442 43.0177 26.4611L43.0002 26.3168C42.9915 26.3168 42.9828 26.3168 42.9741 26.3168C42.8519 26.2574 42.8694 26.3678 42.9217 26.4781C42.8519 26.4951 42.7909 26.5121 42.7472 26.5375C42.6687 26.3168 42.407 26.5715 42.2936 26.3338C42.1976 26.4357 41.648 26.3508 41.5608 26.58C41.5608 26.546 41.5259 26.5291 41.5957 26.5375C41.4561 26.4951 41.3165 26.4527 41.1856 26.5121L41.142 26.3423L40.8105 26.5375C40.636 26.4187 40.5575 26.3508 40.7582 26.2404C40.2958 26.4017 40.3918 26.2829 39.9905 26.4527L40.0166 26.3423C39.8771 26.3338 39.6502 26.4611 39.5804 26.3678C39.2926 26.1385 38.0799 26.2319 37.3035 26.0027C37.4344 26.3338 36.9458 25.8414 36.9022 26.0876C36.8586 26.0112 36.7539 25.9603 36.8848 25.9008C36.4835 25.9603 36.2915 25.7565 36.0036 25.9518C35.96 25.8754 36.0909 25.8414 36.056 25.799C36.0211 25.816 35.9251 25.8584 35.8902 25.816C35.8553 25.7735 35.9513 25.7565 36.0124 25.7226C35.6023 25.7226 35.55 25.9518 35.5151 26.1725C35.3144 26.0621 35.2098 26.0706 35.0527 26.215C34.9829 26.1385 34.8608 26.0621 35.1225 26.0452C34.9829 26.0282 34.2501 25.9178 34.2327 26.0961C34.1891 26.0537 34.032 26.0791 33.9971 26.0961C33.6744 26.0791 33.6482 26.0621 33.3341 26.0791L33.4214 26.1046C33.2992 26.3168 33.1596 26.147 32.9066 26.1725L32.9154 26.147C32.3309 25.9942 32.6624 26.215 32.0953 26.0452L32.1302 26.181C32.0779 26.4611 31.6242 26.0112 31.2927 26.1301L31.4061 26.1895C31.2229 26.2914 30.8914 25.8075 30.7082 25.7735C30.6646 25.748 30.7693 25.7311 30.8216 25.7141C30.3418 25.5528 30.7606 25.8924 30.4029 25.9348C30.3331 25.8414 30.4814 25.6971 30.2458 25.6801C30.1237 25.6037 29.5567 26.0027 29.2251 25.8329C29.3037 25.9008 29.3735 25.9688 29.2077 26.0282C28.9547 26.0621 28.5098 25.782 28.2917 26.0197C28.2568 26.0027 28.2481 25.9857 28.2393 25.9688C28.0474 26.0367 27.6112 26.0961 27.5065 26.2234C27.3059 25.7735 26.3201 26.5121 26.2939 26.0961L25.7007 26.1555L25.7094 26.1131C25.3256 26.1131 25.2034 26.2234 25.0726 26.3338C24.9853 26.3083 25.0464 26.2659 25.0464 26.2489C24.4881 26.2065 24.427 26.2319 23.9821 26.4781L23.921 26.3423C23.7989 26.4357 23.101 26.2065 22.5688 26.4187C22.5688 26.4017 22.5775 26.3762 22.6211 26.3508C22.0279 26.5715 21.1119 26.1385 20.9461 26.6649L20.5623 26.8347C21.0857 26.8092 20.5099 27.0554 20.7368 27.1148C20.5361 27.1658 20.1872 27.0384 20.4402 26.979L20.4838 26.996C20.5448 26.7243 19.8295 26.996 19.812 26.8177C18.7913 26.9705 17.7706 26.996 16.8197 27.1573L16.968 27.3355L16.6365 27.3865C16.5406 27.3525 16.4882 27.2506 16.7325 27.2167C16.5842 27.1233 16.3486 27.3865 16.3574 27.4289C15.8775 27.4374 16.4969 27.1658 16.3486 27.1827L16.1567 27.2337L16.2091 27.2506C16.0695 27.361 16.0695 27.4459 15.7816 27.4968C15.5897 27.4883 15.6682 27.395 15.5897 27.395C15.5897 27.378 15.5635 27.378 15.4762 27.4119L15.0575 27.4799L15.2581 27.5987C15.0924 27.7091 14.8656 27.6751 15.0924 27.8109C14.7522 27.5902 13.5221 28.0486 13.3302 28.0062C13.1033 28.176 12.8503 28.2354 12.5276 28.3033C12.6148 28.3203 12.702 28.4816 12.4316 28.524C12.4403 28.142 11.8994 28.4901 11.6115 28.2948C11.8558 28.4137 10.8613 28.541 11.2277 28.7023C10.9921 28.7363 11.1754 28.575 10.9834 28.5325C10.4862 28.8212 9.77952 28.7787 9.14268 29.0334C9.1514 29.0843 9.28226 29.1183 9.16012 29.2286L8.74138 29.1098C8.61924 29.1777 8.7152 29.4154 8.42731 29.3305C8.47093 29.356 8.54073 29.3984 8.46221 29.4409C7.79047 29.5428 7.15362 29.8144 6.51677 30.0776C5.87993 30.3407 5.24308 30.5954 4.52772 30.6718C4.73709 30.6803 4.62368 30.7397 4.50155 30.7992C4.59751 30.7822 4.54517 30.9095 4.59751 30.9605L3.99556 31.0284C3.97811 31.2321 3.44595 31.3 3.47213 31.4868L3.62043 31.3764C3.4983 31.6651 4.12642 31.6481 4.20494 31.9028C4.34452 31.5802 4.98136 31.9282 5.24308 31.4528C5.35649 31.4613 5.19946 31.5632 5.27798 31.5972C5.33032 31.4528 5.44373 31.3764 5.688 31.3255L5.67055 31.3849C6.29868 31.0963 6.61274 31.0963 7.363 30.8925L7.25831 30.7907C7.42406 30.7482 7.46768 30.7737 7.55492 30.7822C7.66833 30.5275 7.11 30.935 7.19724 30.6718C7.49385 30.8416 8.30518 30.2813 8.54945 30.519C8.79372 30.4426 8.42731 30.4002 8.67158 30.3238L8.75882 30.3832L8.785 30.2643C8.95075 30.2304 9.06416 30.2983 9.09033 30.3662C9.04671 30.3747 8.98565 30.4171 8.95075 30.4426C9.1863 30.4681 9.52653 30.2219 9.60504 30.2304L9.35205 30.2559C9.99762 29.9672 10.8438 29.8314 11.4458 29.5003L11.376 29.4579C11.8471 29.2117 11.7947 29.4154 12.3269 29.2202L12.3095 29.2371C12.4054 29.1522 12.545 29.0843 12.6933 29.0504C12.5712 29.1522 12.9899 29.1183 12.8242 29.2456C13.3389 28.9909 13.0684 29.0843 13.3738 28.7787L13.4785 28.8551C13.5832 28.7363 13.5744 28.6853 13.8536 28.6004C13.6442 28.7363 14.063 28.7108 13.8361 28.8806C14.4643 28.9655 14.6475 28.4646 14.9877 28.7278C15.1971 28.3967 14.4468 28.6853 14.5864 28.592C14.4381 28.5325 14.7609 28.3373 14.9528 28.3288C15.1447 28.2948 15.3454 28.6174 15.8165 28.5155C15.7729 28.524 15.7729 28.541 15.7205 28.5495C15.9124 28.5835 16.0433 28.3882 16.2876 28.4561C16.3748 28.2609 16.5667 28.4137 16.5667 28.193L16.148 28.3288C16.3835 28.2269 16.5667 27.9298 16.9942 27.9807C16.968 28.0317 16.8633 28.1081 16.7848 28.159C16.9157 28.2014 17.0029 28.0741 17.1425 28.1166C17.1512 28.3373 16.6278 28.2609 16.3923 28.4731C16.5318 28.541 16.8546 28.2269 16.7674 28.4816C16.8982 28.1505 17.2385 28.4307 17.5176 28.1505V28.2863C17.5613 28.2609 17.6572 28.176 17.7532 28.1675L17.6136 28.3627C17.8492 28.176 18.137 28.4052 18.3639 28.2863C17.8492 28.3712 18.2243 28.1505 17.9887 28.0911C18.5994 27.8109 18.4162 28.3627 19.1228 28.193C19.0269 28.2269 18.7477 28.176 18.8873 28.0911C19.0269 28.0996 19.2188 28.1166 19.3148 28.176C19.7859 28.0741 19.2188 28.0571 19.4107 27.9468C19.5939 28.0826 19.6376 27.8449 19.8382 27.7685L19.8557 27.8958C20.414 27.9043 19.9603 27.5987 20.4663 27.6327L20.2831 27.8449L20.5361 27.76L20.5012 27.9128C20.7629 27.76 20.8589 27.7855 21.1293 27.7855C21.0508 27.7006 21.1293 27.5393 21.3736 27.5053C21.5481 27.5647 21.2951 27.6412 21.6353 27.5817C21.5655 27.6751 21.4958 27.7855 21.33 27.6836C21.3213 27.726 21.2602 27.777 21.2515 27.8194C21.4434 27.8873 21.6964 27.7855 21.8273 27.7685C21.7749 27.7685 21.7226 27.7685 21.6877 27.7515L22.1588 27.5138C22.246 27.5563 22.1849 27.5987 22.1326 27.6496C22.2286 27.6242 22.2984 27.5563 22.4379 27.5308C22.4118 27.6412 22.4379 27.7515 22.2286 27.8279L22.6909 27.6581C22.7258 27.7006 22.9439 27.76 22.8916 27.8109C23.162 27.8449 23.511 27.5393 23.8687 27.5902C23.8861 27.5647 23.921 27.5478 23.9908 27.5223C24.3223 27.5138 24.6189 27.6242 25.0028 27.4459L25.2383 27.6242C25.5349 27.5563 24.9243 27.4035 25.4215 27.2931C25.7792 27.2082 25.5698 27.4459 25.7007 27.4968C25.8752 27.3865 26.1718 27.1658 26.512 27.3016C26.4335 27.3101 26.3463 27.2931 26.2416 27.3101ZM30.0103 27.0554C29.9405 27.0809 29.7922 27.1742 29.7399 27.0978C29.8184 26.945 29.8794 27.0129 30.0103 27.0554ZM35.7594 26.7668C35.707 26.8092 35.6198 26.7837 35.5238 26.7328C35.5936 26.7243 35.6721 26.7328 35.7594 26.7668ZM51.855 27.8789C51.855 27.8789 51.8463 27.8789 51.8463 27.8873C51.698 27.794 51.7503 27.8279 51.855 27.8789ZM52.1778 28.0062C52.2127 27.9977 52.2214 27.9807 52.204 27.9553C52.1691 27.9807 52.0993 27.9637 52.012 27.9383C52.0295 27.9807 52.0644 28.0147 52.1778 28.0062ZM15.5722 27.4544L15.642 27.4799C15.5024 27.5478 15.5373 27.5053 15.5722 27.4544Z" fill="#FCEE1F"/>
<path d="M35.0962 26.928C35.0787 26.9026 35.07 26.8771 35.07 26.8516C35.0438 26.8771 35.0351 26.9026 35.0962 26.928Z" fill="#FCEE1F"/>
<path d="M23.9122 27.5648H23.9035C23.8948 27.5732 23.8948 27.5817 23.8948 27.5902L23.9122 27.5648Z" fill="#FCEE1F"/>
<path d="M46.769 28.0911C46.6992 28.0572 46.673 28.0317 46.6468 28.0062C46.6381 28.0317 46.6643 28.0656 46.769 28.0911Z" fill="#FCEE1F"/>
<path d="M54.001 28.2354L53.7742 28.21C53.8789 28.2269 53.905 28.2694 53.9574 28.3033C53.9661 28.2694 53.9312 28.2184 54.001 28.2354Z" fill="#FCEE1F"/>
<path d="M55.6061 29.5343C55.641 29.5258 55.6672 29.5513 55.7108 29.5428L55.7196 29.4833C55.5887 29.4494 55.4753 29.4749 55.6061 29.5343Z" fill="#FCEE1F"/>
<path d="M54.0795 28.7108C54.0621 28.8211 54.2104 28.8211 54.3587 28.8381C54.35 28.8381 54.3412 28.8381 54.3325 28.8296C54.4285 28.6938 54.254 28.7023 54.0795 28.7108Z" fill="#FCEE1F"/>
<path d="M54.4023 28.8466C54.446 28.8551 54.4983 28.8636 54.5419 28.8806C54.5681 28.8296 54.4896 28.8551 54.4023 28.8466Z" fill="#FCEE1F"/>
<path d="M52.6138 28.0401C52.6749 28.0826 52.6923 27.9128 52.7185 27.9637C52.8406 27.8449 52.2038 28.0147 52.6138 28.0401Z" fill="#FCEE1F"/>
<path d="M54.1057 29.1013L54.0883 28.9485L53.9749 29.0334L54.1057 29.1013Z" fill="#FCEE1F"/>
<path d="M52.9541 28.6938L53.1809 28.7872C53.1809 28.7617 53.2158 28.7617 53.2594 28.7617C53.1199 28.7193 52.9628 28.6514 52.9541 28.6938Z" fill="#FCEE1F"/>
<path d="M53.2595 28.7617C53.338 28.7872 53.4078 28.7957 53.4602 28.7872C53.4166 28.7787 53.3293 28.7617 53.2595 28.7617Z" fill="#FCEE1F"/>
<path d="M53.7654 29.0504L53.7043 29.0079L53.5386 28.957L53.7654 29.0504Z" fill="#FCEE1F"/>
<path d="M50.398 28.0826L50.1275 28.0656C50.0926 28.1081 50.1537 28.1505 50.2584 28.1505C50.3282 28.1335 50.4329 28.1335 50.398 28.0826Z" fill="#FCEE1F"/>
<path d="M51.1047 28.6259C51.0437 28.5835 51.0437 28.5495 51.0175 28.4986L50.9739 28.6599L51.1047 28.6259Z" fill="#FCEE1F"/>
<path d="M50.337 28.4986C50.3021 28.541 49.9357 28.5495 50.2585 28.609C50.3021 28.5665 50.5725 28.5835 50.337 28.4986Z" fill="#FCEE1F"/>
<path d="M46.4373 27.5647L46.507 27.5732L46.5419 27.2931L46.4373 27.5647Z" fill="#FCEE1F"/>
<path d="M42.8517 27.76C43.1571 27.8619 42.9477 27.5987 43.2182 27.7091C43.2967 27.6497 43.0001 27.6157 43.0786 27.5648C42.8779 27.6157 42.782 27.5648 42.8517 27.76Z" fill="#FCEE1F"/>
<path d="M43.0786 27.5648C43.1135 27.5563 43.1397 27.5478 43.1833 27.5308C43.1222 27.5478 43.0961 27.5563 43.0786 27.5648Z" fill="#FCEE1F"/>
<path d="M3.58553 31.0793L3.36743 31.1133L3.53319 31.1388L3.58553 31.0793Z" fill="#FCEE1F"/>
<path d="M3.32371 31.4359L3.20158 31.3L3.15796 31.4953C3.19285 31.4698 3.27137 31.4104 3.32371 31.4359Z" fill="#FCEE1F"/>
<path d="M30.5772 27.4034L30.5946 27.361C30.5597 27.3185 30.5161 27.3101 30.4202 27.3101L30.5772 27.4034Z" fill="#FCEE1F"/>
<path d="M27.8381 27.361H27.8904L27.7944 27.2082L27.8381 27.361Z" fill="#FCEE1F"/>
<path d="M25.5698 27.709C25.6657 27.709 25.7704 27.6666 25.8664 27.6666C25.6657 27.709 25.5262 27.5053 25.5698 27.709Z" fill="#FCEE1F"/>
<path d="M45.2073 10.2126L43.9336 11.1719L44.8496 12.5047L43.1398 11.7662L41.8661 12.7255L42.0842 11.3077L40.3743 10.5607L42.2237 10.4333L42.4506 9.00714L43.3666 10.3484L45.2073 10.2126Z" fill="#FCEE1F"/>
<path d="M36.8672 10.6201L36.5357 11.8765L38.0101 12.4453L36.3264 12.6575L35.9948 13.914L35.2882 12.7849L33.6045 12.9971L34.852 12.0888L34.1367 10.9597L35.6197 11.5285L36.8672 10.6201Z" fill="#FCEE1F"/>
<path d="M30.1673 13.3197L29.8358 14.3214L31.092 14.6186L29.6264 14.9412L29.2949 15.9429L28.7278 15.1449L27.2622 15.4675L28.3789 14.644L27.8118 13.846L29.0593 14.1347L30.1673 13.3197Z" fill="#FCEE1F"/>
<path d="M24.1128 16.7069L23.9994 17.5983L25.0724 17.6747L23.9209 18.1501L23.7987 19.0415L23.2055 18.4472L22.054 18.9311L22.8391 18.0737L22.2459 17.4794L23.3276 17.5473L24.1128 16.7069Z" fill="#FCEE1F"/>
<path d="M19.4456 20.5611L19.4718 21.41L20.51 21.2318L19.4893 21.9364L19.5154 22.7938L18.8524 22.3778L17.8317 23.0824L18.4511 22.1146L17.7881 21.6987L18.835 21.5204L19.4456 20.5611Z" fill="#FCEE1F"/>
<path d="M15.4674 24.967L15.8775 25.4763L16.7237 24.967L16.1305 25.7989L16.5405 26.3083H15.7641L15.1708 27.1317L15.2842 26.3083H14.5078L15.354 25.7989L15.4674 24.967Z" fill="#FCEE1F"/>
<path d="M13.0946 29.5088L13.6704 29.772L14.2025 29.1268L14.0368 29.9332L14.6126 30.2049L13.9321 30.4426L13.7576 31.2491L13.5046 30.5869L12.8154 30.8161L13.3476 30.171L13.0946 29.5088Z" fill="#FCEE1F"/>
<path d="M53.8004 11.7661L51.9073 12.0887L52.012 13.9139L50.7383 12.2925L48.8452 12.6151L49.9531 11.2907L48.6794 9.66928L50.6336 10.4673L51.7415 9.14294L51.8462 10.9597L53.8004 11.7661Z" fill="#FCEE1F"/>
<path d="M79.7365 8.0139H76.5871C75.6624 8.0139 75.1128 7.71678 75.1128 6.81691V1.27341C75.1128 0.373541 75.6624 0.076416 76.5871 0.076416H79.7365C79.8673 0.076416 79.972 0.15282 79.972 0.254691V0.339584C79.972 0.449945 79.8761 0.50937 79.7365 0.50937H76.5871C76.0026 0.50937 75.645 0.602752 75.645 1.26492V3.61645H79.7365C79.8673 3.61645 79.972 3.68436 79.972 3.78624V3.8966C79.972 4.00696 79.8761 4.07487 79.7365 4.07487H75.645V6.80842C75.645 7.47059 76.0026 7.56397 76.5871 7.56397H79.7365C79.8673 7.56397 79.972 7.63189 79.972 7.73376V7.81865C79.9633 7.9375 79.8673 8.0139 79.7365 8.0139Z" fill="#6E6F71"/>
<path d="M85.9217 8.01391H85.8258C85.6949 8.01391 85.6077 7.92053 85.6077 7.80168V7.63189C84.9708 7.89506 84.2729 8.06484 83.6361 8.06484C82.4671 8.06484 81.49 7.49606 81.49 6.02741V2.47889C81.49 2.36853 81.586 2.27515 81.7255 2.27515H81.8128C81.9349 2.27515 82.0309 2.36853 82.0309 2.47889V6.02741C82.0309 7.23289 82.755 7.64887 83.6535 7.64887C83.6622 7.64887 83.6622 7.64887 83.6797 7.64887C84.2991 7.64887 84.997 7.45361 85.6077 7.20743V2.47889C85.6077 2.36853 85.7211 2.27515 85.8432 2.27515H85.913C86.0351 2.27515 86.1486 2.36853 86.1486 2.47889V7.80168C86.1398 7.92053 86.0526 8.01391 85.9217 8.01391Z" fill="#6E6F71"/>
<path d="M90.0832 2.64016C89.6208 2.64016 89.1061 2.73354 88.3907 3.13254V7.81014C88.3907 7.9205 88.2773 8.01388 88.1552 8.01388H88.0854C87.9633 8.01388 87.8499 7.9205 87.8499 7.81014V2.48735C87.8499 2.3685 87.9371 2.27512 88.068 2.27512H88.1639C88.2948 2.27512 88.382 2.3685 88.382 2.48735V2.71656C89.0014 2.36001 89.4812 2.22418 90.0744 2.22418C90.2664 2.22418 90.4059 2.25814 90.4059 2.38548V2.47037C90.4147 2.6062 90.2751 2.64016 90.0832 2.64016Z" fill="#6E6F71"/>
<path d="M93.6424 8.08179C91.9674 8.08179 91.1299 7.13948 91.1299 5.52652V4.77946C91.1299 3.16649 91.9761 2.22418 93.6424 2.22418C95.3086 2.22418 96.1549 3.16649 96.1549 4.77946V5.52652C96.1549 7.13948 95.3174 8.08179 93.6424 8.08179ZM95.6227 4.77946C95.6227 3.46362 95.0731 2.64016 93.6424 2.64016C92.2116 2.64016 91.662 3.46362 91.662 4.77946V5.52652C91.662 6.84236 92.2116 7.66582 93.6424 7.66582C95.0731 7.66582 95.6227 6.84236 95.6227 5.52652V4.77946Z" fill="#6E6F71"/>
<path d="M99.915 8.08179C99.4351 8.08179 98.7111 8.01388 98.2225 7.9205V9.8985C98.2225 10.0089 98.1353 10.1022 98.0131 10.1022H97.891C97.7689 10.1022 97.6816 10.0089 97.6816 9.8985V2.63167C97.6816 2.50433 97.7165 2.46188 97.8648 2.42793C98.4057 2.33454 99.217 2.22418 99.915 2.22418C101.599 2.22418 102.305 3.28534 102.305 4.8219V5.52652C102.305 7.21589 101.503 8.08179 99.915 8.08179ZM101.773 4.8219C101.773 3.44664 101.285 2.64016 99.915 2.64016C99.3305 2.64016 98.6587 2.71656 98.2225 2.77599V7.5215C98.6849 7.60639 99.4439 7.65733 99.915 7.65733C101.258 7.65733 101.773 6.92725 101.773 5.51803V4.8219Z" fill="#6E6F71"/>
<path d="M108.307 5.25486H104.181V5.47558C104.181 7.26682 105.167 7.65733 106.388 7.65733C106.929 7.65733 107.592 7.58092 108.194 7.47905C108.22 7.47905 108.246 7.47056 108.264 7.47056C108.36 7.47056 108.447 7.51301 108.447 7.62337V7.69977C108.447 7.81862 108.395 7.86956 108.211 7.90352C107.627 8.01388 106.929 8.08179 106.379 8.08179C104.87 8.08179 103.631 7.50452 103.631 5.48407V4.77946C103.631 3.30232 104.486 2.22418 106.1 2.22418C107.784 2.22418 108.525 3.25139 108.525 4.77097V5.05961C108.543 5.16997 108.43 5.25486 108.307 5.25486ZM108.002 4.76248C108.002 3.41268 107.487 2.63167 106.109 2.63167C104.757 2.63167 104.181 3.49758 104.181 4.77097V4.8219H108.002V4.76248Z" fill="#6E6F71"/>
<path d="M114.065 8.01388H114.004C113.873 8.01388 113.76 7.9205 113.76 7.80165V7.52999C113.158 7.81863 112.443 8.0733 111.684 8.0733C110.768 8.0733 109.817 7.69129 109.817 6.34998V6.22264C109.817 5.11903 110.611 4.57572 112.826 4.57572H113.769V4.18521C113.769 3.07311 113.411 2.63167 112.233 2.63167C111.431 2.63167 111.073 2.67411 110.497 2.72505C110.488 2.72505 110.471 2.72505 110.445 2.72505C110.331 2.72505 110.209 2.6826 110.209 2.56375V2.51282C110.209 2.39397 110.305 2.34303 110.488 2.31756C111.003 2.26663 111.413 2.22418 112.224 2.22418C113.873 2.22418 114.301 3.03915 114.301 4.1937V7.80165C114.309 7.9205 114.205 8.01388 114.065 8.01388ZM113.777 4.99169H112.835C110.994 4.99169 110.358 5.31428 110.358 6.22264V6.35847C110.358 7.35171 110.959 7.66582 111.684 7.66582C112.364 7.66582 112.949 7.50452 113.769 7.1225V4.99169H113.777Z" fill="#6E6F71"/>
<path d="M120.442 8.01388H120.355C120.233 8.01388 120.137 7.9205 120.137 7.81014V4.26162C120.137 3.03916 119.404 2.64016 118.488 2.64016C117.869 2.64016 117.171 2.81844 116.56 3.08161V7.81014C116.56 7.9205 116.447 8.01388 116.325 8.01388H116.255C116.133 8.01388 116.019 7.9205 116.019 7.81014V2.48736C116.019 2.36851 116.107 2.27512 116.237 2.27512H116.333C116.464 2.27512 116.551 2.36851 116.551 2.48736V2.65714C117.188 2.39397 117.877 2.2157 118.514 2.2157C119.683 2.2157 120.66 2.7675 120.66 4.25313V7.81014C120.669 7.9205 120.573 8.01388 120.442 8.01388Z" fill="#6E6F71"/>
<path d="M80.4955 19.2113C79.8848 19.3216 79.091 19.3896 77.8347 19.3896C76.5174 19.3896 74.5632 18.634 74.5632 16.1127V14.5761C74.5632 12.0463 76.4214 11.2823 77.8696 11.2823C79.0386 11.2823 80.0942 11.4096 80.4955 11.4775C80.6525 11.5115 80.731 11.5624 80.731 11.6983V12.4114C80.731 12.5642 80.6787 12.6321 80.4868 12.6321C80.4781 12.6321 80.4606 12.6321 80.4519 12.6321C79.8936 12.5896 79.0473 12.5472 77.8783 12.5472C77.0583 12.5472 76.2818 13.0481 76.2818 14.5676V16.1042C76.2818 17.6238 77.1281 18.1162 77.8434 18.1162C78.2971 18.1162 78.6722 18.1077 79.0473 18.0822V15.3571C79.0473 15.2383 79.1433 15.1449 79.2829 15.1449H80.4868C80.6176 15.1449 80.731 15.2383 80.731 15.3571V18.9481C80.7223 19.0924 80.6525 19.1773 80.4955 19.2113Z" fill="#6E6F71"/>
<path d="M82.947 19.3047H82.8249C82.7027 19.3047 82.6155 19.2113 82.6155 19.1009V11.5624C82.6155 11.4521 82.7027 11.3587 82.8249 11.3587H82.947C83.0691 11.3587 83.1564 11.4521 83.1564 11.5624V19.1009C83.1476 19.2113 83.0691 19.3047 82.947 19.3047Z" fill="#6E6F71"/>
<path d="M87.3089 19.3726C85.6339 19.3726 84.7964 18.4303 84.7964 16.8173V16.0702C84.7964 14.4573 85.6339 13.515 87.3089 13.515C88.9839 13.515 89.8214 14.4573 89.8214 16.0702V16.8173C89.8301 18.4303 88.9839 19.3726 87.3089 19.3726ZM89.2892 16.0702C89.2892 14.7544 88.7396 13.9309 87.3089 13.9309C85.8782 13.9309 85.3285 14.7544 85.3285 16.0702V16.8173C85.3285 18.1331 85.8782 18.9566 87.3089 18.9566C88.7396 18.9566 89.2892 18.1331 89.2892 16.8173V16.0702Z" fill="#6E6F71"/>
<path d="M93.5815 19.3726C92.8835 19.3726 92.0722 19.2622 91.5313 19.1688C91.383 19.1349 91.3481 19.0924 91.3481 18.9651V11.5709C91.3481 11.4606 91.4354 11.3672 91.5575 11.3672H91.6797C91.8018 11.3672 91.889 11.4606 91.889 11.5709V13.6763C92.3776 13.5829 93.1104 13.515 93.5815 13.515C95.1692 13.515 95.9718 14.3809 95.9718 16.0703V16.7749C95.9718 18.3114 95.2652 19.3726 93.5815 19.3726ZM95.4397 16.0703C95.4397 14.661 94.9249 13.931 93.5815 13.931C93.1016 13.931 92.3514 13.9819 91.889 14.0668V18.8123C92.3252 18.8802 92.997 18.9481 93.5815 18.9481C94.9511 18.9481 95.4397 18.1501 95.4397 16.7664V16.0703Z" fill="#6E6F71"/>
<path d="M101.503 19.3047H101.442C101.311 19.3047 101.197 19.2113 101.197 19.0924V18.8293C100.595 19.1179 99.8801 19.3726 99.1211 19.3726C98.2051 19.3726 97.2542 18.9906 97.2542 17.6492V17.5134C97.2542 16.4098 98.048 15.8665 100.264 15.8665H101.206V15.4845C101.206 14.3724 100.848 13.9309 99.6707 13.9309C98.8681 13.9309 98.5104 13.9734 97.9346 14.0243C97.9259 14.0243 97.9084 14.0243 97.8823 14.0243C97.7689 14.0243 97.6467 13.9819 97.6467 13.863V13.7951C97.6467 13.6763 97.7427 13.6253 97.9259 13.5999C98.4406 13.5489 98.8506 13.5065 99.662 13.5065C101.311 13.5065 101.738 14.3214 101.738 15.476V19.0839C101.747 19.2113 101.634 19.3047 101.503 19.3047ZM101.206 16.2825H100.264C98.4232 16.2825 97.7863 16.6051 97.7863 17.5134V17.6492C97.7863 18.6425 98.3883 18.9566 99.1123 18.9566C99.7928 18.9566 100.377 18.7953 101.197 18.4133V16.2825H101.206Z" fill="#6E6F71"/>
<path d="M103.911 19.3047H103.788C103.666 19.3047 103.579 19.2113 103.579 19.1009V11.5624C103.579 11.4521 103.666 11.3587 103.788 11.3587H103.911C104.033 11.3587 104.12 11.4521 104.12 11.5624V19.1009C104.111 19.2113 104.033 19.3047 103.911 19.3047Z" fill="#6E6F71"/>
<path d="M114.135 19.3726H114.126C113.943 19.3726 113.83 19.3726 113.725 19.2962C113.655 19.2452 113.568 19.1603 113.507 19.05L109.398 11.8341C109.372 11.7916 109.346 11.7577 109.302 11.7577C109.276 11.7577 109.241 11.7831 109.241 11.8341V19.1009C109.241 19.2113 109.154 19.3047 109.031 19.3047H108.909C108.787 19.3047 108.7 19.2113 108.7 19.1009V11.8341C108.7 11.5115 108.944 11.3077 109.302 11.3077C109.642 11.3077 109.782 11.4351 109.886 11.6388L113.987 18.8377C114.013 18.8802 114.039 18.9141 114.083 18.9141C114.135 18.9141 114.144 18.8632 114.144 18.8208V11.5624C114.144 11.4521 114.213 11.3587 114.336 11.3587H114.484C114.615 11.3587 114.693 11.4521 114.693 11.5624V18.8208C114.685 19.1688 114.44 19.3726 114.135 19.3726Z" fill="#6E6F71"/>
<path d="M120.512 19.3047H120.451C120.32 19.3047 120.207 19.2113 120.207 19.0924V18.8293C119.605 19.1179 118.89 19.3726 118.131 19.3726C117.215 19.3726 116.264 18.9906 116.264 17.6492V17.5134C116.264 16.4098 117.058 15.8665 119.273 15.8665H120.216V15.4845C120.216 14.3724 119.858 13.9309 118.68 13.9309C117.878 13.9309 117.52 13.9734 116.944 14.0243C116.935 14.0243 116.918 14.0243 116.892 14.0243C116.778 14.0243 116.656 13.9819 116.656 13.863V13.7951C116.656 13.6763 116.752 13.6253 116.935 13.5999C117.45 13.5489 117.86 13.5065 118.671 13.5065C120.32 13.5065 120.748 14.3214 120.748 15.476V19.0839C120.756 19.2113 120.652 19.3047 120.512 19.3047ZM120.224 16.2825H119.282C117.441 16.2825 116.805 16.6051 116.805 17.5134V17.6492C116.805 18.6425 117.407 18.9566 118.131 18.9566C118.811 18.9566 119.396 18.7953 120.216 18.4133V16.2825H120.224Z" fill="#6E6F71"/>
<path d="M126.793 13.8291L125.197 18.6934C125.014 19.2622 124.717 19.3641 124.368 19.3641C124.028 19.3641 123.696 19.2537 123.513 18.6934L121.917 13.8291C121.908 13.7951 121.908 13.7612 121.908 13.7442C121.908 13.6338 121.978 13.5659 122.1 13.5659H122.222C122.309 13.5659 122.396 13.6084 122.44 13.7612L124.002 18.5831C124.115 18.9057 124.237 18.9651 124.368 18.9651C124.499 18.9651 124.604 18.8972 124.708 18.5831L126.27 13.7612C126.322 13.6084 126.401 13.5659 126.488 13.5659H126.636C126.758 13.5659 126.811 13.6338 126.811 13.7272C126.811 13.7612 126.811 13.8036 126.793 13.8291Z" fill="#6E6F71"/>
<path d="M128.564 12.5047H128.495C128.372 12.5047 128.259 12.4198 128.259 12.301V11.5115C128.259 11.4011 128.372 11.3077 128.495 11.3077H128.564C128.686 11.3077 128.8 11.4011 128.8 11.5115V12.301C128.8 12.4198 128.686 12.5047 128.564 12.5047ZM128.564 19.3047H128.495C128.372 19.3047 128.259 19.2113 128.259 19.1009V13.7696C128.259 13.6593 128.372 13.5659 128.495 13.5659H128.564C128.686 13.5659 128.8 13.6593 128.8 13.7696V19.1009C128.8 19.2113 128.686 19.3047 128.564 19.3047Z" fill="#6E6F71"/>
<path d="M135.508 14.0243H134.872C135.116 14.1941 135.543 14.5677 135.543 15.3487V15.4336C135.543 16.4523 134.933 17.1739 133.013 17.1739C132.377 17.1739 131.975 17.089 131.522 16.9277C131.269 17.0211 131.103 17.1739 131.103 17.3861C131.103 17.5219 131.173 17.6493 131.461 17.7172L133.659 18.2181C134.968 18.5152 135.613 18.7953 135.613 19.6612V19.7546C135.613 20.7139 134.95 21.41 133.022 21.41C131.147 21.41 130.431 20.7224 130.431 19.7546V19.6612C130.431 18.9142 130.946 18.3369 131.347 18.1247L131.26 18.0992C130.806 17.9804 130.614 17.7002 130.614 17.3861C130.614 17.1314 130.771 16.8428 131.129 16.6985C130.728 16.4098 130.492 15.9939 130.492 15.4251V15.3402C130.492 14.5167 130.92 13.5574 133.005 13.5574H135.491C135.613 13.5574 135.727 13.6253 135.727 13.7272V13.8461C135.735 13.9734 135.631 14.0243 135.508 14.0243ZM135.081 19.6697C135.081 19.067 134.828 18.9227 133.546 18.634L131.862 18.252C131.321 18.5661 130.972 18.9566 130.972 19.6697V19.7631C130.972 20.5356 131.469 21.028 133.031 21.028C134.654 21.028 135.081 20.5611 135.081 19.7631V19.6697ZM135.02 15.3487C135.02 14.5761 134.601 13.9734 133.022 13.9734C131.338 13.9734 131.042 14.6695 131.042 15.3487V15.4336C131.042 15.9684 131.347 16.7664 133.022 16.7664C134.636 16.7664 135.02 16.1721 135.02 15.4336V15.3487Z" fill="#6E6F71"/>
<path d="M141.144 19.3047H141.083C140.952 19.3047 140.839 19.2113 140.839 19.0924V18.8293C140.237 19.1179 139.522 19.3726 138.763 19.3726C137.847 19.3726 136.896 18.9906 136.896 17.6492V17.5134C136.896 16.4098 137.69 15.8665 139.905 15.8665H140.848V15.4845C140.848 14.3724 140.49 13.9309 139.312 13.9309C138.51 13.9309 138.152 13.9734 137.576 14.0243C137.567 14.0243 137.55 14.0243 137.524 14.0243C137.41 14.0243 137.288 13.9819 137.288 13.863V13.7951C137.288 13.6763 137.384 13.6253 137.567 13.5999C138.082 13.5489 138.492 13.5065 139.304 13.5065C140.952 13.5065 141.38 14.3214 141.38 15.476V19.0839C141.389 19.2113 141.275 19.3047 141.144 19.3047ZM140.856 16.2825H139.914C138.073 16.2825 137.437 16.6051 137.437 17.5134V17.6492C137.437 18.6425 138.039 18.9566 138.763 18.9566C139.443 18.9566 140.028 18.7953 140.848 18.4133V16.2825H140.856Z" fill="#6E6F71"/>
<path d="M145.942 19.3386C145.759 19.3641 145.515 19.3726 145.306 19.3726C144.442 19.3726 143.927 19.1349 143.927 18.218V14.0073H142.723C142.592 14.0073 142.488 13.9394 142.488 13.8376V13.7272C142.488 13.6168 142.584 13.5659 142.723 13.5659H143.927V12.4623C143.927 12.3519 143.997 12.2585 144.137 12.2585H144.267C144.39 12.2585 144.459 12.3519 144.459 12.4623V13.5659H145.908C146.038 13.5659 146.143 13.6168 146.143 13.7272V13.8376C146.143 13.9479 146.047 14.0073 145.908 14.0073H144.459V18.218C144.459 18.8632 144.765 18.9566 145.306 18.9566H145.89C146.073 18.9566 146.143 19.0075 146.143 19.1094V19.1773C146.143 19.2537 146.108 19.3131 145.942 19.3386Z" fill="#6E6F71"/>
<path d="M147.914 12.5047H147.844C147.722 12.5047 147.609 12.4198 147.609 12.301V11.5115C147.609 11.4011 147.722 11.3077 147.844 11.3077H147.914C148.036 11.3077 148.15 11.4011 148.15 11.5115V12.301C148.15 12.4198 148.036 12.5047 147.914 12.5047ZM147.914 19.3047H147.844C147.722 19.3047 147.609 19.2113 147.609 19.1009V13.7696C147.609 13.6593 147.722 13.5659 147.844 13.5659H147.914C148.036 13.5659 148.15 13.6593 148.15 13.7696V19.1009C148.15 19.2113 148.036 19.3047 147.914 19.3047Z" fill="#6E6F71"/>
<path d="M152.311 19.3726C150.636 19.3726 149.798 18.4303 149.798 16.8173V16.0702C149.798 14.4573 150.645 13.515 152.311 13.515C153.986 13.515 154.823 14.4573 154.823 16.0702V16.8173C154.823 18.4303 153.977 19.3726 152.311 19.3726ZM154.282 16.0702C154.282 14.7544 153.733 13.9309 152.302 13.9309C150.871 13.9309 150.322 14.7544 150.322 16.0702V16.8173C150.322 18.1331 150.871 18.9566 152.302 18.9566C153.733 18.9566 154.282 18.1331 154.282 16.8173V16.0702Z" fill="#6E6F71"/>
<path d="M160.764 19.3047H160.677C160.555 19.3047 160.459 19.2113 160.459 19.1009V15.5524C160.459 14.3299 159.726 13.9309 158.81 13.9309C158.191 13.9309 157.493 14.1092 156.882 14.3724V19.1094C156.882 19.2198 156.769 19.3131 156.647 19.3131H156.577C156.455 19.3131 156.341 19.2198 156.341 19.1094V13.7866C156.341 13.6678 156.429 13.5744 156.559 13.5744H156.655C156.786 13.5744 156.873 13.6678 156.873 13.7866V13.9564C157.51 13.6932 158.2 13.515 158.836 13.515C160.005 13.515 160.982 14.0668 160.982 15.5524V19.1009C161 19.2113 160.895 19.3047 160.764 19.3047Z" fill="#6E6F71"/>
<path d="M77.573 30.6803C76.657 30.6803 76.0027 30.6039 75.4094 30.4851C75.2873 30.4596 75.1739 30.3917 75.1739 30.2728V29.5003C75.1739 29.3815 75.2873 29.2966 75.4094 29.2966C75.4182 29.2966 75.4182 29.2966 75.4356 29.2966C75.9242 29.3475 77.1455 29.4069 77.5991 29.4069C78.6809 29.4069 79.0124 29.0674 79.0124 28.4476C79.0124 28.0317 78.7769 27.8194 77.9743 27.4035L76.3603 26.563C75.2262 25.9773 74.9209 25.3575 74.9209 24.6105C74.9209 23.439 75.7061 22.5815 77.9743 22.5815C78.7769 22.5815 79.9023 22.6919 80.321 22.7768C80.4431 22.8023 80.5391 22.8702 80.5391 22.9805V23.77C80.5391 23.8804 80.4519 23.9653 80.3297 23.9653C80.321 23.9653 80.321 23.9653 80.3036 23.9653C79.501 23.8974 78.6896 23.8549 77.8958 23.8549C76.9972 23.8549 76.6133 24.1351 76.6133 24.6105C76.6133 24.967 76.8227 25.1793 77.6166 25.5613L79.0822 26.2744C80.4257 26.9281 80.7746 27.6072 80.7746 28.4561C80.7834 29.5258 80.0157 30.6803 77.573 30.6803Z" fill="#6E6F71"/>
<path d="M86.1922 30.5954H86.1311C86.0002 30.5954 85.8868 30.5021 85.8868 30.3832V30.12C85.2849 30.4087 84.5695 30.6633 83.8105 30.6633C82.8945 30.6633 81.9436 30.2813 81.9436 28.94V28.8042C81.9436 27.7006 82.7375 27.1573 84.9534 27.1573H85.8955V26.7752C85.8955 25.6632 85.5379 25.2217 84.3601 25.2217C83.5575 25.2217 83.1998 25.2642 82.6241 25.3151C82.6153 25.3151 82.5979 25.3151 82.5717 25.3151C82.4583 25.3151 82.3362 25.2726 82.3362 25.1538V25.0859C82.3362 24.967 82.4321 24.9161 82.6153 24.8906C83.1301 24.8397 83.5401 24.7972 84.3514 24.7972C86.0002 24.7972 86.4277 25.6122 86.4277 26.7668V30.3832C86.4364 30.4936 86.323 30.5954 86.1922 30.5954ZM85.8955 27.5732H84.9534C83.1126 27.5732 82.4758 27.8958 82.4758 28.8042V28.94C82.4758 29.9333 83.0777 30.2474 83.8018 30.2474C84.4823 30.2474 85.0668 30.0861 85.8868 29.7041V27.5732H85.8955Z" fill="#6E6F71"/>
<path d="M90.9818 30.6294C90.7986 30.6549 90.5543 30.6633 90.3449 30.6633C89.4812 30.6633 88.9665 30.4256 88.9665 29.5088V25.2981H87.7626C87.6318 25.2981 87.5271 25.2302 87.5271 25.1283V25.018C87.5271 24.9076 87.6231 24.8567 87.7626 24.8567H88.9665V23.7531C88.9665 23.6427 89.0363 23.5493 89.1759 23.5493H89.3068C89.4289 23.5493 89.4987 23.6427 89.4987 23.7531V24.8567H90.9469C91.0777 24.8567 91.1824 24.9076 91.1824 25.018V25.1283C91.1824 25.2387 91.0864 25.2981 90.9469 25.2981H89.4987V29.5088C89.4987 30.154 89.804 30.2474 90.3449 30.2474H90.9294C91.1126 30.2474 91.1824 30.2983 91.1824 30.4002V30.4681C91.1911 30.5445 91.1562 30.6039 90.9818 30.6294Z" fill="#6E6F71"/>
<path d="M96.7046 27.8364H92.5782V28.0571C92.5782 29.8569 93.564 30.2389 94.7853 30.2389C95.3262 30.2389 95.9892 30.1625 96.5912 30.0606C96.6174 30.0606 96.6435 30.0521 96.661 30.0521C96.7569 30.0521 96.8442 30.0946 96.8442 30.2049V30.2813C96.8442 30.4002 96.7918 30.4511 96.6086 30.4851C96.0241 30.5954 95.3262 30.6633 94.7766 30.6633C93.2674 30.6633 92.0286 30.0861 92.0286 28.0656V27.361C92.0286 25.8839 92.8835 24.8057 94.4974 24.8057C96.1812 24.8057 96.9227 25.8329 96.9227 27.3525V27.6411C96.9401 27.7515 96.8267 27.8364 96.7046 27.8364ZM96.3993 27.344C96.3993 25.9942 95.8846 25.2132 94.5062 25.2132C93.154 25.2132 92.5782 26.0791 92.5782 27.3525V27.4034H96.3993V27.344Z" fill="#6E6F71"/>
<path d="M98.9118 30.5954H98.7897C98.6676 30.5954 98.5803 30.502 98.5803 30.3916V22.8532C98.5803 22.7428 98.6676 22.6494 98.7897 22.6494H98.9118C99.034 22.6494 99.1212 22.7428 99.1212 22.8532V30.3916C99.1212 30.4935 99.034 30.5954 98.9118 30.5954Z" fill="#6E6F71"/>
<path d="M101.407 30.5954H101.285C101.162 30.5954 101.075 30.502 101.075 30.3916V22.8532C101.075 22.7428 101.162 22.6494 101.285 22.6494H101.407C101.529 22.6494 101.616 22.7428 101.616 22.8532V30.3916C101.607 30.4935 101.529 30.5954 101.407 30.5954Z" fill="#6E6F71"/>
<path d="M103.867 23.7955H103.797C103.675 23.7955 103.562 23.7106 103.562 23.5918V22.8023C103.562 22.6919 103.675 22.5985 103.797 22.5985H103.867C103.989 22.5985 104.102 22.6919 104.102 22.8023V23.5918C104.102 23.7106 103.989 23.7955 103.867 23.7955ZM103.867 30.5954H103.797C103.675 30.5954 103.562 30.502 103.562 30.3917V25.0604C103.562 24.95 103.675 24.8567 103.797 24.8567H103.867C103.989 24.8567 104.102 24.95 104.102 25.0604V30.3917C104.102 30.4936 103.989 30.5954 103.867 30.5954Z" fill="#6E6F71"/>
<path d="M109.014 30.6294C108.831 30.6549 108.587 30.6633 108.377 30.6633C107.513 30.6633 106.999 30.4256 106.999 29.5088V25.2981H105.795C105.664 25.2981 105.559 25.2302 105.559 25.1283V25.018C105.559 24.9076 105.655 24.8567 105.795 24.8567H106.999V23.7531C106.999 23.6427 107.069 23.5493 107.208 23.5493H107.339C107.461 23.5493 107.531 23.6427 107.531 23.7531V24.8567H108.979C109.11 24.8567 109.215 24.9076 109.215 25.018V25.1283C109.215 25.2387 109.119 25.2981 108.979 25.2981H107.531V29.5088C107.531 30.154 107.836 30.2474 108.377 30.2474H108.962C109.145 30.2474 109.215 30.2983 109.215 30.4002V30.4681C109.223 30.5445 109.188 30.6039 109.014 30.6294Z" fill="#6E6F71"/>
<path d="M114.737 27.8364H110.61V28.0571C110.61 29.8569 111.596 30.2389 112.818 30.2389C113.358 30.2389 114.021 30.1625 114.623 30.0606C114.65 30.0606 114.676 30.0521 114.693 30.0521C114.789 30.0521 114.876 30.0946 114.876 30.2049V30.2813C114.876 30.4002 114.824 30.4511 114.641 30.4851C114.056 30.5954 113.358 30.6633 112.809 30.6633C111.3 30.6633 110.061 30.0861 110.061 28.0656V27.361C110.061 25.8839 110.916 24.8057 112.53 24.8057C114.213 24.8057 114.955 25.8329 114.955 27.3525V27.6411C114.972 27.7515 114.859 27.8364 114.737 27.8364ZM114.431 27.344C114.431 25.9942 113.917 25.2132 112.538 25.2132C111.186 25.2132 110.61 26.0791 110.61 27.3525V27.4034H114.431V27.344Z" fill="#6E6F71"/>
<path d="M121.228 30.6549C120.434 30.6549 119.823 30.5784 119.334 30.536C119.221 30.5275 119.116 30.4681 119.116 30.3662V30.2304C119.116 30.12 119.23 30.0946 119.352 30.0946C119.361 30.0946 119.387 30.0946 119.404 30.0946C120.041 30.137 120.565 30.2134 121.236 30.2134C123.077 30.2134 123.505 29.5003 123.505 28.6174C123.505 27.8279 122.981 27.5478 121.629 26.8092L120.861 26.3932C119.753 25.799 118.942 25.2811 118.942 24.3303C118.942 22.9296 120.373 22.5985 121.795 22.5985C122.44 22.5985 123.086 22.6664 123.609 22.7089C123.731 22.7174 123.819 22.7768 123.819 22.8702V23.006C123.819 23.1164 123.723 23.1588 123.583 23.1588C123.313 23.1588 122.397 23.0484 121.777 23.0484C120.163 23.0484 119.483 23.4559 119.483 24.3388C119.483 25.001 120.041 25.4 121.132 25.9772L121.917 26.3932C123.269 27.1063 124.063 27.6327 124.063 28.6174C124.063 29.5937 123.583 30.6549 121.228 30.6549Z" fill="#6E6F71"/>
<path d="M129.925 25.1199L127.927 31.1897C127.552 32.3358 127.081 32.6753 125.947 32.6753C125.668 32.6753 125.406 32.6414 125.188 32.6074C125.04 32.5819 124.944 32.5565 124.944 32.4546V32.3442C124.944 32.2339 125.014 32.1914 125.127 32.1914C125.153 32.1914 125.179 32.1914 125.197 32.1914C125.38 32.2169 125.799 32.2594 125.991 32.2594C126.872 32.2594 127.151 32.0217 127.439 31.0963L127.596 30.5955H127.421C127.046 30.5955 126.846 30.5106 126.68 29.9927L125.031 25.1114C125.022 25.0859 125.022 25.0604 125.022 25.035C125.022 24.9246 125.092 24.8567 125.232 24.8567H125.345C125.432 24.8567 125.52 24.9331 125.537 25.0095L127.186 29.9248C127.256 30.1455 127.369 30.1625 127.465 30.1625H127.744L129.419 25.001C129.445 24.9246 129.541 24.8652 129.637 24.8652H129.751C129.873 24.8652 129.934 24.9416 129.934 25.0435C129.943 25.0604 129.943 25.0944 129.925 25.1199Z" fill="#6E6F71"/>
<path d="M133.066 30.6549C132.516 30.6549 131.74 30.5785 131.295 30.5021C131.12 30.4681 131.024 30.4256 131.024 30.3323V30.2219C131.024 30.1115 131.112 30.0691 131.216 30.0691C131.243 30.0691 131.269 30.0691 131.286 30.0691C131.871 30.154 132.577 30.2389 133.083 30.2389C133.964 30.2389 134.636 30.0351 134.636 29.1692C134.636 28.7278 134.366 28.4986 133.345 28.0062L132.56 27.6327C131.644 27.1912 131.085 26.8432 131.085 26.1131C131.085 25.1198 131.984 24.7972 132.952 24.7972C133.834 24.7972 134.278 24.8482 134.697 24.8906C134.872 24.9161 134.95 24.9755 134.95 25.0689V25.1538C134.95 25.2811 134.854 25.3236 134.732 25.3236C134.723 25.3236 134.706 25.3236 134.697 25.3236C134.383 25.2896 133.677 25.2047 133.005 25.2047C132.22 25.2047 131.626 25.3406 131.626 26.1046C131.626 26.5715 132.063 26.8517 132.813 27.2167L133.633 27.6157C134.645 28.1081 135.186 28.4561 135.186 29.1692C135.177 30.3153 134.2 30.6549 133.066 30.6549Z" fill="#6E6F71"/>
<path d="M139.53 30.6294C139.347 30.6549 139.103 30.6633 138.894 30.6633C138.03 30.6633 137.515 30.4256 137.515 29.5088V25.2981H136.311C136.18 25.2981 136.076 25.2302 136.076 25.1283V25.018C136.076 24.9076 136.172 24.8567 136.311 24.8567H137.515V23.7531C137.515 23.6427 137.585 23.5493 137.725 23.5493H137.855C137.978 23.5493 138.047 23.6427 138.047 23.7531V24.8567H139.495C139.626 24.8567 139.731 24.9076 139.731 25.018V25.1283C139.731 25.2387 139.635 25.2981 139.495 25.2981H138.047V29.5088C138.047 30.154 138.353 30.2474 138.894 30.2474H139.478C139.661 30.2474 139.731 30.2983 139.731 30.4002V30.4681C139.74 30.5445 139.705 30.6039 139.53 30.6294Z" fill="#6E6F71"/>
<path d="M145.253 27.8364H141.127V28.0571C141.127 29.8569 142.113 30.2389 143.334 30.2389C143.875 30.2389 144.538 30.1625 145.14 30.0606C145.166 30.0606 145.192 30.0521 145.21 30.0521C145.306 30.0521 145.393 30.0946 145.393 30.2049V30.2813C145.393 30.4002 145.34 30.4511 145.157 30.4851C144.573 30.5954 143.875 30.6633 143.325 30.6633C141.816 30.6633 140.577 30.0861 140.577 28.0656V27.361C140.577 25.8839 141.432 24.8057 143.046 24.8057C144.73 24.8057 145.471 25.8329 145.471 27.3525V27.6411C145.48 27.7515 145.375 27.8364 145.253 27.8364ZM144.948 27.344C144.948 25.9942 144.433 25.2132 143.055 25.2132C141.703 25.2132 141.127 26.0791 141.127 27.3525V27.4034H144.948V27.344Z" fill="#6E6F71"/>
<path d="M154.195 30.5954H154.073C153.942 30.5954 153.864 30.502 153.864 30.3917V26.563C153.864 25.5443 153.323 25.2132 152.433 25.2132C151.892 25.2132 151.29 25.366 150.784 25.5783C150.898 25.8244 150.967 26.1301 150.967 26.5206V30.3917C150.967 30.502 150.915 30.5954 150.784 30.5954H150.601C150.479 30.5954 150.427 30.502 150.427 30.3917V26.5206C150.427 25.5273 149.929 25.2132 149.284 25.2132C148.743 25.2132 148.097 25.4254 147.539 25.6631V30.3832C147.539 30.4936 147.478 30.5869 147.356 30.5869H147.181C147.059 30.5869 146.998 30.4936 146.998 30.3832V25.0604C146.998 24.9416 147.085 24.8482 147.216 24.8482H147.312C147.443 24.8482 147.53 24.9416 147.53 25.0604V25.2557C148.027 25.0434 148.734 24.7972 149.388 24.7972C149.825 24.7972 150.243 24.9161 150.549 25.2387C151.159 24.984 151.866 24.7972 152.512 24.7972C153.532 24.7972 154.387 25.2896 154.387 26.563V30.3917C154.405 30.4936 154.326 30.5954 154.195 30.5954Z" fill="#6E6F71"/>
<path d="M157.903 30.6549C157.353 30.6549 156.577 30.5785 156.132 30.5021C155.958 30.4681 155.862 30.4256 155.862 30.3323V30.2219C155.862 30.1115 155.949 30.0691 156.053 30.0691C156.08 30.0691 156.106 30.0691 156.123 30.0691C156.708 30.154 157.414 30.2389 157.92 30.2389C158.802 30.2389 159.473 30.0351 159.473 29.1692C159.473 28.7278 159.203 28.4986 158.182 28.0062L157.397 27.6327C156.481 27.1912 155.923 26.8432 155.923 26.1131C155.923 25.1198 156.83 24.7972 157.79 24.7972C158.671 24.7972 159.116 24.8482 159.534 24.8906C159.709 24.9161 159.787 24.9755 159.787 25.0689V25.1538C159.787 25.2811 159.691 25.3236 159.569 25.3236C159.561 25.3236 159.543 25.3236 159.534 25.3236C159.22 25.2896 158.514 25.2047 157.842 25.2047C157.057 25.2047 156.464 25.3406 156.464 26.1046C156.464 26.5715 156.9 26.8517 157.65 27.2167L158.47 27.6157C159.482 28.1081 160.023 28.4561 160.023 29.1692C160.014 30.3153 159.037 30.6549 157.903 30.6549Z" fill="#6E6F71"/>
<path d="M81.5686 41.8862H80.2774C80.164 41.8862 80.0681 41.8013 80.0419 41.7079L79.4836 39.679H76.6745L76.1161 41.7079C76.09 41.8013 75.994 41.8862 75.8806 41.8862H74.5894C74.4673 41.8862 74.3713 41.8098 74.3713 41.7079C74.3713 41.6994 74.3801 41.674 74.3801 41.657L76.3778 34.9589C76.6745 33.9657 77.5468 33.8723 78.0703 33.8723C78.5937 33.8723 79.4748 33.9657 79.7627 34.9589L81.7605 41.657C81.7605 41.6825 81.7692 41.6994 81.7692 41.7079C81.7867 41.8098 81.6907 41.8862 81.5686 41.8862ZM78.2709 35.2815C78.236 35.1542 78.2011 35.1118 78.079 35.1118C77.9569 35.1118 77.922 35.1542 77.8871 35.2815L77.006 38.4565H79.1521L78.2709 35.2815Z" fill="#6E6F71"/>
<path d="M87.7538 36.6058H87.117C87.3613 36.7756 87.7887 37.1491 87.7887 37.9302V38.015C87.7887 39.0338 87.1781 39.7554 85.2588 39.7554C84.622 39.7554 84.2207 39.6705 83.767 39.5092C83.514 39.6025 83.3483 39.7554 83.3483 39.9676C83.3483 40.1034 83.418 40.2308 83.7059 40.2987L85.9044 40.7995C87.213 41.0967 87.8585 41.3768 87.8585 42.2427V42.3361C87.8585 43.2954 87.1955 43.9915 85.2675 43.9915C83.3919 43.9915 82.6765 43.3039 82.6765 42.3361V42.2427C82.6765 41.4957 83.1912 40.9184 83.5925 40.7062L83.5053 40.6807C83.0516 40.5618 82.8597 40.2817 82.8597 39.9676C82.8597 39.7129 83.0167 39.4243 83.3744 39.28C82.9731 38.9913 82.7376 38.5753 82.7376 38.0066V37.9217C82.7376 37.0982 83.1651 36.1389 85.2501 36.1389H87.7364C87.8585 36.1389 87.9719 36.2068 87.9719 36.3087V36.4276C87.9807 36.5549 87.876 36.6058 87.7538 36.6058ZM87.3264 42.2512C87.3264 41.657 87.0734 41.5041 85.791 41.2155L84.1072 40.8335C83.5664 41.1391 83.2174 41.5381 83.2174 42.2512V42.3446C83.2174 43.1171 83.7147 43.6095 85.2762 43.6095C86.8989 43.6095 87.3264 43.1426 87.3264 42.3446V42.2512ZM87.2653 37.9302C87.2653 37.1576 86.8466 36.5549 85.2675 36.5549C83.5838 36.5549 83.2872 37.251 83.2872 37.9302V38.015C83.2872 38.5499 83.5925 39.3479 85.2675 39.3479C86.8815 39.3479 87.2653 38.7451 87.2653 38.015V37.9302Z" fill="#6E6F71"/>
<path d="M93.8606 39.1272H89.7342V39.3479C89.7342 41.1391 90.72 41.5296 91.9413 41.5296C92.4822 41.5296 93.1452 41.4532 93.7472 41.3514C93.7733 41.3514 93.7995 41.3429 93.817 41.3429C93.9129 41.3429 94.0002 41.3853 94.0002 41.4957V41.5721C94.0002 41.6909 93.9478 41.7419 93.7646 41.7758C93.1801 41.8862 92.4822 41.9541 91.9326 41.9541C90.4234 41.9541 89.1846 41.3768 89.1846 39.3564V38.6518C89.1846 37.1746 90.0395 36.0965 91.6534 36.0965C93.3371 36.0965 94.0787 37.1237 94.0787 38.6433V38.9319C94.0961 39.0423 93.9827 39.1272 93.8606 39.1272ZM93.564 38.6348C93.564 37.285 93.0493 36.504 91.6709 36.504C90.3187 36.504 89.7429 37.3699 89.7429 38.6433V38.6942H93.564V38.6348Z" fill="#6E6F71"/>
<path d="M100.037 41.8862H99.9498C99.8277 41.8862 99.7317 41.7928 99.7317 41.6824V38.1339C99.7317 36.92 98.9989 36.5125 98.0829 36.5125C97.4635 36.5125 96.7656 36.6907 96.1549 36.9539V41.6909C96.1549 41.8013 96.0415 41.8947 95.9193 41.8947H95.8496C95.7274 41.8947 95.614 41.8013 95.614 41.6909V36.3682C95.614 36.2493 95.7013 36.1559 95.8321 36.1559H95.9281C96.0589 36.1559 96.1462 36.2493 96.1462 36.3682V36.5379C96.783 36.2748 97.4722 36.0965 98.1091 36.0965C99.2781 36.0965 100.255 36.6483 100.255 38.1339V41.6824C100.273 41.7843 100.177 41.8862 100.037 41.8862Z" fill="#6E6F71"/>
<path d="M105.69 41.8522C105.175 41.9032 104.608 41.9456 104.216 41.9456C102.471 41.9456 101.799 40.7571 101.799 39.3564V38.6433C101.799 37.2256 102.471 36.088 104.216 36.088C104.608 36.088 105.175 36.1305 105.69 36.1814C105.873 36.2069 105.926 36.2578 105.926 36.3766V36.4531C105.926 36.5634 105.838 36.6059 105.734 36.6059C105.708 36.6059 105.699 36.6059 105.673 36.6059C105.097 36.5379 104.626 36.5125 104.225 36.5125C102.837 36.5125 102.349 37.3529 102.349 38.6518V39.3649C102.349 40.6552 102.837 41.5381 104.225 41.5381C104.626 41.5381 105.106 41.5042 105.673 41.4448C105.699 41.4448 105.708 41.4448 105.734 41.4448C105.847 41.4448 105.926 41.4872 105.926 41.5976V41.674C105.917 41.7758 105.873 41.8268 105.69 41.8522Z" fill="#6E6F71"/>
<path d="M111.902 36.4106L109.904 42.4804C109.529 43.6265 109.058 43.966 107.924 43.966C107.644 43.966 107.383 43.9321 107.165 43.8981C107.016 43.8727 106.92 43.8472 106.92 43.7453V43.635C106.92 43.5246 106.99 43.4822 107.104 43.4822C107.13 43.4822 107.156 43.4822 107.173 43.4822C107.357 43.5076 107.775 43.5501 107.967 43.5501C108.848 43.5501 109.128 43.3124 109.415 42.387L109.572 41.8862H109.398C109.023 41.8862 108.822 41.8013 108.656 41.2834L107.008 36.4021C106.999 36.3766 106.999 36.3511 106.999 36.3257C106.999 36.2153 107.069 36.1474 107.208 36.1474H107.322C107.409 36.1474 107.496 36.2238 107.514 36.3002L109.162 41.2155C109.232 41.4362 109.346 41.4532 109.442 41.4532H109.721L111.396 36.2917C111.422 36.2153 111.518 36.1559 111.614 36.1559H111.727C111.849 36.1559 111.91 36.2323 111.91 36.3342C111.91 36.3511 111.91 36.3766 111.902 36.4106Z" fill="#6E6F71"/>
</svg>
