<svg width="282" height="46" viewBox="0 0 282 46" fill="none" xmlns="http://www.w3.org/2000/svg">
<g clip-path="url(#clip0)">
<path d="M22.8493 36.5783V45.1061H0V0.876038H22.2393V9.40383H8.74932V18.5573H21.0019V26.7633H8.74932V36.5605H22.8493V36.5783Z" fill="#009147"/>
<path d="M32.714 42.1741C30.3263 39.7069 29.1411 36.185 29.1411 31.5903V14.4096C29.1411 9.81498 30.3263 6.29302 32.714 3.82586C35.1018 1.3587 38.4656 0.125122 42.8228 0.125122C46.9709 0.125122 50.1604 1.34082 52.4087 3.7901C54.6396 6.23939 55.8422 9.77922 56.0165 14.4096H47.2672C47.1801 12.3894 46.7966 10.9413 46.1343 10.0831C45.4546 9.22501 44.3566 8.79593 42.8402 8.79593C41.3239 8.79593 40.1736 9.24288 39.4242 10.1547C38.6573 11.0664 38.2913 12.4788 38.2913 14.4275V31.6082C38.2913 33.5927 38.6747 35.0229 39.4242 35.8989C40.1911 36.7749 41.3414 37.2219 42.91 37.2219C44.5134 37.2219 45.6986 36.7749 46.4829 35.8989C47.2672 35.0229 47.6506 33.5748 47.6506 31.6082V28.4259H42.4742V20.4702H56.278V31.5903C56.1559 36.2207 54.9359 39.7606 52.6179 42.2099C50.2998 44.6591 47.0232 45.8748 42.788 45.8748C38.4307 45.8748 35.0844 44.6413 32.714 42.1741Z" fill="#009147"/>
<path d="M63.3193 0.876038H71.9466L80.1382 20.077C80.5914 21.2569 81.0968 22.6693 81.672 24.3141L83.2057 28.5511L83.3975 28.3545C83.0314 25.6549 82.7352 22.6514 82.5086 19.3261C82.282 16.0008 82.1774 13.2655 82.1774 11.1201V0.876038H90.8047V45.1061H82.1774L74.9096 27.979L71.0229 17.1807L70.8312 17.3774C71.1623 20.077 71.4238 23.2414 71.6329 26.8527C71.8421 30.4819 71.9466 33.5748 71.9466 36.1493V45.124H63.3193V0.876038Z" fill="#009147"/>
<path d="M100.896 42.4065C98.5082 40.0109 97.323 36.6141 97.323 32.234H106.316C106.316 35.6129 107.815 37.2934 110.813 37.2934C112.207 37.2934 113.27 36.918 114.02 36.185C114.752 35.452 115.135 34.5045 115.135 33.3782C115.135 31.9837 114.612 30.7859 113.567 29.7847C112.521 28.7656 110.865 27.5321 108.617 26.0482C106.438 24.6537 104.661 23.4023 103.284 22.2581C101.907 21.1139 100.722 19.6836 99.7456 17.9316C98.7522 16.1796 98.2642 14.1057 98.2642 11.7101C98.2642 8.25962 99.3796 5.45278 101.628 3.27167C103.841 1.09056 106.909 0 110.813 0C114.804 0 117.924 1.14419 120.172 3.45045C122.421 5.7567 123.571 8.93898 123.571 13.0152H114.578C114.578 10.1011 113.305 8.65294 110.761 8.65294C109.61 8.65294 108.722 8.95686 108.077 9.54683C107.432 10.1368 107.118 10.9413 107.118 11.9425C107.118 13.2118 107.623 14.3024 108.634 15.232C109.645 16.1617 111.249 17.288 113.462 18.6467C115.728 20.0412 117.558 21.2927 118.97 22.4368C120.381 23.581 121.619 25.047 122.665 26.8527C123.71 28.6584 124.233 30.8574 124.233 33.4318C124.233 35.8811 123.693 38.0443 122.595 39.9394C121.514 41.8344 119.946 43.3183 117.907 44.391C115.867 45.4637 113.462 46 110.674 46C106.543 46 103.284 44.8022 100.896 42.4065Z" fill="#009147"/>
<path d="M131.954 42.4065C129.567 40.0109 128.381 36.6141 128.381 32.234H137.375C137.375 35.6129 138.874 37.2934 141.871 37.2934C143.266 37.2934 144.329 36.918 145.078 36.185C145.81 35.452 146.194 34.5045 146.194 33.3782C146.194 31.9837 145.671 30.7859 144.625 29.7847C143.579 28.7656 141.924 27.5321 139.675 26.0482C137.497 24.6537 135.719 23.4023 134.342 22.2581C132.965 21.1139 131.763 19.6658 130.769 17.9137C129.776 16.1617 129.288 14.0878 129.288 11.6922C129.288 8.24174 130.403 5.4349 132.651 3.25379C134.9 1.09056 137.967 0 141.871 0C145.863 0 148.982 1.14419 151.231 3.45045C153.479 5.7567 154.612 8.93898 154.612 13.0152H145.619C145.619 10.1011 144.346 8.65294 141.802 8.65294C140.651 8.65294 139.762 8.95686 139.118 9.54683C138.473 10.1368 138.159 10.9413 138.159 11.9425C138.159 13.2118 138.664 14.3024 139.675 15.232C140.686 16.1617 142.29 17.288 144.503 18.6467C146.769 20.0412 148.599 21.2927 150.011 22.4368C151.422 23.581 152.66 25.047 153.706 26.8527C154.751 28.6584 155.274 30.8574 155.274 33.4318C155.274 35.8811 154.734 38.0443 153.636 39.9394C152.555 41.8344 150.987 43.3183 148.947 44.391C146.908 45.4637 144.503 46 141.714 46C137.601 46 134.325 44.8022 131.954 42.4065Z" fill="#009147"/>
<path d="M186.402 35.0051H181.975V45.1061H173.906V35.0051H158.621V30.4641L166.498 0.893921H174.69L167.544 27.2997H174.01L175.3 13.8376H181.958V27.2997H186.385V35.0051H186.402Z" fill="#04592E"/>
<path d="M194.123 42.1741C191.805 39.707 190.638 36.185 190.638 31.5904V14.4096C190.638 9.77925 191.805 6.22153 194.141 3.73649C196.511 1.25146 199.788 0 204.023 0C208.328 0 211.657 1.23358 214.01 3.70074C216.363 6.1679 217.6 9.74349 217.775 14.4096H209.025C208.903 12.3894 208.45 10.9413 207.666 10.0474C206.881 9.15352 205.661 8.72445 203.971 8.72445C201.182 8.72445 199.788 10.6195 199.788 14.4096V31.5904C199.788 35.2911 201.182 37.1504 203.971 37.1504C205.661 37.1504 206.899 36.7035 207.735 35.8274C208.555 34.9335 209.025 33.5391 209.147 31.5904H217.897C217.809 36.2208 216.572 39.7606 214.167 42.2099C211.762 44.6592 208.363 45.8749 203.971 45.8749C199.718 45.8749 196.459 44.6413 194.123 42.1741Z" fill="#009147"/>
<path d="M239.247 37.794H230.132L228.72 45.124H219.657L230.01 0.893921H239.369L249.722 45.124H240.659L239.247 37.794ZM237.521 29.2484L236.528 24.1889C235.953 20.953 235.378 16.8947 234.802 12.0498H234.558C233.861 17.735 233.286 21.7754 232.833 24.1889L231.84 29.2484H237.521Z" fill="#009147"/>
<path d="M278.253 4.86282C280.763 7.50876 282.017 11.2095 282.017 15.9293C282.017 20.6491 280.763 24.3319 278.253 26.96C275.743 29.588 272.257 30.911 267.778 30.911H264.013V45.124H255.264V0.876038H267.761C272.257 0.876038 275.743 2.21688 278.253 4.86282ZM271.647 20.7206C272.554 19.63 273.007 18.021 273.007 15.9114C273.007 13.7661 272.554 12.1392 271.647 11.0486C270.741 9.95804 269.416 9.40383 267.639 9.40383H263.996V22.3654H267.639C269.416 22.3654 270.758 21.829 271.647 20.7206Z" fill="#009147"/>
</g>
<defs>
<clipPath id="clip0">
<rect width="282" height="46" fill="white"/>
</clipPath>
</defs>
</svg>
