<svg width="180" height="29" viewBox="0 0 180 29" fill="none" xmlns="http://www.w3.org/2000/svg">
<path d="M14.5847 23.0602V28.4364H0V0.552246H14.1953V5.92846H5.58467V11.6992H13.4054V16.8725H5.58467V23.0489H14.5847V23.0602Z" fill="white"/>
<path d="M20.8814 26.588C19.3573 25.0326 18.6008 22.8122 18.6008 19.9156V9.0843C18.6008 6.18768 19.3573 3.96732 20.8814 2.41193C22.4055 0.856549 24.5526 0.0788574 27.3338 0.0788574C29.9815 0.0788574 32.0174 0.845278 33.4525 2.38939C34.8765 3.9335 35.6441 6.16514 35.7553 9.0843H30.1707C30.115 7.81069 29.8703 6.89775 29.4476 6.35674C29.0137 5.81574 28.3128 5.54524 27.345 5.54524C26.3771 5.54524 25.6429 5.82701 25.1645 6.40183C24.675 6.97664 24.4414 7.86704 24.4414 9.09557V19.9269C24.4414 21.178 24.6861 22.0796 25.1645 22.6319C25.654 23.1842 26.3882 23.466 27.3895 23.466C28.4129 23.466 29.1694 23.1842 29.6701 22.6319C30.1707 22.0796 30.4154 21.1667 30.4154 19.9269V17.9207H27.1113V12.9051H35.9222V19.9156C35.8443 22.8348 35.0656 25.0664 33.586 26.6105C32.1064 28.1546 30.0149 28.9211 27.3116 28.9211C24.5304 28.9211 22.3944 28.1434 20.8814 26.588Z" fill="white"/>
<path d="M40.4165 0.552246H45.9233L51.152 12.6572C51.4412 13.4011 51.7638 14.2915 52.131 15.3284L53.11 17.9996L53.2323 17.8756C52.9987 16.1737 52.8096 14.2802 52.665 12.1838C52.5203 10.0874 52.4536 8.36297 52.4536 7.01047V0.552246H57.9604V28.4364H52.4536L47.8145 17.6389L45.3337 10.8313L45.2113 10.9553C45.4227 12.6572 45.5896 14.6521 45.7231 16.9289C45.8565 19.2168 45.9233 21.1667 45.9233 22.7897V28.4477H40.4165V0.552246Z" fill="white"/>
<path d="M64.4017 26.7346C62.8776 25.2243 62.1211 23.0828 62.1211 20.3214H67.8615C67.8615 22.4516 68.8183 23.5111 70.7317 23.5111C71.6217 23.5111 72.3003 23.2744 72.7787 22.8123C73.2459 22.3502 73.4907 21.7528 73.4907 21.0428C73.4907 20.1636 73.1569 19.4085 72.4895 18.7773C71.822 18.1349 70.7651 17.3572 69.33 16.4217C67.9394 15.5426 66.8047 14.7536 65.9258 14.0323C65.0469 13.3109 64.2904 12.4093 63.6674 11.3047C63.0333 10.2002 62.7218 8.89273 62.7218 7.38243C62.7218 5.20715 63.4338 3.43762 64.8689 2.06257C66.2818 0.687524 68.2398 0 70.7317 0C73.2793 0 75.2707 0.721337 76.7058 2.17528C78.1409 3.62923 78.8751 5.63545 78.8751 8.20521H73.1347C73.1347 6.36805 72.3226 5.45511 70.6983 5.45511C69.9641 5.45511 69.3967 5.64672 68.9851 6.01866C68.5735 6.39059 68.3733 6.89778 68.3733 7.52895C68.3733 8.32919 68.6959 9.01671 69.3411 9.6028C69.9864 10.1889 71.0098 10.899 72.4227 11.7555C73.8689 12.6347 75.037 13.4236 75.9381 14.145C76.8393 14.8663 77.6291 15.7905 78.2966 16.9289C78.9641 18.0672 79.2978 19.4536 79.2978 21.0766C79.2978 22.6207 78.953 23.9845 78.2521 25.1792C77.5624 26.3739 76.5611 27.3094 75.2595 27.9856C73.9579 28.6619 72.4227 29 70.6427 29C68.0061 29 65.9258 28.2449 64.4017 26.7346Z" fill="white"/>
<path d="M84.2261 26.7346C82.702 25.2243 81.9456 23.0828 81.9456 20.3214H87.686C87.686 22.4516 88.6427 23.5111 90.5562 23.5111C91.4462 23.5111 92.1248 23.2744 92.6031 22.8123C93.0704 22.3502 93.3151 21.7528 93.3151 21.0428C93.3151 20.1636 92.9814 19.4085 92.3139 18.7773C91.6464 18.1349 90.5896 17.3572 89.1544 16.4217C87.7638 15.5426 86.6291 14.7536 85.7502 14.0323C84.8714 13.3109 84.1038 12.398 83.4697 11.2934C82.8355 10.1889 82.524 8.88146 82.524 7.37116C82.524 5.19588 83.236 3.42635 84.6711 2.0513C86.1062 0.687524 88.0642 0 90.5562 0C93.1038 0 95.0951 0.721337 96.5302 2.17528C97.9653 3.62923 98.6884 5.63545 98.6884 8.20521H92.948C92.948 6.36805 92.1359 5.45511 90.5117 5.45511C89.7774 5.45511 89.2101 5.64672 88.7985 6.01866C88.3868 6.39059 88.1866 6.89778 88.1866 7.52895C88.1866 8.32919 88.5092 9.01671 89.1544 9.6028C89.7997 10.1889 90.8232 10.899 92.236 11.7555C93.6823 12.6347 94.8504 13.4236 95.7515 14.145C96.6526 14.8663 97.4425 15.7905 98.1099 16.9289C98.7774 18.0672 99.1112 19.4536 99.1112 21.0766C99.1112 22.6207 98.7663 23.9845 98.0654 25.1792C97.3757 26.3739 96.3745 27.3094 95.0729 27.9856C93.7713 28.6619 92.236 29 90.4561 29C87.8306 29 85.7391 28.2449 84.2261 26.7346Z" fill="white"/>
<path opacity="0.5" d="M118.98 22.0685H116.155V28.4365H111.004V22.0685H101.247V19.2057L106.276 0.563599H111.504L106.943 17.2107H111.071L111.894 8.72372H116.143V17.2107H118.969V22.0685H118.98Z" fill="white"/>
<path d="M123.909 26.588C122.429 25.0326 121.684 22.8123 121.684 19.9157V9.08434C121.684 6.16518 122.429 3.92227 123.92 2.35562C125.433 0.788962 127.524 0 130.227 0C132.975 0 135.1 0.777691 136.602 2.33307C138.104 3.88846 138.894 6.14264 139.005 9.08434H133.42C133.342 7.81073 133.053 6.89778 132.553 6.33424C132.052 5.7707 131.273 5.50019 130.194 5.50019C128.414 5.50019 127.524 6.69491 127.524 9.08434V19.9157C127.524 22.2487 128.414 23.4209 130.194 23.4209C131.273 23.4209 132.063 23.1391 132.597 22.5869C133.12 22.0233 133.42 21.1442 133.498 19.9157H139.083C139.027 22.8348 138.237 25.0665 136.702 26.6106C135.167 28.1547 132.998 28.9211 130.194 28.9211C127.48 28.9211 125.399 28.1434 123.909 26.588Z" fill="white"/>
<path d="M152.711 23.8267H146.893L145.991 28.4478H140.207L146.815 0.563599H152.789L159.397 28.4478H153.612L152.711 23.8267ZM151.61 18.4392L150.975 15.2496C150.608 13.2095 150.241 10.651 149.874 7.59663H149.718C149.273 11.1808 148.906 13.728 148.617 15.2496L147.983 18.4392H151.61Z" fill="white"/>
<path d="M177.608 3.06565C179.21 4.73375 180.011 7.06682 180.011 10.0423C180.011 13.0179 179.21 15.3397 177.608 16.9965C176.006 18.6533 173.781 19.4873 170.922 19.4873H168.519V28.4477H162.935V0.552246H170.911C173.781 0.552246 176.006 1.39756 177.608 3.06565ZM173.392 13.0629C173.97 12.3754 174.26 11.361 174.26 10.0311C174.26 8.67856 173.97 7.65291 173.392 6.96538C172.813 6.27786 171.968 5.92846 170.833 5.92846H168.508V14.0999H170.833C171.968 14.0999 172.825 13.7617 173.392 13.0629Z" fill="white"/>
</svg>
