<svg height="512pt" viewBox="-90 0 512 512.0014" width="512pt" xmlns="http://www.w3.org/2000/svg"><path d="m80.929688 177.761719c2.949218 3.921875 7.449218 5.988281 12.003906 5.988281 3.140625 0 6.308594-.984375 9.007812-3.015625 6.625-4.980469 7.957032-14.390625 2.976563-21.011719-9.914063-13.1875-15.375-29.53125-15.375-46.027344 0-17.644531 6.160156-34.882812 17.34375-48.53125 5.25-6.410156 4.3125-15.867187-2.097657-21.121093-6.410156-5.25-15.867187-4.3125-21.121093 2.097656-15.566407 19-24.140625 42.992187-24.140625 67.554687 0 22.964844 7.601562 45.714844 21.402344 64.066407zm0 0"/><path d="m48.875 224.027344c3.328125 0 6.675781-1.101563 9.457031-3.363282 6.433594-5.226562 7.40625-14.679687 2.179688-21.109374-19.667969-24.191407-30.496094-54.683594-30.496094-85.859376 0-32.617187 11.730469-64.183593 33.035156-88.886718 5.410157-6.273438 4.710938-15.75-1.566406-21.164063-6.273437-5.410156-15.75-4.710937-21.164063 1.5625-26 30.148438-40.320312 68.679688-40.320312 108.492188 0 38.046875 13.21875 75.261719 37.222656 104.789062 2.964844 3.648438 7.289063 5.539063 11.652344 5.539063zm0 0"/><path d="m242.734375 113.695312c0 16.496094-5.457031 32.84375-15.375 46.027344-4.980469 6.625-3.648437 16.03125 2.976563 21.011719 2.699218 2.03125 5.867187 3.015625 9.007812 3.015625 4.554688 0 9.054688-2.066406 12.003906-5.988281 13.800782-18.351563 21.402344-41.105469 21.402344-64.066407 0-24.5625-8.570312-48.554687-24.140625-67.554687-5.253906-6.410156-14.707031-7.347656-21.121094-2.097656-6.40625 5.253906-7.347656 14.707031-2.09375 21.117187 11.183594 13.65625 17.339844 30.890625 17.339844 48.535156zm0 0"/><path d="m302.261719 113.695312c0 31.175782-10.828125 61.667969-30.496094 85.859376-5.230469 6.429687-4.253906 15.882812 2.179687 21.109374 2.78125 2.261719 6.128907 3.363282 9.457032 3.363282 4.359375 0 8.6875-1.894532 11.652344-5.542969 24.003906-29.523437 37.222656-66.738281 37.222656-104.789063 0-39.8125-14.320313-78.339843-40.320313-108.488281-5.414062-6.277343-14.890625-6.976562-21.167969-1.5625-6.273437 5.410157-6.972656 14.886719-1.5625 21.164063 21.304688 24.703125 33.035157 56.269531 33.035157 88.886718zm0 0"/><path d="m307.222656 481.988281h-42.128906l-76.683594-326.851562c14.734375-7.960938 24.769532-23.550781 24.769532-41.441407 0-25.949218-21.113282-47.0625-47.0625-47.0625-25.949219 0-47.0625 21.113282-47.0625 47.0625 0 17.894532 10.035156 33.480469 24.769531 41.441407l-76.683594 326.851562h-42.046875c-8.289062 0-15.007812 6.71875-15.007812 15.007813 0 8.285156 6.71875 15.003906 15.007812 15.003906h282.128906c8.289063 0 15.007813-6.71875 15.007813-15.003906 0-8.289063-6.71875-15.007813-15.007813-15.007813zm-101.28125-120.71875-57.386718-34.214843 43.394531-25.425782zm-39.824218-264.621093c9.402343 0 17.050781 7.648437 17.050781 17.046874 0 9.402344-7.648438 17.050782-17.050781 17.050782-9.398438 0-17.046876-7.648438-17.046876-17.050782 0-9.398437 7.648438-17.046874 17.046876-17.046874zm0 94.878906 18.65625 79.519531-43.257813 25.347656zm-37.242188 158.738281 70.246094 41.878906-92.972656 54.996094zm-22.6875 131.722656 112.46875-66.527343 15.605469 66.527343zm0 0"/></svg>