<?xml version="1.0" encoding="utf-8"?>
<!-- Generator: Adobe Illustrator 22.1.0, SVG Export Plug-In . SVG Version: 6.00 Build 0)  -->
<svg version="1.1" id="Layer_1" xmlns="http://www.w3.org/2000/svg" xmlns:xlink="http://www.w3.org/1999/xlink" x="0px" y="0px"
	 viewBox="0 0 768 1024" style="enable-background:new 0 0 768 1024;" xml:space="preserve">
<style type="text/css">
	.st0{clip-path:url(#SVGID_2_);}
	.st1{fill:#F2F2F2;}
	.st2{fill:none;stroke:#009147;stroke-width:1.2317;stroke-miterlimit:10;stroke-dasharray:6.1599,6.1599;}
	.st3{opacity:0.66;clip-path:url(#SVGID_2_);}
	.st4{fill:none;stroke:#E5E6E6;stroke-width:5.4855;stroke-miterlimit:10;}
	.st5{fill:#D0D2D3;}
	.st6{fill:#BCBDBF;}
	.st7{fill:#E5E6E6;}
	.st8{fill:none;stroke:#E5E6E6;stroke-width:8.2283;stroke-miterlimit:10;}
	.st9{fill:#E6E7E8;}
	.st10{fill:#009147;}
	.st11{fill:#04592E;}
	.st12{opacity:5.000000e-02;clip-path:url(#SVGID_2_);fill:#231F20;}
	.st13{fill:#F2F3F3;}
	.st14{fill:#DBDCDD;}
	.st15{fill:#FFFFFF;}
	.st16{fill:#929497;}
	
		.st17{clip-path:url(#SVGID_2_);fill:none;stroke:#009147;stroke-width:1.1943;stroke-miterlimit:10;stroke-dasharray:5.9716,5.9716;}
	.st18{clip-path:url(#SVGID_2_);fill:none;}
	.st19{fill:#58595B;}
	.st20{fill:#2E3191;}
	.st21{fill:#FFF100;}
	.st22{fill:#6D6E70;}
	.st23{clip-path:url(#SVGID_4_);}
	.st24{opacity:0.66;clip-path:url(#SVGID_4_);}
	.st25{fill:none;stroke:#E5E6E6;stroke-width:5.8109;stroke-miterlimit:10;}
	.st26{fill:none;stroke:#E5E6E6;stroke-width:8.7163;stroke-miterlimit:10;}
	.st27{opacity:5.000000e-02;fill:#231F20;}
	
		.st28{clip-path:url(#SVGID_4_);fill:none;stroke:#009147;stroke-width:1.4195;stroke-miterlimit:10;stroke-dasharray:7.0977,7.0977;}
	.st29{fill:none;stroke:#009147;stroke-width:1.1541;stroke-miterlimit:10;stroke-dasharray:5.7718,5.7718;}
</style>
<g>
	<defs>
		<rect id="SVGID_1_" width="768" height="1024"/>
	</defs>
	<clipPath id="SVGID_2_">
		<use xlink:href="#SVGID_1_"  style="overflow:visible;"/>
	</clipPath>
	<g class="st0">
		<g>
			<circle class="st1" cx="201.5" cy="68.8" r="5"/>
			<circle class="st1" cx="267" cy="101.5" r="4.6"/>
			<circle class="st1" cx="418.3" cy="59.3" r="6.9"/>
			<circle class="st1" cx="428.8" cy="141.7" r="3.7"/>
			<circle class="st1" cx="123.2" cy="101.3" r="4.5"/>
			<circle class="st1" cx="652.9" cy="78.8" r="6.3"/>
			<circle class="st1" cx="698.5" cy="121" r="2.5"/>
			<circle class="st1" cx="698.5" cy="38.5" r="2.5"/>
		</g>
		<circle class="st1" cx="662.8" cy="91.1" r="1.9"/>
		<circle class="st1" cx="704.3" cy="134" r="5"/>
		<circle class="st1" cx="730" cy="85.1" r="6"/>
		<circle class="st1" cx="626" cy="166.5" r="4.5"/>
		<circle class="st1" cx="553.2" cy="107.2" r="3.8"/>
		<circle class="st1" cx="489.6" cy="97.2" r="4.2"/>
		<circle class="st1" cx="564.6" cy="70.2" r="3.1"/>
		<g>
			<circle class="st1" cx="61.8" cy="737.4" r="1.9"/>
			<circle class="st1" cx="103.3" cy="780.3" r="5"/>
			<circle class="st1" cx="129" cy="731.4" r="6"/>
			<circle class="st1" cx="209.4" cy="749.7" r="10.4"/>
			<circle class="st1" cx="168.8" cy="812.9" r="4.6"/>
			<circle class="st1" cx="278.3" cy="706" r="3.4"/>
			<circle class="st1" cx="320.1" cy="770.7" r="6.9"/>
			<circle class="st1" cx="330.7" cy="853.1" r="3.7"/>
			<circle class="st1" cx="25" cy="812.8" r="4.5"/>
			<circle class="st1" cx="554.7" cy="790.3" r="6.3"/>
			<circle class="st1" cx="600.4" cy="832.4" r="2.5"/>
			<circle class="st1" cx="600.4" cy="749.9" r="2.5"/>
		</g>
		<g>
			<circle class="st1" cx="206.5" cy="244.4" r="1.9"/>
			<circle class="st1" cx="248" cy="287.3" r="5"/>
			<circle class="st1" cx="273.7" cy="238.4" r="6"/>
			<circle class="st1" cx="354" cy="256.7" r="10.4"/>
			<circle class="st1" cx="313.5" cy="319.9" r="4.6"/>
			<circle class="st1" cx="422.9" cy="213" r="3.4"/>
			<circle class="st1" cx="464.8" cy="277.7" r="6.9"/>
			<circle class="st1" cx="475.3" cy="360.1" r="3.7"/>
			<circle class="st1" cx="169.6" cy="319.8" r="4.5"/>
			<circle class="st1" cx="96.8" cy="260.5" r="3.8"/>
			<circle class="st1" cx="33.3" cy="250.5" r="4.2"/>
			<circle class="st1" cx="108.3" cy="223.6" r="3.1"/>
			<circle class="st1" cx="699.4" cy="297.3" r="6.3"/>
			<circle class="st1" cx="745" cy="339.4" r="2.5"/>
			<circle class="st1" cx="745" cy="256.9" r="2.5"/>
		</g>
		<circle class="st1" cx="377.4" cy="586.6" r="1.9"/>
		<circle class="st1" cx="419" cy="629.5" r="5"/>
		<circle class="st1" cx="444.6" cy="580.6" r="6"/>
		<circle class="st1" cx="484.5" cy="662.1" r="4.6"/>
		<circle class="st1" cx="593.9" cy="555.2" r="3.4"/>
		<circle class="st1" cx="635.8" cy="619.9" r="6.9"/>
		<circle class="st1" cx="646.3" cy="702.3" r="3.7"/>
		<circle class="st1" cx="340.6" cy="662" r="4.5"/>
		<circle class="st1" cx="267.8" cy="602.7" r="3.8"/>
		<circle class="st1" cx="204.3" cy="592.7" r="4.2"/>
		<circle class="st1" cx="279.3" cy="565.8" r="3.1"/>
		<circle class="st1" cx="286.7" cy="437.4" r="1.9"/>
		<circle class="st1" cx="328.2" cy="480.3" r="5"/>
		<circle class="st1" cx="353.9" cy="431.4" r="6"/>
		<circle class="st1" cx="393.7" cy="513" r="4.6"/>
		<circle class="st1" cx="503.2" cy="406.1" r="3.4"/>
		<circle class="st1" cx="545" cy="470.8" r="6.9"/>
		<circle class="st1" cx="555.5" cy="553.2" r="3.7"/>
		<circle class="st1" cx="249.9" cy="512.8" r="4.5"/>
		<circle class="st1" cx="177.1" cy="453.5" r="3.8"/>
		<circle class="st1" cx="113.5" cy="443.6" r="4.2"/>
		<circle class="st1" cx="188.5" cy="416.6" r="3.1"/>
	</g>
	<g class="st0">
		<circle class="st2" cx="245.1" cy="509.6" r="135.3"/>
	</g>
	<g class="st3">
		<g>
			<polyline class="st4" points="560.7,298.1 568.9,306.6 577.1,315.2 565.6,318 554.1,320.9 			"/>
			
				<rect x="414.2" y="253.2" transform="matrix(0.9602 0.2792 -0.2792 0.9602 100.3151 -125.0397)" class="st5" width="149.8" height="72.8"/>
			<polygon class="st5" points="550.8,345.5 407,303.6 427.3,233.7 			"/>
		</g>
		<g>
			<polyline class="st4" points="659.8,351.6 651.6,343.1 643.4,334.5 654.9,331.7 666.5,328.8 			"/>
			
				<rect x="656.5" y="323.7" transform="matrix(-0.9602 -0.2792 0.2792 -0.9602 1333.2749 910.0894)" class="st5" width="149.8" height="72.8"/>
			<polygon class="st5" points="669.7,304.2 793.2,416 649.3,374.1 			"/>
		</g>
		
			<rect x="578.6" y="363.6" transform="matrix(0.9602 0.2792 -0.2792 0.9602 127.6901 -151.7301)" class="st6" width="35.7" height="17.6"/>
		
			<rect x="575.4" y="284.6" transform="matrix(0.9602 0.2792 -0.2792 0.9602 115.3243 -157.3187)" class="st7" width="69" height="83.1"/>
		<circle class="st8" cx="625.3" cy="273.2" r="13.8"/>
		<g>
			<g>
				
					<rect x="583.8" y="363.1" transform="matrix(0.2998 -0.954 0.954 0.2998 27.686 842.423)" class="st6" width="7.8" height="78.5"/>
				<path class="st6" d="M603.4,438.6l-0.9-7.8c-7.7,0.9-15.3,0.2-22.8-2.2c-7.1-2.2-13.6-5.8-19.3-10.7l-5.1,6
					c6.4,5.5,13.9,9.6,22,12.2C585.8,438.8,594.6,439.6,603.4,438.6z"/>
				<path class="st6" d="M532.7,429l-5.1,6c12.5,10.7,26.8,18.6,42.7,23.6c16.5,5.2,33.4,6.8,50.4,4.8l-0.9-7.8
					c-15.9,1.8-31.8,0.3-47.2-4.5C557.8,446.4,544.4,439,532.7,429z"/>
			</g>
		</g>
	</g>
	<g class="st0">
		<g>
			<g>
				<g>
					<g>
						<path class="st9" d="M310.6,708.3c0,0-4.1,41,58,62C368.5,770.3,376.4,720.5,310.6,708.3z"/>
					</g>
					<g>
						<path class="st9" d="M310.6,768.6c0,0-4.1,41,58,62C368.6,830.5,376.4,780.8,310.6,768.6z"/>
					</g>
					<g>
						<path class="st9" d="M310.2,825.9c0,0-4.1,41,58,62C368.1,887.9,376,838.1,310.2,825.9z"/>
					</g>
				</g>
				<g>
					<path class="st9" d="M430.7,708.9c0-0.5-1.2-0.6-1.7-0.5c-18,2.4-36.9,8.5-48.7,23.1c-6.7,8.3-10.6,18.6-11.2,29.3
						c-0.1,2.1-0.2,4.3,0.1,6.4c0.1,0.5,1.2,0.6,1.6,0.5c17.6-4.9,35.3-12.9,47.4-27.1c6.3-7.4,10.9-16.5,12.3-26.3
						C430.7,712.5,430.9,710.7,430.7,708.9z"/>
					<path class="st9" d="M430.8,765.8c0-0.4-1-0.5-1.6-0.3c-18,2.4-36.8,8.6-48.8,23c-6.8,8.2-10.7,18.7-11.3,29.3
						c-0.1,2.2-0.2,4.4,0.1,6.5c0.1,0.5,1.1,0.4,1.5,0.3c17.6-4.9,35.3-12.9,47.5-27.1c6.4-7.4,11-16.6,12.4-26.3
						C430.8,769.5,431,767.6,430.8,765.8z"/>
					<path class="st9" d="M429.1,825.9c0-0.3-0.8-0.4-1.4-0.2c-18.1,2.4-37,8.6-49,23.2c-6.8,8.3-10.7,18.6-11.3,29.3
						c-0.1,2.2-0.2,4.4,0.1,6.5c0.1,0.4,1.1,0.3,1.3,0.2c17.7-4.9,35.6-13,47.7-27.2c6.3-7.5,10.9-16.5,12.3-26.3
						C429,829.6,429.2,827.7,429.1,825.9z"/>
					<path class="st9" d="M427.9,883.5c0-0.4-0.9-0.7-1.4-0.6c0,0-0.1,0-0.1,0c0,0,0,0-0.1,0c0,0,0,0,0,0
						c-18.1,2.4-37.1,8.6-49,23.3c-6.6,8.3-10.5,18.6-11,29.1c-0.1,2.1-0.2,4.3,0.1,6.4c0.1,0.5,1.3,0.7,1.7,0.6
						c17.7-4.9,35.5-13,47.5-27.4c6.2-7.4,10.8-16.5,12-26.1C427.9,887.1,428.1,885.2,427.9,883.5z"/>
				</g>
				<rect x="365.7" y="707.1" class="st9" width="4.5" height="390.4"/>
				<g>
					<path class="st9" d="M311.9,651.4c0,0-4.1,41,58,62C369.9,713.4,377.7,663.6,311.9,651.4z"/>
				</g>
			</g>
			<g>
				<g>
					<g>
						<path class="st9" d="M256.8,879.7c0,0-2.3,23,32.5,34.7C289.3,914.3,293.6,886.5,256.8,879.7z"/>
					</g>
					<g>
						<path class="st9" d="M256.8,913.4c0,0-2.3,23,32.5,34.7C289.3,948.1,293.7,920.2,256.8,913.4z"/>
					</g>
					<g>
						<path class="st9" d="M256.6,945.5c0,0-2.3,23,32.5,34.7C289,980.2,293.4,952.3,256.6,945.5z"/>
					</g>
				</g>
				<g>
					<path class="st9" d="M324.1,880c0-0.3-0.6-0.4-0.9-0.3c-10.1,1.3-20.6,4.8-27.3,12.9c-3.8,4.6-5.9,10.4-6.3,16.4
						c-0.1,1.2-0.1,2.4,0,3.6c0,0.3,0.7,0.3,0.9,0.3c9.8-2.7,19.8-7.2,26.5-15.2c3.5-4.2,6.1-9.3,6.9-14.7
						C324,882,324.1,881,324.1,880z"/>
					<path class="st9" d="M324.1,911.8c0-0.2-0.6-0.3-0.9-0.2c-10.1,1.3-20.6,4.8-27.3,12.9c-3.8,4.6-6,10.4-6.3,16.4
						c-0.1,1.2-0.1,2.5,0,3.7c0,0.3,0.6,0.2,0.8,0.2c9.9-2.7,19.8-7.2,26.6-15.1c3.6-4.2,6.2-9.3,6.9-14.7
						C324.1,913.9,324.2,912.9,324.1,911.8z"/>
					<path class="st9" d="M323.2,945.5c0-0.2-0.4-0.2-0.8-0.1c-10.1,1.3-20.7,4.8-27.4,13c-3.8,4.6-6,10.4-6.3,16.4
						c-0.1,1.2-0.1,2.5,0,3.7c0,0.2,0.6,0.1,0.7,0.1c9.9-2.8,19.9-7.3,26.7-15.2c3.6-4.2,6.1-9.3,6.9-14.7
						C323.1,947.5,323.2,946.5,323.2,945.5z"/>
					<path class="st9" d="M322.5,977.7c0-0.2-0.5-0.4-0.8-0.4c0,0,0,0,0,0c0,0,0,0,0,0c0,0,0,0,0,0c-10.2,1.3-20.8,4.8-27.4,13.1
						c-3.7,4.6-5.9,10.4-6.2,16.3c-0.1,1.2-0.1,2.4,0.1,3.6c0,0.3,0.7,0.4,0.9,0.3c9.9-2.8,19.9-7.3,26.6-15.3
						c3.5-4.1,6-9.2,6.7-14.6C322.5,979.7,322.6,978.7,322.5,977.7z"/>
				</g>
				<rect x="287.7" y="879" class="st9" width="2.5" height="218.5"/>
				<g>
					<path class="st9" d="M257.6,847.8c0,0-2.3,23,32.5,34.7C290,882.5,294.4,854.7,257.6,847.8z"/>
				</g>
			</g>
			<g>
				<g>
					<g>
						<path class="st9" d="M107.5,838.9c0,0-2.7,27.3,38.5,41.2C146,880,151.2,847,107.5,838.9z"/>
					</g>
					<g>
						<path class="st9" d="M107.5,878.9c0,0-2.7,27.3,38.5,41.2C146.1,920.1,151.3,887,107.5,878.9z"/>
					</g>
					<g>
						<path class="st9" d="M107.2,917c0,0-2.7,27.3,38.5,41.2C145.8,958.2,151,925.1,107.2,917z"/>
					</g>
				</g>
				<g>
					<path class="st9" d="M187.4,839.3c0-0.3-0.8-0.4-1.1-0.3c-12,1.6-24.5,5.7-32.4,15.3c-4.5,5.5-7.1,12.4-7.5,19.4
						c-0.1,1.4-0.1,2.9,0.1,4.3c0,0.4,0.8,0.4,1.1,0.3c11.7-3.3,23.5-8.6,31.5-18c4.2-4.9,7.3-11,8.1-17.5
						C187.3,841.7,187.4,840.5,187.4,839.3z"/>
					<path class="st9" d="M187.4,877.1c0-0.3-0.7-0.3-1-0.2c-12,1.6-24.5,5.7-32.4,15.3c-4.5,5.5-7.1,12.4-7.5,19.5
						c-0.1,1.4-0.1,2.9,0.1,4.3c0,0.3,0.8,0.3,1,0.2c11.7-3.3,23.5-8.6,31.5-18c4.2-4.9,7.3-11,8.2-17.5
						C187.4,879.5,187.5,878.3,187.4,877.1z"/>
					<path class="st9" d="M186.3,917c0-0.2-0.5-0.2-0.9-0.1c-12,1.6-24.6,5.7-32.6,15.4c-4.5,5.5-7.1,12.4-7.5,19.5
						c-0.1,1.4-0.1,2.9,0.1,4.3c0,0.3,0.7,0.2,0.8,0.1c11.8-3.3,23.6-8.6,31.7-18.1c4.2-5,7.3-11,8.2-17.5
						C186.2,919.5,186.4,918.2,186.3,917z"/>
					<path class="st9" d="M185.5,955.3c0-0.2-0.6-0.4-0.9-0.4c0,0,0,0-0.1,0c0,0,0,0,0,0c0,0,0,0,0,0c-12.1,1.6-24.7,5.7-32.5,15.5
						c-4.4,5.5-6.9,12.3-7.3,19.4c-0.1,1.4-0.1,2.8,0.1,4.2c0,0.3,0.8,0.5,1.1,0.4c11.7-3.3,23.6-8.7,31.6-18.2
						c4.1-4.9,7.1-10.9,8-17.4C185.5,957.7,185.6,956.5,185.5,955.3z"/>
				</g>
				<rect x="144.1" y="838.1" class="st9" width="3" height="259.4"/>
				<g>
					<path class="st9" d="M108.4,801.1c0,0-2.7,27.3,38.5,41.2C146.9,842.2,152.1,809.2,108.4,801.1z"/>
				</g>
			</g>
			<g>
				<g>
					<g>
						<path class="st9" d="M172.2,838.9c0,0-2.7,27.3,38.5,41.2C210.8,880,216,847,172.2,838.9z"/>
					</g>
					<g>
						<path class="st9" d="M172.3,878.9c0,0-2.7,27.3,38.5,41.2C210.8,920.1,216,887,172.3,878.9z"/>
					</g>
					<g>
						<path class="st9" d="M172,917c0,0-2.7,27.3,38.5,41.2C210.5,958.2,215.7,925.1,172,917z"/>
					</g>
				</g>
				<g>
					<path class="st9" d="M252.1,839.3c0-0.3-0.8-0.4-1.1-0.3c-12,1.6-24.5,5.7-32.4,15.3c-4.5,5.5-7.1,12.4-7.5,19.4
						c-0.1,1.4-0.1,2.9,0.1,4.3c0,0.4,0.8,0.4,1.1,0.3c11.7-3.3,23.5-8.6,31.5-18c4.2-4.9,7.3-11,8.1-17.5
						C252.1,841.7,252.2,840.5,252.1,839.3z"/>
					<path class="st9" d="M252.2,877.1c0-0.3-0.7-0.3-1-0.2c-12,1.6-24.5,5.7-32.4,15.3c-4.5,5.5-7.1,12.4-7.5,19.5
						c-0.1,1.4-0.1,2.9,0.1,4.3c0,0.3,0.8,0.3,1,0.2c11.7-3.3,23.5-8.6,31.5-18c4.2-4.9,7.3-11,8.2-17.5
						C252.1,879.5,252.3,878.3,252.2,877.1z"/>
					<path class="st9" d="M251,917c0-0.2-0.5-0.2-0.9-0.1c-12,1.6-24.6,5.7-32.6,15.4c-4.5,5.5-7.1,12.4-7.5,19.5
						c-0.1,1.4-0.1,2.9,0.1,4.3c0,0.3,0.7,0.2,0.8,0.1c11.8-3.3,23.6-8.6,31.7-18.1c4.2-5,7.3-11,8.2-17.5
						C251,919.5,251.1,918.2,251,917z"/>
					<path class="st9" d="M250.2,955.3c0-0.2-0.6-0.4-0.9-0.4c0,0,0,0-0.1,0c0,0,0,0,0,0c0,0,0,0,0,0c-12.1,1.6-24.7,5.7-32.5,15.5
						c-4.4,5.5-6.9,12.3-7.3,19.4c-0.1,1.4-0.1,2.8,0.1,4.2c0,0.3,0.8,0.5,1.1,0.4c11.7-3.3,23.6-8.7,31.6-18.2
						c4.1-4.9,7.1-10.9,8-17.4C250.2,957.7,250.3,956.5,250.2,955.3z"/>
				</g>
				<rect x="208.9" y="838.1" class="st9" width="3" height="259.4"/>
				<g>
					<path class="st9" d="M173.1,801.1c0,0-2.7,27.3,38.5,41.2C211.7,842.2,216.9,809.2,173.1,801.1z"/>
				</g>
			</g>
			<g>
				<g>
					<g>
						<path class="st10" d="M197.9,740.7c0,0-3.8,37.6,53.2,56.8C251.1,797.5,258.2,751.9,197.9,740.7z"/>
					</g>
					<g>
						<path class="st10" d="M198,796c0,0-3.8,37.6,53.2,56.8C251.1,852.8,258.3,807.2,198,796z"/>
					</g>
					<g>
						<path class="st10" d="M197.5,848.5c0,0-3.8,37.6,53.2,56.8C250.7,905.3,257.9,859.7,197.5,848.5z"/>
					</g>
				</g>
				<g>
					<path class="st10" d="M308.1,741.3c0-0.4-1.1-0.6-1.5-0.5c-16.5,2.2-33.8,7.8-44.7,21.2c-6.2,7.6-9.7,17.1-10.3,26.8
						c-0.1,1.9-0.2,4,0.1,5.9c0.1,0.5,1.1,0.6,1.5,0.5c16.1-4.5,32.4-11.9,43.5-24.9c5.8-6.8,10-15.2,11.2-24.1
						C308,744.6,308.2,742.9,308.1,741.3z"/>
					<path class="st10" d="M308.2,793.4c0-0.4-0.9-0.5-1.4-0.3c-16.5,2.2-33.8,7.8-44.7,21.1c-6.2,7.6-9.8,17.1-10.4,26.9
						c-0.1,2-0.2,4,0.1,6c0.1,0.4,1.1,0.4,1.3,0.3c16.1-4.5,32.4-11.8,43.5-24.8c5.8-6.8,10.1-15.2,11.3-24.1
						C308.1,796.8,308.3,795.1,308.2,793.4z"/>
					<path class="st10" d="M306.6,848.5c0-0.3-0.7-0.3-1.2-0.2c-16.6,2.2-34,7.9-44.9,21.3c-6.2,7.6-9.8,17.1-10.4,26.8
						c-0.1,2-0.2,4,0.1,6c0,0.4,1,0.2,1.2,0.2c16.2-4.5,32.6-11.9,43.7-25c5.8-6.8,10-15.2,11.3-24.1
						C306.5,851.9,306.7,850.2,306.6,848.5z"/>
					<path class="st10" d="M305.5,901.3c0-0.3-0.8-0.6-1.3-0.6c0,0-0.1,0-0.1,0c0,0,0,0,0,0c0,0,0,0,0,0c-16.6,2.2-34,7.9-44.9,21.4
						c-6.1,7.6-9.6,17-10.1,26.7c-0.1,1.9-0.2,3.9,0.1,5.8c0.1,0.5,1.2,0.6,1.5,0.6c16.2-4.5,32.5-12,43.6-25.1
						c5.7-6.8,9.9-15.1,11-24C305.5,904.6,305.6,902.9,305.5,901.3z"/>
				</g>
				<rect x="248.4" y="739.6" class="st10" width="4.1" height="357.9"/>
				<g>
					<path class="st10" d="M199.1,688.6c0,0-3.8,37.6,53.2,56.8C252.3,745.4,259.5,699.8,199.1,688.6z"/>
				</g>
			</g>
			<g>
				<g>
					<g>
						<path class="st11" d="M129.9,815c0,0-3.5,34.7,48.9,52.3C178.9,867.3,185.5,825.3,129.9,815z"/>
					</g>
					<g>
						<path class="st11" d="M129.9,865.9c0,0-3.5,34.7,48.9,52.3C178.9,918.2,185.5,876.2,129.9,865.9z"/>
					</g>
					<g>
						<path class="st11" d="M129.6,914.3c0,0-3.5,34.7,48.9,52.3C178.5,966.6,185.1,924.6,129.6,914.3z"/>
					</g>
				</g>
				<g>
					<path class="st11" d="M231.4,815.5c0-0.4-1-0.5-1.4-0.4c-15.2,2-31.1,7.2-41.2,19.5c-5.7,7-9,15.7-9.5,24.7
						c-0.1,1.8-0.2,3.6,0.1,5.4c0.1,0.5,1,0.5,1.3,0.4c14.9-4.1,29.8-10.9,40-22.9c5.3-6.3,9.2-14,10.3-22.2
						C231.3,818.6,231.5,817,231.4,815.5z"/>
					<path class="st11" d="M231.4,863.5c0-0.3-0.8-0.4-1.3-0.3c-15.2,2-31.1,7.2-41.2,19.5c-5.7,7-9,15.8-9.6,24.7
						c-0.1,1.8-0.2,3.7,0.1,5.5c0.1,0.4,1,0.4,1.2,0.3c14.9-4.1,29.8-10.9,40.1-22.8c5.4-6.3,9.3-14,10.4-22.2
						C231.4,866.6,231.6,865.1,231.4,863.5z"/>
					<path class="st11" d="M230,914.3c0-0.3-0.7-0.3-1.1-0.2c-15.3,2-31.3,7.3-41.4,19.6c-5.7,7-9,15.7-9.5,24.7
						c-0.1,1.8-0.2,3.7,0.1,5.5c0,0.3,0.9,0.2,1.1,0.2c14.9-4.2,30-11,40.3-23c5.4-6.3,9.2-14,10.4-22.2
						C229.9,917.4,230.1,915.8,230,914.3z"/>
					<path class="st11" d="M229,962.9c0-0.3-0.7-0.6-1.2-0.5c0,0,0,0-0.1,0c0,0,0,0,0,0c0,0,0,0,0,0c-15.3,2-31.3,7.3-41.3,19.7
						c-5.6,7-8.8,15.7-9.3,24.6c-0.1,1.8-0.1,3.6,0.1,5.4c0.1,0.4,1.1,0.6,1.4,0.5c14.9-4.2,30-11,40.1-23.1
						c5.3-6.3,9.1-13.9,10.2-22.1C228.9,965.9,229.1,964.4,229,962.9z"/>
				</g>
				<rect x="176.4" y="814" class="st11" width="3.8" height="283.5"/>
				<g>
					<path class="st11" d="M131,767c0,0-3.5,34.7,48.9,52.3C180,819.3,186.6,777.3,131,767z"/>
				</g>
			</g>
			<g>
				<g>
					<g>
						<path class="st10" d="M85.9,892.1c0,0-2.2,21.7,30.6,32.7C116.5,924.8,120.6,898.5,85.9,892.1z"/>
					</g>
					<g>
						<path class="st10" d="M85.9,923.9c0,0-2.2,21.7,30.6,32.7C116.5,956.6,120.6,930.3,85.9,923.9z"/>
					</g>
					<g>
						<path class="st10" d="M85.7,954.1c0,0-2.2,21.7,30.6,32.7C116.3,986.8,120.4,960.6,85.7,954.1z"/>
					</g>
				</g>
				<g>
					<path class="st10" d="M149.3,892.4c0-0.2-0.6-0.3-0.9-0.3c-9.5,1.3-19.5,4.5-25.7,12.2c-3.6,4.4-5.6,9.8-5.9,15.4
						c-0.1,1.1-0.1,2.3,0,3.4c0,0.3,0.6,0.3,0.8,0.3c9.3-2.6,18.7-6.8,25-14.3c3.3-3.9,5.8-8.7,6.5-13.9
						C149.3,894.3,149.4,893.3,149.3,892.4z"/>
					<path class="st10" d="M149.4,922.4c0-0.2-0.5-0.3-0.8-0.2c-9.5,1.3-19.4,4.5-25.7,12.2c-3.6,4.4-5.6,9.9-6,15.5
						c-0.1,1.1-0.1,2.3,0,3.4c0,0.3,0.6,0.2,0.8,0.2c9.3-2.6,18.6-6.8,25-14.3c3.4-3.9,5.8-8.8,6.5-13.9
						C149.3,924.3,149.4,923.4,149.4,922.4z"/>
					<path class="st10" d="M148.5,954.1c0-0.2-0.4-0.2-0.7-0.1c-9.6,1.3-19.6,4.5-25.9,12.3c-3.6,4.4-5.6,9.8-6,15.5
						c-0.1,1.1-0.1,2.3,0,3.4c0,0.2,0.6,0.1,0.7,0.1c9.3-2.6,18.8-6.9,25.2-14.4c3.4-3.9,5.8-8.7,6.5-13.9
						C148.4,956.1,148.5,955.1,148.5,954.1z"/>
					<path class="st10" d="M147.8,984.5c0-0.2-0.5-0.3-0.7-0.3c0,0,0,0,0,0c0,0,0,0,0,0c0,0,0,0,0,0c-9.6,1.2-19.6,4.5-25.9,12.3
						c-3.5,4.4-5.5,9.8-5.8,15.4c-0.1,1.1-0.1,2.2,0.1,3.4c0,0.3,0.7,0.4,0.9,0.3c9.3-2.6,18.7-6.9,25.1-14.4
						c3.3-3.9,5.7-8.7,6.3-13.8C147.8,986.4,147.9,985.5,147.8,984.5z"/>
				</g>
				<rect x="115" y="891.4" class="st10" width="2.4" height="206.1"/>
				<g>
					<path class="st10" d="M86.6,862c0,0-2.2,21.7,30.6,32.7C117.2,894.7,121.3,868.5,86.6,862z"/>
				</g>
			</g>
			<g>
				<g>
					<g>
						<path class="st10" d="M421.8,892.1c0,0,2.2,21.7-30.6,32.7C391.2,924.8,387.1,898.5,421.8,892.1z"/>
					</g>
					<g>
						<path class="st10" d="M421.8,923.9c0,0,2.2,21.7-30.6,32.7C391.2,956.6,387.1,930.3,421.8,923.9z"/>
					</g>
					<g>
						<path class="st10" d="M422,954.1c0,0,2.2,21.7-30.6,32.7C391.4,986.8,387.3,960.6,422,954.1z"/>
					</g>
				</g>
				<g>
					<path class="st10" d="M358.4,892.4c0-0.2,0.6-0.3,0.9-0.3c9.5,1.3,19.5,4.5,25.7,12.2c3.6,4.4,5.6,9.8,5.9,15.4
						c0.1,1.1,0.1,2.3,0,3.4c0,0.3-0.6,0.3-0.8,0.3c-9.3-2.6-18.7-6.8-25-14.3c-3.3-3.9-5.8-8.7-6.5-13.9
						C358.4,894.3,358.3,893.3,358.4,892.4z"/>
					<path class="st10" d="M358.3,922.4c0-0.2,0.5-0.3,0.8-0.2c9.5,1.3,19.4,4.5,25.7,12.2c3.6,4.4,5.6,9.9,6,15.5
						c0.1,1.1,0.1,2.3,0,3.4c0,0.3-0.6,0.2-0.8,0.2c-9.3-2.6-18.6-6.8-25-14.3c-3.4-3.9-5.8-8.8-6.5-13.9
						C358.4,924.3,358.3,923.4,358.3,922.4z"/>
					<path class="st10" d="M359.2,954.1c0-0.2,0.4-0.2,0.7-0.1c9.6,1.3,19.6,4.5,25.9,12.3c3.6,4.4,5.6,9.8,6,15.5
						c0.1,1.1,0.1,2.3,0,3.4c0,0.2-0.6,0.1-0.7,0.1c-9.3-2.6-18.8-6.9-25.2-14.4c-3.4-3.9-5.8-8.7-6.5-13.9
						C359.3,956.1,359.2,955.1,359.2,954.1z"/>
					<path class="st10" d="M359.9,984.5c0-0.2,0.5-0.3,0.7-0.3c0,0,0,0,0,0c0,0,0,0,0,0c0,0,0,0,0,0c9.6,1.2,19.6,4.5,25.9,12.3
						c3.5,4.4,5.5,9.8,5.8,15.4c0.1,1.1,0.1,2.2-0.1,3.4c0,0.3-0.7,0.4-0.9,0.3c-9.3-2.6-18.7-6.9-25.1-14.4
						c-3.3-3.9-5.7-8.7-6.3-13.8C359.9,986.4,359.8,985.5,359.9,984.5z"/>
				</g>
				
					<rect x="390.3" y="891.4" transform="matrix(-1 -4.596824e-11 4.596824e-11 -1 783.0673 1988.9021)" class="st10" width="2.4" height="206.1"/>
				<g>
					<path class="st10" d="M421.1,862c0,0,2.2,21.7-30.6,32.7C390.5,894.7,386.4,868.5,421.1,862z"/>
				</g>
			</g>
			<g>
				<g>
					<g>
						<path class="st11" d="M367.5,837.3c0,0,2.8,27.4-38.8,41.4C328.7,878.7,323.5,845.5,367.5,837.3z"/>
					</g>
					<g>
						<path class="st11" d="M367.4,877.6c0,0,2.8,27.4-38.8,41.4C328.7,919,323.4,885.8,367.4,877.6z"/>
					</g>
					<g>
						<path class="st11" d="M367.7,915.9c0,0,2.8,27.4-38.8,41.4C329,957.4,323.8,924.1,367.7,915.9z"/>
					</g>
				</g>
				<g>
					<path class="st11" d="M287.1,837.7c0-0.3,0.8-0.4,1.1-0.3c12.1,1.6,24.6,5.7,32.6,15.4c4.5,5.5,7.1,12.5,7.5,19.6
						c0.1,1.4,0.1,2.9-0.1,4.3c0,0.4-0.8,0.4-1.1,0.3c-11.8-3.3-23.6-8.7-31.7-18.1c-4.2-5-7.3-11.1-8.2-17.6
						C287.2,840.1,287.1,838.9,287.1,837.7z"/>
					<path class="st11" d="M287.1,875.7c0-0.3,0.7-0.3,1-0.2c12.1,1.6,24.6,5.7,32.6,15.4c4.5,5.5,7.2,12.5,7.6,19.6
						c0.1,1.4,0.1,2.9-0.1,4.4c0,0.3-0.8,0.3-1,0.2c-11.8-3.3-23.6-8.6-31.7-18.1c-4.3-5-7.4-11.1-8.3-17.6
						C287.1,878.2,287,876.9,287.1,875.7z"/>
					<path class="st11" d="M288.2,915.9c0-0.2,0.5-0.2,0.9-0.1c12.1,1.6,24.8,5.8,32.8,15.5c4.5,5.5,7.1,12.5,7.6,19.6
						c0.1,1.4,0.1,2.9-0.1,4.4c0,0.3-0.7,0.2-0.8,0.1c-11.8-3.3-23.8-8.7-31.9-18.2c-4.2-5-7.3-11.1-8.2-17.6
						C288.3,918.4,288.1,917.1,288.2,915.9z"/>
					<path class="st11" d="M289,954.4c0-0.2,0.6-0.4,0.9-0.4c0,0,0,0,0.1,0c0,0,0,0,0,0c0,0,0,0,0,0c12.1,1.6,24.8,5.7,32.7,15.6
						c4.4,5.5,7,12.4,7.4,19.5c0.1,1.4,0.1,2.8-0.1,4.2c0,0.3-0.8,0.5-1.1,0.4c-11.8-3.3-23.7-8.7-31.8-18.3c-4.2-5-7.2-11-8-17.5
						C289,956.8,288.9,955.6,289,954.4z"/>
				</g>
				
					<rect x="327.6" y="836.5" transform="matrix(-1 -4.658019e-11 4.658019e-11 -1 658.2465 1933.9862)" class="st11" width="3" height="261"/>
				<g>
					<path class="st11" d="M366.6,799.3c0,0,2.8,27.4-38.8,41.4C327.8,840.7,322.6,807.4,366.6,799.3z"/>
				</g>
			</g>
		</g>
	</g>
	<g class="st0">
		<g>
			<g>
				<g>
					<g>
						<path class="st9" d="M517.7,879.7c0,0,2.3,23-32.5,34.7C485.2,914.3,480.8,886.5,517.7,879.7z"/>
					</g>
					<g>
						<path class="st9" d="M517.6,913.4c0,0,2.3,23-32.5,34.7C485.2,948.1,480.8,920.2,517.6,913.4z"/>
					</g>
					<g>
						<path class="st9" d="M517.9,945.5c0,0,2.3,23-32.5,34.7C485.4,980.2,481.1,952.3,517.9,945.5z"/>
					</g>
				</g>
				<g>
					<path class="st9" d="M450.4,880c0-0.3,0.6-0.4,0.9-0.3c10.1,1.3,20.6,4.8,27.3,12.9c3.8,4.6,5.9,10.4,6.3,16.4
						c0.1,1.2,0.1,2.4,0,3.6c0,0.3-0.7,0.3-0.9,0.3c-9.8-2.7-19.8-7.2-26.5-15.2c-3.5-4.2-6.1-9.3-6.9-14.7
						C450.5,882,450.3,881,450.4,880z"/>
					<path class="st9" d="M450.4,911.8c0-0.2,0.6-0.3,0.9-0.2c10.1,1.3,20.6,4.8,27.3,12.9c3.8,4.6,6,10.4,6.3,16.4
						c0.1,1.2,0.1,2.5,0,3.7c0,0.3-0.6,0.2-0.8,0.2c-9.9-2.7-19.8-7.2-26.6-15.1c-3.6-4.2-6.2-9.3-6.9-14.7
						C450.4,913.9,450.3,912.9,450.4,911.8z"/>
					<path class="st9" d="M451.3,945.5c0-0.2,0.4-0.2,0.8-0.1c10.1,1.3,20.7,4.8,27.4,13c3.8,4.6,6,10.4,6.3,16.4
						c0.1,1.2,0.1,2.5,0,3.7c0,0.2-0.6,0.1-0.7,0.1c-9.9-2.8-19.9-7.3-26.7-15.2c-3.6-4.2-6.1-9.3-6.9-14.7
						C451.4,947.5,451.3,946.5,451.3,945.5z"/>
					<path class="st9" d="M452,977.7c0-0.2,0.5-0.4,0.8-0.4c0,0,0,0,0,0c0,0,0,0,0,0c0,0,0,0,0,0c10.2,1.3,20.8,4.8,27.4,13.1
						c3.7,4.6,5.9,10.4,6.2,16.3c0.1,1.2,0.1,2.4-0.1,3.6c0,0.3-0.7,0.4-0.9,0.3c-9.9-2.8-19.9-7.3-26.6-15.3
						c-3.5-4.1-6-9.2-6.7-14.6C452,979.7,451.9,978.7,452,977.7z"/>
				</g>
				
					<rect x="484.3" y="879" transform="matrix(-1 -4.335433e-11 4.335433e-11 -1 971.1264 1976.4757)" class="st9" width="2.5" height="218.5"/>
				<g>
					<path class="st9" d="M516.9,847.8c0,0,2.3,23-32.5,34.7C484.5,882.5,480.1,854.7,516.9,847.8z"/>
				</g>
			</g>
			<g>
				<g>
					<g>
						<path class="st9" d="M667,838.9c0,0,2.7,27.3-38.5,41.2C628.5,880,623.3,847,667,838.9z"/>
					</g>
					<g>
						<path class="st9" d="M666.9,878.9c0,0,2.7,27.3-38.5,41.2C628.4,920.1,623.2,887,666.9,878.9z"/>
					</g>
					<g>
						<path class="st9" d="M667.2,917c0,0,2.7,27.3-38.5,41.2C628.7,958.2,623.5,925.1,667.2,917z"/>
					</g>
				</g>
				<g>
					<path class="st9" d="M587.1,839.3c0-0.3,0.8-0.4,1.1-0.3c12,1.6,24.5,5.7,32.4,15.3c4.5,5.5,7.1,12.4,7.5,19.4
						c0.1,1.4,0.1,2.9-0.1,4.3c0,0.4-0.8,0.4-1.1,0.3c-11.7-3.3-23.5-8.6-31.5-18c-4.2-4.9-7.3-11-8.1-17.5
						C587.2,841.7,587,840.5,587.1,839.3z"/>
					<path class="st9" d="M587.1,877.1c0-0.3,0.7-0.3,1-0.2c12,1.6,24.5,5.7,32.4,15.3c4.5,5.5,7.1,12.4,7.5,19.5
						c0.1,1.4,0.1,2.9-0.1,4.3c0,0.3-0.8,0.3-1,0.2c-11.7-3.3-23.5-8.6-31.5-18c-4.2-4.9-7.3-11-8.2-17.5
						C587.1,879.5,587,878.3,587.1,877.1z"/>
					<path class="st9" d="M588.2,917c0-0.2,0.5-0.2,0.9-0.1c12,1.6,24.6,5.7,32.6,15.4c4.5,5.5,7.1,12.4,7.5,19.5
						c0.1,1.4,0.1,2.9-0.1,4.3c0,0.3-0.7,0.2-0.8,0.1c-11.8-3.3-23.6-8.6-31.7-18.1c-4.2-5-7.3-11-8.2-17.5
						C588.3,919.5,588.1,918.2,588.2,917z"/>
					<path class="st9" d="M589,955.3c0-0.2,0.6-0.4,0.9-0.4c0,0,0,0,0.1,0c0,0,0,0,0,0c0,0,0,0,0,0c12.1,1.6,24.7,5.7,32.5,15.5
						c4.4,5.5,6.9,12.3,7.3,19.4c0.1,1.4,0.1,2.8-0.1,4.2c0,0.3-0.8,0.5-1.1,0.4c-11.7-3.3-23.6-8.7-31.6-18.2
						c-4.1-4.9-7.1-10.9-8-17.4C589,957.7,588.9,956.5,589,955.3z"/>
				</g>
				
					<rect x="627.4" y="838.1" transform="matrix(-1 -4.381707e-11 4.381707e-11 -1 1257.7161 1935.5444)" class="st9" width="3" height="259.4"/>
				<g>
					<path class="st9" d="M666.1,801.1c0,0,2.7,27.3-38.5,41.2C627.6,842.2,622.4,809.2,666.1,801.1z"/>
				</g>
			</g>
			<g>
				<g>
					<g>
						<path class="st9" d="M602.2,838.9c0,0,2.7,27.3-38.5,41.2C563.7,880,558.5,847,602.2,838.9z"/>
					</g>
					<g>
						<path class="st9" d="M602.2,878.9c0,0,2.7,27.3-38.5,41.2C563.7,920.1,558.5,887,602.2,878.9z"/>
					</g>
					<g>
						<path class="st9" d="M602.5,917c0,0,2.7,27.3-38.5,41.2C564,958.2,558.8,925.1,602.5,917z"/>
					</g>
				</g>
				<g>
					<path class="st9" d="M522.4,839.3c0-0.3,0.8-0.4,1.1-0.3c12,1.6,24.5,5.7,32.4,15.3c4.5,5.5,7.1,12.4,7.5,19.4
						c0.1,1.4,0.1,2.9-0.1,4.3c0,0.4-0.8,0.4-1.1,0.3c-11.7-3.3-23.5-8.6-31.5-18c-4.2-4.9-7.3-11-8.1-17.5
						C522.4,841.7,522.3,840.5,522.4,839.3z"/>
					<path class="st9" d="M522.3,877.1c0-0.3,0.7-0.3,1-0.2c12,1.6,24.5,5.7,32.4,15.3c4.5,5.5,7.1,12.4,7.5,19.5
						c0.1,1.4,0.1,2.9-0.1,4.3c0,0.3-0.8,0.3-1,0.2c-11.7-3.3-23.5-8.6-31.5-18c-4.2-4.9-7.3-11-8.2-17.5
						C522.4,879.5,522.2,878.3,522.3,877.1z"/>
					<path class="st9" d="M523.5,917c0-0.2,0.5-0.2,0.9-0.1c12,1.6,24.6,5.7,32.6,15.4c4.5,5.5,7.1,12.4,7.5,19.5
						c0.1,1.4,0.1,2.9-0.1,4.3c0,0.3-0.7,0.2-0.8,0.1c-11.8-3.3-23.6-8.6-31.7-18.1c-4.2-5-7.3-11-8.2-17.5
						C523.5,919.5,523.4,918.2,523.5,917z"/>
					<path class="st9" d="M524.2,955.3c0-0.2,0.6-0.4,0.9-0.4c0,0,0,0,0.1,0c0,0,0,0,0,0c0,0,0,0,0,0c12.1,1.6,24.7,5.7,32.5,15.5
						c4.4,5.5,6.9,12.3,7.3,19.4c0.1,1.4,0.1,2.8-0.1,4.2c0,0.3-0.8,0.5-1.1,0.4c-11.7-3.3-23.6-8.7-31.6-18.2
						c-4.1-4.9-7.1-10.9-8-17.4C524.3,957.7,524.2,956.5,524.2,955.3z"/>
				</g>
				
					<rect x="562.6" y="838.1" transform="matrix(-1 -4.685997e-11 4.685997e-11 -1 1128.2156 1935.5444)" class="st9" width="3" height="259.4"/>
				<g>
					<path class="st9" d="M601.3,801.1c0,0,2.7,27.3-38.5,41.2C562.8,842.2,557.6,809.2,601.3,801.1z"/>
				</g>
			</g>
			<g>
				<g>
					<g>
						<path class="st10" d="M576.6,740.7c0,0,3.8,37.6-53.2,56.8C523.4,797.5,516.3,751.9,576.6,740.7z"/>
					</g>
					<g>
						<path class="st10" d="M576.5,796c0,0,3.8,37.6-53.2,56.8C523.4,852.8,516.2,807.2,576.5,796z"/>
					</g>
					<g>
						<path class="st10" d="M576.9,848.5c0,0,3.8,37.6-53.2,56.8C523.8,905.3,516.6,859.7,576.9,848.5z"/>
					</g>
				</g>
				<g>
					<path class="st10" d="M466.4,741.3c0-0.4,1.1-0.6,1.5-0.5c16.5,2.2,33.8,7.8,44.7,21.2c6.2,7.6,9.7,17.1,10.3,26.8
						c0.1,1.9,0.2,4-0.1,5.9c-0.1,0.5-1.1,0.6-1.5,0.5c-16.1-4.5-32.4-11.9-43.5-24.9c-5.8-6.8-10-15.2-11.2-24.1
						C466.5,744.6,466.3,742.9,466.4,741.3z"/>
					<path class="st10" d="M466.3,793.4c0-0.4,0.9-0.5,1.4-0.3c16.5,2.2,33.8,7.8,44.7,21.1c6.2,7.6,9.8,17.1,10.4,26.9
						c0.1,2,0.2,4-0.1,6c-0.1,0.4-1.1,0.4-1.3,0.3c-16.1-4.5-32.4-11.8-43.5-24.8c-5.8-6.8-10.1-15.2-11.3-24.1
						C466.4,796.8,466.2,795.1,466.3,793.4z"/>
					<path class="st10" d="M467.9,848.5c0-0.3,0.7-0.3,1.2-0.2c16.6,2.2,34,7.9,44.9,21.3c6.2,7.6,9.8,17.1,10.4,26.8
						c0.1,2,0.2,4-0.1,6c0,0.4-1,0.2-1.2,0.2c-16.2-4.5-32.6-11.9-43.7-25c-5.8-6.8-10-15.2-11.3-24.1
						C468,851.9,467.8,850.2,467.9,848.5z"/>
					<path class="st10" d="M469,901.3c0-0.3,0.8-0.6,1.3-0.6c0,0,0.1,0,0.1,0c0,0,0,0,0,0c0,0,0,0,0,0c16.6,2.2,34,7.9,44.9,21.4
						c6.1,7.6,9.6,17,10.1,26.7c0.1,1.9,0.2,3.9-0.1,5.8c-0.1,0.5-1.2,0.6-1.5,0.6c-16.2-4.5-32.5-12-43.6-25.1
						c-5.7-6.8-9.9-15.1-11-24C469,904.6,468.9,902.9,469,901.3z"/>
				</g>
				
					<rect x="521.9" y="739.6" transform="matrix(-1 -4.632129e-11 4.632129e-11 -1 1047.967 1837.0878)" class="st10" width="4.1" height="357.9"/>
				<g>
					<path class="st10" d="M575.3,688.6c0,0,3.8,37.6-53.2,56.8C522.2,745.4,515,699.8,575.3,688.6z"/>
				</g>
			</g>
			<g>
				<g>
					<g>
						<path class="st11" d="M644.6,815c0,0,3.5,34.7-48.9,52.3C595.6,867.3,589,825.3,644.6,815z"/>
					</g>
					<g>
						<path class="st11" d="M644.5,865.9c0,0,3.5,34.7-48.9,52.3C595.6,918.2,589,876.2,644.5,865.9z"/>
					</g>
					<g>
						<path class="st11" d="M644.9,914.3c0,0,3.5,34.7-48.9,52.3C596,966.6,589.4,924.6,644.9,914.3z"/>
					</g>
				</g>
				<g>
					<path class="st11" d="M543.1,815.5c0-0.4,1-0.5,1.4-0.4c15.2,2,31.1,7.2,41.2,19.5c5.7,7,9,15.7,9.5,24.7
						c0.1,1.8,0.2,3.6-0.1,5.4c-0.1,0.5-1,0.5-1.3,0.4c-14.9-4.1-29.8-10.9-40-22.9c-5.3-6.3-9.2-14-10.3-22.2
						C543.2,818.6,543,817,543.1,815.5z"/>
					<path class="st11" d="M543,863.5c0-0.3,0.8-0.4,1.3-0.3c15.2,2,31.1,7.2,41.2,19.5c5.7,7,9,15.8,9.6,24.7
						c0.1,1.8,0.2,3.7-0.1,5.5c-0.1,0.4-1,0.4-1.2,0.3c-14.9-4.1-29.8-10.9-40.1-22.8c-5.4-6.3-9.3-14-10.4-22.2
						C543.1,866.6,542.9,865.1,543,863.5z"/>
					<path class="st11" d="M544.5,914.3c0-0.3,0.7-0.3,1.1-0.2c15.3,2,31.3,7.3,41.4,19.6c5.7,7,9,15.7,9.5,24.7
						c0.1,1.8,0.2,3.7-0.1,5.5c0,0.3-0.9,0.2-1.1,0.2c-14.9-4.2-30-11-40.3-23c-5.4-6.3-9.2-14-10.4-22.2
						C544.6,917.4,544.4,915.8,544.5,914.3z"/>
					<path class="st11" d="M545.5,962.9c0-0.3,0.7-0.6,1.2-0.5c0,0,0,0,0.1,0c0,0,0,0,0,0c0,0,0,0,0,0c15.3,2,31.3,7.3,41.3,19.7
						c5.6,7,8.8,15.7,9.3,24.6c0.1,1.8,0.1,3.6-0.1,5.4c-0.1,0.4-1.1,0.6-1.4,0.5c-14.9-4.2-30-11-40.1-23.1
						c-5.3-6.3-9.1-13.9-10.2-22.1C545.5,965.9,545.4,964.4,545.5,962.9z"/>
				</g>
				
					<rect x="594.2" y="814" transform="matrix(-1 -4.455426e-11 4.455426e-11 -1 1192.2911 1911.4637)" class="st11" width="3.8" height="283.5"/>
				<g>
					<path class="st11" d="M643.4,767c0,0,3.5,34.7-48.9,52.3C594.5,819.3,587.9,777.3,643.4,767z"/>
				</g>
			</g>
			<g>
				<g>
					<g>
						<path class="st10" d="M688.6,892.1c0,0,2.2,21.7-30.6,32.7C658,924.8,653.9,898.5,688.6,892.1z"/>
					</g>
					<g>
						<path class="st10" d="M688.6,923.9c0,0,2.2,21.7-30.6,32.7C658,956.6,653.8,930.3,688.6,923.9z"/>
					</g>
					<g>
						<path class="st10" d="M688.8,954.1c0,0,2.2,21.7-30.6,32.7C658.2,986.8,654.1,960.6,688.8,954.1z"/>
					</g>
				</g>
				<g>
					<path class="st10" d="M625.2,892.4c0-0.2,0.6-0.3,0.9-0.3c9.5,1.3,19.5,4.5,25.7,12.2c3.6,4.4,5.6,9.8,5.9,15.4
						c0.1,1.1,0.1,2.3,0,3.4c0,0.3-0.6,0.3-0.8,0.3c-9.3-2.6-18.7-6.8-25-14.3c-3.3-3.9-5.8-8.7-6.5-13.9
						C625.2,894.3,625.1,893.3,625.2,892.4z"/>
					<path class="st10" d="M625.1,922.4c0-0.2,0.5-0.3,0.8-0.2c9.5,1.3,19.4,4.5,25.7,12.2c3.6,4.4,5.6,9.9,6,15.5
						c0.1,1.1,0.1,2.3,0,3.4c0,0.3-0.6,0.2-0.8,0.2c-9.3-2.6-18.6-6.8-25-14.3c-3.4-3.9-5.8-8.8-6.5-13.9
						C625.2,924.3,625,923.4,625.1,922.4z"/>
					<path class="st10" d="M626,954.1c0-0.2,0.4-0.2,0.7-0.1c9.6,1.3,19.6,4.5,25.9,12.3c3.6,4.4,5.6,9.8,6,15.5
						c0.1,1.1,0.1,2.3,0,3.4c0,0.2-0.6,0.1-0.7,0.1c-9.3-2.6-18.8-6.9-25.2-14.4c-3.4-3.9-5.8-8.7-6.5-13.9
						C626.1,956.1,626,955.1,626,954.1z"/>
					<path class="st10" d="M626.7,984.5c0-0.2,0.5-0.3,0.7-0.3c0,0,0,0,0,0c0,0,0,0,0,0c0,0,0,0,0,0c9.6,1.2,19.6,4.5,25.9,12.3
						c3.5,4.4,5.5,9.8,5.8,15.4c0.1,1.1,0.1,2.2-0.1,3.4c0,0.3-0.7,0.4-0.9,0.3c-9.3-2.6-18.7-6.9-25.1-14.4
						c-3.3-3.9-5.7-8.7-6.3-13.8C626.7,986.4,626.6,985.5,626.7,984.5z"/>
				</g>
				
					<rect x="657.1" y="891.4" transform="matrix(-1 -4.673429e-11 4.673429e-11 -1 1316.6448 1988.9021)" class="st10" width="2.4" height="206.1"/>
				<g>
					<path class="st10" d="M687.9,862c0,0,2.2,21.7-30.6,32.7C657.3,894.7,653.2,868.5,687.9,862z"/>
				</g>
			</g>
			<g>
				<g>
					<g>
						<path class="st11" d="M407,837.3c0,0-2.8,27.4,38.8,41.4C445.8,878.7,451,845.5,407,837.3z"/>
					</g>
					<g>
						<path class="st11" d="M407,877.6c0,0-2.8,27.4,38.8,41.4C445.8,919,451,885.8,407,877.6z"/>
					</g>
					<g>
						<path class="st11" d="M406.7,915.9c0,0-2.8,27.4,38.8,41.4C445.5,957.4,450.7,924.1,406.7,915.9z"/>
					</g>
				</g>
				<g>
					<path class="st11" d="M487.3,837.7c0-0.3-0.8-0.4-1.1-0.3c-12.1,1.6-24.6,5.7-32.6,15.4c-4.5,5.5-7.1,12.5-7.5,19.6
						c-0.1,1.4-0.1,2.9,0.1,4.3c0,0.4,0.8,0.4,1.1,0.3c11.8-3.3,23.6-8.7,31.7-18.1c4.2-5,7.3-11.1,8.2-17.6
						C487.3,840.1,487.4,838.9,487.3,837.7z"/>
					<path class="st11" d="M487.4,875.7c0-0.3-0.7-0.3-1-0.2c-12.1,1.6-24.6,5.7-32.6,15.4c-4.5,5.5-7.2,12.5-7.6,19.6
						c-0.1,1.4-0.1,2.9,0.1,4.4c0,0.3,0.8,0.3,1,0.2c11.8-3.3,23.6-8.6,31.7-18.1c4.3-5,7.4-11.1,8.3-17.6
						C487.4,878.2,487.5,876.9,487.4,875.7z"/>
					<path class="st11" d="M486.3,915.9c0-0.2-0.5-0.2-0.9-0.1c-12.1,1.6-24.8,5.8-32.8,15.5c-4.5,5.5-7.1,12.5-7.6,19.6
						c-0.1,1.4-0.1,2.9,0.1,4.4c0,0.3,0.7,0.2,0.8,0.1c11.8-3.3,23.8-8.7,31.9-18.2c4.2-5,7.3-11.1,8.2-17.6
						C486.2,918.4,486.3,917.1,486.3,915.9z"/>
					<path class="st11" d="M485.5,954.4c0-0.2-0.6-0.4-0.9-0.4c0,0,0,0-0.1,0c0,0,0,0,0,0c0,0,0,0,0,0c-12.1,1.6-24.8,5.7-32.7,15.6
						c-4.4,5.5-7,12.4-7.4,19.5c-0.1,1.4-0.1,2.8,0.1,4.2c0,0.3,0.8,0.5,1.1,0.4c11.8-3.3,23.7-8.7,31.8-18.3c4.2-5,7.2-11,8-17.5
						C485.4,956.8,485.6,955.6,485.5,954.4z"/>
				</g>
				<rect x="443.9" y="836.5" class="st11" width="3" height="261"/>
				<g>
					<path class="st11" d="M407.9,799.3c0,0-2.8,27.4,38.8,41.4C446.7,840.7,451.9,807.4,407.9,799.3z"/>
				</g>
			</g>
		</g>
	</g>
	<polyline class="st12" points="768,1024 -0.4,1018.8 564.1,495.1 768,1024 	"/>
	<g class="st0">
		<path class="st7" d="M386.9,638.1c4.3,12.6-2.5,26.4-15.1,30.7l-130.4,44.3c-12.6,4.3-26.4-2.5-30.7-15.1L109.6,400.6
			c-4.3-12.6,2.5-26.4,15.1-30.7l130.4-44.3c12.6-4.3,26.4,2.5,30.7,15.1L386.9,638.1z"/>
		<g>
			<path class="st6" d="M221.7,368.6c0.6,1.6-0.3,3.4-2,4l-38.3,13c-1.6,0.6-3.4-0.3-4-2l-0.1-0.2c-0.6-1.6,0.3-3.4,2-4l38.3-13
				c1.6-0.6,3.4,0.3,4,2L221.7,368.6z"/>
			<path class="st6" d="M199.9,361.5c0.9,2.6-0.5,5.5-3.1,6.4c-2.6,0.9-5.5-0.5-6.4-3.1c-0.9-2.6,0.5-5.5,3.1-6.4
				C196.2,357.5,199,358.9,199.9,361.5z"/>
			<path class="st6" d="M314.1,664c2.8,8.2-1.6,17.2-9.8,20c-8.2,2.8-17.2-1.6-20-9.8c-2.8-8.2,1.6-17.2,9.8-20
				C302.4,651.4,311.3,655.8,314.1,664z"/>
		</g>
		
			<rect x="162.7" y="384.4" transform="matrix(0.9467 -0.322 0.322 0.9467 -154.2819 107.7668)" class="st10" width="171.7" height="271.5"/>
		<g>
			<g>
				<g>
					<path class="st11" d="M171.6,421.5l7.4,8.7c-6.6,4.9-9.7,13.6-7.3,21.9l-10.6,4.1C156.8,443.2,161.4,429.5,171.6,421.5z"/>
					<path class="st13" d="M185.1,465.8l-5.4,10.2c-8.4-3.3-15.4-10.1-18.6-19.3c0-0.1-0.1-0.3-0.1-0.4l10.6-4.1
						c0.1,0.3,0.2,0.6,0.3,0.9C174.1,459.3,179.1,463.9,185.1,465.8z"/>
					<path class="st14" d="M192.5,466.6l1.6,11.3c-5,0.5-9.9-0.2-14.4-2l5.4-10.2C187.5,466.5,190,466.8,192.5,466.6z"/>
					<path class="st15" d="M211.2,449l10.9,3.6c-2.1,10.7-9.8,20-20.8,23.8c-2.4,0.8-4.8,1.3-7.1,1.5l-1.6-11.3
						c1.7-0.1,3.4-0.5,5.1-1C205.2,463,210.3,456.4,211.2,449z"/>
					<path class="st7" d="M212.7,423.3c3.7,3.4,6.6,7.8,8.3,12.9c1.9,5.5,2.1,11.1,1.1,16.3l-10.9-3.6c0.4-3,0.1-6.1-0.9-9.1
						c-1.3-3.9-3.8-7.2-6.8-9.5L212.7,423.3z"/>
					<path class="st6" d="M212.7,423.3l-9.3,7c-5.2-4-12.2-5.4-18.9-3.1c-2.1,0.7-3.9,1.7-5.6,2.9l-7.4-8.7c2.7-2.1,5.8-3.8,9.3-5
						C192.4,412.6,204.5,415.6,212.7,423.3z"/>
				</g>
				<g>
					<path class="st15" d="M247.7,538.5c3.2-7.2,3.8-15.5,1-23.6c-0.9-2.7-2.2-5.2-3.7-7.5l-24.4,17.7L247.7,538.5z"/>
					<path class="st14" d="M219,527.4l-5.5,30.1c4.9,0.7,10,0.3,15-1.4c8-2.7,14.3-8.3,18-15.2L219,527.4z"/>
					<path class="st6" d="M209.1,491.3l9.4,27.6l12.9-26.1C224.6,489.8,216.8,489.1,209.1,491.3z"/>
					<path class="st11" d="M243.4,505.2c-2.7-3.4-6.1-6.2-9.9-8.3l-11.9,24.1L243.4,505.2z"/>
					<path class="st15" d="M210.7,557.1l5.8-31.6l-10.3-30.4c-16.1,6.3-24.6,24.2-19,40.8C191,546.9,200.1,554.6,210.7,557.1z"/>
				</g>
				<g>
					<path class="st6" d="M252.3,635.8l-0.7-2c16.7-5.7,25.6-23.8,20-40.5c-5.7-16.7-23.8-25.6-40.5-20l-0.7-2
						c17.8-6,37.1,3.5,43.2,21.3C279.6,610.4,270,629.8,252.3,635.8z"/>
				</g>
				<g>
					<path class="st11" d="M250.3,630l-0.7-2c13.5-4.6,20.7-19.3,16.1-32.7c-4.6-13.5-19.3-20.7-32.7-16.1
						c-13.5,4.6-20.7,19.3-16.1,32.7l-2,0.7c-4.9-14.6,2.9-30.4,17.4-35.4c14.6-4.9,30.4,2.9,35.4,17.4S264.9,625,250.3,630z"/>
				</g>
				<g>
					<path class="st14" d="M248.5,624.7c-11.6,4-24.3-2.3-28.3-13.9l2-0.7c3.6,10.6,15.1,16.2,25.7,12.6
						c10.6-3.6,16.2-15.1,12.6-25.7c-3.6-10.6-15.1-16.2-25.7-12.6l-0.7-2c11.6-4,24.3,2.3,28.3,13.9
						C266.4,608,260.2,620.7,248.5,624.7z"/>
				</g>
				<g>
					<path class="st15" d="M246.5,618.8l-0.7-2c7.3-2.5,11.2-10.5,8.7-17.8c-2.5-7.3-10.5-11.2-17.8-8.7
						c-7.3,2.5-11.2,10.5-8.7,17.8l-2,0.7c-2.9-8.4,1.7-17.5,10-20.4c8.4-2.9,17.5,1.7,20.4,10C259.4,606.8,254.9,616,246.5,618.8z"
						/>
				</g>
				<g>
					<path class="st14" d="M244.6,613.3c-5.3,1.8-11.2-1-13-6.4l2-0.7c1.4,4.2,6.1,6.5,10.3,5.1c4.2-1.4,6.5-6.1,5.1-10.3
						c-1.4-4.2-6.1-6.5-10.3-5.1l-0.7-2c5.3-1.8,11.2,1,13,6.4C252.8,605.6,250,611.4,244.6,613.3z"/>
				</g>
			</g>
			<g>
				<g>
					<g>
						<g>
							<path class="st7" d="M274.8,401.5c0,0,4.8,10.6-9.9,21.8C264.9,423.3,258.3,410.7,274.8,401.5z"/>
						</g>
						<g>
							<path class="st7" d="M280.2,417.6c0,0,4.8,10.6-9.9,21.8C270.4,439.4,263.8,426.8,280.2,417.6z"/>
						</g>
						<g>
							<path class="st7" d="M285.6,432.8c0,0,4.8,10.6-9.9,21.8C275.7,454.6,269.1,442.1,285.6,432.8z"/>
						</g>
					</g>
					<g>
						<path class="st15" d="M242.7,412.6c0-0.1,0.2-0.3,0.4-0.3c5-1,10.6-1.1,15.1,1.7c2.5,1.6,4.5,4,5.7,6.8
							c0.2,0.6,0.4,1.1,0.6,1.7c0,0.2-0.3,0.3-0.4,0.3c-5.1,0.3-10.6-0.2-15.1-2.9c-2.4-1.4-4.4-3.4-5.7-5.9
							C243.1,413.5,242.9,413,242.7,412.6z"/>
						<path class="st15" d="M247.9,427.7c0-0.1,0.2-0.2,0.4-0.2c5-1,10.6-1.1,15.1,1.7c2.6,1.6,4.6,4,5.7,6.8
							c0.2,0.6,0.4,1.2,0.6,1.8c0,0.1-0.3,0.2-0.4,0.2c-5.1,0.3-10.6-0.2-15.1-2.9c-2.4-1.4-4.4-3.4-5.7-5.9
							C248.2,428.7,248,428.2,247.9,427.7z"/>
						<path class="st15" d="M253.8,443.6c0-0.1,0.2-0.2,0.3-0.2c5.1-1,10.7-1.1,15.2,1.7c2.6,1.6,4.5,4,5.7,6.8
							c0.2,0.6,0.4,1.2,0.6,1.8c0,0.1-0.3,0.2-0.3,0.2c-5.2,0.3-10.7-0.2-15.2-2.9c-2.4-1.4-4.4-3.4-5.7-5.9
							C254.2,444.6,253.9,444.1,253.8,443.6z"/>
						<path class="st15" d="M259.3,458.9c0-0.1,0.2-0.3,0.3-0.3c0,0,0,0,0,0c0,0,0,0,0,0c0,0,0,0,0,0c5.1-1,10.7-1.1,15.2,1.8
							c2.5,1.6,4.5,4,5.6,6.8c0.2,0.5,0.4,1.1,0.6,1.7c0,0.1-0.3,0.3-0.4,0.3c-5.2,0.3-10.7-0.3-15.2-3c-2.3-1.4-4.4-3.4-5.6-5.9
							C259.7,459.8,259.5,459.4,259.3,458.9z"/>
					</g>
					
						<rect x="276.4" y="403.4" transform="matrix(-0.9467 0.322 -0.322 -0.9467 687.0168 803.2787)" class="st7" width="1.3" height="110.1"/>
					<g>
						<path class="st7" d="M269.2,386.4c0,0,4.8,10.6-9.9,21.8C259.4,408.2,252.8,395.7,269.2,386.4z"/>
					</g>
				</g>
				
					<rect x="277.9" y="509.5" transform="matrix(0.9467 -0.322 0.322 0.9467 -148.6342 121.822)" class="st7" width="31.9" height="1.3"/>
				<circle class="st7" cx="282.3" cy="519.7" r="1.5"/>
				<circle class="st7" cx="291.2" cy="516.7" r="1.5"/>
				<circle class="st7" cx="300" cy="513.7" r="1.5"/>
				<circle class="st7" cx="308.9" cy="510.7" r="1.5"/>
				<circle class="st7" cx="284.4" cy="526" r="1.5"/>
				<circle class="st7" cx="293.3" cy="522.9" r="1.5"/>
				<circle class="st7" cx="302.2" cy="519.9" r="1.5"/>
				<circle class="st7" cx="311" cy="516.9" r="1.5"/>
				<circle class="st7" cx="286.6" cy="532.2" r="1.5"/>
				<circle class="st7" cx="295.4" cy="529.2" r="1.5"/>
				<circle class="st7" cx="304.3" cy="526.2" r="1.5"/>
				<circle class="st7" cx="313.1" cy="523.1" r="1.5"/>
				<circle class="st7" cx="288.7" cy="538.4" r="1.5"/>
				<circle class="st7" cx="297.5" cy="535.4" r="1.5"/>
				<circle class="st7" cx="306.4" cy="532.4" r="1.5"/>
				<circle class="st7" cx="315.3" cy="529.4" r="1.5"/>
				<circle class="st7" cx="290.8" cy="544.7" r="1.5"/>
				<circle class="st7" cx="299.7" cy="541.6" r="1.5"/>
				<circle class="st7" cx="308.5" cy="538.6" r="1.5"/>
				<circle class="st7" cx="317.4" cy="535.6" r="1.5"/>
				<circle class="st7" cx="292.9" cy="550.9" r="1.5"/>
				<circle class="st7" cx="301.8" cy="547.9" r="1.5"/>
				<circle class="st7" cx="310.6" cy="544.9" r="1.5"/>
				<circle class="st7" cx="319.5" cy="541.8" r="1.5"/>
				<circle class="st6" cx="295" cy="557.1" r="1.5"/>
				<circle class="st7" cx="303.9" cy="554.1" r="1.5"/>
				<circle class="st7" cx="312.8" cy="551.1" r="1.5"/>
				<circle class="st7" cx="321.6" cy="548.1" r="1.5"/>
				<circle class="st6" cx="297.2" cy="563.4" r="1.5"/>
				<circle class="st6" cx="306" cy="560.3" r="1.5"/>
				<circle class="st7" cx="314.9" cy="557.3" r="1.5"/>
				<circle class="st7" cx="323.7" cy="554.3" r="1.5"/>
				<circle class="st6" cx="299.3" cy="569.6" r="1.5"/>
				<circle class="st6" cx="308.1" cy="566.6" r="1.5"/>
				<circle class="st6" cx="317" cy="563.6" r="1.5"/>
				<circle class="st7" cx="325.9" cy="560.5" r="1.5"/>
				<circle class="st6" cx="301.4" cy="575.8" r="1.5"/>
				<circle class="st6" cx="310.3" cy="572.8" r="1.5"/>
				<circle class="st6" cx="319.1" cy="569.8" r="1.5"/>
				<circle class="st6" cx="328" cy="566.8" r="1.5"/>
				<circle class="st6" cx="303.5" cy="582.1" r="1.5"/>
				<circle class="st6" cx="312.4" cy="579" r="1.5"/>
				<circle class="st6" cx="321.2" cy="576" r="1.5"/>
				<circle class="st6" cx="330.1" cy="573" r="1.5"/>
				<circle class="st6" cx="305.6" cy="588.3" r="1.5"/>
				<circle class="st6" cx="314.5" cy="585.3" r="1.5"/>
				<circle class="st6" cx="323.4" cy="582.3" r="1.5"/>
				<circle class="st6" cx="332.2" cy="579.2" r="1.5"/>
				<circle class="st16" cx="307.8" cy="594.5" r="1.5"/>
				<circle class="st16" cx="316.6" cy="591.5" r="1.5"/>
				<circle class="st6" cx="325.5" cy="588.5" r="1.5"/>
				<circle class="st6" cx="334.3" cy="585.5" r="1.5"/>
				<circle class="st16" cx="309.9" cy="600.8" r="1.5"/>
				<circle class="st16" cx="318.7" cy="597.7" r="1.5"/>
				<circle class="st16" cx="327.6" cy="594.7" r="1.5"/>
				<circle class="st6" cx="336.5" cy="591.7" r="1.5"/>
				<circle class="st16" cx="312" cy="607" r="1.5"/>
				<circle class="st16" cx="320.9" cy="604" r="1.5"/>
				<circle class="st16" cx="329.7" cy="601" r="1.5"/>
				<circle class="st16" cx="338.6" cy="597.9" r="1.5"/>
				<circle class="st16" cx="314.1" cy="613.2" r="1.5"/>
				<circle class="st16" cx="323" cy="610.2" r="1.5"/>
				<circle class="st16" cx="331.8" cy="607.2" r="1.5"/>
				<circle class="st16" cx="340.7" cy="604.2" r="1.5"/>
			</g>
		</g>
	</g>
	<path class="st17" d="M145.8,88C184.3,8.2,263.6-49.1,358.3-55.2C498.3-64.2,619,42,627.9,182c0.5,7.2,0.6,14.4,0.5,21.6"/>
	<path class="st17" d="M157.8,330.6c-15.9-26-27.3-55.2-33.1-86.6"/>
	<rect x="-552.2" y="155.9" class="st18" width="1326.5" height="918.2"/>
	<g class="st0">
		<path class="st10" d="M89.7,114.8v6.3H72.3V88.4h16.9v6.3H78.9v6.8h9.3v6.1h-9.3v7.2H89.7z"/>
		<path class="st10" d="M94.4,111.1V98.4c0-6.9,3.8-10.6,10.4-10.6c6.3,0,9.8,3.7,10,10.6h-6.6c-0.1-2.9-1.1-4.2-3.4-4.2
			c-2.2,0-3.5,1.2-3.5,4.2v12.7c0,2.9,1.2,4.2,3.5,4.2c2.4,0,3.6-1.2,3.6-4.2v-2.3h-3.9v-5.9H115v8.2c-0.2,6.9-3.8,10.6-10.2,10.6
			C98.3,121.7,94.4,118,94.4,111.1z"/>
		<path class="st10" d="M120.4,88.4h6.5l6.2,14.2c0.8,2.1,1.5,4.2,2.3,6.3l0.1-0.1c-0.6-4.1-0.9-9.7-0.9-12.8v-7.6h6.5v32.7h-6.5
			l-5.5-12.7l-2.9-8l-0.1,0.1c0.5,4.1,0.8,10.2,0.8,13.9v6.6h-6.5V88.4z"/>
		<path class="st10" d="M146.2,111.6h6.8c0,2.6,1.3,3.7,3.4,3.7c2.2,0,3.3-1.3,3.3-2.9c0-5.4-12.8-6.1-12.8-16c0-5,3.5-8.7,9.5-8.7
			s9.7,3.6,9.7,9.6h-6.8c0-2.2-1-3.2-2.9-3.2c-1.7,0-2.8,0.9-2.8,2.4c0,5.1,13,5.5,13,15.9c0,5.4-3.8,9.3-10.3,9.3
			C150.1,121.8,146.2,118.1,146.2,111.6z"/>
		<path class="st10" d="M169.8,111.6h6.8c0,2.6,1.3,3.7,3.4,3.7c2.2,0,3.3-1.3,3.3-2.9c0-5.4-12.8-6.1-12.8-16c0-5,3.5-8.7,9.5-8.7
			s9.7,3.6,9.7,9.6h-6.8c0-2.2-1-3.2-2.9-3.2c-1.7,0-2.8,0.9-2.8,2.4c0,5.1,13,5.5,13,15.9c0,5.4-3.8,9.3-10.3,9.3
			C173.7,121.8,169.8,118.1,169.8,111.6z"/>
		<path class="st11" d="M213.8,113.6h-3.4v7.5h-6.1v-7.5h-11.6v-3.4l6-21.9h6.2l-5.4,19.5h4.9l1-10h5.1v10h3.4V113.6z"/>
		<path class="st10" d="M217.1,111.1V98.4c0-6.9,3.7-10.7,10.1-10.7c6.5,0,10.2,3.7,10.4,10.7H231c-0.2-3-1.3-4.2-3.8-4.2
			c-2,0-3.2,1.3-3.2,4.2v12.7c0,2.8,1.1,4.1,3.2,4.1c2.6,0,3.7-1.2,3.9-4.1h6.6c-0.1,6.9-3.9,10.6-10.6,10.6
			C220.8,121.7,217.1,118,217.1,111.1z"/>
		<path class="st10" d="M254,115.7H247l-1.1,5.4h-6.9l7.9-32.7h7.1l7.9,32.7H255L254,115.7z M252.7,109.4l-0.7-3.7
			c-0.4-2.3-1-6.3-1.3-9h-0.2c-0.3,2.7-0.8,6.6-1.3,9l-0.7,3.7H252.7z"/>
		<path class="st10" d="M286.4,99.5c0,7-4,11.1-10.8,11.1h-2.9v10.5h-6.6V88.4h9.5C282.4,88.4,286.4,92.5,286.4,99.5z M279.6,99.5
			c0-3.2-1.4-4.8-4.1-4.8h-2.8v9.6h2.8C278.2,104.3,279.6,102.6,279.6,99.5z"/>
		<path class="st19" d="M77.8,146.9v2.3h-7.1v-13.8h6.9v2.3h-4.5v3.4h4.1v2.2h-4.1v3.6H77.8z"/>
		<path class="st19" d="M86.9,142.8v6.4h-2.3v-6.4c0-1.5-0.4-2-1.2-2c-0.9,0-1.4,0.7-1.4,1.9v6.5h-2.3v-10.4h1.6l0.2,1.1
			c0.5-0.9,1.4-1.4,2.5-1.4C85.7,138.5,86.9,139.9,86.9,142.8z"/>
		<path class="st19" d="M95.8,142.5v6.7h-1.9l-0.1-1c-0.4,0.7-1.1,1.3-2.3,1.3c-1.9,0-3.1-1.3-3.1-3.2c0-2.2,1.6-3.2,3.9-3.2h1.2
			v-0.6c0-1.1-0.3-1.7-1.2-1.7c-0.6,0-1.2,0.3-1.3,1.1h-2.3c0.1-2.1,1.5-3.4,3.7-3.4C94.7,138.5,95.8,139.9,95.8,142.5z M93.4,144.9
			h-1.2c-1,0-1.6,0.5-1.6,1.3c0,0.7,0.4,1.2,1.3,1.2c0.9,0,1.4-0.6,1.4-1.5V144.9z"/>
		<path class="st19" d="M105.3,142.6v2.8c0,2.5-1.3,4.1-3.3,4.1c-0.9,0-1.8-0.5-2.3-1.2l-0.1,0.9h-1.6V135h2.3v4.3
			c0.5-0.4,1.1-0.7,1.8-0.7C103.9,138.5,105.3,140.1,105.3,142.6z M102.9,142.6c0-1.3-0.5-1.8-1.3-1.8c-0.9,0-1.4,0.6-1.4,1.8v2.8
			c0,1.2,0.6,1.9,1.4,1.9c0.8,0,1.3-0.6,1.3-1.9V142.6z"/>
		<path class="st19" d="M107,135h2.3v14.2H107V135z"/>
		<path class="st19" d="M111.2,135.8c0-0.8,0.6-1.4,1.3-1.4c0.8,0,1.4,0.6,1.4,1.4c0,0.7-0.6,1.4-1.4,1.4
			C111.7,137.2,111.2,136.6,111.2,135.8z M111.4,138.8h2.3v10.4h-2.3V138.8z"/>
		<path class="st19" d="M123.1,142.8v6.4h-2.3v-6.4c0-1.5-0.4-2-1.2-2c-0.9,0-1.4,0.7-1.4,1.9v6.5h-2.3v-10.4h1.6l0.2,1.1
			c0.5-0.9,1.4-1.4,2.5-1.4C122,138.5,123.1,139.9,123.1,142.8z"/>
		<path class="st19" d="M132.3,138.8v10.8c0,2-1.3,3.4-3.6,3.4c-2.2,0-3.5-1.3-3.6-3.4h2.3c0.1,0.7,0.5,1.2,1.3,1.2
			c0.8,0,1.2-0.5,1.2-1.2v-1.4c-0.5,0.3-1.1,0.5-1.7,0.5c-1.9,0-3.3-1.6-3.3-3.9v-2.4c0-2.3,1.4-3.9,3.3-3.9c0.9,0,1.7,0.3,2.3,1
			l0.2-0.7H132.3z M129.9,144.9v-2.4c0-1.1-0.5-1.7-1.4-1.7c-0.9,0-1.4,0.6-1.4,1.7v2.4c0,1.1,0.5,1.7,1.4,1.7
			C129.5,146.5,129.9,146,129.9,144.9z"/>
		<path class="st19" d="M143.3,147.2v2.2h-0.8c-2.2,0-3.5-1.4-3.5-3.6v-4.8h-1.4v-2.1h1.4v-2.5h2.3v2.5h1.8v2.1h-1.8v4.8
			c0,1,0.4,1.4,1.3,1.4H143.3z"/>
		<path class="st19" d="M152.2,142.9v6.3h-2.3v-6.3c0-1.5-0.4-2.1-1.2-2.1c-0.9,0-1.4,0.7-1.4,1.9v6.5h-2.3V135h2.3v4.7
			c0.5-0.7,1.2-1.1,2-1.1C151.1,138.5,152.2,140,152.2,142.9z"/>
		<path class="st19" d="M161.4,145.9c-0.2,2.2-1.6,3.5-3.8,3.5c-2.3,0-3.6-1.5-3.6-4v-2.9c0-2.5,1.4-4,3.7-4c2.3,0,3.7,1.5,3.7,4
			v2.3h-5.1v0.6c0,1.2,0.5,1.8,1.4,1.8c0.9,0,1.3-0.4,1.4-1.3H161.4z M156.3,142.5v0.7h2.8v-0.7c0-1.2-0.5-1.8-1.4-1.8
			C156.8,140.7,156.3,141.3,156.3,142.5z"/>
		<path class="st19" d="M174.4,135v14.3h-1.6l-0.1-1c-0.5,0.6-1.4,1.2-2.3,1.2c-2,0-3.3-1.6-3.3-4.1v-2.8c0-2.5,1.3-4,3.3-4
			c0.6,0,1.3,0.3,1.8,0.7V135H174.4z M172.1,142.6c0-1.2-0.5-1.8-1.4-1.8c-0.9,0-1.3,0.6-1.3,1.8v2.8c0,1.3,0.5,1.9,1.3,1.9
			c0.9,0,1.4-0.6,1.4-1.9V142.6z"/>
		<path class="st19" d="M176.3,135.8c0-0.8,0.6-1.4,1.3-1.4c0.8,0,1.4,0.6,1.4,1.4c0,0.7-0.6,1.4-1.4,1.4
			C176.8,137.2,176.3,136.6,176.3,135.8z M176.5,138.8h2.3v10.4h-2.3V138.8z"/>
		<path class="st19" d="M188.1,138.8v10.8c0,2-1.3,3.4-3.6,3.4c-2.2,0-3.5-1.3-3.6-3.4h2.3c0.1,0.7,0.5,1.2,1.3,1.2
			c0.8,0,1.2-0.5,1.2-1.2v-1.4c-0.5,0.3-1.1,0.5-1.7,0.5c-1.9,0-3.3-1.6-3.3-3.9v-2.4c0-2.3,1.4-3.9,3.3-3.9c0.9,0,1.7,0.3,2.3,1
			l0.2-0.7H188.1z M185.7,144.9v-2.4c0-1.1-0.5-1.7-1.4-1.7c-0.9,0-1.4,0.6-1.4,1.7v2.4c0,1.1,0.5,1.7,1.4,1.7
			C185.2,146.5,185.7,146,185.7,144.9z"/>
		<path class="st19" d="M190,135.8c0-0.8,0.6-1.4,1.3-1.4c0.8,0,1.4,0.6,1.4,1.4c0,0.7-0.6,1.4-1.4,1.4
			C190.6,137.2,190,136.6,190,135.8z M190.2,138.8h2.3v10.4h-2.3V138.8z"/>
		<path class="st19" d="M199.5,147.2v2.2h-0.8c-2.2,0-3.5-1.4-3.5-3.6v-4.8h-1.4v-2.1h1.4v-2.5h2.3v2.5h1.8v2.1h-1.8v4.8
			c0,1,0.4,1.4,1.3,1.4H199.5z"/>
		<path class="st19" d="M208,142.5v6.7h-1.9l-0.1-1c-0.4,0.7-1.1,1.3-2.3,1.3c-1.9,0-3.1-1.3-3.1-3.2c0-2.2,1.6-3.2,3.9-3.2h1.2
			v-0.6c0-1.1-0.3-1.7-1.2-1.7c-0.6,0-1.2,0.3-1.3,1.1h-2.3c0.1-2.1,1.5-3.4,3.7-3.4C206.8,138.5,208,139.9,208,142.5z M205.6,144.9
			h-1.2c-1,0-1.6,0.5-1.6,1.3c0,0.7,0.4,1.2,1.3,1.2c0.9,0,1.4-0.6,1.4-1.5V144.9z"/>
		<path class="st19" d="M210,135h2.3v14.2H210V135z"/>
		<path class="st19" d="M214.1,135.8c0-0.8,0.6-1.4,1.3-1.4c0.8,0,1.4,0.6,1.4,1.4c0,0.7-0.6,1.4-1.4,1.4
			C214.7,137.2,214.1,136.6,214.1,135.8z M214.3,138.8h2.3v10.4h-2.3V138.8z"/>
		<path class="st19" d="M218,145.9h2.3c0,0.7,0.4,1.4,1.5,1.4c0.8,0,1.3-0.4,1.3-1c0-1.8-5-1.3-5-4.8c0-1.8,1.4-3,3.5-3
			c2.4,0,3.4,1.5,3.6,3.4h-2.2c0-0.8-0.4-1.3-1.3-1.3c-0.7,0-1.2,0.4-1.2,0.9c0,1.7,5,1,5,4.8c0,1.9-1.3,3.2-3.6,3.2
			C219.3,149.5,218,147.8,218,145.9z"/>
		<path class="st19" d="M233.9,142.5v6.7H232l-0.1-1c-0.4,0.7-1.1,1.3-2.3,1.3c-1.9,0-3.1-1.3-3.1-3.2c0-2.2,1.6-3.2,3.9-3.2h1.2
			v-0.6c0-1.1-0.3-1.7-1.2-1.7c-0.6,0-1.2,0.3-1.3,1.1h-2.3c0.1-2.1,1.5-3.4,3.7-3.4C232.7,138.5,233.9,139.9,233.9,142.5z
			 M231.5,144.9h-1.2c-1,0-1.6,0.5-1.6,1.3c0,0.7,0.4,1.2,1.3,1.2c0.9,0,1.4-0.6,1.4-1.5V144.9z"/>
		<path class="st19" d="M240.8,147.2v2.2H240c-2.2,0-3.5-1.4-3.5-3.6v-4.8h-1.4v-2.1h1.4v-2.5h2.3v2.5h1.8v2.1h-1.8v4.8
			c0,1,0.4,1.4,1.3,1.4H240.8z"/>
		<path class="st19" d="M242.2,135.8c0-0.8,0.6-1.4,1.3-1.4c0.8,0,1.4,0.6,1.4,1.4c0,0.7-0.6,1.4-1.4,1.4
			C242.7,137.2,242.2,136.6,242.2,135.8z M242.4,138.8h2.3v10.4h-2.3V138.8z"/>
		<path class="st19" d="M246.6,145.4v-2.8c0-2.6,1.4-4,3.8-4c2.4,0,3.8,1.5,3.8,4v2.8c0,2.6-1.4,4-3.8,4
			C248,149.5,246.6,148,246.6,145.4z M251.7,145.4v-2.8c0-1.3-0.5-1.8-1.4-1.8c-0.9,0-1.4,0.5-1.4,1.8v2.8c0,1.2,0.5,1.8,1.4,1.8
			C251.2,147.2,251.7,146.6,251.7,145.4z"/>
		<path class="st19" d="M263.3,142.8v6.4h-2.3v-6.4c0-1.5-0.4-2-1.2-2c-0.9,0-1.4,0.7-1.4,1.9v6.5H256v-10.4h1.6l0.2,1.1
			c0.5-0.9,1.4-1.4,2.5-1.4C262.1,138.5,263.3,139.9,263.3,142.8z"/>
		<path class="st19" d="M70.2,167.4v-2.8c0-2.6,1.4-4,3.8-4c2.4,0,3.8,1.5,3.8,4v2.8c0,2.6-1.4,4-3.8,4
			C71.6,171.4,70.2,170,70.2,167.4z M75.4,167.4v-2.8c0-1.3-0.5-1.8-1.4-1.8c-0.9,0-1.4,0.5-1.4,1.8v2.8c0,1.2,0.5,1.8,1.4,1.8
			C74.9,169.2,75.4,168.6,75.4,167.4z"/>
		<path class="st19" d="M82.4,160.4v0.4h1.9v2.1h-1.9v8.3h-2.3v-8.3h-1.5v-2.1h1.5v-0.4c0-2.1,1.1-3.7,3.7-3.7h0.6v2.1h-0.6
			C82.8,158.7,82.4,159.2,82.4,160.4z"/>
		<path class="st19" d="M96.6,164.4v6.7h-1.9l-0.1-1c-0.4,0.7-1.1,1.3-2.3,1.3c-1.9,0-3.1-1.3-3.1-3.2c0-2.2,1.6-3.2,3.9-3.2h1.2
			v-0.6c0-1.1-0.3-1.7-1.2-1.7c-0.6,0-1.2,0.3-1.3,1.1h-2.3c0.1-2.1,1.5-3.4,3.7-3.4C95.5,160.5,96.6,161.9,96.6,164.4z M94.3,166.9
			h-1.2c-1,0-1.6,0.5-1.6,1.3c0,0.7,0.4,1.2,1.3,1.2c0.9,0,1.4-0.6,1.4-1.5V166.9z"/>
		<path class="st19" d="M105.9,160.8v10.8c0,2-1.3,3.4-3.6,3.4c-2.2,0-3.5-1.3-3.6-3.4h2.3c0.1,0.7,0.5,1.2,1.3,1.2
			c0.8,0,1.2-0.5,1.2-1.2v-1.4c-0.5,0.3-1.1,0.5-1.7,0.5c-1.9,0-3.3-1.6-3.3-3.9v-2.4c0-2.3,1.4-3.9,3.3-3.9c0.9,0,1.7,0.3,2.3,1
			l0.2-0.7H105.9z M103.5,166.8v-2.4c0-1.1-0.5-1.7-1.4-1.7c-0.9,0-1.4,0.6-1.4,1.7v2.4c0,1.1,0.5,1.7,1.4,1.7
			C103.1,168.5,103.5,167.9,103.5,166.8z"/>
		<path class="st19" d="M113.6,160.7v2.2c-0.4-0.2-0.8-0.3-1.3-0.3c-1.2,0-1.9,0.8-1.9,2.3v6.2H108v-10.4h1.6l0.2,1.2
			c0.6-1,1.4-1.5,2.6-1.5C112.9,160.5,113.3,160.6,113.6,160.7z"/>
		<path class="st19" d="M114.6,157.8c0-0.8,0.6-1.4,1.3-1.4c0.8,0,1.4,0.6,1.4,1.4c0,0.7-0.6,1.4-1.4,1.4
			C115.2,159.2,114.6,158.6,114.6,157.8z M114.8,160.8h2.3v10.4h-2.3V160.8z"/>
		<path class="st19" d="M118.9,165.1h4.9v2h-4.9V165.1z"/>
		<path class="st19" d="M132.6,160.8v10.8c0,2-1.3,3.4-3.6,3.4c-2.2,0-3.5-1.3-3.6-3.4h2.3c0.1,0.7,0.5,1.2,1.3,1.2
			c0.8,0,1.2-0.5,1.2-1.2v-1.4c-0.5,0.3-1.1,0.5-1.7,0.5c-1.9,0-3.3-1.6-3.3-3.9v-2.4c0-2.3,1.4-3.9,3.3-3.9c0.9,0,1.7,0.3,2.3,1
			l0.2-0.7H132.6z M130.3,166.8v-2.4c0-1.1-0.5-1.7-1.4-1.7c-0.9,0-1.4,0.6-1.4,1.7v2.4c0,1.1,0.5,1.7,1.4,1.7
			C129.8,168.5,130.3,167.9,130.3,166.8z"/>
		<path class="st19" d="M134.5,167.4v-2.8c0-2.6,1.4-4,3.8-4c2.4,0,3.8,1.5,3.8,4v2.8c0,2.6-1.4,4-3.8,4
			C135.9,171.4,134.5,170,134.5,167.4z M139.7,167.4v-2.8c0-1.3-0.5-1.8-1.4-1.8c-0.9,0-1.4,0.5-1.4,1.8v2.8c0,1.2,0.5,1.8,1.4,1.8
			C139.2,169.2,139.7,168.6,139.7,167.4z"/>
		<path class="st19" d="M142.4,160.8h2.5l0.9,3.9c0.3,1.2,0.6,2.9,0.7,3.8h0.1c0.2-0.8,0.5-2.5,0.7-3.8l0.9-3.9h2.5l-2.8,10.4h-2.6
			L142.4,160.8z"/>
		<path class="st19" d="M159,167.9c-0.2,2.2-1.6,3.5-3.8,3.5c-2.3,0-3.6-1.5-3.6-4v-2.9c0-2.5,1.4-4,3.7-4c2.3,0,3.7,1.5,3.7,4v2.3
			h-5.1v0.6c0,1.2,0.5,1.8,1.4,1.8c0.9,0,1.3-0.4,1.4-1.3H159z M153.8,164.4v0.7h2.8v-0.7c0-1.2-0.5-1.8-1.4-1.8
			C154.3,162.7,153.8,163.2,153.8,164.4z"/>
		<path class="st19" d="M166.3,160.7v2.2c-0.4-0.2-0.8-0.3-1.3-0.3c-1.2,0-1.9,0.8-1.9,2.3v6.2h-2.3v-10.4h1.6l0.2,1.2
			c0.6-1,1.4-1.5,2.6-1.5C165.6,160.5,166,160.6,166.3,160.7z"/>
		<path class="st19" d="M174.8,164.7v6.4h-2.3v-6.4c0-1.5-0.4-2-1.2-2c-0.9,0-1.4,0.7-1.4,1.9v6.5h-2.3v-10.4h1.6l0.2,1.1
			c0.5-0.9,1.4-1.4,2.5-1.4C173.7,160.5,174.8,161.9,174.8,164.7z"/>
		<path class="st19" d="M188.8,164.7v6.4h-2.3v-6.4c0-1.5-0.4-2-1.2-2c-0.8,0-1.4,0.7-1.4,1.9v6.5h-2.3v-6.4c0-1.5-0.4-2-1.2-2
			c-0.8,0-1.4,0.7-1.4,1.9v6.5h-2.3v-10.4h1.6l0.2,1.1c0.5-0.9,1.4-1.4,2.5-1.4c1,0,1.9,0.5,2.4,1.4c0.5-0.9,1.4-1.4,2.5-1.4
			C187.7,160.5,188.8,161.9,188.8,164.7z"/>
		<path class="st19" d="M198,167.9c-0.2,2.2-1.6,3.5-3.8,3.5c-2.3,0-3.6-1.5-3.6-4v-2.9c0-2.5,1.4-4,3.7-4c2.3,0,3.7,1.5,3.7,4v2.3
			h-5.1v0.6c0,1.2,0.5,1.8,1.4,1.8c0.9,0,1.3-0.4,1.4-1.3H198z M192.9,164.4v0.7h2.8v-0.7c0-1.2-0.5-1.8-1.4-1.8
			C193.4,162.7,192.9,163.2,192.9,164.4z"/>
		<path class="st19" d="M207,164.7v6.4h-2.3v-6.4c0-1.5-0.4-2-1.2-2c-0.9,0-1.4,0.7-1.4,1.9v6.5h-2.3v-10.4h1.6l0.2,1.1
			c0.5-0.9,1.4-1.4,2.5-1.4C205.9,160.5,207,161.9,207,164.7z"/>
		<path class="st19" d="M213.8,169.1v2.2h-0.8c-2.2,0-3.5-1.4-3.5-3.6v-4.8h-1.4v-2.1h1.4v-2.5h2.3v2.5h1.8v2.1h-1.8v4.8
			c0,1,0.4,1.4,1.3,1.4H213.8z"/>
		<path class="st19" d="M219.3,167.5v-3.2c0-2.4,1.4-3.9,3.6-3.9c2.4,0,3.7,1.4,3.7,3.9h-2.3c0-1.1-0.5-1.6-1.4-1.6
			s-1.3,0.6-1.3,1.6v3.2c0,1.1,0.5,1.7,1.3,1.7c0.9,0,1.3-0.6,1.4-1.7h2.3c-0.1,2.4-1.5,3.9-3.8,3.9
			C220.6,171.4,219.3,170,219.3,167.5z"/>
		<path class="st19" d="M227.9,167.4v-2.8c0-2.6,1.4-4,3.8-4c2.4,0,3.8,1.5,3.8,4v2.8c0,2.6-1.4,4-3.8,4
			C229.4,171.4,227.9,170,227.9,167.4z M233.1,167.4v-2.8c0-1.3-0.5-1.8-1.4-1.8c-0.9,0-1.4,0.5-1.4,1.8v2.8c0,1.2,0.5,1.8,1.4,1.8
			C232.6,169.2,233.1,168.6,233.1,167.4z"/>
		<path class="st19" d="M244.6,164.7v6.4h-2.3v-6.4c0-1.5-0.4-2-1.2-2c-0.9,0-1.4,0.7-1.4,1.9v6.5h-2.3v-10.4h1.6l0.2,1.1
			c0.5-0.9,1.4-1.4,2.5-1.4C243.5,160.5,244.6,161.9,244.6,164.7z"/>
		<path class="st19" d="M251.4,169.1v2.2h-0.8c-2.2,0-3.5-1.4-3.5-3.6v-4.8h-1.4v-2.1h1.4v-2.5h2.3v2.5h1.8v2.1h-1.8v4.8
			c0,1,0.4,1.4,1.3,1.4H251.4z"/>
		<path class="st19" d="M258.6,160.7v2.2c-0.4-0.2-0.8-0.3-1.3-0.3c-1.2,0-1.9,0.8-1.9,2.3v6.2h-2.3v-10.4h1.6l0.2,1.2
			c0.6-1,1.4-1.5,2.6-1.5C257.9,160.5,258.3,160.6,258.6,160.7z"/>
		<path class="st19" d="M259.6,167.4v-2.8c0-2.6,1.4-4,3.8-4c2.4,0,3.8,1.5,3.8,4v2.8c0,2.6-1.4,4-3.8,4
			C261,171.4,259.6,170,259.6,167.4z M264.7,167.4v-2.8c0-1.3-0.5-1.8-1.4-1.8c-0.9,0-1.4,0.5-1.4,1.8v2.8c0,1.2,0.5,1.8,1.4,1.8
			C264.2,169.2,264.7,168.6,264.7,167.4z"/>
		<path class="st19" d="M268.9,156.9h2.3v14.2h-2.3V156.9z"/>
		<path class="st19" d="M272.4,167.9h2.3c0,0.7,0.4,1.4,1.5,1.4c0.8,0,1.3-0.4,1.3-1c0-1.8-5-1.3-5-4.8c0-1.8,1.4-3,3.5-3
			c2.4,0,3.4,1.5,3.6,3.4h-2.2c0-0.8-0.4-1.3-1.3-1.3c-0.7,0-1.2,0.4-1.2,0.9c0,1.7,5,1,5,4.8c0,1.9-1.3,3.2-3.6,3.2
			C273.8,171.4,272.5,169.8,272.4,167.9z"/>
		<path class="st19" d="M75.3,191.1v2.2h-0.8c-2.2,0-3.5-1.4-3.5-3.6v-4.8h-1.4v-2.1H71v-2.5h2.3v2.5h1.8v2.1h-1.8v4.8
			c0,1,0.4,1.4,1.3,1.4H75.3z"/>
		<path class="st19" d="M84.1,186.8v6.3h-2.3v-6.3c0-1.5-0.4-2.1-1.2-2.1c-0.9,0-1.4,0.7-1.4,1.9v6.5h-2.3v-14.2h2.3v4.7
			c0.5-0.7,1.2-1.1,2-1.1C83.1,182.5,84.1,183.9,84.1,186.8z"/>
		<path class="st19" d="M91.7,182.7v2.2c-0.4-0.2-0.8-0.3-1.3-0.3c-1.2,0-1.9,0.8-1.9,2.3v6.2h-2.3v-10.4h1.6L88,184
			c0.6-1,1.4-1.5,2.6-1.5C91,182.5,91.4,182.6,91.7,182.7z"/>
		<path class="st19" d="M92.7,189.3v-2.8c0-2.6,1.4-4,3.8-4c2.4,0,3.8,1.5,3.8,4v2.8c0,2.6-1.4,4-3.8,4
			C94.1,193.4,92.7,191.9,92.7,189.3z M97.8,189.3v-2.8c0-1.3-0.5-1.8-1.4-1.8c-0.9,0-1.4,0.5-1.4,1.8v2.8c0,1.2,0.5,1.8,1.4,1.8
			C97.3,191.1,97.8,190.6,97.8,189.3z"/>
		<path class="st19" d="M109.3,182.7v10.4h-1.6l-0.2-1.1c-0.5,0.9-1.4,1.4-2.5,1.4c-1.9,0-3-1.4-3-4.2v-6.4h2.3v6.4
			c0,1.5,0.4,2,1.2,2c0.9,0,1.4-0.7,1.4-1.9v-6.5H109.3z"/>
		<path class="st19" d="M118.6,182.7v10.8c0,2-1.3,3.4-3.6,3.4c-2.2,0-3.5-1.3-3.6-3.4h2.3c0.1,0.7,0.5,1.2,1.3,1.2
			c0.8,0,1.2-0.5,1.2-1.2v-1.4c-0.5,0.3-1.1,0.5-1.7,0.5c-1.9,0-3.3-1.6-3.3-3.9v-2.4c0-2.3,1.4-3.9,3.3-3.9c0.9,0,1.7,0.3,2.3,1
			l0.2-0.7H118.6z M116.2,188.8v-2.4c0-1.1-0.5-1.7-1.4-1.7c-0.9,0-1.4,0.6-1.4,1.7v2.4c0,1.1,0.5,1.7,1.4,1.7
			C115.7,190.5,116.2,189.9,116.2,188.8z"/>
		<path class="st19" d="M128,186.8v6.3h-2.3v-6.3c0-1.5-0.4-2.1-1.2-2.1c-0.9,0-1.4,0.7-1.4,1.9v6.5h-2.3v-14.2h2.3v4.7
			c0.5-0.7,1.2-1.1,2-1.1C126.9,182.5,128,183.9,128,186.8z"/>
		<path class="st19" d="M133.9,189v-5.5c0-2.9,1.6-4.4,4.2-4.4c2.6,0,4,1.5,4.1,4.3h-2.4c-0.1-1.4-0.6-2-1.7-2s-1.7,0.6-1.7,2v5.5
			c0,1.4,0.6,2,1.7,2c1.2,0,1.8-0.6,1.8-2v-1.3H138v-2.1h4.3v3.5c-0.1,2.8-1.6,4.3-4.2,4.3C135.5,193.4,133.9,191.8,133.9,189z"/>
		<path class="st19" d="M151,186.4v6.7h-1.9l-0.1-1c-0.4,0.7-1.1,1.3-2.3,1.3c-1.9,0-3.1-1.3-3.1-3.2c0-2.2,1.6-3.2,3.9-3.2h1.2
			v-0.6c0-1.1-0.3-1.7-1.2-1.7c-0.6,0-1.2,0.3-1.3,1.1h-2.3c0.1-2.1,1.5-3.4,3.7-3.4C149.9,182.5,151,183.9,151,186.4z M148.7,188.8
			h-1.2c-1,0-1.6,0.5-1.6,1.3c0,0.7,0.4,1.2,1.3,1.2c0.9,0,1.4-0.6,1.4-1.5V188.8z"/>
		<path class="st19" d="M153,178.9h2.3v14.2H153V178.9z"/>
		<path class="st19" d="M157.2,179.8c0-0.8,0.6-1.4,1.3-1.4c0.8,0,1.4,0.6,1.4,1.4c0,0.7-0.6,1.4-1.4,1.4
			C157.8,181.1,157.2,180.5,157.2,179.8z M157.4,182.7h2.3v10.4h-2.3V182.7z"/>
		<path class="st19" d="M161.7,178.9h2.3v14.2h-2.3V178.9z"/>
		<path class="st19" d="M173.3,189.9c-0.2,2.2-1.6,3.5-3.8,3.5c-2.3,0-3.6-1.5-3.6-4v-2.9c0-2.5,1.4-4,3.7-4c2.3,0,3.7,1.5,3.7,4
			v2.3h-5.1v0.6c0,1.2,0.5,1.8,1.4,1.8c0.9,0,1.3-0.4,1.4-1.3H173.3z M168.1,186.4v0.7h2.8v-0.7c0-1.2-0.5-1.8-1.4-1.8
			C168.6,184.6,168.1,185.2,168.1,186.4z"/>
		<path class="st19" d="M174.8,189.3v-2.8c0-2.6,1.4-4,3.8-4c2.4,0,3.8,1.5,3.8,4v2.8c0,2.6-1.4,4-3.8,4
			C176.2,193.4,174.8,191.9,174.8,189.3z M180,189.3v-2.8c0-1.3-0.5-1.8-1.4-1.8c-0.9,0-1.4,0.5-1.4,1.8v2.8c0,1.2,0.5,1.8,1.4,1.8
			C179.5,191.1,180,190.6,180,189.3z"/>
		<path class="st19" d="M195.8,193.1c-0.2-0.4-0.5-0.7-0.7-1c-0.8,0.8-1.9,1.3-3.1,1.3c-1.8,0-3.5-1.2-3.5-3.5c0-1.8,1-3.1,2.1-4.1
			c-0.8-1.4-1.4-2.5-1.4-3.5c0-1.5,0.9-3.1,3.1-3.1c2.2,0,3.1,1.6,3.1,3.1c0,1.6-1,2.8-2.1,3.9c0.5,0.7,1.1,1.5,1.7,2.5
			c0.2-0.4,0.3-0.8,0.4-1.1h2.2c-0.3,1-0.7,2.1-1.3,3c0.6,0.8,1.2,1.7,1.8,2.7H195.8z M193.9,190.3c-0.7-1-1.4-1.9-2-2.8
			c-0.6,0.7-1.1,1.4-1.1,2.2c0,0.9,0.6,1.5,1.4,1.5C192.8,191.2,193.4,190.9,193.9,190.3z M192.2,184.3c0.7-0.7,1.2-1.3,1.2-2
			c0-0.6-0.3-1.2-1-1.2c-0.5,0-1,0.4-1,1.2C191.4,182.9,191.6,183.4,192.2,184.3z"/>
		<path class="st19" d="M211.4,190.9v2.3h-7.1v-13.8h6.9v2.3h-4.5v3.4h4.1v2.2h-4.1v3.6H211.4z"/>
		<path class="st19" d="M213.1,189v-5.5c0-2.9,1.6-4.4,4.2-4.4c2.6,0,4,1.5,4.1,4.3H219c-0.1-1.4-0.6-2-1.7-2s-1.7,0.6-1.7,2v5.5
			c0,1.4,0.6,2,1.7,2c1.2,0,1.8-0.6,1.8-2v-1.3h-1.9v-2.1h4.3v3.5c-0.1,2.8-1.6,4.3-4.2,4.3C214.7,193.4,213.1,191.8,213.1,189z"/>
		<path class="st19" d="M223.4,179.4h2.4l2.9,6.5c0.4,0.9,0.8,2,1.1,2.8l0.1-0.1c-0.2-1.6-0.3-3.8-0.3-5v-4.2h2.4v13.8h-2.4l-2.7-6
			c-0.4-1.1-0.9-2.3-1.3-3.4l-0.1,0.1c0.2,1.6,0.3,3.9,0.3,5.3v4h-2.4V179.4z"/>
		<path class="st19" d="M234,188.7v-4.9c0-2.9,1.6-4.7,4.3-4.7c2.7,0,4.3,1.7,4.3,4.7v4.9c0,2.9-1.6,4.7-4.3,4.7
			C235.7,193.4,234,191.6,234,188.7z M240.2,188.7v-4.9c0-1.5-0.6-2.3-1.8-2.3c-1.2,0-1.8,0.8-1.8,2.3v4.9c0,1.5,0.6,2.3,1.8,2.3
			C239.6,191,240.2,190.2,240.2,188.7z"/>
		<path class="st19" d="M244.1,189.2h2.5c0,1.2,0.7,1.8,1.7,1.8c1.1,0,1.6-0.6,1.6-1.5c0-2.5-5.5-2.7-5.5-6.8c0-2,1.5-3.6,3.9-3.6
			c2.5,0,4,1.5,4,4h-2.5c0-1.1-0.6-1.6-1.5-1.6c-0.9,0-1.4,0.5-1.4,1.3c0,2.4,5.6,2.5,5.6,6.8c0,2.2-1.5,3.9-4.2,3.9
			C245.7,193.4,244.1,191.9,244.1,189.2z"/>
	</g>
	<g class="st0">
		<g>
			<rect x="316.3" y="81.3" class="st20" width="83.1" height="56.4"/>
			<g>
				<path class="st21" d="M395.3,122.1c0.1,0.1,0.1-0.1,0.2-0.1C395.3,121.9,395.3,122.1,395.3,122.1z"/>
				<polygon class="st21" points="393.5,121.5 393.5,121.5 393.2,121.5 				"/>
				<path class="st21" d="M391.8,120.8c0.1,0.3,0.6,0.2,0.9,0.4l0,0.1l0.2-0.1C392.6,121.1,392.1,121,391.8,120.8z"/>
				<path class="st21" d="M391.2,120c0,0.1-0.2,0,0.2,0.1c0,0,0,0,0,0C391.3,120,391.3,120,391.2,120z"/>
				<path class="st21" d="M391.3,120C391.5,120.1,391.3,119.9,391.3,120L391.3,120z"/>
				<path class="st21" d="M390.5,119.8l0.3,0c0-0.1-0.2-0.2-0.1-0.2C390.4,119.6,390.4,119.6,390.5,119.8z"/>
				<path class="st21" d="M390.2,119.9l0.1,0C390.4,119.8,390.3,119.8,390.2,119.9z"/>
				<path class="st21" d="M390.6,119.9l-0.3,0c0,0.1,0,0.1,0.1,0C390.4,119.9,390.5,119.9,390.6,119.9z"/>
				<path class="st21" d="M390.8,120c0.1,0.1,0.3,0.2,0,0.2C391.2,120.3,391.2,120.1,390.8,120z"/>
				<path class="st21" d="M391.7,121l0.1,0.1l0.2,0C391.9,121.2,391.7,120.9,391.7,121z"/>
				<path class="st21" d="M389.1,119.1c0,0,0,0.2,0,0.2l0.2,0C389.3,119.3,389.1,119.2,389.1,119.1z"/>
				<path class="st21" d="M389.1,119.3l-0.3,0C389.1,119.4,389.1,119.4,389.1,119.3z"/>
				<polygon class="st21" points="390.1,120.1 390.6,120.1 390,120.1 				"/>
				<polygon class="st21" points="388.1,118.8 388.3,118.7 388,118.8 				"/>
				<path class="st21" d="M387.5,118.6c0.1-0.1-0.1-0.2,0-0.2c-0.2,0-0.4,0-0.5,0C387.2,118.4,387.3,118.4,387.5,118.6z"/>
				<path class="st21" d="M386.7,118.4c0.1,0,0.2,0,0.3,0C386.9,118.4,386.8,118.4,386.7,118.4z"/>
				<path class="st21" d="M388.4,119.2c0,0,0-0.1-0.2-0.2l0.1,0.2L388.4,119.2z"/>
				<polygon class="st21" points="388.3,119.1 388.3,119.1 388.1,119 				"/>
				<path class="st21" d="M388.5,119.2L388.5,119.2C388.4,119.2,388.4,119.2,388.5,119.2z"/>
				<path class="st21" d="M389.5,119.7c-0.2,0-0.5,0-0.3,0.2C389.4,119.9,389.2,119.8,389.5,119.7z"/>
				<path class="st21" d="M388.5,119.4l0.3,0.1c0,0,0-0.1,0.1-0.1L388.5,119.4z"/>
				<polygon class="st21" points="388.4,119.4 388.5,119.4 388.4,119.3 				"/>
				<path class="st21" d="M387.2,118.7c-0.1,0-0.3,0-0.4,0c0.1,0.1,0.3,0.1,0.5,0.2C387.2,118.8,387.3,118.7,387.2,118.7z"/>
				<path class="st21" d="M387.7,118.9L387.7,118.9C387.7,118.9,387.7,118.9,387.7,118.9z"/>
				<polygon class="st21" points="385.3,118.2 385.3,118.2 385.3,118.2 				"/>
				<path class="st21" d="M387.2,118.9c0.1,0.1,0.2,0.1,0.3,0C387.4,118.9,387.3,118.9,387.2,118.9
					C387.2,118.8,387.2,118.9,387.2,118.9z"/>
				<path class="st21" d="M386.3,118.3c0.1,0,0.1,0.1,0.2,0.1C386.4,118.4,386.3,118.3,386.3,118.3z"/>
				<path class="st21" d="M387.7,118.9C387.7,118.9,387.7,118.9,387.7,118.9C387.7,118.8,387.7,118.8,387.7,118.9z"/>
				<path class="st21" d="M387.7,118.9c-0.1,0-0.1,0-0.2,0C387.6,118.9,387.6,118.9,387.7,118.9
					C387.7,118.9,387.7,118.9,387.7,118.9z"/>
				<path class="st21" d="M384.6,119c0.1-0.1,0.4-0.2,0.6,0.1c0.3,0,0.3-0.5,0.1-0.8c0,0.1,0,0.1-0.3,0.1c0.1,0.1,0.6,0.3,0.3,0.4
					c-0.4,0-0.3-0.1-0.4-0.3c0.1,0.2-0.5,0.1-0.5,0.4l0.3,0C384.6,118.9,384.5,118.9,384.6,119z"/>
				<path class="st21" d="M385.8,118.4l0.1,0c-0.1-0.1-0.2-0.1-0.3-0.3c-0.2,0-0.3,0-0.3,0.1L385.8,118.4L385.8,118.4z"/>
				<path class="st21" d="M386.4,118.6c-0.1,0.1-0.4,0.1-0.3,0.3c0.3,0.1,0.3,0,0.5-0.1C386.1,118.7,386.8,118.8,386.4,118.6
					c0.1,0,0.2,0,0.3,0.1C386.6,118.6,386.6,118.5,386.4,118.6L386.4,118.6L386.4,118.6L386.4,118.6
					C386.5,118.5,386.5,118.5,386.4,118.6C386.5,118.5,386.5,118.5,386.4,118.6C386.5,118.5,386.5,118.5,386.4,118.6
					C386.3,118.5,386.4,118.5,386.4,118.6C386.5,118.5,386.5,118.5,386.4,118.6L386.4,118.6l-0.5-0.2
					C386,118.5,386.2,118.5,386.4,118.6z"/>
				<path class="st21" d="M388.8,120.2C388.8,120.1,388.8,120.1,388.8,120.2C388.8,120.1,388.8,120.1,388.8,120.2z"/>
				<path class="st21" d="M388.6,120c0,0,0.1-0.1,0.2,0c0.1,0.1,0,0.1,0,0.1c0.1,0,0.3,0,0.1-0.2l0,0c-0.2-0.1-0.4-0.4-0.4-0.4
					C388.5,119.7,388.6,119.8,388.6,120z"/>
				<path class="st21" d="M387.5,119.3l-0.5-0.1l0.2,0.2l0-0.1C387.5,119.5,387.5,119.3,387.5,119.3z"/>
				<polygon class="st21" points="385.3,118.1 385.4,118 385.1,118.1 				"/>
				<polygon class="st21" points="384.7,117.9 384.7,117.8 384.6,117.9 				"/>
				<path class="st21" d="M351.4,116.2l-0.1,0C351.3,116.2,351.3,116.2,351.4,116.2z"/>
				<path class="st21" d="M352.3,116.1L352.3,116.1C352.3,116.1,352.3,116.1,352.3,116.1z"/>
				<path class="st21" d="M370.3,115.1c-0.2-0.2-0.4-0.4-0.4-0.2l0,0.2C370.1,115,370.2,115.1,370.3,115.1z"/>
				<polygon class="st21" points="360.2,115.3 360.3,115.3 360.4,115.2 				"/>
				<path class="st21" d="M360.1,115.9l-0.3-0.1C359.9,115.8,360,115.9,360.1,115.9z"/>
				<path class="st21" d="M346.1,116.7l-0.1,0.2C346.2,116.8,346.1,116.8,346.1,116.7z"/>
				<path class="st21" d="M378.7,116.5c-0.2-0.1-0.3-0.1-0.4-0.2C378.5,116.5,378.6,116.7,378.7,116.5z"/>
				<path class="st21" d="M351.7,114.5c-0.1,0-0.1,0.1-0.1,0.1C351.6,114.6,351.7,114.6,351.7,114.5z"/>
				<path class="st21" d="M377.8,116.3C377.9,116.3,377.9,116.3,377.8,116.3c0.2,0.1,0.3,0.1,0.5,0.1
					C378.2,116.3,378,116.2,377.8,116.3z"/>
				<path class="st21" d="M327.5,120.3C327.5,120.3,327.5,120.3,327.5,120.3C327.5,120.3,327.5,120.3,327.5,120.3z"/>
				<path class="st21" d="M321.7,120.9c0,0,0.1-0.1,0.2-0.1C321.9,120.8,321.8,120.9,321.7,120.9z"/>
				<path class="st21" d="M382.4,117.3C382.5,117.3,382.4,117.2,382.4,117.3L382.4,117.3z"/>
				<path class="st21" d="M382.8,118C382.8,118,382.8,118,382.8,118C382.8,118,382.8,118,382.8,118z"/>
				<path class="st21" d="M376.4,117L376.4,117C376.4,117,376.4,117,376.4,117z"/>
				<path class="st21" d="M382.5,117.4c0,0-0.1-0.1-0.1-0.1C382.4,117.3,382.5,117.3,382.5,117.4z"/>
				<path class="st21" d="M382.5,117.3l0.1,0C382.7,117.3,382.6,117.3,382.5,117.3z"/>
				<path class="st21" d="M382.2,117.2c0.1,0,0.1,0,0.2,0.1c0,0,0,0,0,0L382.2,117.2z"/>
				<path class="st21" d="M337.3,117.4C337.3,117.4,337.3,117.4,337.3,117.4C337.1,117.5,337.2,117.4,337.3,117.4z"/>
				<path class="st21" d="M366.9,116.4C366.9,116.4,366.9,116.4,366.9,116.4L366.9,116.4L366.9,116.4z"/>
				<path class="st21" d="M366.4,116.4c0.2-0.2,0.3-0.1,0.5-0.1l-0.1-0.5L366.4,116.4z"/>
				<path class="st21" d="M349.1,116.3l0.3,0.1c-0.4,0.3-0.6,0.2-0.3,0.4c0-0.5,1.2-0.1,1.2-0.6l0.2,0.1c-0.1,0-0.1,0-0.1,0
					c0.4,0.2,0.3-0.4,0.8-0.3c0.2,0,0.3,0.1,0.2,0.2l0.4-0.1c0.1,0,0.1,0.1,0,0.1l0.6-0.1l0,0c0.1-0.1,0.3-0.2,0.4-0.3
					c0.2,0.1-0.1,0.1,0,0.1l0.3-0.1c0.1,0.1-0.1,0.2-0.4,0.2c0.3,0.5,0.3-0.1,1,0.1l-0.3,0.1c0.2,0.3,0.5,0.2,0.8,0.3
					c-0.1-0.1-0.7-0.4-0.4-0.5c0.1,0,0.2,0,0.4-0.1c0,0.2,0.2,0.1,0.4,0.1l0,0.2c0.3-0.1,0.2-0.2,0.4-0.3c0.3,0,0.4,0.2,0.4,0.3
					c0.5,0-0.3-0.3,0.2-0.3c0.4,0.1,0.7,0,1.1-0.1c0.3,0.1,0,0.1,0.1,0.2l0.2-0.2c0.1,0,0,0.1,0,0.1c0.2-0.1,0-0.2,0.3-0.3
					c0.1-0.2,0.7,0.4,1.1,0.1c0.1,0.1,0,0.1,0,0.2c0.6-0.2,0.5-0.1,0.9-0.4l0.4,0.2c-0.3-0.2,0.1-0.4,0.4-0.5
					c-0.1-0.1-0.2-0.2-0.2-0.2l0.5-0.1c0.1,0,0,0.1-0.1,0.2c0,0,0.1,0,0.1-0.1c0.2,0.1,0.1,0.2-0.1,0.3c-0.1,0-0.1-0.1-0.2-0.1
					c-0.1,0.1-0.2,0.3-0.2,0.4c0,0,0.1,0,0.2-0.1c0,0-0.1,0.1,0,0.1c0,0,0.1,0,0.2-0.1l0.1,0.3l0-0.1l0.7,0.2
					c0.5-0.2,0.9-0.6,1.7-0.7c-0.2,0.2-0.1,0.3-0.1,0.5c-0.2-0.2-0.6,0.1-1,0c0.2,0,0.2,0.1,0.1,0.2l0.7-0.2c0,0.2,0.1,0.1,0.3,0.2
					c-0.1-0.4,0.5-0.2,0.8-0.3c0,0.1-0.1,0.2-0.4,0.2c0.4,0.3,0.5-0.4,0.9-0.1c-0.1,0-0.1,0-0.2,0c0.2-0.1,0.7,0,0.6,0.1l-0.1,0
					c0.6,0.1,1.7,0.1,1.8-0.2c0,0-0.1,0.4-0.1,0.4l1.1-0.9c-0.1,0.2,0.2,0.9-0.3,1c0.1,0,0.3,0.1,0.6,0c-0.1,0-0.2-0.4-0.1-0.4
					c0.3,0.3,0.2,0.2,0.6,0.5c-0.1-0.1,0.1-0.5,0.3-0.4c0,0.1,0,0.4-0.1,0.4l0.6-0.3c-0.1,0.1-0.1,0.3,0,0.5c0-0.1,0.5,0.1,0.6,0
					l-0.2-0.1c0.6,0.1,0.7-0.5,1.2-0.4c-0.1,0.1-0.2,0.5,0.1,0.6c0.2-0.2,0.7-0.9,1.3-1l0.1,0.1l0.4-0.1c-0.3,0.3-1.1,0.8-1.5,1
					c0.2,0.1,0,0.1,0.4,0.2c0.1,0.1-0.2,0.1-0.3,0.1l0.8,0.2c0-0.2,0.6-0.2,0.6-0.4l-0.9,0.1c0-0.2,0.6-0.6,1.1-0.5
					c0.1,0.1-0.2,0.4-0.2,0.5c0.1-0.1,0.5-0.1,0.6,0l-0.3,0.1c0.3,0.1,0.5-0.2,0.9,0c0.1,0,0.3,0.4,0.4,0.2
					c-0.2-0.3-0.1-1.1,0.1-1.3c0,0,0.6,0.4,0.8,0.5c0.2,0.2-0.4,0.4-0.2,0.7c0-0.1,0.1-0.1,0.2-0.1c0.1,0.1-0.1,0.2,0.2,0.2
					c0.1-0.2,0.6,0.1,0.2-0.2c0.3,0,0.3,0.1,0.6,0.1c-0.1-0.2,0.4-0.5,0.7-0.5c0,0.1,0,0.1,0,0.2c0.6,0.1,0.9,0.3,1.4,0.4
					c0,0.1,0.3,0.2,0.2,0.3c0.1,0,0.2-0.1,0.3-0.1c0.3,0.3-0.4,0-0.2,0.3c0-0.1,0.5-0.1,0.7-0.1c0-0.2-0.5-0.2-0.8-0.1
					c0.1-0.3,0.5-0.5,1.1-0.5c0.5,0,0.2,0.2,0.2,0.2c0.8,0.2,0.8-0.3,1.5,0c0.2,0.3-0.1,0.4,0,0.5c-0.4,0-0.5-0.2-0.8-0.3l0.3,0.2
					c-0.1,0-0.4,0-0.5-0.1c0.2,0.2,1.4,0.4,2,0.7c0.1,0,0.3,0,0.3-0.1l-0.2,0c-0.2-0.2,0.4-0.1,0.2-0.2c0.3,0,0.6-0.1,1,0.1l0,0.2
					c0-0.1-0.2-0.2-0.3-0.2c0.2-0.1,0.5,0.4,0.8,0.2l-0.2-0.2c0.3,0,0.7-0.2,1,0c-0.1-0.2-0.1,0-0.3-0.3c0.1,0.4-0.9-0.3-0.6,0.2
					c-0.2-0.3-0.4-0.2-0.7-0.6c0,0.1,0.1,0.2-0.2,0.1c0,0-0.1,0-0.1,0l0,0l0,0c0,0,0,0,0,0c0.1,0,0.1,0.1,0.1,0.1
					c-0.2,0.1-0.6,0-0.8,0c-0.2-0.1,0.1-0.1,0-0.2l-0.3,0.1c0-0.2-0.4-0.4,0-0.4l-0.4-0.1c-0.2-0.1-0.5-0.2-0.7-0.2
					c-0.2-0.1-0.5,0.1-0.3,0l-0.6,0l0,0c-0.6-0.1-1.2,0-1.8-0.4c-0.2,0-0.4,0-0.7-0.1l0-0.1c-0.3,0-0.7-0.3-0.8-0.2
					c-0.2-0.4-1.2-0.3-1.6-0.4l0,0.2c-0.3-0.1-0.6-0.1-1,0l0,0.2c-0.3,0.1-0.8-0.2-1.3-0.3c0-0.1,0.2,0,0.3,0
					c-0.6-0.4-1.3,0.1-1.8-0.2c-0.1,0-0.2,0-0.3,0c0,0,0,0,0,0c0,0,0,0-0.1,0c-0.1,0-0.1-0.1-0.2-0.1c0.1,0,0.1,0.1,0.2,0.1
					c-0.1,0-0.3,0-0.4,0l0-0.2c0,0,0,0,0,0c-0.1-0.1-0.1,0.1-0.1,0.2c-0.1,0-0.2,0-0.2,0.1c-0.1-0.3-0.4,0-0.6-0.3
					c-0.1,0.1-0.8,0-0.9,0.3c0,0,0-0.1,0-0.1c-0.2-0.1-0.3-0.1-0.5,0l-0.1-0.2l-0.4,0.3c-0.2-0.2-0.3-0.2-0.1-0.4
					c-0.6,0.2-0.5,0.1-1,0.3l0-0.1c-0.2,0-0.5,0.2-0.5,0c-0.4-0.3-1.9-0.2-2.8-0.5c0.2,0.4-0.4-0.2-0.5,0.1c-0.1-0.1-0.2-0.2,0-0.2
					c-0.5,0.1-0.7-0.2-1.1,0.1c-0.1-0.1,0.1-0.1,0.1-0.2c0,0-0.2,0.1-0.2,0c0-0.1,0.1-0.1,0.2-0.1c-0.5,0-0.6,0.3-0.6,0.6
					c-0.3-0.1-0.4-0.1-0.6,0.1c-0.1-0.1-0.2-0.2,0.1-0.2c-0.2,0-1.1-0.2-1.1,0.1c-0.1-0.1-0.2,0-0.3,0c-0.4,0-0.4,0-0.8,0l0.1,0
					c-0.2,0.3-0.3,0.1-0.6,0.1l0,0c-0.7-0.2-0.3,0.1-1-0.1l0,0.2c-0.1,0.4-0.6-0.2-1-0.1l0.2,0.1c-0.2,0.1-0.6-0.5-0.9-0.5
					c-0.1,0,0.1-0.1,0.1-0.1c-0.6-0.2-0.1,0.2-0.5,0.3c-0.1-0.1,0.1-0.3-0.2-0.3c-0.2-0.1-0.9,0.4-1.3,0.2c0.1,0.1,0.2,0.2,0,0.3
					c-0.3,0-0.9-0.3-1.1,0c0,0-0.1,0-0.1-0.1c-0.2,0.1-0.8,0.2-0.9,0.3c-0.3-0.6-1.5,0.4-1.5-0.2l-0.7,0.1l0-0.1
					c-0.5,0-0.6,0.1-0.8,0.3c-0.1,0,0-0.1,0-0.1c-0.7-0.1-0.8,0-1.3,0.3l-0.1-0.2c-0.1,0.1-1-0.2-1.7,0.1c0,0,0-0.1,0.1-0.1
					c-0.7,0.3-1.9-0.3-2.1,0.4l-0.5,0.2c0.7,0-0.1,0.3,0.2,0.4c-0.2,0.1-0.7-0.1-0.4-0.2l0.1,0c0.1-0.3-0.8,0-0.8-0.2
					c-1.3,0.2-2.5,0.2-3.7,0.4l0.2,0.2l-0.4,0.1c-0.1,0-0.2-0.2,0.1-0.2c-0.2-0.1-0.5,0.2-0.5,0.3c-0.6,0,0.2-0.3,0-0.3l-0.2,0.1
					l0.1,0c-0.2,0.1-0.2,0.3-0.5,0.3c-0.2,0-0.1-0.1-0.2-0.1c0,0,0,0-0.1,0l-0.5,0.1l0.2,0.2c-0.2,0.1-0.5,0.1-0.2,0.3
					c-0.4-0.3-2,0.3-2.2,0.3c-0.3,0.2-0.6,0.3-1,0.4c0.1,0,0.2,0.2-0.1,0.3c0-0.5-0.7,0-1-0.3c0.3,0.1-0.9,0.3-0.5,0.5
					c-0.3,0-0.1-0.2-0.3-0.2c-0.6,0.4-1.5,0.3-2.3,0.6c0,0.1,0.2,0.1,0,0.3l-0.5-0.2c-0.2,0.1,0,0.4-0.4,0.3c0.1,0,0.1,0.1,0,0.1
					c-0.8,0.1-1.6,0.5-2.4,0.8c-0.8,0.3-1.6,0.7-2.5,0.8c0.3,0,0.1,0.1,0,0.2c0.1,0,0.1,0.1,0.1,0.2l-0.7,0.1c0,0.3-0.7,0.3-0.7,0.6
					l0.2-0.1c-0.2,0.4,0.6,0.3,0.7,0.7c0.2-0.4,1,0,1.3-0.6c0.1,0,0,0.1,0,0.2c0.1-0.2,0.2-0.3,0.5-0.3l0,0c0.8-0.4,1.2-0.4,2.1-0.6
					l-0.1-0.1c0.2-0.1,0.3,0,0.4,0c0.1-0.3-0.6,0.2-0.4-0.1c0.4,0.2,1.4-0.5,1.7-0.2c0.3-0.1-0.2-0.2,0.2-0.3l0.1,0.1l0-0.2
					c0.2,0,0.3,0,0.4,0.1c-0.1,0-0.1,0.1-0.2,0.1c0.3,0,0.7-0.3,0.8-0.3l-0.3,0c0.8-0.4,1.9-0.5,2.6-1l-0.1-0.1
					c0.6-0.3,0.5-0.1,1.2-0.3l0,0c0.1-0.1,0.3-0.2,0.5-0.2c-0.2,0.1,0.4,0.1,0.2,0.2c0.6-0.3,0.3-0.2,0.7-0.6l0.1,0.1
					c0.1-0.2,0.1-0.2,0.5-0.3c-0.3,0.2,0.3,0.1,0,0.4c0.8,0.1,1-0.5,1.4-0.2c0.3-0.4-0.7-0.1-0.5-0.2c-0.2-0.1,0.2-0.3,0.5-0.3
					c0.2,0,0.5,0.4,1.1,0.2c-0.1,0-0.1,0-0.1,0c0.2,0,0.4-0.2,0.7-0.1c0.1-0.2,0.4-0.1,0.3-0.3l-0.5,0.2c0.3-0.1,0.5-0.5,1.1-0.4
					c0,0.1-0.2,0.2-0.3,0.2c0.2,0.1,0.3-0.1,0.4-0.1c0,0.3-0.6,0.2-0.9,0.5c0.2,0.1,0.6-0.3,0.5,0c0.2-0.4,0.6-0.1,0.9-0.4l0,0.2
					c0.1,0,0.2-0.1,0.3-0.2l-0.2,0.3c0.3-0.2,0.6,0.1,0.9-0.1c-0.6,0.1-0.2-0.2-0.5-0.2c0.8-0.4,0.5,0.4,1.4,0.1
					c-0.1,0-0.5,0-0.3-0.1c0.2,0,0.4,0,0.5,0.1c0.6-0.1-0.1-0.2,0.1-0.3c0.2,0.2,0.3-0.1,0.5-0.2l0,0.2c0.7,0,0.1-0.4,0.8-0.3
					l-0.2,0.3l0.3-0.1l0,0.2c0.3-0.2,0.4-0.2,0.8-0.2c-0.1-0.1,0-0.3,0.3-0.4c0.2,0.1-0.1,0.2,0.3,0.1c-0.1,0.1-0.2,0.3-0.4,0.1
					c0,0.1-0.1,0.1-0.1,0.2c0.2,0.1,0.6,0,0.7-0.1c-0.1,0-0.1,0-0.2,0l0.6-0.3c0.1,0.1,0,0.1,0,0.2c0.1,0,0.2-0.1,0.4-0.2
					c0,0.1,0,0.3-0.3,0.4l0.6-0.2c0,0.1,0.3,0.1,0.2,0.2c0.3,0,0.8-0.4,1.2-0.3c0,0,0.1-0.1,0.2-0.1c0.4,0,0.8,0.1,1.3-0.1l0.3,0.2
					c0.4-0.1-0.4-0.3,0.2-0.4c0.4-0.1,0.2,0.2,0.3,0.3c0.2-0.1,0.6-0.4,1-0.2C349.3,116.3,349.2,116.3,349.1,116.3z M353.7,116
					c-0.1,0-0.3,0.2-0.3,0.1C353.5,115.9,353.6,116,353.7,116z M360.9,115.6c-0.1,0.1-0.2,0-0.3,0
					C360.7,115.6,360.8,115.6,360.9,115.6z M381,117.1C381,117.1,381,117.1,381,117.1C380.8,117,380.9,117,381,117.1z M381.4,117.2
					C381.4,117.2,381.4,117.2,381.4,117.2c0,0-0.1,0-0.2-0.1C381.2,117.2,381.3,117.2,381.4,117.2z M335.7,116.5L335.7,116.5
					C335.7,116.6,335.7,116.6,335.7,116.5z"/>
				<path class="st21" d="M360.1,115.8C360.1,115.8,360.1,115.8,360.1,115.8C360,115.8,360,115.8,360.1,115.8z"/>
				<path class="st21" d="M346.2,116.7L346.2,116.7C346.1,116.7,346.1,116.7,346.2,116.7L346.2,116.7z"/>
				<path class="st21" d="M374.6,117.3c-0.1,0-0.1-0.1-0.2-0.1C374.5,117.3,374.5,117.3,374.6,117.3z"/>
				<path class="st21" d="M383.7,117.5l-0.3,0C383.5,117.5,383.6,117.6,383.7,117.5C383.6,117.6,383.6,117.5,383.7,117.5z"/>
				<path class="st21" d="M385.7,119.2c0,0,0.1,0,0.1,0l0-0.1C385.6,119.1,385.5,119.1,385.7,119.2z"/>
				<path class="st21" d="M383.8,118.1c0,0.1,0.2,0.1,0.4,0.2c0,0,0,0,0,0C384.2,118.1,384,118.1,383.8,118.1z"/>
				<path class="st21" d="M384.2,118.3c0.1,0,0.1,0,0.2,0C384.4,118.3,384.3,118.3,384.2,118.3z"/>
				<path class="st21" d="M381.9,117.3c0.1,0.1,0.1-0.2,0.1-0.1C382.2,117,381.4,117.2,381.9,117.3z"/>
				<polygon class="st21" points="383.8,118.6 383.8,118.4 383.6,118.5 				"/>
				<path class="st21" d="M382.4,118.1l0.3,0.1c0,0,0,0,0.1,0C382.6,118.1,382.4,118.1,382.4,118.1z"/>
				<path class="st21" d="M382.7,118.2c0.1,0,0.2,0,0.2,0C382.9,118.2,382.8,118.2,382.7,118.2z"/>
				<polygon class="st21" points="383.4,118.6 383.3,118.5 383.1,118.4 				"/>
				<path class="st21" d="M379.2,117.3l-0.3,0c0,0.1,0,0.1,0.2,0.1C379.1,117.4,379.2,117.4,379.2,117.3z"/>
				<path class="st21" d="M380.1,118c-0.1-0.1-0.1-0.1-0.1-0.2l-0.1,0.2L380.1,118z"/>
				<path class="st21" d="M379.1,117.9c0,0.1-0.5,0.1-0.1,0.1C379.1,117.9,379.4,118,379.1,117.9z"/>
				<polygon class="st21" points="374.2,116.7 374.3,116.7 374.4,116.3 				"/>
				<path class="st21" d="M369.8,116.9c0.4,0.1,0.1-0.2,0.5-0.1c0.1-0.1-0.3-0.1-0.2-0.2C369.8,116.7,369.7,116.7,369.8,116.9z"/>
				<path class="st21" d="M370,116.7c0,0,0.1,0,0.1,0C370.1,116.6,370.1,116.7,370,116.7z"/>
				<polygon class="st21" points="320.8,121.2 320.5,121.2 320.7,121.2 				"/>
				<path class="st21" d="M320.5,121.6l-0.2-0.2l0,0.3C320.3,121.7,320.4,121.6,320.5,121.6z"/>
				<path class="st21" d="M354.5,116.5L354.5,116.5c0-0.1-0.1-0.1-0.2-0.1L354.5,116.5z"/>
				<polygon class="st21" points="351,116.4 351.1,116.4 351,116.2 				"/>
				<path class="st21" d="M348.2,116.8c0.1,0,0.2-0.1,0.4-0.1C348.3,116.8,348.2,116.6,348.2,116.8z"/>
			</g>
			<g>
				<g>
					<polygon class="st21" points="372.7,94.4 371.1,95.7 372.3,97.4 370.1,96.4 368.5,97.6 368.8,95.8 366.7,94.9 369,94.7 
						369.3,92.9 370.4,94.6 					"/>
				</g>
				<g>
					<polygon class="st21" points="362.3,94.9 361.9,96.6 363.7,97.3 361.6,97.6 361.2,99.2 360.3,97.7 358.2,98 359.8,96.8 
						358.9,95.4 360.7,96.1 					"/>
				</g>
				<g>
					<polygon class="st21" points="354,98.4 353.5,99.7 355.1,100.1 353.3,100.5 352.9,101.8 352.2,100.7 350.3,101.2 351.7,100.1 
						351,99.1 352.6,99.5 					"/>
				</g>
				<g>
					<polygon class="st21" points="346.4,102.7 346.3,103.9 347.6,104 346.2,104.6 346,105.7 345.3,105 343.8,105.6 344.8,104.5 
						344.1,103.7 345.4,103.8 					"/>
				</g>
				<g>
					<polygon class="st21" points="340.6,107.7 340.6,108.8 341.9,108.5 340.6,109.5 340.7,110.5 339.8,110 338.6,110.9 
						339.3,109.7 338.5,109.1 339.8,108.9 					"/>
				</g>
				<g>
					<polygon class="st21" points="335.6,113.3 336.1,114 337.2,113.3 336.4,114.4 337,115 336,115 335.2,116.1 335.4,115 
						334.4,115 335.5,114.4 					"/>
				</g>
				<g>
					<polygon class="st21" points="332.7,119.1 333.4,119.5 334,118.7 333.8,119.7 334.6,120 333.7,120.3 333.5,121.4 333.2,120.5 
						332.3,120.8 333,120 					"/>
				</g>
				<g>
					<polygon class="st21" points="383.4,96.4 381.1,96.8 381.2,99.2 379.6,97.1 377.2,97.5 378.6,95.8 377,93.7 379.5,94.8 
						380.8,93.1 381,95.4 					"/>
				</g>
			</g>
		</g>
		<g>
			<path class="st22" d="M415.8,91.6h-3.9c-1.2,0-1.8-0.4-1.8-1.5V83c0-1.2,0.7-1.5,1.8-1.5h3.9c0.2,0,0.3,0.1,0.3,0.2v0.1
				c0,0.1-0.1,0.2-0.3,0.2h-3.9c-0.7,0-1.2,0.1-1.2,1v3h5.1c0.2,0,0.3,0.1,0.3,0.2v0.1c0,0.1-0.1,0.2-0.3,0.2h-5.1v3.5
				c0,0.8,0.4,1,1.2,1h3.9c0.2,0,0.3,0.1,0.3,0.2v0.1C416,91.5,415.9,91.6,415.8,91.6z"/>
			<path class="st22" d="M423.5,91.6h-0.1c-0.2,0-0.3-0.1-0.3-0.3v-0.2c-0.8,0.3-1.7,0.6-2.4,0.6c-1.5,0-2.7-0.7-2.7-2.6v-4.5
				c0-0.1,0.1-0.3,0.3-0.3h0.1c0.2,0,0.3,0.1,0.3,0.3v4.5c0,1.5,0.9,2.1,2,2.1c0,0,0,0,0,0c0.8,0,1.6-0.2,2.4-0.6v-6.1
				c0-0.1,0.1-0.3,0.3-0.3h0.1c0.2,0,0.3,0.1,0.3,0.3v6.8C423.7,91.5,423.6,91.6,423.5,91.6z"/>
			<path class="st22" d="M428.7,84.7c-0.6,0-1.2,0.1-2.1,0.6v6c0,0.1-0.1,0.3-0.3,0.3h-0.1c-0.2,0-0.3-0.1-0.3-0.3v-6.8
				c0-0.2,0.1-0.3,0.3-0.3h0.1c0.2,0,0.3,0.1,0.3,0.3v0.3c0.8-0.5,1.4-0.6,2.1-0.6c0.2,0,0.4,0,0.4,0.2v0.1
				C429.1,84.7,428.9,84.7,428.7,84.7z"/>
			<path class="st22" d="M433.1,91.7c-2.1,0-3.1-1.2-3.1-3.3v-1c0-2.1,1-3.3,3.1-3.3c2.1,0,3.1,1.2,3.1,3.3v1
				C436.2,90.5,435.2,91.7,433.1,91.7z M435.6,87.5c0-1.7-0.7-2.7-2.5-2.7c-1.8,0-2.5,1.1-2.5,2.7v1c0,1.7,0.7,2.7,2.5,2.7
				c1.8,0,2.5-1.1,2.5-2.7V87.5z"/>
			<path class="st22" d="M440.9,91.7c-0.6,0-1.5-0.1-2.1-0.2V94c0,0.1-0.1,0.3-0.3,0.3h-0.2c-0.2,0-0.3-0.1-0.3-0.3v-9.3
				c0-0.2,0-0.2,0.2-0.3c0.7-0.1,1.7-0.3,2.6-0.3c2.1,0,3,1.4,3,3.3v0.9C443.9,90.6,442.9,91.7,440.9,91.7z M443.2,87.5
				c0-1.8-0.6-2.8-2.3-2.8c-0.7,0-1.6,0.1-2.1,0.2V91c0.6,0.1,1.5,0.2,2.1,0.2c1.7,0,2.3-0.9,2.3-2.7V87.5z"/>
			<path class="st22" d="M451.4,88.1h-5.1v0.3c0,2.3,1.2,2.8,2.8,2.8c0.7,0,1.5-0.1,2.3-0.2c0,0,0.1,0,0.1,0c0.1,0,0.2,0.1,0.2,0.2
				v0.1c0,0.2-0.1,0.2-0.3,0.3c-0.7,0.1-1.6,0.2-2.3,0.2c-1.9,0-3.4-0.7-3.4-3.3v-0.9c0-1.9,1.1-3.3,3.1-3.3c2.1,0,3,1.3,3,3.3v0.4
				C451.7,88,451.5,88.1,451.4,88.1z M451,87.4c0-1.7-0.6-2.7-2.4-2.7c-1.7,0-2.4,1.1-2.4,2.7v0.1L451,87.4L451,87.4z"/>
			<path class="st22" d="M458.6,91.6L458.6,91.6c-0.2,0-0.4-0.1-0.4-0.3V91c-0.7,0.4-1.6,0.7-2.6,0.7c-1.1,0-2.3-0.5-2.3-2.2v-0.2
				c0-1.4,1-2.1,3.8-2.1h1.2v-0.5c0-1.4-0.4-2-1.9-2c-1,0-1.4,0.1-2.2,0.1c0,0,0,0-0.1,0c-0.1,0-0.3-0.1-0.3-0.2v-0.1
				c0-0.2,0.1-0.2,0.3-0.2c0.6-0.1,1.2-0.1,2.2-0.1c2.1,0,2.6,1,2.6,2.5v4.6C458.9,91.5,458.7,91.6,458.6,91.6z M458.2,87.7H457
				c-2.3,0-3.1,0.4-3.1,1.6v0.2c0,1.3,0.7,1.7,1.7,1.7c0.9,0,1.6-0.2,2.6-0.7V87.7z"/>
			<path class="st22" d="M466.5,91.6h-0.1c-0.2,0-0.3-0.1-0.3-0.3v-4.5c0-1.6-0.9-2.1-2.1-2.1c-0.8,0-1.6,0.2-2.4,0.6v6.1
				c0,0.1-0.1,0.3-0.3,0.3h-0.1c-0.2,0-0.3-0.1-0.3-0.3v-6.8c0-0.2,0.1-0.3,0.3-0.3h0.1c0.2,0,0.3,0.1,0.3,0.3v0.2
				c0.8-0.3,1.7-0.6,2.4-0.6c1.5,0,2.7,0.7,2.7,2.6v4.5C466.8,91.5,466.7,91.6,466.5,91.6z"/>
			<path class="st22" d="M416.7,106c-0.8,0.1-1.7,0.2-3.3,0.2c-1.6,0-4.1-1-4.1-4.2v-2c0-3.2,2.3-4.2,4.1-4.2c1.5,0,2.8,0.2,3.3,0.2
				c0.2,0,0.3,0.1,0.3,0.3v0.9c0,0.2-0.1,0.3-0.3,0.3c0,0,0,0,0,0c-0.7-0.1-1.7-0.1-3.2-0.1c-1,0-2,0.6-2,2.6v2c0,1.9,1,2.6,1.9,2.6
				c0.6,0,1,0,1.5,0V101c0-0.2,0.1-0.3,0.3-0.3h1.5c0.2,0,0.3,0.1,0.3,0.3v4.6C417,105.8,416.9,105.9,416.7,106z"/>
			<path class="st22" d="M419.8,106.1h-0.2c-0.2,0-0.3-0.1-0.3-0.3v-9.7c0-0.1,0.1-0.3,0.3-0.3h0.2c0.2,0,0.3,0.1,0.3,0.3v9.7
				C420,106,419.9,106.1,419.8,106.1z"/>
			<path class="st22" d="M425.2,106.2c-2.1,0-3.1-1.2-3.1-3.3v-1c0-2.1,1-3.3,3.1-3.3c2.1,0,3.1,1.2,3.1,3.3v1
				C428.3,105,427.3,106.2,425.2,106.2z M427.7,101.9c0-1.7-0.7-2.7-2.5-2.7c-1.8,0-2.5,1.1-2.5,2.7v1c0,1.7,0.7,2.7,2.5,2.7
				c1.8,0,2.5-1.1,2.5-2.7V101.9z"/>
			<path class="st22" d="M433,106.2c-0.9,0-1.9-0.1-2.6-0.3c-0.2,0-0.2-0.1-0.2-0.3v-9.5c0-0.1,0.1-0.3,0.3-0.3h0.2
				c0.2,0,0.3,0.1,0.3,0.3v2.7c0.6-0.1,1.5-0.2,2.1-0.2c2,0,3,1.1,3,3.3v0.9C436,104.8,435.1,106.2,433,106.2z M435.3,101.9
				c0-1.8-0.6-2.7-2.3-2.7c-0.6,0-1.5,0.1-2.1,0.2v6.1c0.5,0.1,1.4,0.2,2.1,0.2c1.7,0,2.3-1,2.3-2.8V101.9z"/>
			<path class="st22" d="M442.9,106.1L442.9,106.1c-0.2,0-0.4-0.1-0.4-0.3v-0.3c-0.7,0.4-1.6,0.7-2.6,0.7c-1.1,0-2.3-0.5-2.3-2.2
				v-0.2c0-1.4,1-2.1,3.8-2.1h1.2v-0.5c0-1.4-0.4-2-1.9-2c-1,0-1.4,0.1-2.2,0.1c0,0,0,0-0.1,0c-0.1,0-0.3-0.1-0.3-0.2V99
				c0-0.2,0.1-0.2,0.3-0.2c0.6-0.1,1.2-0.1,2.2-0.1c2.1,0,2.6,1,2.6,2.5v4.6C443.2,106,443.1,106.1,442.9,106.1z M442.5,102.2h-1.2
				c-2.3,0-3.1,0.4-3.1,1.6v0.2c0,1.3,0.7,1.7,1.7,1.7c0.9,0,1.6-0.2,2.6-0.7V102.2z"/>
			<path class="st22" d="M445.9,106.1h-0.2c-0.2,0-0.3-0.1-0.3-0.3v-9.7c0-0.1,0.1-0.3,0.3-0.3h0.2c0.2,0,0.3,0.1,0.3,0.3v9.7
				C446.1,106,446,106.1,445.9,106.1z"/>
			<path class="st22" d="M458.6,106.2L458.6,106.2c-0.2,0-0.4,0-0.5-0.1c-0.1-0.1-0.2-0.2-0.3-0.3l-5.1-9.2c0-0.1-0.1-0.1-0.1-0.1
				c0,0-0.1,0-0.1,0.1v9.3c0,0.1-0.1,0.3-0.3,0.3h-0.2c-0.2,0-0.3-0.1-0.3-0.3v-9.3c0-0.4,0.3-0.7,0.7-0.7c0.4,0,0.6,0.2,0.7,0.4
				l5.1,9.2c0,0.1,0.1,0.1,0.1,0.1s0.1-0.1,0.1-0.1v-9.3c0-0.1,0.1-0.3,0.2-0.3h0.2c0.2,0,0.3,0.1,0.3,0.3v9.3
				C459.3,105.9,459,106.2,458.6,106.2z"/>
			<path class="st22" d="M466.6,106.1L466.6,106.1c-0.2,0-0.4-0.1-0.4-0.3v-0.3c-0.7,0.4-1.6,0.7-2.6,0.7c-1.1,0-2.3-0.5-2.3-2.2
				v-0.2c0-1.4,1-2.1,3.8-2.1h1.2v-0.5c0-1.4-0.4-2-1.9-2c-1,0-1.4,0.1-2.2,0.1c0,0,0,0-0.1,0c-0.1,0-0.3-0.1-0.3-0.2V99
				c0-0.2,0.1-0.2,0.3-0.2c0.6-0.1,1.2-0.1,2.2-0.1c2.1,0,2.6,1,2.6,2.5v4.6C466.9,106,466.8,106.1,466.6,106.1z M466.2,102.2h-1.2
				c-2.3,0-3.1,0.4-3.1,1.6v0.2c0,1.3,0.7,1.7,1.7,1.7c0.9,0,1.6-0.2,2.6-0.7V102.2z"/>
			<path class="st22" d="M474.4,99.1l-2,6.2c-0.2,0.7-0.6,0.9-1,0.9c-0.4,0-0.8-0.1-1.1-0.9l-2-6.2c0,0,0-0.1,0-0.1
				c0-0.1,0.1-0.2,0.2-0.2h0.2c0.1,0,0.2,0.1,0.3,0.2l1.9,6.2c0.1,0.4,0.3,0.5,0.5,0.5s0.3-0.1,0.4-0.5l1.9-6.2
				c0.1-0.2,0.2-0.2,0.3-0.2h0.2c0.2,0,0.2,0.1,0.2,0.2C474.4,99,474.4,99,474.4,99.1z"/>
			<path class="st22" d="M476.6,97.4L476.6,97.4c-0.2,0-0.4-0.1-0.4-0.3v-1c0-0.1,0.1-0.3,0.3-0.3h0.1c0.2,0,0.3,0.1,0.3,0.3v1
				C476.9,97.3,476.8,97.4,476.6,97.4z M476.6,106.1L476.6,106.1c-0.2,0-0.4-0.1-0.4-0.3V99c0-0.1,0.1-0.3,0.3-0.3h0.1
				c0.2,0,0.3,0.1,0.3,0.3v6.8C476.9,106,476.8,106.1,476.6,106.1z"/>
			<path class="st22" d="M485.3,99.3h-0.8c0.3,0.2,0.8,0.7,0.8,1.7v0.1c0,1.3-0.8,2.2-3.1,2.2c-0.8,0-1.3-0.1-1.9-0.3
				c-0.3,0.1-0.5,0.3-0.5,0.6c0,0.2,0.1,0.3,0.4,0.4l2.7,0.6c1.6,0.4,2.4,0.7,2.4,1.8v0.1c0,1.2-0.8,2.1-3.2,2.1
				c-2.3,0-3.2-0.9-3.2-2.1v-0.1c0-1,0.6-1.7,1.1-2l-0.1,0c-0.6-0.2-0.8-0.5-0.8-0.9c0-0.3,0.2-0.7,0.6-0.9
				c-0.5-0.4-0.8-0.9-0.8-1.6V101c0-1.1,0.5-2.3,3.1-2.3h3.1c0.2,0,0.3,0.1,0.3,0.2v0.2C485.6,99.2,485.4,99.3,485.3,99.3z
				 M484.8,106.5c0-0.8-0.3-1-1.9-1.3l-2.1-0.5c-0.7,0.4-1.1,0.9-1.1,1.8v0.1c0,1,0.6,1.6,2.6,1.6c2,0,2.6-0.6,2.6-1.6V106.5z
				 M484.7,101c0-1-0.5-1.8-2.5-1.8c-2.1,0-2.5,0.9-2.5,1.8v0.1c0,0.7,0.4,1.7,2.5,1.7c2,0,2.5-0.8,2.5-1.7V101z"/>
			<path class="st22" d="M492.3,106.1L492.3,106.1c-0.2,0-0.4-0.1-0.4-0.3v-0.3c-0.7,0.4-1.6,0.7-2.6,0.7c-1.1,0-2.3-0.5-2.3-2.2
				v-0.2c0-1.4,1-2.1,3.8-2.1h1.2v-0.5c0-1.4-0.4-2-1.9-2c-1,0-1.4,0.1-2.2,0.1c0,0,0,0-0.1,0c-0.1,0-0.3-0.1-0.3-0.2V99
				c0-0.2,0.1-0.2,0.3-0.2c0.6-0.1,1.2-0.1,2.2-0.1c2.1,0,2.6,1,2.6,2.5v4.6C492.6,106,492.5,106.1,492.3,106.1z M492,102.2h-1.2
				c-2.3,0-3.1,0.4-3.1,1.6v0.2c0,1.3,0.7,1.7,1.7,1.7c0.9,0,1.6-0.2,2.6-0.7V102.2z"/>
			<path class="st22" d="M498.3,106.1c-0.2,0-0.5,0-0.8,0c-1.1,0-1.7-0.3-1.7-1.5v-5.4h-1.5c-0.2,0-0.3-0.1-0.3-0.2v-0.1
				c0-0.1,0.1-0.2,0.3-0.2h1.5v-1.4c0-0.1,0.1-0.3,0.3-0.3h0.2c0.2,0,0.2,0.1,0.2,0.3v1.4h1.8c0.2,0,0.3,0.1,0.3,0.2v0.1
				c0,0.1-0.1,0.2-0.3,0.2h-1.8v5.4c0,0.8,0.4,0.9,1,0.9h0.7c0.2,0,0.3,0.1,0.3,0.2v0.1C498.6,106,498.5,106.1,498.3,106.1z"/>
			<path class="st22" d="M500.8,97.4L500.8,97.4c-0.2,0-0.4-0.1-0.4-0.3v-1c0-0.1,0.1-0.3,0.3-0.3h0.1c0.2,0,0.3,0.1,0.3,0.3v1
				C501.1,97.3,500.9,97.4,500.8,97.4z M500.8,106.1L500.8,106.1c-0.2,0-0.4-0.1-0.4-0.3V99c0-0.1,0.1-0.3,0.3-0.3h0.1
				c0.2,0,0.3,0.1,0.3,0.3v6.8C501.1,106,500.9,106.1,500.8,106.1z"/>
			<path class="st22" d="M506.2,106.2c-2.1,0-3.1-1.2-3.1-3.3v-1c0-2.1,1-3.3,3.1-3.3c2.1,0,3.1,1.2,3.1,3.3v1
				C509.4,105,508.3,106.2,506.2,106.2z M508.7,101.9c0-1.7-0.7-2.7-2.5-2.7s-2.5,1.1-2.5,2.7v1c0,1.7,0.7,2.7,2.5,2.7
				s2.5-1.1,2.5-2.7V101.9z"/>
			<path class="st22" d="M516.8,106.1h-0.1c-0.2,0-0.3-0.1-0.3-0.3v-4.5c0-1.6-0.9-2.1-2.1-2.1c-0.8,0-1.6,0.2-2.4,0.6v6.1
				c0,0.1-0.1,0.3-0.3,0.3h-0.1c-0.2,0-0.3-0.1-0.3-0.3V99c0-0.2,0.1-0.3,0.3-0.3h0.1c0.2,0,0.3,0.1,0.3,0.3v0.2
				c0.8-0.3,1.7-0.6,2.4-0.6c1.5,0,2.7,0.7,2.7,2.6v4.5C517.1,106,516.9,106.1,516.8,106.1z"/>
			<path class="st22" d="M413.1,120.7c-1.1,0-2-0.1-2.7-0.2c-0.2,0-0.3-0.1-0.3-0.3v-1c0-0.2,0.1-0.3,0.3-0.3c0,0,0,0,0,0
				c0.6,0.1,2.1,0.1,2.7,0.1c1.4,0,1.8-0.4,1.8-1.2c0-0.5-0.3-0.8-1.3-1.3l-2-1.1c-1.4-0.8-1.8-1.5-1.8-2.5c0-1.5,1-2.6,3.8-2.6
				c1,0,2.4,0.1,2.9,0.2c0.2,0,0.3,0.1,0.3,0.3v1c0,0.1-0.1,0.2-0.3,0.2c0,0,0,0,0,0c-1-0.1-2-0.1-3-0.1c-1.1,0-1.6,0.4-1.6,1
				c0,0.5,0.3,0.7,1.2,1.2l1.8,0.9c1.7,0.8,2.1,1.7,2.1,2.8C417.1,119.2,416.1,120.7,413.1,120.7z"/>
			<path class="st22" d="M423.8,120.5L423.8,120.5c-0.2,0-0.4-0.1-0.4-0.3v-0.3c-0.7,0.4-1.6,0.7-2.6,0.7c-1.1,0-2.3-0.5-2.3-2.2
				v-0.2c0-1.4,1-2.1,3.8-2.1h1.2v-0.5c0-1.4-0.4-2-1.9-2c-1,0-1.4,0.1-2.2,0.1c0,0,0,0-0.1,0c-0.1,0-0.3-0.1-0.3-0.2v-0.1
				c0-0.2,0.1-0.2,0.4-0.2c0.6-0.1,1.2-0.1,2.2-0.1c2.1,0,2.6,1,2.6,2.5v4.6C424.1,120.4,424,120.5,423.8,120.5z M423.4,116.7h-1.2
				c-2.3,0-3.1,0.4-3.1,1.6v0.2c0,1.3,0.7,1.7,1.7,1.7c0.9,0,1.6-0.2,2.6-0.7V116.7z"/>
			<path class="st22" d="M429.8,120.6c-0.2,0-0.5,0-0.8,0c-1.1,0-1.7-0.3-1.7-1.5v-5.4h-1.5c-0.2,0-0.3-0.1-0.3-0.2v-0.1
				c0-0.1,0.1-0.2,0.3-0.2h1.5v-1.4c0-0.1,0.1-0.3,0.3-0.3h0.2c0.2,0,0.2,0.1,0.2,0.3v1.4h1.8c0.2,0,0.3,0.1,0.3,0.2v0.1
				c0,0.1-0.1,0.2-0.3,0.2h-1.8v5.4c0,0.8,0.4,0.9,1,0.9h0.7c0.2,0,0.3,0.1,0.3,0.2v0.1C430,120.5,430,120.6,429.8,120.6z"/>
			<path class="st22" d="M436.9,117h-5.1v0.3c0,2.3,1.2,2.8,2.8,2.8c0.7,0,1.5-0.1,2.3-0.2c0,0,0.1,0,0.1,0c0.1,0,0.2,0.1,0.2,0.2
				v0.1c0,0.2-0.1,0.2-0.3,0.3c-0.7,0.1-1.6,0.2-2.3,0.2c-1.9,0-3.4-0.7-3.4-3.3v-0.9c0-1.9,1.1-3.3,3.1-3.3c2.1,0,3,1.3,3,3.3v0.4
				C437.2,116.9,437.1,117,436.9,117z M436.5,116.4c0-1.7-0.6-2.7-2.4-2.7c-1.7,0-2.4,1.1-2.4,2.7v0.1L436.5,116.4L436.5,116.4z"/>
			<path class="st22" d="M439.7,120.5h-0.2c-0.2,0-0.3-0.1-0.3-0.3v-9.7c0-0.1,0.1-0.3,0.3-0.3h0.2c0.2,0,0.3,0.1,0.3,0.3v9.7
				C439.9,120.4,439.8,120.5,439.7,120.5z"/>
			<path class="st22" d="M442.8,120.5h-0.2c-0.2,0-0.3-0.1-0.3-0.3v-9.7c0-0.1,0.1-0.3,0.3-0.3h0.2c0.2,0,0.3,0.1,0.3,0.3v9.7
				C443,120.4,442.9,120.5,442.8,120.5z"/>
			<path class="st22" d="M445.8,111.8L445.8,111.8c-0.2,0-0.4-0.1-0.4-0.3v-1c0-0.1,0.1-0.3,0.3-0.3h0.1c0.2,0,0.3,0.1,0.3,0.3v1
				C446.1,111.7,446,111.8,445.8,111.8z M445.8,120.5L445.8,120.5c-0.2,0-0.4-0.1-0.4-0.3v-6.8c0-0.1,0.1-0.3,0.3-0.3h0.1
				c0.2,0,0.3,0.1,0.3,0.3v6.8C446.1,120.4,446,120.5,445.8,120.5z"/>
			<path class="st22" d="M452.3,120.6c-0.2,0-0.5,0-0.8,0c-1.1,0-1.7-0.3-1.7-1.5v-5.4h-1.5c-0.2,0-0.3-0.1-0.3-0.2v-0.1
				c0-0.1,0.1-0.2,0.3-0.2h1.5v-1.4c0-0.1,0.1-0.3,0.3-0.3h0.2c0.2,0,0.2,0.1,0.2,0.3v1.4h1.8c0.2,0,0.3,0.1,0.3,0.2v0.1
				c0,0.1-0.1,0.2-0.3,0.2h-1.8v5.4c0,0.8,0.4,0.9,1,0.9h0.7c0.2,0,0.3,0.1,0.3,0.2v0.1C452.5,120.5,452.5,120.6,452.3,120.6z"/>
			<path class="st22" d="M459.4,117h-5.1v0.3c0,2.3,1.2,2.8,2.8,2.8c0.7,0,1.5-0.1,2.3-0.2c0,0,0.1,0,0.1,0c0.1,0,0.2,0.1,0.2,0.2
				v0.1c0,0.2-0.1,0.2-0.3,0.3c-0.7,0.1-1.6,0.2-2.3,0.2c-1.9,0-3.4-0.7-3.4-3.3v-0.9c0-1.9,1.1-3.3,3.1-3.3c2.1,0,3,1.3,3,3.3v0.4
				C459.7,116.9,459.5,117,459.4,117z M459,116.4c0-1.7-0.6-2.7-2.4-2.7c-1.7,0-2.4,1.1-2.4,2.7v0.1L459,116.4L459,116.4z"/>
			<path class="st22" d="M467.5,120.6c-1,0-1.7-0.1-2.4-0.2c-0.1,0-0.3-0.1-0.3-0.2v-0.2c0-0.1,0.1-0.2,0.3-0.2c0,0,0,0,0.1,0
				c0.8,0.1,1.4,0.2,2.3,0.2c2.3,0,2.8-0.9,2.8-2c0-1-0.7-1.4-2.3-2.3l-1-0.5c-1.4-0.8-2.4-1.4-2.4-2.6c0-1.8,1.8-2.2,3.6-2.2
				c0.8,0,1.6,0.1,2.3,0.1c0.2,0,0.3,0.1,0.3,0.2v0.2c0,0.1-0.1,0.2-0.3,0.2c-0.3,0-1.5-0.1-2.3-0.1c-2,0-2.9,0.5-2.9,1.7
				c0,0.8,0.7,1.4,2.1,2.1l1,0.5c1.7,0.9,2.7,1.6,2.7,2.8C471,119.3,470.4,120.6,467.5,120.6z"/>
			<path class="st22" d="M478.3,113.5l-2.5,7.8c-0.5,1.5-1,1.9-2.5,1.9c-0.4,0-0.7,0-0.9-0.1c-0.2,0-0.3-0.1-0.3-0.2v-0.2
				c0-0.1,0.1-0.2,0.2-0.2c0,0,0.1,0,0.1,0c0.2,0,0.7,0.1,1,0.1c1.1,0,1.4-0.3,1.8-1.5l0.2-0.6h-0.2c-0.5,0-0.7-0.1-0.9-0.8
				l-2.1-6.3c0,0,0-0.1,0-0.1c0-0.1,0.1-0.2,0.3-0.2h0.1c0.1,0,0.2,0.1,0.2,0.2l2.1,6.3c0.1,0.3,0.2,0.3,0.3,0.3h0.4l2.1-6.6
				c0-0.1,0.2-0.2,0.3-0.2h0.1c0.2,0,0.2,0.1,0.2,0.2C478.4,113.4,478.4,113.5,478.3,113.5z"/>
			<path class="st22" d="M482.2,120.6c-0.7,0-1.7-0.1-2.2-0.2c-0.2,0-0.3-0.1-0.3-0.2v-0.2c0-0.1,0.1-0.2,0.2-0.2c0,0,0.1,0,0.1,0
				c0.7,0.1,1.6,0.2,2.2,0.2c1.1,0,1.9-0.3,1.9-1.4c0-0.6-0.3-0.9-1.6-1.5l-1-0.5c-1.1-0.6-1.8-1-1.8-1.9c0-1.3,1.1-1.7,2.3-1.7
				c1.1,0,1.7,0.1,2.2,0.1c0.2,0,0.3,0.1,0.3,0.2v0.1c0,0.2-0.1,0.2-0.3,0.2c0,0,0,0,0,0c-0.4,0-1.3-0.2-2.1-0.2
				c-1,0-1.7,0.2-1.7,1.2c0,0.6,0.5,1,1.5,1.4l1,0.5c1.3,0.6,1.9,1.1,1.9,2C484.9,120.2,483.7,120.6,482.2,120.6z"/>
			<path class="st22" d="M490.3,120.6c-0.2,0-0.5,0-0.8,0c-1.1,0-1.7-0.3-1.7-1.5v-5.4h-1.5c-0.2,0-0.3-0.1-0.3-0.2v-0.1
				c0-0.1,0.1-0.2,0.3-0.2h1.5v-1.4c0-0.1,0.1-0.3,0.3-0.3h0.2c0.2,0,0.2,0.1,0.2,0.3v1.4h1.8c0.2,0,0.3,0.1,0.3,0.2v0.1
				c0,0.1-0.1,0.2-0.3,0.2h-1.8v5.4c0,0.8,0.4,0.9,1,0.9h0.7c0.2,0,0.3,0.1,0.3,0.2v0.1C490.6,120.5,490.5,120.6,490.3,120.6z"/>
			<path class="st22" d="M497.4,117h-5.1v0.3c0,2.3,1.2,2.8,2.8,2.8c0.7,0,1.5-0.1,2.3-0.2c0,0,0.1,0,0.1,0c0.1,0,0.2,0.1,0.2,0.2
				v0.1c0,0.2-0.1,0.2-0.3,0.3c-0.7,0.1-1.6,0.2-2.3,0.2c-1.9,0-3.4-0.7-3.4-3.3v-0.9c0-1.9,1.1-3.3,3.1-3.3c2.1,0,3,1.3,3,3.3v0.4
				C497.7,116.9,497.6,117,497.4,117z M497.1,116.4c0-1.7-0.6-2.7-2.4-2.7c-1.7,0-2.4,1.1-2.4,2.7v0.1L497.1,116.4L497.1,116.4z"/>
			<path class="st22" d="M508.6,120.5h-0.2c-0.2,0-0.3-0.1-0.3-0.3v-4.9c0-1.3-0.7-1.7-1.8-1.7c-0.7,0-1.4,0.2-2.1,0.5
				c0.1,0.3,0.2,0.7,0.2,1.2v5c0,0.1-0.1,0.3-0.2,0.3h-0.2c-0.2,0-0.2-0.1-0.2-0.3v-5c0-1.3-0.6-1.7-1.4-1.7c-0.7,0-1.5,0.3-2.2,0.6
				v6.1c0,0.1-0.1,0.3-0.2,0.3h-0.2c-0.2,0-0.2-0.1-0.2-0.3v-6.8c0-0.2,0.1-0.3,0.3-0.3h0.1c0.2,0,0.3,0.1,0.3,0.3v0.2
				c0.6-0.3,1.5-0.6,2.3-0.6c0.5,0,1.1,0.2,1.4,0.6c0.8-0.3,1.6-0.6,2.4-0.6c1.3,0,2.3,0.6,2.3,2.3v4.9
				C508.8,120.4,508.8,120.5,508.6,120.5z"/>
			<path class="st22" d="M513.2,120.6c-0.7,0-1.7-0.1-2.2-0.2c-0.2,0-0.3-0.1-0.3-0.2v-0.2c0-0.1,0.1-0.2,0.2-0.2c0,0,0.1,0,0.1,0
				c0.7,0.1,1.6,0.2,2.2,0.2c1.1,0,1.9-0.3,1.9-1.4c0-0.6-0.3-0.9-1.6-1.5l-1-0.5c-1.1-0.6-1.8-1-1.8-1.9c0-1.3,1.1-1.7,2.3-1.7
				c1.1,0,1.7,0.1,2.2,0.1c0.2,0,0.3,0.1,0.3,0.2v0.1c0,0.2-0.1,0.2-0.3,0.2c0,0,0,0,0,0c-0.4,0-1.3-0.2-2.1-0.2
				c-1,0-1.7,0.2-1.7,1.2c0,0.6,0.5,1,1.5,1.4l1,0.5c1.3,0.6,1.9,1.1,1.9,2C515.8,120.2,514.6,120.6,513.2,120.6z"/>
			<path class="st22" d="M418,135h-1.6c-0.1,0-0.3-0.1-0.3-0.2l-0.7-2.6h-3.5l-0.7,2.6c0,0.1-0.2,0.2-0.3,0.2h-1.6
				c-0.2,0-0.3-0.1-0.3-0.2c0,0,0,0,0-0.1l2.5-8.6c0.4-1.3,1.5-1.4,2.1-1.4c0.7,0,1.7,0.1,2.1,1.4l2.5,8.6c0,0,0,0.1,0,0.1
				C418.3,134.9,418.2,135,418,135z M413.9,126.5c0-0.2-0.1-0.2-0.2-0.2c-0.2,0-0.2,0.1-0.2,0.2l-1.1,4.1h2.7L413.9,126.5z"/>
			<path class="st22" d="M425.7,128.2H425c0.3,0.2,0.8,0.7,0.8,1.7v0.1c0,1.3-0.8,2.2-3.1,2.2c-0.8,0-1.3-0.1-1.9-0.3
				c-0.3,0.1-0.5,0.3-0.5,0.6c0,0.2,0.1,0.3,0.4,0.4l2.7,0.6c1.6,0.4,2.4,0.7,2.4,1.8v0.1c0,1.2-0.8,2.1-3.2,2.1
				c-2.3,0-3.2-0.9-3.2-2.1v-0.1c0-1,0.6-1.7,1.1-2l-0.1,0c-0.6-0.2-0.8-0.5-0.8-0.9c0-0.3,0.2-0.7,0.6-0.9
				c-0.5-0.4-0.8-0.9-0.8-1.6v-0.1c0-1.1,0.5-2.3,3.1-2.3h3.1c0.2,0,0.3,0.1,0.3,0.2v0.2C426,128.2,425.9,128.2,425.7,128.2z
				 M425.2,135.5c0-0.8-0.3-1-1.9-1.3l-2.1-0.5c-0.7,0.4-1.1,0.9-1.1,1.8v0.1c0,1,0.6,1.6,2.6,1.6c2,0,2.6-0.6,2.6-1.6V135.5z
				 M425.1,129.9c0-1-0.5-1.8-2.5-1.8c-2.1,0-2.5,0.9-2.5,1.8v0.1c0,0.7,0.4,1.7,2.5,1.7c2,0,2.5-0.8,2.5-1.7V129.9z"/>
			<path class="st22" d="M433.4,131.5h-5.1v0.3c0,2.3,1.2,2.8,2.8,2.8c0.7,0,1.5-0.1,2.3-0.2c0,0,0.1,0,0.1,0c0.1,0,0.2,0.1,0.2,0.2
				v0.1c0,0.2-0.1,0.2-0.3,0.3c-0.7,0.1-1.6,0.2-2.3,0.2c-1.9,0-3.4-0.7-3.4-3.3v-0.9c0-1.9,1.1-3.3,3.1-3.3c2.1,0,3,1.3,3,3.3v0.4
				C433.7,131.4,433.5,131.5,433.4,131.5z M433,130.8c0-1.7-0.6-2.7-2.4-2.7c-1.7,0-2.4,1.1-2.4,2.7v0.1L433,130.8L433,130.8z"/>
			<path class="st22" d="M441.1,135H441c-0.2,0-0.3-0.1-0.3-0.3v-4.5c0-1.6-0.9-2.1-2.1-2.1c-0.8,0-1.6,0.2-2.4,0.6v6.1
				c0,0.1-0.1,0.3-0.3,0.3h-0.1c-0.2,0-0.3-0.1-0.3-0.3v-6.8c0-0.2,0.1-0.3,0.3-0.3h0.1c0.2,0,0.3,0.1,0.3,0.3v0.2
				c0.8-0.3,1.7-0.6,2.4-0.6c1.5,0,2.7,0.7,2.7,2.6v4.5C441.4,134.9,441.2,135,441.1,135z"/>
			<path class="st22" d="M448.1,135c-0.6,0.1-1.4,0.1-1.8,0.1c-2.2,0-3-1.5-3-3.3v-0.9c0-1.8,0.8-3.3,3-3.3c0.5,0,1.2,0.1,1.8,0.1
				c0.2,0,0.3,0.1,0.3,0.2v0.1c0,0.1-0.1,0.2-0.2,0.2c0,0,0,0-0.1,0c-0.7-0.1-1.3-0.1-1.8-0.1c-1.7,0-2.3,1.1-2.3,2.7v0.9
				c0,1.7,0.6,2.8,2.3,2.8c0.5,0,1.1,0,1.8-0.1c0,0,0,0,0.1,0c0.1,0,0.2,0.1,0.2,0.2v0.1C448.4,134.9,448.3,134.9,448.1,135z"/>
			<path class="st22" d="M455.9,128l-2.5,7.8c-0.5,1.5-1,1.9-2.5,1.9c-0.4,0-0.7,0-0.9-0.1c-0.2,0-0.3-0.1-0.3-0.2v-0.2
				c0-0.1,0.1-0.2,0.2-0.2c0,0,0.1,0,0.1,0c0.2,0,0.7,0.1,1,0.1c1.1,0,1.4-0.3,1.8-1.5l0.2-0.6h-0.2c-0.5,0-0.7-0.1-0.9-0.8
				l-2.1-6.3c0,0,0-0.1,0-0.1c0-0.1,0.1-0.2,0.3-0.2h0.1c0.1,0,0.2,0.1,0.2,0.2l2.1,6.3c0.1,0.3,0.2,0.3,0.3,0.3h0.4l2.1-6.6
				c0-0.1,0.2-0.2,0.3-0.2h0.1c0.2,0,0.2,0.1,0.2,0.2C455.9,127.9,455.9,128,455.9,128z"/>
		</g>
	</g>
</g>
</svg>
